<svg width="388" height="335" viewBox="0 0 388 335" fill="none" xmlns="http://www.w3.org/2000/svg"><path d="M285.752 167h-2.754L195 116.758v-1.572l90.542 51.694.21.12zm-81.25 0L195 161.574v1.572l6.749 3.854h2.753zm64.791-.12L195 124.463v1.573L266.749 167h2.753l-.209-.12zm-16.25 0L195 133.74v1.573L250.499 167h2.754l-.21-.12zm-32.5 0L195 152.296v1.573L217.998 167h2.754l-.209-.12zm16.249 0L195 143.018v1.573L234.249 167h2.753l-.21-.12zM299.248 0h2.754L390 50.242v1.572L299.457.12l-.209-.12zm81.25 0L390 5.426V3.854L383.251 0h-2.753zm-64.791.12L390 42.537v-1.573L318.251 0h-2.754l.21.12zm16.25 0L390 33.26v-1.573L334.501 0h-2.754l.21.12zm32.5 0L390 14.704V13.13L367.001 0h-2.754l.21.12zm-16.25 0L390 23.982v-1.573L350.751 0h-2.753l.209.12z" fill="#63D0FF"/><path d="M217.88 167h2.74L389 264.209v1.582l-170.911-98.67-.209-.121zm-15.958.121L389 275.124v-1.581L204.453 167h-2.74l.209.121zm48.5 0L389 247.125v-1.582L252.953 167h-2.74l.209.121zm-16.166 0L389 256.458v-1.581L236.786 167h-2.739l.209.121zm32.333 0L389 237.792v-1.582L269.12 167h-2.74l.209.121zm16.166 0L389 228.459v-1.582L285.286 167h-2.74l.209.121zM366.12 335h-2.74L195 237.791v-1.582l170.911 98.67.209.121zm15.958-.121L195 226.876v1.581L379.547 335h2.739l-.208-.121zm-48.5 0L195 254.875v1.582L331.047 335h2.739l-.208-.121zm16.166 0L195 245.542v1.581L347.214 335h2.739l-.209-.121zm-32.333 0L195 264.208v1.582L314.88 335h2.74l-.209-.121zm-16.166 0L195 273.541v1.582L298.714 335h2.739l-.208-.121zM285.287 335h-2.74L195 284.457v-1.582l90.078 52.004.209.121zm-80.834 0L195 329.542v1.581l6.714 3.877h2.739zm64.459-.121L195 292.209v1.581L266.381 335h2.739l-.208-.121zm-16.167 0L195 301.541v1.582L250.214 335h2.74l-.209-.121zm-32.333 0L195 320.208v1.583L217.88 335h2.74l-.208-.121zm16.166 0L195 310.875v1.581L234.047 335h2.74l-.209-.121zM388.93 293.751L195 181.79v-1.58l.07.04L389 292.209v1.582l-.07-.04zm.07 9.373v-1.582l-193.93-111.96-.07-.04v1.582l193.93 111.96.07.04zm0-18.666v-1.583L195.07 170.916l-.07-.04v1.581l193.93 111.961.07.04zm0 27.999v-1.581l-193.93-111.96-.07-.04v1.581l193.93 111.96.07.04zm0 9.334v-1.582l-193.93-111.96-.07-.04v1.582L388.93 321.75l.07.041zm0 9.333v-1.581l-193.93-111.96-.07-.041v1.582l193.93 111.96.07.04zM1 273.647a.684.684 0 00-.67.821.687.687 0 00.537.539.676.676 0 00.701-.292.69.69 0 00-.306-1.016.654.654 0 00-.262-.052zm0-9.334a.685.685 0 00-.67.821.69.69 0 00.537.54.684.684 0 00.765-.937.693.693 0 00-.37-.372.69.69 0 00-.262-.052zm0 18.667a.677.677 0 00-.631.424.691.691 0 00.498.937.684.684 0 00.765-.937.683.683 0 00-.632-.424zm0-37.334a.688.688 0 00-.133 1.361.684.684 0 00.765-.937.679.679 0 00-.37-.371.673.673 0 00-.262-.053zm0 9.334a.685.685 0 00-.67.821.678.678 0 00.932.5.684.684 0 00.422-.634.69.69 0 00-.422-.635.69.69 0 00-.262-.052zm0 65.333a.685.685 0 00-.67.821.69.69 0 00.537.54.684.684 0 00.765-.937.693.693 0 00-.37-.372.69.69 0 00-.262-.052zm0-9.333a.68.68 0 00-.631.424.69.69 0 00.148.748.68.68 0 001.051-.104A.687.687 0 001 310.98zm0-18.667a.685.685 0 00-.67.821.69.69 0 00.537.54.684.684 0 00.765-.937.693.693 0 00-.37-.372.69.69 0 00-.262-.052zm0 9.333a.685.685 0 00-.67.821.686.686 0 00.932.501.684.684 0 00.37-.897.672.672 0 00-.37-.372.673.673 0 00-.262-.053zm0-74.666a.68.68 0 00-.631.424.69.69 0 00.148.748.68.68 0 001.051-.104A.687.687 0 001 226.98zm0-37.333a.684.684 0 00-.67.821.687.687 0 00.537.539.676.676 0 00.701-.292.69.69 0 00-.306-1.016.654.654 0 00-.262-.052zm0-9.334a.685.685 0 00-.67.821.69.69 0 00.537.54.684.684 0 00.765-.937.693.693 0 00-.37-.372.69.69 0 00-.262-.052zm0-9.333a.685.685 0 00-.67.821.678.678 0 00.932.5.684.684 0 00.422-.634.69.69 0 00-.422-.635.69.69 0 00-.262-.052zm0 28a.677.677 0 00-.631.424.691.691 0 00.498.937.684.684 0 00.765-.937.683.683 0 00-.632-.424zm0 18.666a.685.685 0 00-.67.821.686.686 0 00.932.501.684.684 0 00.37-.897.672.672 0 00-.37-.372.673.673 0 00-.262-.053zm0-9.333a.685.685 0 00-.67.821.69.69 0 00.537.54.684.684 0 00.765-.937.693.693 0 00-.37-.372.69.69 0 00-.262-.052zm0 121.333a.688.688 0 00-.133 1.361.684.684 0 00.765-.937.679.679 0 00-.37-.371.673.673 0 00-.262-.053zm0-93.333a.685.685 0 00-.67.821.69.69 0 00.537.54.684.684 0 00.765-.937.693.693 0 00-.37-.372.69.69 0 00-.262-.052zm72.375-70a.685.685 0 00-.67.821.69.69 0 00.537.54.684.684 0 00.764-.937.693.693 0 00-.37-.372.69.69 0 00-.261-.052zm16.084 0a.686.686 0 00-.67.821.689.689 0 00.536.54.684.684 0 00.817-.674.684.684 0 00-.683-.687zm16.083 0a.688.688 0 00-.631.424.684.684 0 00.148.749.687.687 0 00.745.149.686.686 0 00.369-.898.68.68 0 00-.631-.424zm80.417 0a.69.69 0 00-.484 1.173.687.687 0 00.745.149.684.684 0 00.422-.635.684.684 0 00-.683-.687zm-144.75 0a.686.686 0 00-.67.821.689.689 0 00.536.54.684.684 0 00.817-.674.684.684 0 00-.683-.687zm128.666 0a.688.688 0 00-.631.424.692.692 0 00.148.749.687.687 0 00.745.149.684.684 0 00.221-1.121.679.679 0 00-.483-.201zm-144.75 0a.686.686 0 00-.67.821.689.689 0 00.537.54.684.684 0 00.817-.674.684.684 0 00-.683-.687zm96.5 0a.688.688 0 00-.631.424.692.692 0 00.148.749.687.687 0 00.745.149.684.684 0 00.221-1.121.692.692 0 00-.483-.201zm-64.333 0a.684.684 0 00-.67.821.69.69 0 00.537.54.684.684 0 00.764-.937.693.693 0 00-.37-.372.69.69 0 00-.261-.052zm80.417 0a.69.69 0 00-.484 1.173.687.687 0 00.745.149.684.684 0 00.422-.635.684.684 0 00-.683-.687zm-128.667 0a.685.685 0 00-.67.821.69.69 0 00.537.54.684.684 0 00.764-.937.693.693 0 00-.37-.372.69.69 0 00-.261-.052zm144.75 0a.688.688 0 00-.631.424.684.684 0 00.148.749.687.687 0 00.745.149.686.686 0 00.369-.898.68.68 0 00-.631-.424zm-88.458 98a.68.68 0 00-.631.424.69.69 0 00.497.937.684.684 0 00.817-.674.684.684 0 00-.683-.687zm0 56a.685.685 0 00-.67.821.689.689 0 00.536.54.684.684 0 00.617-1.159.681.681 0 00-.483-.202zm0-28a.685.685 0 00-.67.821.689.689 0 00.536.54.684.684 0 00.817-.674.684.684 0 00-.683-.687zm0 18.667a.684.684 0 00-.67.821.686.686 0 00.93.5.684.684 0 00.423-.634.69.69 0 00-.2-.486.68.68 0 00-.483-.201zm0-28a.677.677 0 00-.632.424.69.69 0 00.148.748.676.676 0 001.052-.104.69.69 0 00-.085-.867.68.68 0 00-.483-.201zm0-9.333a.676.676 0 00-.632.423.69.69 0 00.498.937.676.676 0 00.702-.292.69.69 0 00-.085-.867.68.68 0 00-.483-.201zm0 27.999a.685.685 0 00-.67.821.689.689 0 00.536.54.684.684 0 00.817-.674.688.688 0 00-.683-.687zm0-130.666a.68.68 0 00-.631.424.689.689 0 00.497.936.676.676 0 00.702-.292.687.687 0 00-.568-1.068zm8.041 154a.677.677 0 00-.631.424.691.691 0 00.498.937.684.684 0 00.764-.937.683.683 0 00-.631-.424zm-8.041-144.667a.68.68 0 00-.631.424.69.69 0 00.497.937.684.684 0 00.817-.674.684.684 0 00-.683-.687zm8.041 126a.677.677 0 00-.631.424.693.693 0 00.148.749.687.687 0 00.745.149.69.69 0 000-1.27.69.69 0 00-.262-.052zm-8.041-116.666a.676.676 0 00-.632.423.69.69 0 00.498.937.676.676 0 00.702-.292.69.69 0 00-.085-.867.68.68 0 00-.483-.201zm8.041 126a.684.684 0 00-.67.821.687.687 0 00.932.5.684.684 0 00.422-.635.684.684 0 00-.684-.686zM65.334 198.98a.677.677 0 00-.632.424.69.69 0 00.148.748.676.676 0 001.052-.104.69.69 0 00-.085-.867.68.68 0 00-.483-.201zm0 37.333a.685.685 0 00-.67.821.689.689 0 00.536.54.684.684 0 00.617-1.159.681.681 0 00-.483-.202zm0 18.667a.68.68 0 00-.631.424.689.689 0 00.497.936.676.676 0 00.702-.292.687.687 0 00-.568-1.068zm0-28a.684.684 0 00-.67.821.686.686 0 00.93.5.684.684 0 00.423-.634.69.69 0 00-.2-.486.68.68 0 00-.483-.201zm0 18.666a.685.685 0 00-.67.821.689.689 0 00.536.54.684.684 0 00.617-1.159.685.685 0 00-.483-.202zm0-28a.685.685 0 00-.67.821.689.689 0 00.536.54.684.684 0 00.817-.674.688.688 0 00-.683-.687zm0-9.333a.685.685 0 00-.67.821.689.689 0 00.536.54.684.684 0 00.817-.674.684.684 0 00-.683-.687zm-16.084-28a.68.68 0 00-.632.424.69.69 0 00.499.937.684.684 0 00.817-.674.684.684 0 00-.683-.687zm8.042 144.667a.677.677 0 00-.631.424.691.691 0 00.498.937.684.684 0 00.764-.937.682.682 0 00-.631-.424zm0-18.667a.685.685 0 00-.67.821.69.69 0 00.537.54.684.684 0 00.764-.937.694.694 0 00-.37-.372.69.69 0 00-.261-.052zm0-28a.684.684 0 00-.67.821.69.69 0 00.537.54.684.684 0 00.764-.937.693.693 0 00-.37-.372.69.69 0 00-.261-.052zm0 9.333a.688.688 0 10.262 1.322.684.684 0 00.421-.635.693.693 0 00-.2-.486.684.684 0 00-.483-.201zm0 9.334a.685.685 0 00-.67.821.678.678 0 00.932.5.684.684 0 00.37-.897.683.683 0 00-.632-.424zm0 18.667a.683.683 0 00-.67.821.687.687 0 00.537.539.676.676 0 00.701-.292.691.691 0 00-.307-1.016.654.654 0 00-.261-.052zM49.25 170.98a.68.68 0 00-.632.424.69.69 0 00.498.936.676.676 0 00.701-.292.687.687 0 00-.567-1.068zm0 37.333a.686.686 0 00-.67.821.689.689 0 00.536.54.684.684 0 00.817-.674.684.684 0 00-.683-.687zm0 9.333a.685.685 0 00-.671.821.689.689 0 00.537.54.684.684 0 00.817-.674.688.688 0 00-.683-.687zm0-27.999a.676.676 0 00-.632.423.691.691 0 00.148.749.679.679 0 001.051-.104.69.69 0 00-.084-.867.68.68 0 00-.483-.201zm0 9.333a.678.678 0 00-.632.424.69.69 0 00.148.749.678.678 0 00.745.148.684.684 0 00.422-.634.69.69 0 00-.2-.486.68.68 0 00-.483-.201zm8.04 42a.677.677 0 00-.63.424.691.691 0 00.498.937.684.684 0 00.764-.937.682.682 0 00-.631-.424zm0-46.667a.684.684 0 00-.67.821.69.69 0 00.538.54.684.684 0 00.764-.937.693.693 0 00-.37-.372.69.69 0 00-.261-.052zm0 74.667a.68.68 0 00-.631.424.691.691 0 00.149.748.68.68 0 001.051-.104.688.688 0 00-.568-1.068zm0-84a.68.68 0 00-.631.424.69.69 0 00.149.748.68.68 0 001.051-.104.688.688 0 00-.568-1.068zm0 28a.685.685 0 00-.67.821.678.678 0 00.932.5.684.684 0 00.37-.897.683.683 0 00-.631-.424zm0-37.334a.684.684 0 00-.67.821.685.685 0 00.932.501.684.684 0 00.422-.635.693.693 0 00-.2-.485.673.673 0 00-.483-.202zm0 28a.688.688 0 10.262 1.322.684.684 0 00.422-.635.693.693 0 00-.2-.486.684.684 0 00-.483-.201zm0 46.667a.684.684 0 00-.67.821.69.69 0 00.538.54.684.684 0 00.764-.937.694.694 0 00-.37-.372.69.69 0 00-.261-.052zm0 9.333a.684.684 0 00-.67.821.685.685 0 00.932.501.684.684 0 00.37-.897.673.673 0 00-.37-.372.673.673 0 00-.261-.053zm0-37.333a.685.685 0 00-.67.821.69.69 0 00.538.54.684.684 0 00.764-.937.694.694 0 00-.37-.372.69.69 0 00-.261-.052zm0 9.334a.683.683 0 00-.67.821.687.687 0 00.538.539.676.676 0 00.701-.292.691.691 0 00-.307-1.016.654.654 0 00-.261-.052zm8.043 97.999a.685.685 0 00-.67.821.689.689 0 00.536.54.684.684 0 00.617-1.159.685.685 0 00-.483-.202zm16.083-46.666a.677.677 0 00-.631.424.691.691 0 00.498.937.684.684 0 00.764-.937.682.682 0 00-.631-.424zm8.042 23.333a.68.68 0 00-.631.424.69.69 0 00.497.937.684.684 0 00.817-.674.684.684 0 00-.683-.687zm0-37.333a.684.684 0 00-.67.821.686.686 0 00.93.5.684.684 0 00.423-.634.69.69 0 00-.2-.486.68.68 0 00-.483-.201zm0 28a.68.68 0 00-.631.424.689.689 0 00.497.936.676.676 0 00.702-.292.687.687 0 00-.568-1.068zm0-9.334a.685.685 0 00-.67.821.69.69 0 00.536.54.684.684 0 00.617-1.159.685.685 0 00-.483-.202zm0 37.334a.677.677 0 00-.632.424.69.69 0 00.498.936.676.676 0 00.702-.292.69.69 0 00-.085-.867.68.68 0 00-.483-.201zm0-46.667a.685.685 0 00-.67.821.69.69 0 00.536.54.684.684 0 00.617-1.159.681.681 0 00-.483-.202zm0 37.334a.684.684 0 00-.67.82.686.686 0 00.93.501.684.684 0 00.423-.635.688.688 0 00-.683-.686zM81.417 170.98a.685.685 0 00-.67.821.678.678 0 00.932.5.684.684 0 00.37-.897.683.683 0 00-.632-.424zm0 37.333a.684.684 0 00-.67.821.69.69 0 00.537.54.684.684 0 00.764-.937.694.694 0 00-.37-.372.69.69 0 00-.261-.052zm0 9.333a.684.684 0 00-.67.821.685.685 0 00.931.501.684.684 0 00.37-.897.673.673 0 00-.37-.372.673.673 0 00-.261-.053zm0-37.333a.685.685 0 00-.67.821.69.69 0 00.537.54.684.684 0 00.764-.937.694.694 0 00-.37-.372.69.69 0 00-.261-.052zm0 18.667a.677.677 0 00-.631.424.691.691 0 00.498.937.684.684 0 00.764-.937.682.682 0 00-.631-.424zm8.042-4.667a.685.685 0 00-.67.821.69.69 0 00.536.54.684.684 0 00.617-1.159.681.681 0 00-.483-.202zm0 65.333a.685.685 0 00-.67.821.689.689 0 00.536.54.684.684 0 00.817-.674.688.688 0 00-.683-.687zm0-74.666a.684.684 0 00-.67.821.686.686 0 00.93.5.684.684 0 00.423-.634.69.69 0 00-.2-.486.68.68 0 00-.483-.201zm-8.042 42a.68.68 0 00-.631.424.691.691 0 00.148.748.68.68 0 001.051-.104.688.688 0 00-.568-1.068zm-8.042 70a.677.677 0 00-.631.424.692.692 0 00.148.749.678.678 0 00.745.148.683.683 0 00.422-.634.69.69 0 00-.684-.687zm-24.124-70a.684.684 0 00-.671.821.686.686 0 00.932.5.684.684 0 00.422-.634.69.69 0 00-.2-.486.68.68 0 00-.483-.201zm40.208-23.334a.685.685 0 00-.67.821.69.69 0 00.536.54.684.684 0 00.617-1.159.685.685 0 00-.483-.202zm0 46.667a.685.685 0 00-.67.821.69.69 0 00.536.54.684.684 0 00.817-.674.684.684 0 00-.683-.687zm0-9.333a.677.677 0 00-.632.424.69.69 0 00.498.936.676.676 0 00.702-.292.69.69 0 00-.085-.867.68.68 0 00-.483-.201zm0-18.667a.68.68 0 00-.631.424.69.69 0 00.497.937.684.684 0 00.817-.674.684.684 0 00-.683-.687zm0 9.334a.676.676 0 00-.632.423.69.69 0 00.498.937.676.676 0 00.702-.292.69.69 0 00-.085-.867.68.68 0 00-.483-.201zm0-18.667a.68.68 0 00-.631.424.689.689 0 00.497.936.676.676 0 00.702-.292.687.687 0 00-.568-1.068zm0-37.334a.685.685 0 00-.67.821.689.689 0 00.536.54.684.684 0 00.817-.674.688.688 0 00-.683-.687zm-16.084 46.667a.677.677 0 00-.631.424.693.693 0 00.148.749.687.687 0 00.745.149.69.69 0 000-1.27.69.69 0 00-.262-.052zm0 9.334a.684.684 0 00-.67.821.687.687 0 00.932.5.684.684 0 00.422-.635.684.684 0 00-.684-.686zm0-18.667a.677.677 0 00-.631.424.693.693 0 00.148.749.678.678 0 00.745.148.684.684 0 00.422-.634.69.69 0 00-.684-.687zm0-9.334a.688.688 0 00-.133 1.361.684.684 0 00.764-.937.678.678 0 00-.37-.371.672.672 0 00-.261-.053zm0-9.333a.685.685 0 00-.67.821.69.69 0 00.537.54.684.684 0 00.764-.937.693.693 0 00-.37-.371.672.672 0 00-.261-.053zm0 46.667a.677.677 0 00-.631.424.691.691 0 00.498.937.684.684 0 00.764-.937.683.683 0 00-.631-.424zm0 46.666a.688.688 0 00-.133 1.361.684.684 0 00.764-.937.678.678 0 00-.37-.371.672.672 0 00-.261-.053zm0-9.333a.685.685 0 00-.67.821.69.69 0 00.537.54.684.684 0 00.764-.937.693.693 0 00-.37-.371.672.672 0 00-.261-.053zm0-18.667a.684.684 0 00-.67.821.686.686 0 00.537.54.684.684 0 00.817-.674.688.688 0 00-.684-.687zm0-9.333a.685.685 0 00-.67.821.69.69 0 00.537.54.684.684 0 00.764-.937.693.693 0 00-.37-.372.69.69 0 00-.261-.052zm0 18.667a.677.677 0 00-.631.424.692.692 0 00.148.748.68.68 0 001.051-.104.687.687 0 00-.568-1.068zm8.042-23.334a.688.688 0 10.262 1.322.684.684 0 00.421-.635.693.693 0 00-.2-.485.67.67 0 00-.483-.202zm0 46.667a.685.685 0 00-.67.821.69.69 0 00.537.54.684.684 0 00.764-.937.693.693 0 00-.37-.372.69.69 0 00-.261-.052zm0-28a.677.677 0 00-.631.424.691.691 0 00.498.937c.132.026.27.012.395-.039a.69.69 0 00.221-1.121.686.686 0 00-.483-.201zm0 9.334a.684.684 0 00-.67.821.687.687 0 00.537.539.676.676 0 00.701-.292.691.691 0 00-.307-1.016.654.654 0 00-.261-.052zm-8.042-88.667a.677.677 0 00-.631.424.691.691 0 00.148.748.68.68 0 001.051-.104.687.687 0 00-.568-1.068zm8.042 70a.685.685 0 00-.67.821.678.678 0 00.932.5.684.684 0 00.37-.897.683.683 0 00-.632-.424zm0-18.667a.684.684 0 00-.67.821.69.69 0 00.537.54.684.684 0 00.764-.937.693.693 0 00-.37-.372.69.69 0 00-.261-.052zm0 65.333a.684.684 0 00-.67.821.685.685 0 00.931.501.684.684 0 00.37-.897.673.673 0 00-.37-.372.673.673 0 00-.261-.053zm-8.042-126a.684.684 0 00-.67.821.686.686 0 00.537.54.684.684 0 00.817-.674.686.686 0 00-.684-.687zm8.042 154a.688.688 0 10.262 1.322.684.684 0 00.421-.635.693.693 0 00-.2-.485.67.67 0 00-.483-.202zm0-9.333a.684.684 0 00-.67.821.69.69 0 00.537.54.684.684 0 00.764-.937.693.693 0 00-.37-.372.69.69 0 00-.261-.052zm0-9.333a.68.68 0 00-.631.424.691.691 0 00.148.748.68.68 0 001.051-.104.688.688 0 00-.568-1.068zm0-121.333a.683.683 0 00-.67.821.687.687 0 00.537.539.676.676 0 00.701-.292.691.691 0 00-.307-1.016.654.654 0 00-.261-.052zm-56.291 13.999a.685.685 0 00-.671.821.689.689 0 00.537.54.684.684 0 00.616-1.159.685.685 0 00-.483-.202zm-8.042 60.667a.685.685 0 00-.67.821.69.69 0 00.537.54.684.684 0 00.816-.674.681.681 0 00-.683-.687zm0-65.333a.677.677 0 00-.631.424.691.691 0 00.498.937.684.684 0 00.816-.674.688.688 0 00-.683-.687zm0-28a.685.685 0 00-.67.821.678.678 0 00.932.5.684.684 0 00.421-.634.681.681 0 00-.683-.687zm0 37.333a.684.684 0 00-.67.821.69.69 0 00.537.54.684.684 0 00.816-.674.685.685 0 00-.683-.687zm8.041 116.667a.678.678 0 00-.631.424.69.69 0 00.148.748.676.676 0 001.052-.104.69.69 0 00-.086-.867.68.68 0 00-.483-.201zm-8.041-107.334a.684.684 0 00-.67.821.685.685 0 00.931.501.684.684 0 00.422-.635.688.688 0 00-.683-.687zm0 28a.688.688 0 10.262 1.322.684.684 0 00.421-.635.686.686 0 00-.683-.687zm8.041 70.001a.684.684 0 00-.67.82.689.689 0 00.537.54.676.676 0 00.701-.292.69.69 0 00-.085-.867.68.68 0 00-.483-.201zm24.126-79.334a.686.686 0 00-.67.821.689.689 0 00.536.54.684.684 0 00.617-1.159.681.681 0 00-.483-.202zm-32.167-9.333a.68.68 0 00-.631.424.69.69 0 00.148.748.68.68 0 001.051-.104.687.687 0 00-.568-1.068zm0 9.333a.684.684 0 00-.67.821.69.69 0 00.537.54.684.684 0 00.816-.674.685.685 0 00-.683-.687zm0-46.666a.683.683 0 00-.67.821.687.687 0 00.537.539.676.676 0 00.701-.292.69.69 0 00-.085-.867.68.68 0 00-.483-.201zm8.041 60.666a.686.686 0 00-.67.821.689.689 0 00.537.54.684.684 0 00.817-.674.684.684 0 00-.683-.687zm0-9.333a.678.678 0 00-.631.424.69.69 0 00.148.749.678.678 0 00.745.148.684.684 0 00.422-.634.69.69 0 00-.2-.486.68.68 0 00-.484-.201zm0-9.333a.676.676 0 00-.631.423.691.691 0 00.148.749.679.679 0 001.051-.104.69.69 0 00-.085-.867.68.68 0 00-.483-.201zm0-9.334a.68.68 0 00-.631.424.69.69 0 00.498.937.684.684 0 00.817-.674.684.684 0 00-.683-.687zm0-9.333a.68.68 0 00-.631.424.69.69 0 00.498.936.676.676 0 00.701-.292.687.687 0 00-.568-1.068zm0 93.333a.68.68 0 00-.631.424.69.69 0 00.498.937.684.684 0 00.817-.674.684.684 0 00-.683-.687zm0-18.667a.685.685 0 00-.67.821.689.689 0 00.537.54.684.684 0 00.616-1.159.685.685 0 00-.483-.202zm0 9.334a.68.68 0 00-.631.424.69.69 0 00.498.936.676.676 0 00.701-.292.687.687 0 00-.568-1.068zm0-18.667a.686.686 0 00-.67.821.689.689 0 00.537.54.684.684 0 00.616-1.159.681.681 0 00-.483-.202zm0-9.333a.684.684 0 00-.67.821.686.686 0 00.932.5.684.684 0 00.422-.634.69.69 0 00-.2-.486.68.68 0 00-.484-.201zm0-9.334a.685.685 0 00-.67.821.689.689 0 00.537.54.684.684 0 00.817-.674.688.688 0 00-.684-.687zm-8.041-79.333a.685.685 0 00-.67.821.69.69 0 00.537.54.684.684 0 00.816-.674.681.681 0 00-.683-.687zm-8.042 79.333a.685.685 0 00-.67.821.686.686 0 00.931.501.684.684 0 00.37-.897.672.672 0 00-.37-.372.673.673 0 00-.261-.053zm0 9.334a.68.68 0 00-.631.424.691.691 0 00.148.748.68.68 0 001.051-.104.687.687 0 00-.568-1.068zm0-28a.677.677 0 00-.631.424.691.691 0 00.498.937.684.684 0 00.764-.937.683.683 0 00-.631-.424zm0 37.333a.685.685 0 00-.67.821.69.69 0 00.537.54.684.684 0 00.764-.937.693.693 0 00-.37-.372.69.69 0 00-.261-.052zm0-28a.685.685 0 00-.67.821.69.69 0 00.537.54.684.684 0 00.764-.937.693.693 0 00-.37-.372.69.69 0 00-.261-.052zm0 65.334a.684.684 0 00-.67.821.687.687 0 00.537.539.676.676 0 00.701-.292.69.69 0 00-.307-1.016.654.654 0 00-.261-.052zm0-93.334a.685.685 0 00-.67.821.69.69 0 00.537.54.684.684 0 00.764-.937.693.693 0 00-.37-.372.69.69 0 00-.261-.052zm0 102.667a.677.677 0 00-.631.424.691.691 0 00.498.937.684.684 0 00.764-.937.683.683 0 00-.631-.424zm0-28a.685.685 0 00-.67.821.678.678 0 00.932.5.684.684 0 00.421-.634.69.69 0 00-.422-.635.69.69 0 00-.261-.052zm0-9.334a.688.688 0 00-.133 1.361.684.684 0 00.764-.937.693.693 0 00-.37-.371.673.673 0 00-.261-.053zm0 18.667a.685.685 0 00-.67.821.69.69 0 00.537.54.684.684 0 00.764-.937.693.693 0 00-.37-.372.69.69 0 00-.261-.052zm8.042-14a.684.684 0 00-.67.821.69.69 0 00.537.54.684.684 0 00.816-.674.685.685 0 00-.683-.687zm0 28a.684.684 0 00-.67.821.69.69 0 00.537.54.684.684 0 00.816-.674.685.685 0 00-.683-.687zm0-9.333a.68.68 0 00-.631.424.69.69 0 00.148.748.68.68 0 001.051-.104.687.687 0 00-.568-1.068zm0-9.334a.684.684 0 00-.67.821.685.685 0 00.931.501.684.684 0 00.422-.635.688.688 0 00-.683-.687zm0-18.666a.677.677 0 00-.631.424.691.691 0 00.498.937.684.684 0 00.816-.674.688.688 0 00-.683-.687zm-8.042-70a.685.685 0 00-.67.821.678.678 0 00.932.5.684.684 0 00.421-.634.69.69 0 00-.422-.635.69.69 0 00-.261-.052zm8.042 60.667a.683.683 0 00-.67.821.687.687 0 00.537.539.676.676 0 00.701-.292.69.69 0 00-.085-.867.68.68 0 00-.483-.201zm-8.042-79.334a.685.685 0 00-.67.821.69.69 0 00.537.54.684.684 0 00.764-.937.693.693 0 00-.37-.372.69.69 0 00-.261-.052zm0 9.333a.688.688 0 00-.133 1.361.684.684 0 00.764-.937.693.693 0 00-.37-.371.673.673 0 00-.261-.053zm8.042 126a.688.688 0 10.262 1.322.684.684 0 00.421-.635.686.686 0 00-.683-.687zm-8.042-154a.685.685 0 00-.67.821.686.686 0 00.931.501.684.684 0 00.422-.635.693.693 0 00-.2-.485.672.672 0 00-.483-.202zm0 9.334a.68.68 0 00-.631.424.69.69 0 00.148.748.68.68 0 001.051-.104.687.687 0 00-.568-1.068zm8.042 70a.685.685 0 00-.67.821.678.678 0 00.932.5.684.684 0 00.421-.634.681.681 0 00-.683-.687zm24.125-42a.678.678 0 00-.632.424.689.689 0 00.498.936.676.676 0 00.702-.292.687.687 0 00-.568-1.068zm0 84a.678.678 0 00-.632.424.689.689 0 00.498.936.676.676 0 00.702-.292.687.687 0 00-.568-1.068zm0-65.333a.677.677 0 00-.632.423.69.69 0 00.498.937.676.676 0 00.702-.292.69.69 0 00-.085-.867.68.68 0 00-.483-.201zm0-28.001a.686.686 0 00-.484 1.173.686.686 0 00.745.149.684.684 0 00.422-.635.688.688 0 00-.683-.687zm0-9.333a.678.678 0 00-.632.424.69.69 0 00.498.937.684.684 0 00.617-1.159.681.681 0 00-.483-.202zm0 46.667a.677.677 0 00-.632.424.69.69 0 00.148.749.678.678 0 00.745.148.684.684 0 00.422-.634.69.69 0 00-.2-.486.68.68 0 00-.483-.201zm0 9.333a.678.678 0 00-.632.424.69.69 0 00.498.937.684.684 0 00.817-.674.684.684 0 00-.683-.687zm0 28a.678.678 0 00-.632.424.69.69 0 00.498.937.684.684 0 00.617-1.159.681.681 0 00-.483-.202zm0 9.333a.686.686 0 00-.484 1.173.686.686 0 00.745.149.684.684 0 00.422-.635.688.688 0 00-.683-.687zm0-28a.685.685 0 00-.67.821.689.689 0 00.536.54.684.684 0 00.817-.674.688.688 0 00-.683-.687zm0-74.666a.685.685 0 00-.484 1.172.679.679 0 001.052-.104.687.687 0 00-.568-1.068zm0 84a.685.685 0 00-.484 1.172.679.679 0 001.052-.104.687.687 0 00-.568-1.068zm0-46.667a.678.678 0 00-.632.424.69.69 0 00.498.937.684.684 0 00.817-.674.684.684 0 00-.683-.687zm0-46.667a.685.685 0 00-.67.821.689.689 0 00.536.54.684.684 0 00.817-.674.688.688 0 00-.683-.687zm8.041 98.001a.676.676 0 00-.631.423.691.691 0 00.148.749.679.679 0 001.051-.104.69.69 0 00-.084-.867.68.68 0 00-.483-.201zm0 9.333a.678.678 0 00-.631.424.69.69 0 00.148.748.676.676 0 001.051-.104.69.69 0 00-.085-.867.68.68 0 00-.482-.201zm0-37.334a.685.685 0 00-.67.821.689.689 0 00.537.54.684.684 0 00.617-1.159.685.685 0 00-.483-.202zm0 9.334a.68.68 0 00-.632.424.69.69 0 00.499.936.676.676 0 00.701-.292.687.687 0 00-.567-1.068zm0 9.333a.68.68 0 00-.632.424.69.69 0 00.499.937.684.684 0 00.817-.674.684.684 0 00-.683-.687zm0 28a.686.686 0 00-.67.821.689.689 0 00.537.54.684.684 0 00.817-.674.684.684 0 00-.683-.687zm0 28a.686.686 0 00-.67.821.689.689 0 00.537.54.684.684 0 00.617-1.159.681.681 0 00-.483-.202zm0 9.333a.685.685 0 00-.67.821.689.689 0 00.537.54.684.684 0 00.617-1.159.685.685 0 00-.483-.202zm0-28a.685.685 0 00-.67.821.689.689 0 00.537.54.684.684 0 00.817-.674.688.688 0 00-.683-.687zm0 9.334a.684.684 0 00-.67.821.686.686 0 00.932.5.684.684 0 00.422-.634.69.69 0 00-.2-.486.68.68 0 00-.483-.201zm-16.083-9.334a.684.684 0 00-.67.821.685.685 0 00.931.501.684.684 0 00.37-.897.673.673 0 00-.37-.372.673.673 0 00-.261-.053zm0-18.666a.677.677 0 00-.631.424.691.691 0 00.498.937.684.684 0 00.764-.937.682.682 0 00-.631-.424zm0 9.333a.684.684 0 00-.67.821.69.69 0 00.537.54.684.684 0 00.764-.937.694.694 0 00-.37-.372.69.69 0 00-.261-.052zm0-37.333a.685.685 0 00-.67.821.678.678 0 00.932.5.684.684 0 00.37-.897.683.683 0 00-.632-.424zm0 9.333a.685.685 0 00-.67.821.69.69 0 00.537.54c.132.026.27.012.395-.039a.69.69 0 00.221-1.121.689.689 0 00-.483-.201zm-8.042-70a.686.686 0 00-.67.821.689.689 0 00.537.54.684.684 0 00.616-1.159.681.681 0 00-.483-.202zm8.042 79.334a.683.683 0 00-.67.821.687.687 0 00.537.539.676.676 0 00.701-.292.691.691 0 00-.307-1.016.654.654 0 00-.261-.052zm-8.042-88.667a.684.684 0 00-.67.821.686.686 0 00.932.5.684.684 0 00.422-.634.69.69 0 00-.2-.486.68.68 0 00-.484-.201zm0-9.334a.685.685 0 00-.67.821.689.689 0 00.537.54.684.684 0 00.817-.674.688.688 0 00-.684-.687zm8.042 135.334a.68.68 0 00-.631.424.691.691 0 00.148.748.68.68 0 001.051-.104.688.688 0 00-.568-1.068zm0 9.333a.684.684 0 00-.67.821.69.69 0 00.537.54.684.684 0 00.764-.937.693.693 0 00-.37-.372.69.69 0 00-.261-.052zm0 9.333a.688.688 0 10.262 1.322.684.684 0 00.421-.635.693.693 0 00-.2-.485.67.67 0 00-.483-.202zm0-139.999a.683.683 0 00-.67.821.687.687 0 00.537.539.676.676 0 00.701-.292.691.691 0 00-.307-1.016.654.654 0 00-.261-.052zm8.042 116.666a.678.678 0 00-.632.424.69.69 0 00.498.937.684.684 0 00.817-.674.684.684 0 00-.683-.687zM33.167 170.98a.685.685 0 00-.67.821.678.678 0 00.932.5.684.684 0 00.37-.897.683.683 0 00-.632-.424zm0 9.333a.685.685 0 00-.67.821.69.69 0 00.537.54.684.684 0 00.764-.937.694.694 0 00-.37-.372.69.69 0 00-.261-.052zm8.042 135.334a.685.685 0 00-.484 1.172.679.679 0 001.052-.104.69.69 0 00-.085-.867.68.68 0 00-.483-.201zm0 9.333a.677.677 0 00-.632.424.69.69 0 00.148.749.678.678 0 00.745.148.684.684 0 00.422-.634.69.69 0 00-.2-.486.68.68 0 00-.483-.201zm-8.042-107.334a.684.684 0 00-.67.821.685.685 0 00.931.501.684.684 0 00.37-.897.673.673 0 00-.37-.372.673.673 0 00-.261-.053zm0 9.334a.68.68 0 00-.631.424.691.691 0 00.148.748.68.68 0 001.051-.104.688.688 0 00-.568-1.068zm0 9.333a.684.684 0 00-.67.821.69.69 0 00.537.54.684.684 0 00.764-.937.693.693 0 00-.37-.372.69.69 0 00-.261-.052zm0 9.333a.688.688 0 10.262 1.322.684.684 0 00.421-.635.693.693 0 00-.2-.486.684.684 0 00-.483-.201zm0-37.333a.684.684 0 00-.67.821.69.69 0 00.537.54.684.684 0 00.764-.937.694.694 0 00-.37-.372.69.69 0 00-.261-.052zm0-9.333a.677.677 0 00-.631.424.691.691 0 00.498.937.684.684 0 00.764-.937.682.682 0 00-.631-.424zM9.042 231.647a.684.684 0 00-.67.821.687.687 0 00.537.539.676.676 0 00.701-.292.69.69 0 00-.307-1.016.654.654 0 00-.261-.052zm144.75-28.001a.685.685 0 00-.67.821.68.68 0 00.537.54.685.685 0 00.394-1.308.665.665 0 00-.261-.053zm0-18.666a.68.68 0 00-.631.424.683.683 0 00.148.748.68.68 0 001.051-.104.688.688 0 00-.568-1.068zm0 9.333a.688.688 0 00-.631.424.684.684 0 00.148.749.687.687 0 00.745.149.686.686 0 00.369-.898.68.68 0 00-.631-.424zm0-18.667a.688.688 0 00-.631.424.684.684 0 00.148.749.683.683 0 001.114-.749.665.665 0 00-.148-.222.668.668 0 00-.222-.149.665.665 0 00-.261-.053zm8.042 154a.685.685 0 00-.671.821.687.687 0 00.932.501.684.684 0 00.422-.635.688.688 0 00-.683-.687zm0-9.333a.69.69 0 00-.484 1.173.687.687 0 00.745.149.684.684 0 00.422-.635.686.686 0 00-.683-.687zm-8.042-107.333a.68.68 0 00-.631.424.684.684 0 00.148.749.678.678 0 00.745.148.686.686 0 00.221-1.12.683.683 0 00-.483-.201zm0 37.333a.688.688 0 00-.631.424.684.684 0 00.148.749.687.687 0 00.745.149.686.686 0 00.369-.898.68.68 0 00-.631-.424zm0 9.333a.688.688 0 00-.631.425.68.68 0 00-.039.396.68.68 0 00.537.54.681.681 0 00.816-.674.673.673 0 00-.052-.262.66.66 0 00-.148-.223.668.668 0 00-.222-.149.665.665 0 00-.261-.053zm8.042 51.334a.684.684 0 00-.484 1.172.68.68 0 001.052-.104.688.688 0 00-.568-1.068zm0-130.667a.685.685 0 00-.671.821.687.687 0 00.932.501.684.684 0 00.422-.635.684.684 0 00-.683-.687zm-8.042 42a.68.68 0 00-.631.424.684.684 0 00.148.749.687.687 0 00.745.149.693.693 0 00.421-.635.678.678 0 00-.2-.486.683.683 0 00-.483-.201zm0 9.334a.685.685 0 00-.67.821.68.68 0 00.537.539.677.677 0 00.701-.292.691.691 0 00-.307-1.016.647.647 0 00-.261-.052zm8.042 42a.684.684 0 00-.484 1.172.68.68 0 001.052-.104.691.691 0 00-.085-.867.68.68 0 00-.483-.201zm0-65.334a.69.69 0 00-.484 1.173.687.687 0 00.745.149.684.684 0 00.422-.635.684.684 0 00-.683-.687zm0 9.333a.685.685 0 00-.671.821.687.687 0 00.932.501.684.684 0 00.222-1.12.685.685 0 00-.483-.202zm0 9.334a.684.684 0 00-.484 1.172.68.68 0 001.052-.104.688.688 0 00-.568-1.068zm0-28a.685.685 0 00-.671.821.682.682 0 001.239.247.69.69 0 00-.085-.867.68.68 0 00-.483-.201zm0-9.333a.677.677 0 00-.632.423.692.692 0 00.148.749.68.68 0 001.052-.104.691.691 0 00-.085-.867.68.68 0 00-.483-.201zm0 46.666a.69.69 0 00-.484 1.173.687.687 0 00.745.149.684.684 0 00.422-.635.686.686 0 00-.683-.687zm0 56a.69.69 0 00-.484 1.173.687.687 0 00.745.149.684.684 0 00.422-.635.684.684 0 00-.683-.687zm-8.042-23.333a.68.68 0 00-.631.424.684.684 0 00.148.748.68.68 0 001.051-.104.688.688 0 00-.568-1.068zm8.042-23.334a.685.685 0 00-.671.821.687.687 0 00.932.501.684.684 0 00.422-.635.688.688 0 00-.683-.687zm0 56a.685.685 0 00-.671.821.687.687 0 00.932.501.684.684 0 00.222-1.12.685.685 0 00-.483-.202zm0-18.666a.685.685 0 00-.671.821.682.682 0 001.239.247.69.69 0 00-.085-.867.68.68 0 00-.483-.201zm0-28a.685.685 0 00-.484 1.172.68.68 0 001.052-.104.688.688 0 00-.568-1.068zm0 9.333a.685.685 0 00-.671.821.687.687 0 00.932.501.684.684 0 00.422-.635.684.684 0 00-.683-.687zm-8.042-23.333a.68.68 0 00-.631.424.684.684 0 00.148.749.685.685 0 001.114-.749.669.669 0 00-.37-.372.687.687 0 00-.261-.052zm-8.042 32.667a.687.687 0 00-.38.115.691.691 0 00-.103 1.057.68.68 0 001.051-.104.684.684 0 00-.085-.867.664.664 0 00-.483-.201zm0 18.666a.688.688 0 00-.631.424.692.692 0 00.148.749.687.687 0 00.745.149.684.684 0 00.221-1.121.692.692 0 00-.483-.201zm0-28a.68.68 0 00-.631.424.692.692 0 00.148.749.687.687 0 00.745.149.687.687 0 00-.262-1.322zm0 18.667a.68.68 0 00-.631.424.692.692 0 00.148.749.685.685 0 001.115-.749.687.687 0 00-.632-.424zm0-37.334a.696.696 0 00-.38.116.691.691 0 00-.103 1.057.68.68 0 001.051-.104.684.684 0 00-.085-.867.674.674 0 00-.483-.202zm0-9.333a.688.688 0 00-.631.424.692.692 0 00.148.749.687.687 0 00.745.149.684.684 0 00.221-1.121.676.676 0 00-.483-.201zm0 18.667a.68.68 0 00-.631.424.692.692 0 00.148.749.678.678 0 00.745.148.681.681 0 00.306-.253.68.68 0 00.064-.644.698.698 0 00-.37-.372.692.692 0 00-.262-.052zm-8.041-79.334a.685.685 0 00-.671.821.687.687 0 00.932.501.689.689 0 00-.261-1.322zm0 9.334a.684.684 0 00-.484 1.172.68.68 0 001.052-.104.688.688 0 00-.568-1.068zm8.041 144.666a.696.696 0 00-.38.116.691.691 0 00-.103 1.057.687.687 0 00.745.149.684.684 0 00.221-1.12.674.674 0 00-.483-.202zm0-18.666a.68.68 0 00-.631.424.691.691 0 00.148.748.68.68 0 001.051-.104.68.68 0 00.064-.644.687.687 0 00-.632-.424zm0-9.334a.688.688 0 00-.631.424.692.692 0 00.148.749.687.687 0 00.745.149.692.692 0 00.422-.635.683.683 0 00-.201-.485.681.681 0 00-.483-.202zm8.042-23.333a.688.688 0 00-.631.424.684.684 0 00.148.749.687.687 0 00.745.149.686.686 0 00.369-.898.68.68 0 00-.631-.424zm-8.042 42a.688.688 0 00-.631.424.692.692 0 00.148.749.687.687 0 00.745.149.684.684 0 00.221-1.121.676.676 0 00-.483-.201zm8.042-4.666a.685.685 0 00-.67.821.68.68 0 00.537.539.677.677 0 00.701-.292.691.691 0 00-.307-1.016.647.647 0 00-.261-.052zm-8.042-88.667a.68.68 0 00-.631.424.691.691 0 00.148.748.68.68 0 001.051-.104.68.68 0 00.064-.644.687.687 0 00-.632-.424zm8.042 98a.68.68 0 00-.631.424.684.684 0 00.148.749.685.685 0 001.114-.749.669.669 0 00-.37-.372.687.687 0 00-.261-.052zm0-37.334a.685.685 0 00-.67.821.68.68 0 00.537.54.685.685 0 00.394-1.308.665.665 0 00-.261-.053zM145.75 170.98a.68.68 0 00-.631.424.692.692 0 00.148.749.678.678 0 00.745.148.681.681 0 00.306-.253.68.68 0 00.064-.644.698.698 0 00-.37-.372.692.692 0 00-.262-.052zm-8.041 23.333a.69.69 0 00-.484 1.173.687.687 0 00.745.149.684.684 0 00.422-.635.686.686 0 00-.683-.687zm16.083 112a.68.68 0 00-.631.424.684.684 0 00.148.749.687.687 0 00.745.149.693.693 0 00.421-.635.678.678 0 00-.2-.486.683.683 0 00-.483-.201zm-8.042-98a.688.688 0 00-.631.424.692.692 0 00.148.749.687.687 0 00.745.149.684.684 0 00.221-1.121.692.692 0 00-.483-.201zm0 9.333a.688.688 0 00-.631.424.692.692 0 00.148.749.687.687 0 00.745.149.692.692 0 00.422-.635.683.683 0 00-.201-.485.681.681 0 00-.483-.202zm0-27.999a.687.687 0 00-.38.115.691.691 0 00-.103 1.057.68.68 0 001.051-.104.684.684 0 00-.085-.867.664.664 0 00-.483-.201zm0 9.333a.68.68 0 00-.631.424.692.692 0 00.148.749.685.685 0 001.115-.749.687.687 0 00-.632-.424zm0-18.667a.68.68 0 00-.631.424.692.692 0 00.148.749.687.687 0 00.745.149.687.687 0 00-.262-1.322zm8.042 116.667a.68.68 0 00-.631.424.684.684 0 00.148.749.678.678 0 00.745.148.686.686 0 00.221-1.12.683.683 0 00-.483-.201zm32.167 28a.685.685 0 00-.484 1.172.676.676 0 00.745.149.684.684 0 00.422-.634.69.69 0 00-.2-.486.68.68 0 00-.483-.201zm0-9.333a.677.677 0 00-.632.423.692.692 0 00.148.749.68.68 0 001.052-.104.691.691 0 00-.085-.867.68.68 0 00-.483-.201zm-8.042-144.667a.68.68 0 00-.631.424.684.684 0 00.148.749.678.678 0 00.745.148.686.686 0 00.221-1.12.683.683 0 00-.483-.201zm8.042 116.666a.685.685 0 00-.671.821.687.687 0 00.932.501.684.684 0 00.422-.635.688.688 0 00-.683-.687zm0 9.334a.685.685 0 00-.484 1.172.68.68 0 001.052-.104.688.688 0 00-.568-1.068zm-8.042-116.667a.68.68 0 00-.631.424.684.684 0 00.148.749.686.686 0 00.966-.972.683.683 0 00-.483-.201zm8.042 126a.685.685 0 00-.671.821.687.687 0 00.932.501.684.684 0 00.422-.635.684.684 0 00-.683-.687zm-8.042-79.333a.68.68 0 00-.631.424.683.683 0 00.148.748.68.68 0 001.051-.104.688.688 0 00-.568-1.068zm0-37.333a.685.685 0 00-.67.821.68.68 0 00.537.539.677.677 0 00.701-.292.691.691 0 00-.307-1.016.647.647 0 00-.261-.052zm0 46.666a.688.688 0 00-.631.424.684.684 0 00.148.749.687.687 0 00.745.149.686.686 0 00.369-.898.68.68 0 00-.631-.424zm0-18.667a.688.688 0 00-.631.424.684.684 0 00.148.749.683.683 0 001.114-.749.665.665 0 00-.148-.222.668.668 0 00-.222-.149.665.665 0 00-.261-.053zm0-9.333a.688.688 0 00-.631.424.684.684 0 00.148.749.687.687 0 00.745.149.686.686 0 00.369-.898.68.68 0 00-.631-.424zm0-9.333a.68.68 0 00-.631.424.684.684 0 00.148.749.685.685 0 001.114-.749.669.669 0 00-.37-.372.687.687 0 00-.261-.052zm8.042-14a.684.684 0 00-.484 1.172.68.68 0 001.052-.104.688.688 0 00-.568-1.068zm0 18.666a.685.685 0 00-.671.821.687.687 0 00.932.501.684.684 0 00.422-.635.688.688 0 00-.683-.687zm0 18.667a.685.685 0 00-.671.821.687.687 0 00.932.501.684.684 0 00.422-.635.684.684 0 00-.683-.687zm0-9.333a.685.685 0 00-.484 1.172.68.68 0 001.052-.104.688.688 0 00-.568-1.068zm0-18.667a.69.69 0 00-.484 1.173.687.687 0 00.745.149.684.684 0 00.422-.635.686.686 0 00-.683-.687zm-8.042 51.333a.685.685 0 00-.67.821.68.68 0 00.537.54.685.685 0 00.394-1.308.665.665 0 00-.261-.053zm8.042 32.667a.69.69 0 00-.484 1.173.687.687 0 00.745.149.684.684 0 00.422-.635.686.686 0 00-.683-.687zm0-102.667a.685.685 0 00-.671.821.687.687 0 00.932.501.684.684 0 00.222-1.12.685.685 0 00-.483-.202zm0 84a.685.685 0 00-.671.821.687.687 0 00.932.501.684.684 0 00.222-1.12.685.685 0 00-.483-.202zm0-27.999a.677.677 0 00-.632.423.692.692 0 00.148.749.68.68 0 001.052-.104.691.691 0 00-.085-.867.68.68 0 00-.483-.201zm0 37.333a.684.684 0 00-.484 1.172.68.68 0 001.052-.104.688.688 0 00-.568-1.068zm0-18.667a.69.69 0 00-.484 1.173.687.687 0 00.745.149.684.684 0 00.422-.635.684.684 0 00-.683-.687zm0-9.333a.685.685 0 00-.484 1.172.676.676 0 00.745.149.684.684 0 00.422-.634.69.69 0 00-.2-.486.68.68 0 00-.483-.201zm-16.084-65.334a.688.688 0 00-.631.424.692.692 0 00.148.749.687.687 0 00.745.149.692.692 0 00.37-.898.683.683 0 00-.37-.371.674.674 0 00-.262-.053zm0 65.334a.68.68 0 00-.631.424.692.692 0 00.148.749.685.685 0 001.115-.749.687.687 0 00-.632-.424zm0 9.333a.688.688 0 00-.631.424.692.692 0 00.148.749.687.687 0 00.745.149.684.684 0 00.221-1.121.679.679 0 00-.483-.201zm0 9.333a.688.688 0 00-.631.424.692.692 0 00.148.749.687.687 0 00.745.149.692.692 0 00.37-.897.677.677 0 00-.37-.372.674.674 0 00-.262-.053zm0-27.999a.687.687 0 00-.38.115.691.691 0 00-.103 1.057.68.68 0 001.051-.104.684.684 0 00-.085-.867.664.664 0 00-.483-.201zm0-9.334a.68.68 0 00-.631.424.692.692 0 00.148.749.687.687 0 00.745.149.687.687 0 00-.262-1.322zm0 46.667a.68.68 0 00-.631.424.691.691 0 00.148.748.68.68 0 001.051-.104.68.68 0 00.064-.644.687.687 0 00-.632-.424zm0 18.666a.688.688 0 00-.631.425.688.688 0 00.498.936.684.684 0 00.616-1.159.674.674 0 00-.483-.202zm0 28.001a.687.687 0 00-.38.115.691.691 0 00-.103 1.057.68.68 0 001.051-.104.684.684 0 00-.085-.867.664.664 0 00-.483-.201zm8.042-60.667a.68.68 0 00-.631.424.684.684 0 00.148.749.678.678 0 00.745.148.686.686 0 00.221-1.12.683.683 0 00-.483-.201zm-8.042 51.333a.68.68 0 00-.631.424.692.692 0 00.148.749.687.687 0 00.745.149.687.687 0 00-.262-1.322zm0-9.333a.68.68 0 00-.631.424.692.692 0 00.148.749.678.678 0 00.745.148.681.681 0 00.306-.253.68.68 0 00.064-.644.687.687 0 00-.632-.424zm0-84a.68.68 0 00-.631.424.692.692 0 00.148.749.678.678 0 00.745.148.681.681 0 00.306-.253.68.68 0 00.064-.644.687.687 0 00-.632-.424zm0 65.333a.688.688 0 00-.631.424.692.692 0 00.148.749.687.687 0 00.745.149.684.684 0 00.221-1.121.692.692 0 00-.483-.201zm0 46.667a.68.68 0 00-.631.424.692.692 0 00.148.749.685.685 0 001.115-.749.687.687 0 00-.632-.424zm8.042-14a.68.68 0 00-.631.424.683.683 0 00.148.748.68.68 0 001.051-.104.688.688 0 00-.568-1.068zm0-18.667a.688.688 0 00-.631.424.684.684 0 00.148.749.687.687 0 00.745.149.686.686 0 00.369-.898.68.68 0 00-.631-.424zm0 9.333a.688.688 0 00-.631.424.684.684 0 00.148.749.683.683 0 001.114-.748.66.66 0 00-.148-.223.668.668 0 00-.222-.149.665.665 0 00-.261-.053zm0-18.666a.68.68 0 00-.631.424.684.684 0 00.148.749.685.685 0 001.114-.749.669.669 0 00-.37-.372.687.687 0 00-.261-.052zm0-9.333a.685.685 0 00-.67.821.68.68 0 00.537.539.677.677 0 00.701-.292.691.691 0 00-.307-1.016.647.647 0 00-.261-.052zm0-9.334a.68.68 0 00-.631.424.684.684 0 00.148.749.687.687 0 00.745.149.693.693 0 00.421-.635.678.678 0 00-.2-.486.683.683 0 00-.483-.201zm-8.042-70a.688.688 0 00-.631.424.692.692 0 00.148.749.687.687 0 00.745.149.684.684 0 00.221-1.121.692.692 0 00-.483-.201zm8.042 126a.688.688 0 00-.631.424.684.684 0 00.148.749.687.687 0 00.745.149.686.686 0 00.369-.898.68.68 0 00-.631-.424zm-8.042-116.667a.696.696 0 00-.38.116.691.691 0 00-.103 1.057.68.68 0 001.051-.104.684.684 0 00-.085-.867.674.674 0 00-.483-.202zm0-18.666a.68.68 0 00-.631.424.691.691 0 00.148.748.68.68 0 001.051-.104.68.68 0 00.064-.644.687.687 0 00-.632-.424zm8.042 144.666a.685.685 0 00-.67.821.68.68 0 00.537.54.685.685 0 00.394-1.308.665.665 0 00-.261-.053zM161.834 170.98a.685.685 0 00-.484 1.172.68.68 0 001.052-.104.688.688 0 00-.568-1.068zm-48.25 112a.685.685 0 00-.671.821.682.682 0 001.239.247.69.69 0 00-.085-.867.68.68 0 00-.483-.201zm0 46.666a.685.685 0 00-.671.821.687.687 0 00.932.501.684.684 0 00.422-.635.688.688 0 00-.683-.687zm0-9.333a.69.69 0 00-.484 1.173.687.687 0 00.745.149.684.684 0 00.422-.635.686.686 0 00-.683-.687zm-8.042-144.667a.688.688 0 00-.631.424.684.684 0 00.148.749.683.683 0 001.114-.749.665.665 0 00-.148-.222.668.668 0 00-.222-.149.665.665 0 00-.261-.053zm0 9.334a.68.68 0 00-.631.424.683.683 0 00.148.748.68.68 0 001.051-.104.688.688 0 00-.568-1.068zm8.042 126a.684.684 0 00-.484 1.172.68.68 0 001.052-.104.688.688 0 00-.568-1.068zm0-9.334a.685.685 0 00-.671.821.691.691 0 00.537.54.685.685 0 00.617-1.159.685.685 0 00-.483-.202zm-8.042-79.333a.68.68 0 00-.631.424.684.684 0 00.148.749.687.687 0 00.745.149.693.693 0 00.421-.635.678.678 0 00-.2-.486.683.683 0 00-.483-.201zm0-28a.688.688 0 00-.631.424.684.684 0 00.148.749.687.687 0 00.745.149.686.686 0 00.369-.898.68.68 0 00-.631-.424zm0 37.334a.685.685 0 00-.67.821.68.68 0 00.537.539.677.677 0 00.701-.292.691.691 0 00-.307-1.016.647.647 0 00-.261-.052zm0 9.333a.68.68 0 00-.631.424.684.684 0 00.148.749.685.685 0 001.114-.749.669.669 0 00-.37-.372.687.687 0 00-.261-.052zm8.042 51.333a.69.69 0 00-.484 1.173.687.687 0 00.745.149.684.684 0 00.422-.635.684.684 0 00-.683-.687zm-8.042-42a.688.688 0 00-.631.424.684.684 0 00.148.749.687.687 0 00.745.149.686.686 0 00.369-.898.68.68 0 00-.631-.424zm0-46.667a.685.685 0 00-.67.821.68.68 0 00.537.54.685.685 0 00.394-1.308.665.665 0 00-.261-.053zm0 9.334a.68.68 0 00-.631.424.684.684 0 00.148.749.678.678 0 00.745.148.686.686 0 00.221-1.12.683.683 0 00-.483-.201zm8.042-4.667a.69.69 0 00-.484 1.173.687.687 0 00.745.149.684.684 0 00.422-.635.684.684 0 00-.683-.687zm0-9.333a.685.685 0 00-.671.821.682.682 0 001.239.247.69.69 0 00-.085-.867.68.68 0 00-.483-.201zm0 28a.684.684 0 00-.484 1.172.68.68 0 001.052-.104.688.688 0 00-.568-1.068zm0-9.334a.685.685 0 00-.671.821.691.691 0 00.537.54.685.685 0 00.617-1.159.685.685 0 00-.483-.202zm0-37.333a.685.685 0 00-.671.821.687.687 0 00.932.501.684.684 0 00.422-.635.684.684 0 00-.683-.687zm0 9.334a.677.677 0 00-.632.423.692.692 0 00.148.749.68.68 0 001.052-.104.691.691 0 00-.085-.867.68.68 0 00-.483-.201zM97.5 329.646a.688.688 0 00-.133 1.361.684.684 0 00.764-.937.678.678 0 00-.37-.371.672.672 0 00-.261-.053zm16.084-65.333a.685.685 0 00-.671.821.687.687 0 00.932.501.684.684 0 00.422-.635.684.684 0 00-.683-.687zm0-28a.69.69 0 00-.484 1.173.687.687 0 00.745.149.684.684 0 00.422-.635.686.686 0 00-.683-.687zm0 37.334a.684.684 0 00-.484 1.172.68.68 0 001.052-.104.691.691 0 00-.085-.867.68.68 0 00-.483-.201zm0-18.667a.685.685 0 00-.484 1.172.68.68 0 001.052-.104.688.688 0 00-.568-1.068zm0-9.334a.685.685 0 00-.671.821.687.687 0 00.932.501.684.684 0 00.422-.635.688.688 0 00-.683-.687zm-8.042 51.334a.68.68 0 00-.631.424.684.684 0 00.148.749.678.678 0 00.745.148.686.686 0 00.221-1.12.683.683 0 00-.483-.201zM97.5 245.646a.688.688 0 10.262 1.322.683.683 0 00.422-.635.693.693 0 00-.2-.485.672.672 0 00-.484-.202zm0 9.334a.677.677 0 00-.631.424.692.692 0 00.148.749.678.678 0 00.745.148.683.683 0 00.422-.634.69.69 0 00-.684-.687zm0 9.333a.677.677 0 00-.631.424.692.692 0 00.148.749.687.687 0 00.745.149.69.69 0 000-1.27.69.69 0 00-.262-.052zm0 9.334a.684.684 0 00-.67.821.687.687 0 00.932.5.683.683 0 00.422-.635.684.684 0 00-.684-.686zm0-37.334a.685.685 0 00-.67.821.69.69 0 00.537.54.684.684 0 00.764-.937.693.693 0 00-.37-.371.672.672 0 00-.261-.053zm0-9.333a.677.677 0 00-.631.424.691.691 0 00.148.748.68.68 0 001.051-.104.687.687 0 00-.568-1.068zm0 74.666a.684.684 0 00-.67.821.686.686 0 00.537.54.684.684 0 00.817-.674.686.686 0 00-.684-.687zm0-18.666a.677.677 0 00-.631.424.691.691 0 00.498.937.684.684 0 00.764-.937.682.682 0 00-.631-.424zm0 28a.677.677 0 00-.631.424.691.691 0 00.148.748.68.68 0 001.051-.104.687.687 0 00-.568-1.068zm0 9.333a.685.685 0 00-.67.821.69.69 0 00.537.54.684.684 0 00.764-.937.693.693 0 00-.37-.371.672.672 0 00-.261-.053zm0-28a.685.685 0 00-.67.821.69.69 0 00.537.54.684.684 0 00.764-.937.694.694 0 00-.37-.372.69.69 0 00-.261-.052zm0-74.667a.684.684 0 00-.67.821.686.686 0 00.537.54.684.684 0 00.817-.674.688.688 0 00-.684-.687zm0-9.333a.685.685 0 00-.67.821.69.69 0 00.537.54.684.684 0 00.764-.937.694.694 0 00-.37-.372.69.69 0 00-.261-.052zm8.042 107.334a.685.685 0 00-.67.821.68.68 0 00.537.539.677.677 0 00.701-.292.691.691 0 00-.307-1.016.647.647 0 00-.261-.052zm0-28.001a.685.685 0 00-.67.821.68.68 0 00.537.54.685.685 0 00.394-1.308.665.665 0 00-.261-.053zm0-28a.688.688 0 00-.631.425.68.68 0 00-.039.396.68.68 0 00.537.54.681.681 0 00.816-.674.673.673 0 00-.052-.262.66.66 0 00-.148-.223.668.668 0 00-.222-.149.665.665 0 00-.261-.053zm8.042-88.666a.685.685 0 00-.484 1.172.68.68 0 001.052-.104.688.688 0 00-.568-1.068zm-8.042 107.333a.688.688 0 00-.631.424.684.684 0 00.148.749.687.687 0 00.745.149.686.686 0 00.369-.898.68.68 0 00-.631-.424zm0-9.333a.68.68 0 00-.631.424.684.684 0 00.148.748.68.68 0 001.051-.104.688.688 0 00-.568-1.068zm0 37.333a.68.68 0 00-.631.424.684.684 0 00.148.749.687.687 0 00.745.149.693.693 0 00.421-.635.678.678 0 00-.2-.486.683.683 0 00-.483-.201zM97.5 198.98a.677.677 0 00-.631.424.691.691 0 00.498.937.684.684 0 00.764-.937.682.682 0 00-.631-.424zm0-9.333a.684.684 0 00-.67.821.687.687 0 00.932.5.683.683 0 00.422-.635.684.684 0 00-.684-.686zm0-9.334a.677.677 0 00-.631.424.692.692 0 00.148.749.687.687 0 00.745.149.69.69 0 000-1.27.69.69 0 00-.262-.052zm0-9.333a.677.677 0 00-.631.424.692.692 0 00.148.749.678.678 0 00.745.148.683.683 0 00.422-.634.69.69 0 00-.684-.687zm8.042 154a.68.68 0 00-.631.424.684.684 0 00.148.749.685.685 0 001.114-.749.669.669 0 00-.37-.372.687.687 0 00-.261-.052zm16.083-28a.68.68 0 00-.631.424.692.692 0 00.148.749.678.678 0 00.745.148.681.681 0 00.306-.253.68.68 0 00.064-.644.698.698 0 00-.37-.372.692.692 0 00-.262-.052zm8.042-98a.68.68 0 00-.631.424.684.684 0 00.148.749.685.685 0 001.114-.749.669.669 0 00-.37-.372.687.687 0 00-.261-.052zm0-9.333a.685.685 0 00-.67.821.68.68 0 00.537.539.677.677 0 00.701-.292.691.691 0 00-.307-1.016.647.647 0 00-.261-.052zm0 27.999a.688.688 0 00-.631.425.68.68 0 00-.039.396.68.68 0 00.537.54.681.681 0 00.816-.674.673.673 0 00-.052-.262.66.66 0 00-.148-.223.668.668 0 00-.222-.149.665.665 0 00-.261-.053zm0-9.333a.688.688 0 00-.631.424.684.684 0 00.148.749.687.687 0 00.745.149.686.686 0 00.369-.898.68.68 0 00-.631-.424zm0-37.333a.68.68 0 00-.631.424.684.684 0 00.148.749.678.678 0 00.745.148.686.686 0 00.221-1.12.683.683 0 00-.483-.201zm0 9.333a.68.68 0 00-.631.424.684.684 0 00.148.749.687.687 0 00.745.149.693.693 0 00.421-.635.678.678 0 00-.2-.486.683.683 0 00-.483-.201zm0 93.334a.685.685 0 00-.67.821.68.68 0 00.537.539.677.677 0 00.701-.292.691.691 0 00-.307-1.016.647.647 0 00-.261-.052zm0-9.334a.68.68 0 00-.631.424.684.684 0 00.148.749.687.687 0 00.745.149.693.693 0 00.421-.635.678.678 0 00-.2-.486.683.683 0 00-.483-.201zm8.042 60.667a.685.685 0 00-.671.821.682.682 0 001.239.247.69.69 0 00-.085-.867.68.68 0 00-.483-.201zm-8.042-98a.68.68 0 00-.631.424.684.684 0 00.148.748.68.68 0 001.051-.104.688.688 0 00-.568-1.068zm0 28a.68.68 0 00-.631.424.684.684 0 00.148.749.678.678 0 00.745.148.686.686 0 00.221-1.12.683.683 0 00-.483-.201zm0-18.667a.688.688 0 00-.631.424.684.684 0 00.148.749.687.687 0 00.745.149.686.686 0 00.369-.898.68.68 0 00-.631-.424zm8.042 14a.69.69 0 00-.484 1.173.687.687 0 00.745.149.684.684 0 00.422-.635.684.684 0 00-.683-.687zm0-9.333a.685.685 0 00-.671.821.682.682 0 001.239.247.69.69 0 00-.085-.867.68.68 0 00-.483-.201zm-8.042 42a.68.68 0 00-.631.424.684.684 0 00.148.749.685.685 0 001.114-.749.669.669 0 00-.37-.372.687.687 0 00-.261-.052zm8.042-51.333a.677.677 0 00-.632.423.692.692 0 00.148.749.68.68 0 001.052-.104.691.691 0 00-.085-.867.68.68 0 00-.483-.201zm0 84a.684.684 0 00-.484 1.172.68.68 0 001.052-.104.691.691 0 00-.085-.867.68.68 0 00-.483-.201zm0-56.001a.685.685 0 00-.671.821.687.687 0 00.932.501.684.684 0 00.222-1.12.685.685 0 00-.483-.202zm0-46.666a.685.685 0 00-.484 1.172.68.68 0 001.052-.104.688.688 0 00-.568-1.068zm0 9.333a.685.685 0 00-.671.821.687.687 0 00.932.501.684.684 0 00.422-.635.684.684 0 00-.683-.687zm0 74.667a.685.685 0 00-.484 1.172.68.68 0 001.052-.104.688.688 0 00-.568-1.068zm0 9.333a.685.685 0 00-.671.821.687.687 0 00.932.501.684.684 0 00.422-.635.684.684 0 00-.683-.687zm0-28a.69.69 0 00-.484 1.173.687.687 0 00.745.149.684.684 0 00.422-.635.686.686 0 00-.683-.687zm0 9.333a.685.685 0 00-.671.821.687.687 0 00.932.501.684.684 0 00.422-.635.688.688 0 00-.683-.687zm0-18.666a.684.684 0 00-.484 1.172.68.68 0 001.052-.104.688.688 0 00-.568-1.068zm-8.042-23.334a.685.685 0 00-.67.821.68.68 0 00.537.54.685.685 0 00.394-1.308.665.665 0 00-.261-.053zm-8.042-13.999a.687.687 0 00-.38.115.691.691 0 00-.103 1.057.68.68 0 001.051-.104.684.684 0 00-.085-.867.664.664 0 00-.483-.201zm0 55.999a.696.696 0 00-.38.116.691.691 0 00-.103 1.057.687.687 0 00.745.149.684.684 0 00.221-1.12.674.674 0 00-.483-.202zm0 18.667a.68.68 0 00-.631.424.692.692 0 00.148.749.687.687 0 00.745.149.687.687 0 00-.262-1.322zm16.084-102.667a.685.685 0 00-.671.821.687.687 0 00.932.501.684.684 0 00.422-.635.688.688 0 00-.683-.687zm-16.084 112.001a.687.687 0 00-.38.115.691.691 0 00-.103 1.057.68.68 0 001.051-.104.684.684 0 00-.085-.867.664.664 0 00-.483-.201zm0-93.334a.68.68 0 00-.631.424.692.692 0 00.148.749.687.687 0 00.745.149.687.687 0 00-.262-1.322zm0-9.333a.68.68 0 00-.631.424.692.692 0 00.148.749.678.678 0 00.745.148.681.681 0 00.306-.253.68.68 0 00.064-.644.698.698 0 00-.37-.372.692.692 0 00-.262-.052zm0 56a.68.68 0 00-.631.424.691.691 0 00.148.748.68.68 0 001.051-.104.68.68 0 00.064-.644.687.687 0 00-.632-.424zm0-9.334a.688.688 0 00-.631.424.692.692 0 00.148.749.687.687 0 00.745.149.692.692 0 00.422-.635.685.685 0 00-.684-.687zm0-18.666a.68.68 0 00-.631.424.692.692 0 00.148.749.685.685 0 001.115-.749.687.687 0 00-.632-.424zm0 9.333a.688.688 0 00-.631.424.692.692 0 00.148.749.687.687 0 00.745.149.684.684 0 00.221-1.121.692.692 0 00-.483-.201zm8.042 42a.688.688 0 00-.631.424.684.684 0 00.148.749.687.687 0 00.745.149.686.686 0 00.369-.898.68.68 0 00-.631-.424zm-8.042-98a.688.688 0 00-.631.424.692.692 0 00.148.749.687.687 0 00.745.149.684.684 0 00.221-1.121.676.676 0 00-.483-.201zm8.042 126a.688.688 0 00-.631.424.684.684 0 00.148.749.687.687 0 00.745.149.686.686 0 00.369-.898.68.68 0 00-.631-.424zm-8.042 4.667a.68.68 0 00-.631.424.692.692 0 00.148.749.685.685 0 001.115-.749.687.687 0 00-.632-.424zm8.042 4.666a.685.685 0 00-.67.821.68.68 0 00.537.54.685.685 0 00.394-1.308.665.665 0 00-.261-.053zm0-28a.688.688 0 00-.631.425.68.68 0 00-.039.396.68.68 0 00.537.54.681.681 0 00.816-.674.673.673 0 00-.052-.262.66.66 0 00-.148-.223.668.668 0 00-.222-.149.665.665 0 00-.261-.053zm0 9.334a.68.68 0 00-.631.424.684.684 0 00.148.748.68.68 0 001.051-.104.688.688 0 00-.568-1.068zm-8.042-135.334a.688.688 0 00-.631.424.692.692 0 00.148.749.687.687 0 00.745.149.692.692 0 00.422-.635.683.683 0 00-.201-.485.681.681 0 00-.483-.202zm0 28a.696.696 0 00-.38.116.691.691 0 00-.103 1.057.68.68 0 001.051-.104.684.684 0 00-.085-.867.674.674 0 00-.483-.202zm0 74.667a.688.688 0 00-.631.424.692.692 0 00.148.749.687.687 0 00.745.149.684.684 0 00.221-1.121.676.676 0 00-.483-.201zm0-93.333a.68.68 0 00-.631.424.691.691 0 00.148.748.68.68 0 001.051-.104.68.68 0 00.064-.644.687.687 0 00-.632-.424z" fill="#63D0FF"/></svg>