<svg width="16" height="16" viewBox="0 0 16 16" fill="none" xmlns="http://www.w3.org/2000/svg">
<path fill-rule="evenodd" clip-rule="evenodd" d="M9.04969 1.09512C8.73315 0.903317 8.37011 0.80191 8 0.80191C7.62989 0.80191 7.26685 0.903317 6.95031 1.09512L2.22402 3.9597C1.92618 4.14017 1.67991 4.39438 1.50897 4.69778C1.33803 5.00118 1.2482 5.34353 1.24815 5.69178V10.3082C1.2482 10.6565 1.33803 10.9988 1.50897 11.3022C1.67991 11.6056 1.92618 11.8598 2.22402 12.0403L6.95031 14.9049C7.26685 15.0967 7.62989 15.1981 8 15.1981C8.37011 15.1981 8.73315 15.0967 9.04969 14.9049L13.776 12.0403C14.0738 11.8598 14.3201 11.6056 14.491 11.3022C14.662 10.9988 14.7518 10.6565 14.7519 10.3082V5.69178C14.7518 5.34353 14.662 5.00118 14.491 4.69778C14.3201 4.39438 14.0738 4.14017 13.776 3.9597L9.04969 1.09512ZM9.99855 5.94745C10.0604 5.88111 10.1349 5.8279 10.2177 5.791C10.3005 5.7541 10.39 5.73425 10.4806 5.73266C10.5713 5.73106 10.6613 5.74773 10.7454 5.78169C10.8295 5.81565 10.9058 5.86619 10.9699 5.93031C11.0341 5.99442 11.0846 6.07079 11.1186 6.15487C11.1525 6.23894 11.1692 6.32899 11.1676 6.41965C11.166 6.5103 11.1462 6.59971 11.1093 6.68253C11.0724 6.76535 11.0191 6.83989 10.9528 6.90171L7.35182 10.5027C7.22523 10.6291 7.05362 10.7002 6.87469 10.7002C6.69577 10.7002 6.52416 10.6291 6.39756 10.5027L4.59707 8.7022C4.4778 8.57421 4.41288 8.40492 4.41596 8.23C4.41905 8.05508 4.48991 7.88819 4.61361 7.76448C4.73732 7.64078 4.90421 7.56992 5.07913 7.56683C5.25405 7.56375 5.42334 7.62867 5.55133 7.74794L6.87469 9.0713L9.99855 5.94745Z" fill="currentColor"/>
</svg>
