<svg width="16" height="16" viewBox="0 0 16 16" fill="none" xmlns="http://www.w3.org/2000/svg">
<path fill-rule="evenodd" clip-rule="evenodd" d="M12.4347 9.00402C12.5253 8.85068 12.6647 8.72602 12.976 8.42402C13.284 8.12402 13.4047 7.68802 13.292 7.27868C13.1787 6.86868 13.122 6.69202 13.122 6.51535C13.122 6.33868 13.178 6.16202 13.292 5.75068C13.3471 5.5491 13.3469 5.33638 13.2913 5.13493C13.2357 4.93349 13.1267 4.75076 12.976 4.60602C12.6647 4.30335 12.5253 4.17868 12.434 4.02468C12.3447 3.87202 12.3027 3.69135 12.1893 3.28268C12.1318 3.07957 12.0217 2.8952 11.8703 2.7481C11.7189 2.60101 11.5314 2.49636 11.3267 2.44468C10.902 2.33402 10.7167 2.29335 10.5587 2.20468C10.402 2.11535 10.272 1.97935 9.96534 1.68068C9.81164 1.53281 9.62251 1.42695 9.4161 1.37324C9.2097 1.31954 8.99295 1.31981 8.78667 1.37402C8.36267 1.48402 8.18134 1.53935 7.99934 1.53868C7.81734 1.53868 7.63601 1.48402 7.21334 1.37402C7.00716 1.31999 6.79056 1.31982 6.58429 1.37352C6.37803 1.42721 6.18901 1.53298 6.03534 1.68068C5.72534 1.98202 5.59534 2.11802 5.43801 2.20602C5.28001 2.29468 5.09467 2.33468 4.67334 2.44468C4.46871 2.49648 4.28129 2.60117 4.12988 2.74825C3.97847 2.89533 3.86839 3.07964 3.81067 3.28268C3.69734 3.69335 3.65534 3.87402 3.56534 4.02602C3.47467 4.17935 3.33534 4.30335 3.02401 4.60602C2.87327 4.75076 2.76436 4.93349 2.70875 5.13493C2.65313 5.33638 2.65288 5.5491 2.70801 5.75068C2.82201 6.16335 2.87867 6.34002 2.87801 6.51735C2.87801 6.69335 2.82134 6.86935 2.70801 7.27868C2.59534 7.68735 2.71601 8.12402 3.02401 8.42335C3.33467 8.72535 3.47467 8.85068 3.56534 9.00468C3.65534 9.15735 3.69734 9.33802 3.81067 9.74668C3.92334 10.156 4.25201 10.4753 4.67334 10.5847C5.26934 10.74 5.33334 11 5.33334 11.3333V14.6667L8.00001 13.192L10.6667 14.6667V11.3333C10.6667 11.002 10.73 10.74 11.3267 10.5853C11.5313 10.5336 11.7188 10.4289 11.8702 10.2819C12.0216 10.1348 12.1317 9.95043 12.1893 9.74735C12.3027 9.33668 12.3447 9.15602 12.4347 9.00402V9.00402ZM6.00001 6.66668C6.00001 6.13625 6.21072 5.62754 6.58579 5.25247C6.96087 4.8774 7.46957 4.66668 8.00001 4.66668C8.53044 4.66668 9.03915 4.8774 9.41422 5.25247C9.78929 5.62754 10 6.13625 10 6.66668C10 7.19712 9.78929 7.70582 9.41422 8.0809C9.03915 8.45597 8.53044 8.66668 8.00001 8.66668C7.46957 8.66668 6.96087 8.45597 6.58579 8.0809C6.21072 7.70582 6.00001 7.19712 6.00001 6.66668Z" fill="currentColor"/>
</svg>
