<svg xmlns="http://www.w3.org/2000/svg" viewBox="0 0 179.05 60.01">
  <path class="text" fill="#000000" d="M61.23 7.86V4.63h-3v3.23h-1.46V.11h1.51v3.25h3V.11h1.51v7.75zm7 0h-1.2L67 7.48a3.28 3.28 0 0 1-1.78.52c-1.06 0-1.52-.7-1.52-1.66 0-1.14.51-1.57 1.7-1.57h1.4v-.62c0-.62-.18-.84-1.11-.84a8.46 8.46 0 0 0-1.61.17l-.18-1.07a7.89 7.89 0 0 1 2-.26c1.83 0 2.37.62 2.37 2zM66.8 5.75h-1.08c-.48 0-.61.13-.61.55s.13.56.59.56a2.37 2.37 0 0 0 1.1-.29zM71.31 8a7.12 7.12 0 0 1-2-.32l.2-1.07a6.77 6.77 0 0 0 1.73.24c.65 0 .74-.14.74-.56s-.07-.52-1-.73c-1.42-.33-1.59-.68-1.59-1.76s.51-1.62 2.18-1.62a8 8 0 0 1 1.75.2l-.14 1.11a10.66 10.66 0 0 0-1.6-.16c-.63 0-.74.14-.74.48s0 .48.82.68c1.63.41 1.78.62 1.78 1.77S73.07 8 71.31 8zM78 7.86V4c0-.3-.13-.45-.47-.45A4.14 4.14 0 0 0 76 4v3.86h-1.46V0L76 .22v2.47a5.31 5.31 0 0 1 2.13-.54c1 0 1.32.65 1.32 1.65v4.06zm2.68-6.38V.11h1.46v1.37zm0 6.38V2.27h1.46v5.59zm2.62-5.54c0-1.4.85-2.22 2.83-2.22a9.37 9.37 0 0 1 2.16.25l-.17 1.25a12.21 12.21 0 0 0-1.95-.2c-1 0-1.37.34-1.37 1.16V5.5c0 .81.33 1.16 1.37 1.16a12.21 12.21 0 0 0 1.95-.2l.17 1.25a9.37 9.37 0 0 1-2.16.29c-2 0-2.83-.81-2.83-2.22zM91.51 8C89.52 8 89 6.92 89 5.77V4.36c0-1.15.54-2.2 2.53-2.2S94 3.21 94 4.36v1.41C94 6.92 93.51 8 91.51 8zm0-4.63c-.78 0-1.08.33-1.08 1v1.5c0 .63.3 1 1.08 1s1.08-.33 1.08-1V4.31c0-.63-.3-.96-1.08-.96zm6.64.09a11.57 11.57 0 0 0-1.54.81v3.6h-1.46v-5.6h1.23l.1.62A6.63 6.63 0 0 1 98 2.15zM104 6a1.73 1.73 0 0 1-1.92 2 8.36 8.36 0 0 1-1.55-.16v2.26l-1.53.21v-8h1.16l.14.47a3.15 3.15 0 0 1 1.84-.59c1.17 0 1.79.67 1.79 1.94zm-3.48.63a6.72 6.72 0 0 0 1.29.15c.53 0 .73-.24.73-.75v-2c0-.46-.18-.71-.72-.71a2.11 2.11 0 0 0-1.3.51z"/>
  <path class="p-front" fill="#02a8ef" d="M0 7.34l19.45 11.24v41.43L0 48.77V7.34z"/>
  <path class="p-back" fill="#02a8ef" d="M29.07 12.19L7.94 0v8.47l14.37 8.3v25.36L29.07 46c4.19 2.42 7.61 1 7.61-3.22V24.19c0-4.19-3.42-9.59-7.61-12z"/>
  <path class="text" fill="#000000" d="M56.77 14.1h12.48c7.4 0 10.13 3 10.13 8.65v4.37c0 5.57-3 8.6-10.42 8.6h-6.14v10.37h-6.05zm12.15 5.33h-6.1v11h6.1c3.41 0 4.42-1.25 4.42-3.89v-3.32c0-2.64-1.11-3.79-4.42-3.79zm30.93 26.66H95l-.43-1.58a12.79 12.79 0 0 1-7 2.07c-4.27 0-6.1-2.93-6.1-7 0-4.76 2.07-6.58 6.82-6.58H94v-2.43c0-2.59-.72-3.51-4.47-3.51a32.68 32.68 0 0 0-6.48.72l-.72-4.47a30.52 30.52 0 0 1 8-1.1c7.35 0 9.51 2.59 9.51 8.45zM94 37.25h-4.33c-1.92 0-2.45.53-2.45 2.31s.53 2.35 2.35 2.35a9.22 9.22 0 0 0 4.43-1.2zm9.35.34V31.2c0-6.29 2.74-9 10.09-9a20.15 20.15 0 0 1 5.72.86l-.72 4.8a21.31 21.31 0 0 0-4.85-.62c-3.36 0-4.37 1-4.37 3.89v6.48c0 2.88 1 3.89 4.37 3.89a19.79 19.79 0 0 0 4.85-.62l.72 4.8a19.29 19.29 0 0 1-5.72.86c-7.35.03-10.09-2.66-10.09-8.95zm19.5 8.5V13.14l5.86-.82v33.77zm19.89-23.39l-6.87 11.58L143 46.09h-6.44l-7.06-11.82 6.68-11.58zm12.2 19.06a24.51 24.51 0 0 0 7.16-1.1l.91 4.42a25.11 25.11 0 0 1-8.6 1.49c-7.35 0-9.89-3.41-9.89-9v-6.2c0-4.95 2.21-9.13 9.7-9.13s9.17 4.37 9.17 9.41v5h-13v1.2c-.02 2.81.99 3.91 4.55 3.91zm-4.56-9.85h7.44v-1.14c0-2.21-.67-3.75-3.55-3.75s-3.89 1.54-3.89 3.75zM179 27.6a45.86 45.86 0 0 0-6.2 3.41v15.08H167V22.7h4.95l.38 2.59a26.21 26.21 0 0 1 6.15-3.07z"/>
</svg>
