<svg xmlns="http://www.w3.org/2000/svg" viewBox="423 368 142 54">
  <path class="p-front" fill="#02a8ef" d="M423.046 374.78l17.42 9.96v36.717l-17.42-9.958"/>
  <path class="p-back" fill="#02a8ef" d="M449.09 379.072l-18.935-10.79v7.493l12.876 7.356v22.485l6.06 3.443c3.75 2.14 6.82.858 6.82-2.85V389.71c0-3.71-3.07-8.497-6.82-10.638"/>
  <path class="text" fill="#000000" d="M479.05 387.476h-4.55v8.194h4.55c2.542 0 3.294-.935 3.294-2.912v-2.443c0-1.977-.823-2.84-3.295-2.84zm-9.063-3.99h9.312c5.513 0 7.554 2.264 7.554 6.47v3.27c0 4.17-2.22 6.432-7.772 6.432H474.5v7.764h-4.513v-23.935zm28.12 17.324h-3.225c-1.433 0-1.827.394-1.827 1.725 0 1.22.394 1.76 1.755 1.76 1.29 0 2.472-.43 3.296-.898v-2.588zm4.37 6.612h-3.583l-.323-1.186c-1.572 1.042-3.433 1.546-5.19 1.546-3.19 0-4.55-2.193-4.55-5.212 0-3.557 1.54-4.923 5.088-4.923h4.19v-1.833c0-1.94-.537-2.624-3.33-2.624-1.576 0-3.295.216-4.835.54l-.536-3.343c1.647-.503 4.046-.827 5.98-.827 5.48 0 7.092 1.94 7.092 6.326v11.536zm3.15-6.362v-4.78c0-4.707 2.04-6.72 7.524-6.72 1.22 0 2.976.216 4.265.647l-.537 3.594c-1.182-.32-2.757-.463-3.618-.463-2.508 0-3.26.755-3.26 2.91v4.853c0 2.155.752 2.91 3.26 2.91 1.11 0 2.363-.144 3.617-.467l.537 3.595c-1.146.394-2.83.646-4.26.646-5.483 0-7.524-2.01-7.524-6.72m29.905-11.143l-5.12 8.66 5.335 8.845h-4.8l-5.264-8.842 4.98-8.66h4.87zm-14.827 17.505V382.77l4.37-.61v25.264h-4.37zm20.702-10.603h5.553v-.86c0-1.655-.5-2.805-2.65-2.805s-2.902 1.15-2.902 2.804v.86zm3.403 7.37c1.683 0 3.44-.254 5.337-.83l.68 3.308c-1.97.755-4.334 1.114-6.41 1.114-5.48 0-7.378-2.55-7.378-6.754v-4.636c0-3.703 1.647-6.83 7.235-6.83 5.586 0 6.84 3.27 6.84 7.044v3.738h-9.706v.9c0 2.118.756 2.946 3.406 2.946zm18.52-10.604c-1.684.755-3.045 1.546-4.62 2.552v11.285h-4.37V389.92h3.69l.284 1.94c.968-.646 3.045-1.868 4.585-2.3l.43 4.025z"/>
</svg>
