<svg width="91px" height="36px" viewBox="0 0 91 36" version="1.1" xmlns="http://www.w3.org/2000/svg" xmlns:xlink="http://www.w3.org/1999/xlink">
    <defs>
        <path d="M1.018,1.732 C0.477,2.336 0.208,3.13 0.208,4.113 C0.208,5.074 0.469,5.852 0.988,6.444 C1.509,7.038 2.19,7.335 3.031,7.335 C3.67,7.335 4.224,7.162 4.698,6.816 C5.168,6.47 5.486,6.033 5.648,5.505 L4.755,5.324 C4.433,6.132 3.88,6.537 3.096,6.537 C2.661,6.537 2.25,6.375 1.859,6.049 C1.468,5.723 1.273,5.092 1.273,4.16 L5.752,4.16 C5.74,3.051 5.49,2.216 4.999,1.659 C4.509,1.103 3.862,0.824 3.058,0.824 C2.239,0.824 1.56,1.125 1.018,1.732 Z M1.877,2.066 C2.207,1.724 2.61,1.553 3.086,1.553 C3.44,1.553 3.741,1.648 3.994,1.838 C4.246,2.027 4.425,2.255 4.531,2.523 C4.637,2.792 4.694,3.1 4.702,3.446 L1.317,3.446 C1.358,2.868 1.543,2.408 1.877,2.066 Z" id="path-1"></path>
        <path d="M0.016,0.835 L0.016,9.162 L0.478,9.162 L0.822,8.143 C1.268,8.936 1.911,9.333 2.75,9.333 C3.501,9.333 4.111,9.022 4.582,8.401 C5.052,7.78 5.286,7.011 5.286,6.093 C5.286,5.03 5.048,4.218 4.571,3.661 C4.091,3.103 3.501,2.824 2.792,2.824 C2.021,2.824 1.417,3.223 0.977,4.023 L0.977,0.835 L0.016,0.835 Z M1.561,8.124 C1.217,7.837 1.022,7.377 0.977,6.744 L0.977,5.358 C1.038,4.847 1.231,4.428 1.553,4.106 C1.879,3.783 2.241,3.62 2.644,3.62 C3.157,3.62 3.558,3.848 3.847,4.302 C4.136,4.756 4.28,5.38 4.28,6.174 C4.28,6.913 4.13,7.493 3.831,7.917 C3.531,8.34 3.138,8.552 2.65,8.552 C2.267,8.552 1.905,8.409 1.561,8.124 Z" id="path-3"></path>
        <path d="M1.605,1.345 C1.194,1.693 0.991,2.127 0.991,2.644 C0.991,3.112 1.141,3.488 1.441,3.773 C1.742,4.058 2.147,4.25 2.658,4.347 L3.956,4.596 C4.663,4.724 5.015,5.031 5.015,5.514 C5.015,5.837 4.876,6.092 4.599,6.271 C4.323,6.448 3.985,6.537 3.586,6.537 C2.501,6.537 1.858,6.148 1.654,5.375 L0.736,5.564 C1.082,6.743 1.986,7.335 3.447,7.335 C4.227,7.335 4.85,7.16 5.318,6.81 C5.788,6.462 6.02,6.006 6.02,5.438 C6.02,4.447 5.391,3.836 4.133,3.608 L2.932,3.389 C2.293,3.271 1.972,2.986 1.972,2.532 C1.972,2.243 2.098,2.021 2.348,1.86 C2.599,1.701 2.918,1.62 3.309,1.62 C4.095,1.62 4.614,1.941 4.866,2.581 L5.745,2.391 C5.432,1.347 4.606,0.824 3.266,0.824 C2.57,0.824 2.019,0.999 1.605,1.345 Z" id="path-5"></path>
        <path d="M1.4,1.732 C0.857,2.336 0.588,3.13 0.588,4.113 C0.588,5.074 0.848,5.852 1.367,6.444 C1.889,7.038 2.57,7.335 3.413,7.335 C4.05,7.335 4.606,7.162 5.078,6.816 C5.55,6.47 5.866,6.033 6.028,5.505 L5.135,5.324 C4.813,6.132 4.262,6.537 3.476,6.537 C3.041,6.537 2.629,6.375 2.239,6.049 C1.848,5.723 1.652,5.092 1.652,4.16 L6.132,4.16 C6.122,3.051 5.87,2.216 5.379,1.659 C4.891,1.103 4.241,0.824 3.437,0.824 C2.619,0.824 1.939,1.125 1.4,1.732 Z M2.257,2.066 C2.589,1.724 2.992,1.553 3.466,1.553 C3.82,1.553 4.123,1.648 4.376,1.838 C4.626,2.027 4.805,2.255 4.913,2.523 C5.017,2.792 5.074,3.1 5.082,3.446 L1.699,3.446 C1.74,2.868 1.925,2.408 2.257,2.066 Z" id="path-7"></path>
        <path d="M1.904,1.124 C1.605,1.323 1.306,1.758 1.011,2.432 L1.011,0.995 L0.166,0.995 L0.166,7.162 L1.129,7.162 L1.129,3.897 C1.153,3.258 1.341,2.741 1.689,2.351 C2.039,1.958 2.478,1.762 3.005,1.762 L3.201,1.762 L3.201,0.847 C3.046,0.83 2.92,0.824 2.822,0.824 C2.509,0.824 2.204,0.924 1.904,1.124 Z" id="path-9"></path>
        <path d="M1.547,1.756 C1.077,2.377 0.841,3.157 0.841,4.095 C0.841,4.999 1.065,5.764 1.51,6.393 C1.954,7.02 2.604,7.335 3.454,7.335 C4.081,7.335 4.604,7.142 5.023,6.755 C5.443,6.368 5.714,5.837 5.836,5.155 L4.971,5.003 C4.759,6.026 4.256,6.537 3.464,6.537 C2.952,6.537 2.555,6.319 2.272,5.882 C1.989,5.444 1.848,4.832 1.848,4.042 C1.848,3.326 1.991,2.744 2.276,2.293 C2.559,1.846 2.966,1.62 3.495,1.62 C4.317,1.62 4.808,2.129 4.971,3.148 L5.836,2.983 C5.738,2.347 5.488,1.828 5.081,1.427 C4.675,1.025 4.138,0.824 3.466,0.824 C2.656,0.824 2.017,1.133 1.547,1.756 Z" id="path-11"></path>
        <path d="M1.523,1.732 C0.982,2.336 0.711,3.13 0.711,4.113 C0.711,5.074 0.971,5.852 1.492,6.444 C2.011,7.038 2.693,7.335 3.536,7.335 C4.173,7.335 4.729,7.162 5.201,6.816 C5.673,6.47 5.988,6.033 6.153,5.505 L5.258,5.324 C4.936,6.132 4.385,6.537 3.601,6.537 C3.163,6.537 2.752,6.375 2.362,6.049 C1.973,5.723 1.777,5.092 1.777,4.16 L6.255,4.16 C6.245,3.051 5.995,2.216 5.504,1.659 C5.014,1.103 4.366,0.824 3.56,0.824 C2.744,0.824 2.064,1.125 1.523,1.732 Z M2.38,2.066 C2.71,1.724 3.113,1.553 3.591,1.553 C3.945,1.553 4.246,1.648 4.499,1.838 C4.751,2.027 4.93,2.255 5.034,2.523 C5.14,2.792 5.199,3.1 5.207,3.446 L1.822,3.446 C1.863,2.868 2.048,2.408 2.38,2.066 Z" id="path-13"></path>
        <path d="M1.67,1.345 C1.259,1.693 1.053,2.127 1.053,2.644 C1.053,3.112 1.204,3.488 1.505,3.773 C1.806,4.058 2.211,4.25 2.72,4.347 L4.021,4.596 C4.725,4.724 5.079,5.031 5.079,5.514 C5.079,5.837 4.94,6.092 4.662,6.271 C4.387,6.448 4.047,6.537 3.648,6.537 C2.565,6.537 1.92,6.148 1.716,5.375 L0.801,5.564 C1.147,6.743 2.05,7.335 3.512,7.335 C4.289,7.335 4.914,7.16 5.382,6.81 C5.85,6.462 6.084,6.006 6.084,5.438 C6.084,4.447 5.455,3.836 4.198,3.608 L2.997,3.389 C2.356,3.271 2.036,2.986 2.036,2.532 C2.036,2.243 2.162,2.021 2.413,1.86 C2.663,1.701 2.982,1.62 3.373,1.62 C4.159,1.62 4.676,1.941 4.928,2.581 L5.81,2.391 C5.496,1.347 4.668,0.824 3.331,0.824 C2.634,0.824 2.081,0.999 1.67,1.345 Z" id="path-15"></path>
        <path d="M1.503,0.956 C1.297,0.956 1.128,1.104 1.126,1.331 L1.126,2.812 C1.128,3.034 1.297,3.185 1.511,3.185 L4.983,3.187 L0.996,8.902 C0.752,9.268 0.748,9.682 0.748,9.922 L0.748,11.424 C0.748,11.644 0.99,11.892 1.222,11.768 C3.483,10.567 6.196,10.683 8.242,11.753 C8.492,11.886 8.73,11.633 8.73,11.416 L8.73,9.834 C8.71,9.621 8.641,9.403 8.378,9.256 C7.216,8.605 5.867,8.414 4.588,8.444 L8.03,3.533 C8.35,3.091 8.529,2.812 8.531,2.601 L8.531,1.329 C8.531,1.108 8.36,0.954 8.148,0.954 L1.503,0.956 Z" id="path-17"></path>
        <path d="M8.928,2.684 C8.362,1.375 7.569,0.765 6.305,0.765 C5.059,0.765 4.135,1.375 3.644,2.684 L3.606,2.684 L3.606,1.331 C3.594,1.141 3.435,0.993 3.237,0.982 L1.357,0.982 C1.141,0.982 0.966,1.149 0.966,1.357 L0.966,11.725 C0.98,11.91 1.135,12.053 1.326,12.065 L3.347,12.065 C3.563,12.065 3.738,11.9 3.738,11.692 L3.738,6.197 C3.738,4.998 3.681,3.339 5.136,3.339 C6.569,3.339 6.38,5.041 6.38,6.197 L6.382,11.694 C6.382,11.892 6.543,12.053 6.744,12.065 L8.765,12.065 C8.979,12.065 9.154,11.9 9.154,11.692 L9.154,6.197 C9.154,5.609 9.136,4.735 9.343,4.212 C9.551,3.687 10.06,3.36 10.55,3.36 C11.137,3.36 11.588,3.557 11.739,4.255 C11.835,4.67 11.796,5.761 11.796,6.197 L11.796,11.694 C11.796,11.892 11.957,12.053 12.158,12.065 L14.179,12.065 C14.393,12.065 14.568,11.9 14.568,11.692 L14.57,5.149 C14.57,4.038 14.702,2.771 14.061,1.898 C13.493,1.113 12.569,0.765 11.721,0.765 C10.532,0.765 9.419,1.375 8.928,2.684 Z" id="path-19"></path>
        <path d="M0.901,6.502 C0.901,9.71 2.491,12.285 5.412,12.285 C8.22,12.285 9.997,9.775 9.997,6.612 C9.997,3.339 8.387,0.765 5.412,0.765 C2.509,0.765 0.901,3.272 0.901,6.502 Z M3.857,6.441 C3.857,5.177 3.952,3.148 5.43,3.148 C6.067,3.148 6.517,3.431 6.741,4.151 C7.003,4.98 7.04,6.028 7.04,6.901 C7.04,8.232 6.967,10.146 5.412,10.146 C3.838,10.146 3.857,7.707 3.857,6.441 Z" id="path-21"></path>
        <path d="M3.587,2.859 L3.548,2.859 L3.548,1.273 C3.512,1.113 3.365,0.991 3.19,0.982 L1.315,0.982 C1.11,0.982 0.943,1.133 0.927,1.322 L0.929,11.694 C0.929,11.892 1.089,12.053 1.293,12.065 L3.306,12.065 C3.522,12.065 3.697,11.9 3.699,11.692 L3.699,6.109 C3.699,5.411 3.737,4.778 4.02,4.146 C4.246,3.645 4.7,3.317 5.189,3.317 C6.587,3.317 6.455,4.976 6.455,6.109 L6.455,11.739 C6.477,11.917 6.628,12.055 6.815,12.065 L8.84,12.065 C9.042,12.065 9.206,11.922 9.229,11.739 L9.229,5.216 C9.229,4.212 9.229,2.816 8.7,1.986 C8.134,1.092 7.246,0.765 6.341,0.765 C4.944,0.765 4.153,1.44 3.587,2.859 Z" id="path-23"></path>
        <path d="M0.441,3.756 C0.394,4.009 0.579,4.143 0.744,4.18 L2.704,4.392 C2.887,4.381 3.019,4.202 3.054,4.019 C3.223,3.203 3.907,2.806 4.68,2.806 C5.095,2.806 5.568,2.958 5.814,3.333 C6.097,3.747 6.06,4.316 6.06,4.797 L6.06,5.059 C4.886,5.191 3.355,5.277 2.258,5.759 C0.992,6.307 0.103,7.42 0.103,9.061 C0.103,11.159 1.426,12.209 3.127,12.209 C4.566,12.209 5.352,11.87 6.461,10.742 C6.828,11.271 6.948,11.53 7.619,12.087 C7.77,12.168 7.963,12.161 8.098,12.041 L8.102,12.044 C8.507,11.687 9.237,11.049 9.651,10.703 C9.818,10.569 9.789,10.349 9.659,10.166 C9.29,9.655 8.898,9.24 8.898,8.293 L8.898,5.146 C8.898,3.813 8.991,2.588 8.006,1.668 C7.233,0.925 5.946,0.665 4.961,0.665 C3.04,0.665 0.893,1.381 0.441,3.756 Z M3.052,8.71 C3.052,6.991 4.597,6.677 6.06,6.677 L6.06,7.115 C6.06,7.902 6.079,8.556 5.682,9.256 C5.36,9.826 4.849,10.176 4.281,10.176 C3.508,10.176 3.052,9.586 3.052,8.71 Z" id="path-25"></path>
        <path d="M1.173,3.756 C1.124,4.009 1.307,4.143 1.474,4.18 L3.432,4.392 C3.617,4.381 3.747,4.202 3.784,4.019 C3.953,3.203 4.637,2.806 5.41,2.806 C5.825,2.806 6.298,2.958 6.544,3.333 C6.827,3.747 6.79,4.316 6.79,4.797 L6.79,5.059 C5.616,5.191 4.083,5.277 2.988,5.759 C1.72,6.307 0.833,7.42 0.833,9.061 C0.833,11.159 2.156,12.209 3.857,12.209 C5.294,12.209 6.082,11.87 7.191,10.742 C7.557,11.271 7.677,11.53 8.349,12.087 C8.5,12.168 8.693,12.161 8.827,12.041 L8.832,12.044 C9.234,11.687 9.969,11.049 10.382,10.703 C10.545,10.569 10.517,10.349 10.389,10.166 C10.02,9.655 9.625,9.24 9.625,8.293 L9.625,5.146 C9.625,3.813 9.719,2.588 8.738,1.668 C7.96,0.925 6.674,0.665 5.693,0.665 C3.768,0.665 1.62,1.381 1.173,3.756 Z M3.782,8.71 C3.782,6.991 5.327,6.677 6.79,6.677 L6.79,7.115 C6.79,7.902 6.808,8.556 6.409,9.256 C6.09,9.826 5.579,10.176 5.011,10.176 C4.236,10.176 3.782,9.586 3.782,8.71 Z" id="path-27"></path>
    </defs>
    <g id="Page-1" stroke="none" stroke-width="1" fill="none" fill-rule="evenodd">
        <g>
            <polygon id="Fill-1" fill="#171D23" points="6.56 32.147 11.848 34.041 11.848 26.199 6.56 24.4"></polygon>
            <polygon id="Fill-2" fill="#171D23" points="12.8181 26.1992 12.8181 34.0402 18.1081 32.1472 18.1081 24.4002"></polygon>
            <polygon id="Fill-3" fill="#171D23" points="7.1038 23.8188 12.4568 25.5958 17.4188 23.9098 12.4568 22.3128"></polygon>
            <polygon id="Fill-4" fill="#171D23" points="0.262 21.3218 5.552 23.2188 5.552 15.3778 0.262 13.5748"></polygon>
            <polygon id="Fill-5" fill="#171D23" points="6.5206 15.3774 6.5206 23.2184 11.8106 21.3214 11.8106 13.5744"></polygon>
            <polygon id="Fill-6" fill="#171D23" points="0.8054 12.9946 6.1584 14.7736 11.1204 13.0906 6.1584 11.4896"></polygon>
            <polygon id="Fill-7" fill="#171D23" points="12.6022 21.3218 17.8922 23.2188 17.8922 15.3778 12.6022 13.5748"></polygon>
            <polygon id="Fill-8" fill="#171D23" points="18.8622 15.3774 18.8622 23.2184 24.1512 21.3214 24.1512 13.5744"></polygon>
            <polygon id="Fill-9" fill="#171D23" points="13.1482 12.9946 18.5002 14.7736 23.4632 13.0906 18.5002 11.4896"></polygon>
            <polygon id="Fill-10" fill="#171D23" points="18.8998 10.501 24.1898 12.395 24.1898 4.553 18.8998 2.754"></polygon>
            <polygon id="Fill-11" fill="#171D23" points="25.1588 4.5532 25.1588 12.3952 30.4488 10.5012 30.4488 2.7542"></polygon>
            <polygon id="Fill-12" fill="#171D23" points="19.4435 2.1738 24.7965 3.9508 29.7605 2.2658 24.7965 0.6668"></polygon>
            <polygon id="Fill-13" fill="#171D23" points="31.2405 10.501 36.5305 12.395 36.5305 4.553 31.2405 2.754"></polygon>
            <polygon id="Fill-14" fill="#171D23" points="37.4996 4.5532 37.4996 12.3952 42.7886 10.5012 42.7886 2.7542"></polygon>
            <polygon id="Fill-15" fill="#171D23" points="31.7839 2.1738 37.1369 3.9508 42.1009 2.2658 37.1369 0.6668"></polygon>
            <polygon id="Fill-16" fill="#171D23" points="33.0646 28.9951 31.6816 33.6051 30.2896 28.9951 29.5856 28.9951 28.3046 33.5901 26.9606 28.9951 26.0046 28.9951 27.8516 35.1621 28.6396 35.1621 29.9066 30.5831 31.2906 35.1621 32.0626 35.1621 33.8406 28.9951"></polygon>
            <g id="Group-19" transform="translate(34.000000, 28.000000)">
                <mask id="mask-2" fill="white">
                    <use xlink:href="#path-1"></use>
                </mask>
                <g id="Clip-18"></g>
                <polygon id="Fill-17" fill="#171D23" mask="url(#mask-2)" points="-4.793 12.334 10.753 12.334 10.753 -4.176 -4.793 -4.176"></polygon>
            </g>
            <g id="Group-22" transform="translate(41.000000, 26.000000)">
                <mask id="mask-4" fill="white">
                    <use xlink:href="#path-3"></use>
                </mask>
                <g id="Clip-21"></g>
                <polygon id="Fill-20" fill="#171D23" mask="url(#mask-4)" points="-4.984 14.333 10.286 14.333 10.286 -4.165 -4.984 -4.165"></polygon>
            </g>
            <g id="Group-25" transform="translate(48.000000, 28.000000)">
                <mask id="mask-6" fill="white">
                    <use xlink:href="#path-5"></use>
                </mask>
                <g id="Clip-24"></g>
                <polygon id="Fill-23" fill="#171D23" mask="url(#mask-6)" points="-4.264 12.334 11.02 12.334 11.02 -4.177 -4.264 -4.177"></polygon>
            </g>
            <g id="Group-28" transform="translate(54.000000, 28.000000)">
                <mask id="mask-8" fill="white">
                    <use xlink:href="#path-7"></use>
                </mask>
                <g id="Clip-27"></g>
                <polygon id="Fill-26" fill="#171D23" mask="url(#mask-8)" points="-4.412 12.334 11.133 12.334 11.133 -4.176 -4.412 -4.176"></polygon>
            </g>
            <g id="Group-31" transform="translate(61.000000, 28.000000)">
                <mask id="mask-10" fill="white">
                    <use xlink:href="#path-9"></use>
                </mask>
                <g id="Clip-30"></g>
                <polygon id="Fill-29" fill="#171D23" mask="url(#mask-10)" points="-4.833 12.162 8.201 12.162 8.201 -4.176 -4.833 -4.176"></polygon>
            </g>
            <polygon id="Fill-32" fill="#171D23" points="69.3203 28.9951 67.6193 34.0091 65.9073 28.9951 64.8433 28.9951 67.0463 35.1621 68.0413 35.1621 70.1723 28.9951"></polygon>
            <path d="M70.941,27.899 L71.97,27.899 L71.97,26.836 L70.941,26.836 L70.941,27.899 Z M70.987,35.164 L71.947,35.164 L71.947,28.995 L70.987,28.995 L70.987,35.164 Z" id="Fill-33" fill="#171D23"></path>
            <g id="Group-36" transform="translate(72.000000, 28.000000)">
                <mask id="mask-12" fill="white">
                    <use xlink:href="#path-11"></use>
                </mask>
                <g id="Clip-35"></g>
                <polygon id="Fill-34" fill="#171D23" mask="url(#mask-12)" points="-4.158 12.334 10.836 12.334 10.836 -4.176 -4.158 -4.176"></polygon>
            </g>
            <g id="Group-39" transform="translate(78.000000, 28.000000)">
                <mask id="mask-14" fill="white">
                    <use xlink:href="#path-13"></use>
                </mask>
                <g id="Clip-38"></g>
                <polygon id="Fill-37" fill="#171D23" mask="url(#mask-14)" points="-4.289 12.334 11.256 12.334 11.256 -4.176 -4.289 -4.176"></polygon>
            </g>
            <g id="Group-42" transform="translate(84.000000, 28.000000)">
                <mask id="mask-16" fill="white">
                    <use xlink:href="#path-15"></use>
                </mask>
                <g id="Clip-41"></g>
                <polygon id="Fill-40" fill="#171D23" mask="url(#mask-16)" points="-4.2 12.334 11.084 12.334 11.084 -4.177 -4.2 -4.177"></polygon>
            </g>
            <g id="Group-45" transform="translate(62.000000, 13.000000)">
                <mask id="mask-18" fill="white">
                    <use xlink:href="#path-17"></use>
                </mask>
                <g id="Clip-44"></g>
                <polygon id="Fill-43" fill="#171D23" mask="url(#mask-18)" points="-4.252 16.8 13.73 16.8 13.73 -4.046 -4.252 -4.046"></polygon>
            </g>
            <g id="Group-48" transform="translate(36.000000, 13.000000)">
                <mask id="mask-20" fill="white">
                    <use xlink:href="#path-19"></use>
                </mask>
                <g id="Clip-47"></g>
                <polygon id="Fill-46" fill="#171D23" mask="url(#mask-20)" points="-4.035 17.065 19.581 17.065 19.581 -4.236 -4.035 -4.236"></polygon>
            </g>
            <g id="Group-51" transform="translate(70.000000, 13.000000)">
                <mask id="mask-22" fill="white">
                    <use xlink:href="#path-21"></use>
                </mask>
                <g id="Clip-50"></g>
                <polygon id="Fill-49" fill="#171D23" mask="url(#mask-22)" points="-4.099 17.284 14.998 17.284 14.998 -4.237 -4.099 -4.237"></polygon>
            </g>
            <g id="Group-54" transform="translate(81.000000, 13.000000)">
                <mask id="mask-24" fill="white">
                    <use xlink:href="#path-23"></use>
                </mask>
                <g id="Clip-53"></g>
                <polygon id="Fill-52" fill="#171D23" mask="url(#mask-24)" points="-4.073 17.065 14.229 17.065 14.229 -4.236 -4.073 -4.236"></polygon>
            </g>
            <g id="Group-57" transform="translate(52.000000, 13.000000)">
                <mask id="mask-26" fill="white">
                    <use xlink:href="#path-25"></use>
                </mask>
                <g id="Clip-56"></g>
                <polygon id="Fill-55" fill="#171D23" mask="url(#mask-26)" points="-4.897 17.209 14.766 17.209 14.766 -4.336 -4.897 -4.336"></polygon>
            </g>
            <g id="Group-60" transform="translate(25.000000, 13.000000)">
                <mask id="mask-28" fill="white">
                    <use xlink:href="#path-27"></use>
                </mask>
                <g id="Clip-59"></g>
                <polygon id="Fill-58" fill="#171D23" mask="url(#mask-28)" points="-4.168 17.209 15.495 17.209 15.495 -4.336 -4.168 -4.336"></polygon>
            </g>
        </g>
    </g>
</svg>
