<svg xmlns="http://www.w3.org/2000/svg" height="45" viewBox="0 0 50 30">
    <defs>
        <style>
            .cls-1{fill:#252f3e;}.cls-2{fill:#f90;fill-rule:evenodd;}
        </style>
    </defs>
    <title>
        AWS_logo_RGB
    </title>
    <g id="Layer_2" data-name="Layer 2">
        <g id="Layer_1-2" data-name="Layer 1">
            <path d="M14.09,10.85a4.65,4.65,0,0,0,.19,1.49,6.73,6.73,0,0,0,.54,1.19.85.85,0,0,1,.11.38.61.61,0,0,1-.32.49l-1,.7a.86.86,0,0,1-.44.15.7.7,0,0,1-.5-.24,3.66,3.66,0,0,1-.59-.77,9.54,9.54,0,0,1-.51-1,6.16,6.16,0,0,1-4.89,2.3,4.54,4.54,0,0,1-3.32-1.2,4.27,4.27,0,0,1-1.22-3.2A4.32,4.32,0,0,1,3.61,7.75,6.08,6.08,0,0,1,7.69,6.46a12.07,12.07,0,0,1,1.76.13c.61.09,1.24.21,1.9.36V5.73a3.66,3.66,0,0,0-.78-2.66A3.85,3.85,0,0,0,7.86,2.3a7.49,7.49,0,0,0-1.79.22,12.78,12.78,0,0,0-1.79.56,4,4,0,0,1-.58.22,1.14,1.14,0,0,1-.26.05c-.23,0-.35-.18-.35-.53V2a1,1,0,0,1,.12-.58,1.06,1.06,0,0,1,.46-.35A10.58,10.58,0,0,1,5.77.32,10.32,10.32,0,0,1,8.36,0a6,6,0,0,1,4.35,1.35,5.5,5.5,0,0,1,1.38,4.09ZM7.34,13.38a5.52,5.52,0,0,0,1.72-.3A3.75,3.75,0,0,0,10.63,12,2.56,2.56,0,0,0,11.19,11a5.4,5.4,0,0,0,.16-1.44V8.82a13.68,13.68,0,0,0-1.52-.28,12.11,12.11,0,0,0-1.56-.1,3.79,3.79,0,0,0-2.47.67A2.31,2.31,0,0,0,5,11a2.39,2.39,0,0,0,.61,1.76A2.39,2.39,0,0,0,7.34,13.38Zm13.35,1.81a1.09,1.09,0,0,1-.64-.16,1.41,1.41,0,0,1-.35-.66L15.81,1.51a2.86,2.86,0,0,1-.15-.67.36.36,0,0,1,.41-.4H17.7a1,1,0,0,1,.65.16,1.32,1.32,0,0,1,.34.65l2.79,11,2.59-11A1.12,1.12,0,0,1,24.39.6a1.06,1.06,0,0,1,.67-.16H26.4a1.08,1.08,0,0,1,.67.16,1.18,1.18,0,0,1,.32.65L30,12.39,32.88,1.25A1.32,1.32,0,0,1,33.22.6a1,1,0,0,1,.65-.16h1.55a.35.35,0,0,1,.4.4,1.39,1.39,0,0,1,0,.27,2.07,2.07,0,0,1-.11.4l-4,12.86a1.26,1.26,0,0,1-.35.66,1.07,1.07,0,0,1-.64.16H29.25a1,1,0,0,1-.67-.18,1.23,1.23,0,0,1-.32-.67L25.67,3.64l-2.56,10.7a1.3,1.3,0,0,1-.32.67,1,1,0,0,1-.67.18Zm21.36.43a10.92,10.92,0,0,1-2.56-.29,7.13,7.13,0,0,1-1.92-.67,1.17,1.17,0,0,1-.51-.46,1.14,1.14,0,0,1-.1-.47v-.84c0-.35.12-.52.38-.52a1.11,1.11,0,0,1,.3.05l.42.18a9.42,9.42,0,0,0,1.84.58,9.5,9.5,0,0,0,2,.2,4.45,4.45,0,0,0,2.42-.55,1.75,1.75,0,0,0,.86-1.57,1.59,1.59,0,0,0-.45-1.16A4.41,4.41,0,0,0,43,9.22l-2.42-.75A5.14,5.14,0,0,1,38,6.78a4,4,0,0,1-.83-2.42,3.69,3.69,0,0,1,.45-1.84,4.37,4.37,0,0,1,1.2-1.37A5.29,5.29,0,0,1,40.51.29,7.54,7.54,0,0,1,42.6,0a8.53,8.53,0,0,1,1.12.07c.38,0,.74.11,1.08.19s.65.17,1,.26a5,5,0,0,1,.69.29,1.71,1.71,0,0,1,.5.41,1,1,0,0,1,.14.55v.79c0,.35-.12.52-.37.52a1.63,1.63,0,0,1-.64-.2,7.73,7.73,0,0,0-3.21-.64,4.37,4.37,0,0,0-2.21.47,1.59,1.59,0,0,0-.78,1.48,1.57,1.57,0,0,0,.49,1.18,4.91,4.91,0,0,0,1.84.91L44.55,7a5.14,5.14,0,0,1,2.58,1.6A3.79,3.79,0,0,1,47.9,11a4.22,4.22,0,0,1-1.65,3.4,5.32,5.32,0,0,1-1.84.93A8.07,8.07,0,0,1,42.05,15.62Z" class="cls-1"/>
            <path d="M45.19,23.81C39.72,27.85,31.78,30,25,30A36.65,36.65,0,0,1,.22,20.57c-.51-.47,0-1.1.56-.74A49.75,49.75,0,0,0,25.53,26.4,49.13,49.13,0,0,0,44.4,22.53C45.32,22.14,46.1,23.14,45.19,23.81Z" class="cls-2"/>
            <path d="M47.47,21.21c-.7-.89-4.63-.42-6.39-.21-.53.06-.62-.41-.14-.74,3.14-2.2,8.27-1.57,8.87-.83s-.16,5.89-3.1,8.35c-.45.37-.88.17-.68-.33C46.69,25.8,48.17,22.11,47.47,21.21Z" class="cls-2"/>
        </g>
    </g>
</svg>
