
<svg width="120px" height="45px" viewBox="0 0 120 45" version="1.1" xmlns="http://www.w3.org/2000/svg" xmlns:xlink="http://www.w3.org/1999/xlink">
    <desc>Amazon Web Services Logo</desc>
    <defs></defs>
    <g id="Page-1" stroke="none" stroke-width="1" fill="none" fill-rule="evenodd">
        <g id="aws" transform="translate(0.953399, -1.456343)">
            <g id="g10" transform="translate(59.995002, 23.552216) scale(-1, 1) rotate(-180.000000) translate(-59.995002, -23.552216) translate(0.000000, 1.054090)">
                <g id="g12" transform="translate(0.000000, 0.000000)">
                    <polyline id="path14" fill="#F68D11" fill-rule="nonzero" points="33.0562637 29.007929 26.1441989 31.2980287 26.1441989 41.2217939 33.0647221 39.1861497 33.0562637 29.007929"></polyline>
                    <polyline id="path16" fill="#F68D11" fill-rule="nonzero" points="34.8589318 39.1861497 41.7794551 41.2217939 41.7553614 31.304899 34.8589318 29.007929 34.8589318 39.1861497"></polyline>
                    <polyline id="path18" fill="#F68D11" fill-rule="nonzero" points="40.3697189 42.2963595 33.9197912 44.2752601 27.5539351 42.2963595 33.9290186 40.5999046 40.3697189 42.2963595"></polyline>
                    <polyline id="path20" fill="#F68D11" fill-rule="nonzero" points="50.4857296 29.007929 43.5736648 31.2980287 43.5736648 41.2217939 50.494188 39.1861497 50.4857296 29.007929"></polyline>
                    <polyline id="path22" fill="#F68D11" fill-rule="nonzero" points="52.2883978 39.1861497 59.208921 41.2217939 59.1848273 31.304899 52.2883978 29.007929 52.2883978 39.1861497"></polyline>
                    <polyline id="path24" fill="#F68D11" fill-rule="nonzero" points="57.7991848 42.2963595 51.3492571 44.2752601 44.983401 42.2963595 51.3584845 40.5999046 57.7991848 42.2963595"></polyline>
                    <polyline id="path26" fill="#F68D11" fill-rule="nonzero" points="6.92052323 24.6821852 -4.32209297e-16 26.7178294 -4.32209297e-16 16.7940642 6.91211608 14.5039645 6.92052323 24.6821852"></polyline>
                    <polyline id="path28" fill="#F68D11" fill-rule="nonzero" points="8.71473296 24.6821852 15.6352562 26.7178294 15.6112394 16.8007309 8.71473296 14.5039645 8.71473296 24.6821852"></polyline>
                    <polyline id="path30" fill="#F68D11" fill-rule="nonzero" points="14.22552 27.792395 7.77556669 29.7712956 1.40973621 27.792395 7.78489658 26.0959401 14.22552 27.792395"></polyline>
                    <polyline id="path32" fill="#F68D11" fill-rule="nonzero" points="24.341582 14.5039645 17.4294659 16.7940642 17.4294659 26.7178294 24.3499891 24.6821852 24.341582 14.5039645"></polyline>
                    <polyline id="path34" fill="#F68D11" fill-rule="nonzero" points="26.1441989 24.6821852 33.0647221 26.7178294 33.0406284 16.8007309 26.1441989 14.5039645 26.1441989 24.6821852"></polyline>
                    <polyline id="path36" fill="#F68D11" fill-rule="nonzero" points="31.6549859 27.792395 25.2050326 29.7712956 18.8392021 27.792395 25.2143625 26.0959401 31.6549859 27.792395"></polyline>
                    <polyline id="path38" fill="#F68D11" fill-rule="nonzero" points="15.626849 -1.33226763e-14 8.71473296 2.29009966 8.71473296 12.2138648 15.6352562 10.1782207 15.626849 -1.33226763e-14"></polyline>
                    <polyline id="path40" fill="#F68D11" fill-rule="nonzero" points="17.4294659 10.1782207 24.3499891 12.2138648 24.3259724 2.29675876 17.4294659 -1.33226763e-14 17.4294659 10.1782207"></polyline>
                    <polyline id="path42" fill="#F68D11" fill-rule="nonzero" points="22.9402529 13.2884305 16.4902997 15.2673311 10.1244692 13.2884305 16.4996295 11.5919501 22.9402529 13.2884305"></polyline>
                    <path d="M46.2367847,8.77235397 L45.7282544,8.77057278 C45.5416565,8.77057278 45.3037956,8.64543156 45.2453556,8.44255418 L43.7025916,3.04679948 L42.1767444,8.43082378 C42.1308639,8.59960412 41.9706666,8.77057278 41.7527982,8.77057278 L41.1507127,8.77057278 C40.9338697,8.77057278 40.7757229,8.59731402 40.7318929,8.42733774 L39.3124167,3.09929365 L37.8457784,8.4438519 C37.7878511,8.63927374 37.5440948,8.77057278 37.3528834,8.77057278 L36.6211021,8.77184506 C36.4647495,8.77184506 36.3194186,8.70515227 36.2414986,8.59782293 C36.1886976,8.52504865 36.1740876,8.44255418 36.1984376,8.37079772 L38.4642681,0.407426541 C38.5142497,0.239943665 38.6603496,0.0712673925 38.8741169,0.0712673925 L39.6017971,0.0712673925 C39.7983912,0.0712673925 39.9706353,0.21350421 40.0203606,0.415279039 L41.4149742,5.71988014 L42.9326193,0.409215364 C42.9782435,0.246603275 43.1251124,0.0712673925 43.3399049,0.0712673925 L44.0557946,0.0712673925 C44.2549519,0.0712673925 44.4225823,0.208633677 44.4717949,0.409912572 L46.652785,8.36751524 C46.6784166,8.44415724 46.6635503,8.52932351 46.6115182,8.60110541 C46.5348798,8.70675534 46.391343,8.77235397 46.2367847,8.77235397" id="path44" fill="#100F0D" fill-rule="nonzero"></path>
                    <path d="M52.5288219,5.39137806 L48.6845994,5.39137806 C48.7730283,6.46238134 49.473539,7.57282522 50.6602806,7.61557374 C51.9231479,7.57463185 52.5008834,6.48960808 52.5288219,5.39137806 Z M50.6574611,8.82930112 C48.060727,8.82930112 46.8780865,6.55024483 46.8780865,4.43289502 C46.8780865,1.79033375 48.3483132,0.0829962651 50.6236274,0.0829962651 C52.2520009,0.0829962651 53.4933377,0.899739443 54.0295501,2.32677688 C54.0582575,2.40838076 54.0492864,2.496944 54.0044312,2.57636212 C53.949836,2.67277531 53.8462844,2.74552414 53.7237655,2.77226742 L53.0030059,2.90913904 C52.8094875,2.93926658 52.5877745,2.82544862 52.5144682,2.66035788 C52.164341,1.86746431 51.5261149,1.41759459 50.7251284,1.39413888 C49.9543872,1.41779561 49.2466996,1.87233459 48.9224603,2.55142548 C48.6589678,3.1061385 48.6200078,3.65293797 48.6156504,4.20894872 L53.8344939,4.21072991 C53.9439407,4.21072991 54.0572322,4.2585421 54.1372027,4.33897549 C54.2041011,4.40566828 54.2404979,4.48854444 54.239729,4.57154783 C54.2269132,6.63006752 53.2793142,8.82930112 50.6574611,8.82930112 L50.6574611,8.82930112 Z" id="path46" fill="#100F0D" fill-rule="nonzero"></path>
                    <path d="M60.6601803,4.42017224 C60.6601803,3.93263547 60.5712388,1.4982061 58.8290612,1.43588485 C58.245174,1.45805047 57.6551354,1.79878168 57.3255134,2.30252472 C57.0827825,2.68351333 56.9410399,3.21021081 56.9046431,3.86187139 L56.9046431,5.29417606 C56.9330941,6.39141369 57.7110122,7.5954972 58.8234222,7.64211345 C60.5714951,7.57363947 60.6601803,4.94638625 60.6601803,4.42017224 Z M59.1022937,8.90316955 L58.9641395,8.90316955 C58.1021499,8.90316955 57.4247076,8.54772064 56.9046431,7.81913816 L56.9038741,11.1761698 C56.9038741,11.3647213 56.7077926,11.5364788 56.4912059,11.5364788 L55.7407136,11.5364788 C55.5446321,11.5364788 55.3252259,11.3823042 55.3247132,11.1761698 L55.3247132,0.696671217 C55.3254822,0.506325767 55.5215637,0.333377441 55.7378941,0.333377441 L55.9583256,0.334568293 C56.1664539,0.334568293 56.3146044,0.501058538 56.3645859,0.655719146 L56.5993711,1.39542897 C57.1448108,0.626497475 57.9663026,0.174838676 58.8454654,0.174838676 L58.9800311,0.174838676 C61.2958432,0.174838676 62.3323838,2.41096603 62.3323838,4.62701913 C62.3323838,5.73010925 62.0583823,6.78482737 61.5808662,7.52066183 C61.0290186,8.37336772 60.0791127,8.90316955 59.1022937,8.90316955 L59.1022937,8.90316955 Z" id="path48" fill="#100F0D" fill-rule="nonzero"></path>
                    <path d="M70.5501207,4.65602706 C70.0620956,5.00412221 69.475389,5.12040838 68.8876572,5.23692356 L67.7606372,5.4443557 C66.9519612,5.57634178 66.4839288,5.79163659 66.4839288,6.50004075 C66.4839288,7.24890334 67.2656916,7.5351658 67.9285239,7.55295224 C68.7379688,7.53267214 69.3467186,7.17414431 69.6422505,6.54357809 C69.712481,6.39497607 69.8680647,6.2950005 70.0297998,6.2950005 C70.0574819,6.2950005 70.0856767,6.29807941 70.1123335,6.3038301 L70.8156637,6.45810648 C70.9304931,6.48324669 71.0376331,6.56136453 71.0950478,6.66296862 C71.1409283,6.74358013 71.1509246,6.83162174 71.1234988,6.91024849 C70.6931448,8.15479043 69.6004711,8.81250705 67.9474913,8.81250705 C66.4539399,8.80922458 64.8578621,8.14993033 64.8578621,6.30851209 C64.8578621,5.04994965 65.6544913,4.25070487 67.2272443,3.93263547 L68.48883,3.69398164 C69.181395,3.56237725 69.8895952,3.32830362 69.8895952,2.59007727 C69.8895952,1.49721118 68.6085294,1.38578765 68.2212364,1.37783592 C67.3523263,1.39642389 66.3685867,1.78118862 66.1297005,2.59595519 C66.0817695,2.77506643 65.8546738,2.90178528 65.6555165,2.86063982 L64.9198905,2.70995126 C64.8091622,2.68679581 64.7079175,2.61531926 64.6489649,2.51881191 C64.5994959,2.43839888 64.5853986,2.34834707 64.6082107,2.26614522 C64.9878142,0.914251041 66.3024573,0.0989992271 68.1248617,0.0852822935 L68.1653596,0.0849840716 C69.7929642,0.0849840716 71.532066,0.776885775 71.532066,2.71781394 C71.532066,3.50789832 71.173993,4.21431773 70.5501207,4.65602706" id="path50" fill="#100F0D" fill-rule="nonzero"></path>
                    <path d="M77.9904521,5.38351539 L74.1452043,5.38351539 C74.2331206,6.45551104 74.9336313,7.56646383 76.1203729,7.6072276 C77.3827276,7.5674562 77.9612321,6.48255966 77.9904521,5.38351539 Z M76.1183224,8.82194735 C73.5210757,8.82194735 72.3381788,6.54278928 72.3381788,4.42554125 C72.3381788,1.78317592 73.8086618,0.0760384334 76.0842324,0.0760384334 C77.7128622,0.0760384334 78.954199,0.892879322 79.490924,2.31962159 C79.5193751,2.40132471 79.510404,2.49008643 79.4652925,2.56969538 C79.4106972,2.66621036 79.3068894,2.73898464 79.1846268,2.765219 L78.4628419,2.90209062 C78.2939298,2.92931736 78.0583757,2.84254803 77.9753295,2.65300412 C77.6249459,1.86060674 76.9864636,1.41073701 76.186246,1.38628638 C75.4147359,1.41073701 74.7073046,1.8651793 74.3843469,2.54405899 C74.1203417,3.09748702 74.0811254,3.64476994 74.0772807,4.20210386 L79.2956115,4.20337614 C79.4042894,4.20337614 79.5168119,4.25090843 79.5967824,4.33080747 C79.6639371,4.3978056 79.700334,4.48070721 79.699565,4.56419407 C79.6875182,6.62251019 78.7406881,8.82194735 76.1183224,8.82194735 L76.1183224,8.82194735 Z" id="path52" fill="#100F0D" fill-rule="nonzero"></path>
                    <path d="M84.6274902,8.72505069 C84.5257329,8.7361704 84.4278203,8.74153941 84.3327272,8.74153941 C83.4568965,8.74153941 82.7456205,8.26881195 82.2519565,7.36569842 L82.2537507,8.15659706 C82.2529818,8.34812573 82.0604887,8.51639717 81.8418514,8.51639717 L81.1900407,8.51639717 C80.9762734,8.51639717 80.787625,8.3474387 80.7860872,8.15351815 L80.7850619,0.470742708 C80.7850619,0.277913772 80.9737102,0.108640547 81.1890154,0.108640547 L81.949504,0.108938769 C82.1473797,0.108938769 82.370118,0.263101916 82.3719122,0.470742708 L82.3724249,4.34403915 C82.3724249,4.98274795 82.4324027,5.46392333 82.7397252,6.03319122 C83.178794,6.84406461 83.7919011,7.24185492 84.6141618,7.24821631 C84.8202396,7.24969215 85.0011984,7.42831993 85.0011984,7.63058662 L85.0011984,8.34921989 C85.0011984,8.53728796 84.8369001,8.7023787 84.6274902,8.72505069" id="path54" fill="#100F0D" fill-rule="nonzero"></path>
                    <path d="M92.6119798,8.87591737 L92.0114322,8.87563747 C91.8232964,8.87563747 91.5821034,8.74153941 91.5236634,8.54484529 L89.5769459,2.47080379 L87.5889615,8.53876381 C87.5302652,8.74024169 87.2885595,8.87563747 87.0993986,8.87563747 L86.2417663,8.87642628 C86.0843885,8.87642628 85.932137,8.80675636 85.854217,8.69909623 C85.8019286,8.62703443 85.7875749,8.54532876 85.8134628,8.46909389 L88.5342537,0.456528822 C88.5865421,0.297990312 88.7252089,0.112715906 88.9446151,0.112715906 L89.9824373,0.112715906 C90.1728798,0.112715906 90.3289761,0.24143452 90.4004881,0.457226031 L93.0395143,8.46649844 C93.0659148,8.54255519 93.0518175,8.62454076 92.9997854,8.69680613 C92.9213528,8.80545863 92.7693576,8.87591737 92.6119798,8.87591737" id="path56" fill="#100F0D" fill-rule="nonzero"></path>
                    <path d="M94.5850978,11.9558215 C94.0319686,11.9558215 93.5821346,11.5080561 93.5821346,10.9570836 C93.5821346,10.4062383 94.0319686,9.95865104 94.5850978,9.95865104 C95.1384834,9.95865104 95.58883,10.4062383 95.58883,10.9570836 C95.58883,11.5080561 95.1384834,11.9558215 94.5850978,11.9558215" id="path58" fill="#100F0D" fill-rule="nonzero"></path>
                    <path d="M94.9980224,8.92472194 L94.1744801,8.92553619 C93.9504602,8.92553619 93.746433,8.7456107 93.746433,8.54840767 L93.7423319,0.390828408 C93.7423319,0.292127657 93.793595,0.194121824 93.8822803,0.121363323 C93.9635323,0.055264685 94.0673402,0.0170962301 94.1716607,0.0170962301 L95.0010982,0.0158040795 L95.0016108,0.0158040795 C95.2289628,0.0177920133 95.4286327,0.192829699 95.4286327,0.390329675 L95.4286327,8.54840767 C95.4286327,8.74889317 95.2271686,8.92472194 94.9980224,8.92472194" id="path60" fill="#100F0D" fill-rule="nonzero"></path>
                    <path d="M102.694413,3.39290987 L102.006718,3.39031443 C101.814738,3.39031443 101.653772,3.27580944 101.582259,3.07692701 C101.33107,2.00105346 100.762049,1.44353887 99.8992907,1.41888722 C98.2188852,1.46848569 98.0884205,3.79367731 98.0884205,4.50516039 C98.0884205,5.92395346 98.5833661,7.45503776 99.9651639,7.49549618 C100.799215,7.47005063 101.405914,6.87635502 101.587898,5.90894059 C101.622245,5.711534 101.775009,5.56214316 101.98365,5.5361887 L102.719532,5.5290385 C102.939451,5.55270286 103.111951,5.71789538 103.110414,5.92275752 C102.849997,7.67104505 101.629678,8.801082 99.9987412,8.801082 L99.9423518,8.79958071 L99.8785292,8.801082 C97.5065839,8.801082 96.4446681,6.60342603 96.4446681,4.42554125 C96.4446681,2.42875756 97.3399787,0.0972098959 99.8652008,0.0972098959 L99.9861818,0.0972098959 C101.576364,0.0972098959 102.776691,1.20379343 103.12041,2.99799491 C103.128099,3.08349196 103.098367,3.16896357 103.037364,3.23845537 C102.958418,3.32850718 102.832567,3.38624314 102.694413,3.39290987" id="path62" fill="#100F0D" fill-rule="nonzero"></path>
                    <path d="M109.486266,5.38351539 L105.640506,5.38351539 C105.728422,6.45581638 106.429189,7.56646383 107.616699,7.6072276 C108.87931,7.5674562 109.457559,6.48255966 109.486266,5.38351539 Z M107.614136,8.82194735 C105.017146,8.82194735 103.834505,6.54278928 103.834505,4.42554125 C103.834505,1.78317592 105.304988,0.0760384334 107.580559,0.0760384334 C109.20842,0.0760384334 110.449244,0.892383134 110.986482,2.31932133 C111.01442,2.40152319 111.005193,2.49058262 110.960337,2.56969538 C110.904973,2.66692284 110.804241,2.73799226 110.679928,2.765219 L109.959168,2.90209062 C109.789487,2.92931736 109.554702,2.84254803 109.471656,2.65300412 C109.120247,1.86060674 108.481508,1.41073701 107.681547,1.38598867 C106.910293,1.41073701 106.203118,1.8651793 105.880161,2.54405899 C105.615899,3.09830127 105.576683,3.6455842 105.572582,4.20210386 L110.791425,4.20289268 C110.901128,4.20289268 111.01442,4.25090843 111.094647,4.33159628 C111.161289,4.39900154 111.197173,4.48200493 111.195891,4.56419407 C111.183845,6.62251019 110.236758,8.82194735 107.614136,8.82194735 L107.614136,8.82194735 Z" id="path64" fill="#100F0D" fill-rule="nonzero"></path>
                    <path d="M117.733735,4.65602706 C117.244941,5.00442756 116.657466,5.12061195 116.070759,5.23692356 L114.943739,5.4443557 C114.135832,5.57634178 113.668056,5.79163659 113.668056,6.50004075 C113.668056,7.46597934 114.875559,7.54669263 115.111113,7.55295224 C115.921327,7.53267214 116.530077,7.17414431 116.825096,6.54327275 C116.895839,6.39469617 117.051936,6.2950005 117.213927,6.2950005 C117.241866,6.2950005 117.269804,6.29807941 117.296974,6.3038301 L117.999791,6.45810648 C118.114621,6.48324669 118.221504,6.56166988 118.278919,6.66314674 C118.324543,6.74386003 118.334539,6.83162174 118.307114,6.91024849 C117.877272,8.15479043 116.784342,8.81250705 115.130593,8.81250705 C113.637555,8.80922458 112.04199,8.14993033 112.04199,6.30851209 C112.04199,5.0496443 112.838362,4.25039952 114.410859,3.93263547 L115.672957,3.69398164 C116.365522,3.56237725 117.073723,3.32830362 117.073723,2.59007727 C117.073723,1.49721118 115.792657,1.38578765 115.405364,1.37783592 C114.599764,1.39493278 113.568606,1.72522877 113.314084,2.59493737 C113.267435,2.77506643 113.040595,2.90158171 112.83785,2.86063982 L112.103505,2.70995126 C111.992264,2.68649046 111.890763,2.61453044 111.831811,2.51781699 C111.782854,2.43720803 111.768757,2.34784834 111.791825,2.26614522 C112.170404,0.914251041 113.48479,0.0989992271 115.307451,0.0852822935 L115.347949,0.0849840716 C116.97581,0.0849840716 118.715168,0.776885775 118.715168,2.71781394 C118.715168,3.50840723 118.357351,4.21500476 117.733735,4.65602706" id="path66" fill="#100F0D" fill-rule="nonzero"></path>
                    <path d="M84.2548072,24.6307852 L84.2548072,26.4832214 C84.2558325,26.7641403 84.470625,26.9526918 84.7284786,26.9524373 L93.0882143,26.9526918 C93.3550389,26.9526918 93.5703441,26.7595601 93.5703441,26.485257 L93.5703441,24.8966912 C93.5677809,24.6307852 93.3414542,24.2830972 92.9405765,23.7309542 L88.6106358,17.5933089 C90.2172224,17.6311719 91.9181332,17.39234 93.3781073,16.5774716 C93.7079856,16.3938056 93.7956456,16.1212583 93.8225587,15.8551742 L93.8225587,13.8785637 C93.8225587,13.6060164 93.5221567,13.2910259 93.2068885,13.4551243 C90.6337354,14.7935094 87.2188417,14.9396178 84.3729687,13.439628 C84.0825631,13.2856569 83.77806,13.5957873 83.77806,13.8683346 L83.77806,15.7465217 C83.77806,16.046194 83.7842116,16.5609829 84.0889709,17.0194863 L89.1063503,24.1641392 L84.7384749,24.1651316 C84.4711376,24.1651316 84.2573703,24.3539885 84.2548072,24.6307852" id="path68" fill="#100F0D"></path>
                    <path d="M53.7609313,13.0652985 L51.2169982,13.0652985 C50.9752925,13.0809984 50.7817742,13.2619926 50.7625505,13.4928092 L50.7643447,26.4516689 C50.7643447,26.7109591 50.9842636,26.9180858 51.2549329,26.9180858 L53.6235461,26.9193581 C53.8716597,26.9056175 54.070048,26.719865 54.0869648,26.4842392 L54.0869648,24.7910158 L54.1341269,24.7910158 C54.7508224,26.4280045 55.9142393,27.1903533 57.4808407,27.1903533 C59.0712795,27.1903533 60.0686038,26.4280045 60.780905,24.7910158 C61.3986258,26.4280045 62.7988783,27.1903533 64.2957619,27.1903533 C65.3640856,27.1903533 66.5259646,26.7547254 67.2382658,25.7735449 C68.0454039,24.6821852 67.879055,23.1015839 67.879055,21.7102211 L67.8775171,13.5321734 C67.8775171,13.2736212 67.6578546,13.0652985 67.3874415,13.0652985 L64.8473532,13.0652985 C64.5915502,13.0809984 64.3903424,13.2835704 64.3903424,13.5309775 L64.3903424,20.40148 C64.3903424,20.9465492 64.4372481,22.3105835 64.3188303,22.8282478 C64.1283877,23.7016409 63.5583417,23.9456637 62.8234846,23.9456637 C62.2055075,23.9456637 61.5642057,23.5366265 61.30302,22.8835918 C61.0420907,22.228089 61.0661844,21.1373908 61.0661844,20.40148 L61.0661844,13.5321734 C61.0661844,13.2736212 60.8465218,13.0652985 60.5755962,13.0652985 L58.0349952,13.0652985 C57.7804737,13.0809984 57.5787533,13.2835704 57.5787533,13.5309775 L57.5754212,20.40148 C57.5754212,21.8468892 57.8135384,23.9729922 56.0095887,23.9729922 C54.1815453,23.9729922 54.2528011,21.9010627 54.2528011,20.40148 L54.2512632,13.5321734 C54.2522885,13.2736212 54.0323696,13.0652985 53.7609313,13.0652985" id="path70" fill="#100F0D"></path>
                    <path d="M100.790757,24.5462042 C98.9142696,24.5462042 98.7961081,22.0104023 98.7961081,20.4281979 C98.7961081,18.8469095 98.772527,15.4658318 100.767688,15.4658318 C102.738499,15.4658318 102.83308,18.1927807 102.83308,19.8559783 C102.83308,20.9465492 102.786174,22.2551121 102.453733,23.2914331 C102.167941,24.1916713 101.598664,24.5462042 100.790757,24.5462042 L100.790757,24.5462042 Z M100.767688,27.1903533 C104.542193,27.1903533 106.58426,23.9729922 106.58426,19.8841211 C106.58426,15.9292208 104.327913,12.7930565 100.767688,12.7930565 C97.0636704,12.7930565 95.0451845,16.0113081 95.0451845,20.0197968 C95.0451845,24.0554867 97.0864825,27.1903533 100.767688,27.1903533 L100.767688,27.1903533 Z" id="path72" fill="#100F0D"></path>
                    <path d="M111.479889,13.0652985 L108.945696,13.0652985 C108.690406,13.0809984 108.489198,13.2835704 108.489198,13.5309775 L108.48561,26.4956897 C108.506627,26.7318244 108.717832,26.9180858 108.973122,26.9180858 L111.33302,26.9193581 C111.555502,26.9071443 111.737999,26.7570155 111.784649,26.5562501 L111.784649,24.5733546 L111.832836,24.5733546 C112.544112,26.3460698 113.541949,27.1903533 115.297968,27.1903533 C116.437803,27.1903533 117.554314,26.7824611 118.266103,25.6641291 C118.930473,24.628317 118.930473,22.8835918 118.930473,21.6290243 L118.930473,13.4739286 C118.902022,13.2441043 118.695688,13.0652985 118.444499,13.0652985 L115.893645,13.0652985 C115.658347,13.0805149 115.469186,13.2530612 115.440735,13.4739286 L115.440735,20.5105142 C115.440735,21.9283913 115.607341,24.0013131 113.849784,24.0013131 C113.232832,24.0013131 112.663811,23.591309 112.378532,22.9649158 C112.021997,22.1743989 111.974835,21.3837038 111.974835,20.5105142 L111.974835,13.5321734 C111.970477,13.2736212 111.750559,13.0652985 111.479889,13.0652985" id="path74" fill="#100F0D"></path>
                    <path d="M80.1547816,13.0980978 C79.9861259,12.9487069 79.7446766,12.9387577 79.5544903,13.039344 C78.7099302,13.7363231 78.5581913,14.0594562 78.0965668,14.7223382 C76.7004153,13.310619 75.7118057,12.8871796 73.9040113,12.8871796 C71.7619812,12.8871796 70.0969546,14.1991268 70.0969546,16.8225886 C70.0969546,18.8716426 71.2147472,20.265499 72.8087744,20.9491447 C74.188778,21.5504994 76.1162719,21.660017 77.5911123,21.8245225 L77.5911123,22.1520322 C77.5911123,22.7529035 77.6385307,23.4637759 77.2812266,23.9827379 C76.9728789,24.4473228 76.3779702,24.6381644 75.8538046,24.6381644 C74.8836498,24.6381644 74.0216602,24.1444444 73.8094308,23.1216604 C73.7663698,22.8945334 73.5982267,22.6689077 73.3677989,22.6579661 L70.9033237,22.9230579 C70.6946827,22.9695724 70.4637423,23.1347903 70.5239765,23.4501625 C71.0904341,26.4196075 73.7909761,27.3168176 76.211365,27.3168176 C77.4478318,27.3168176 79.0664653,26.9890789 80.0420028,26.0600618 C81.2787259,24.9117804 81.1595391,23.3815867 81.1595391,21.7143942 L81.1595391,17.7808681 C81.1595391,16.59765 81.6549973,16.0783062 82.1207229,15.4405898 C82.2819454,15.2105875 82.3183423,14.9380402 82.1112392,14.7693616 C81.5919436,14.3372707 80.6689509,13.5420972 80.1617022,13.0925252 L80.1547816,13.0980978 L80.1547816,13.0980978 Z M77.5911123,19.2549289 C77.5911123,18.2708985 77.6146933,17.4502795 77.1148777,16.5764793 C76.7104116,15.8653015 76.0675719,15.4284523 75.3537327,15.4284523 C74.3792205,15.4284523 73.8084055,16.1660679 73.8084055,17.2597432 C73.8084055,19.4096888 75.751791,19.8011177 77.5911123,19.8011177 L77.5911123,19.2549289 L77.5911123,19.2549289 Z" id="path76" fill="#100F0D"></path>
                    <path d="M46.8147765,13.0980978 C46.6466334,12.9487069 46.4033898,12.9387577 46.2132036,13.039344 C45.3686435,13.7363231 45.2174172,14.0594562 44.7552801,14.7223382 C43.3598975,13.310619 42.3707753,12.8871796 40.5619556,12.8871796 C38.4206945,12.8871796 36.7551552,14.1991268 36.7551552,16.8225886 C36.7551552,18.8716426 37.8739731,20.265499 39.4680003,20.9491447 C40.8482602,21.5504994 42.7754978,21.660017 44.2503382,21.8245225 L44.2503382,22.1520322 C44.2503382,22.7529035 44.2982692,23.4637759 43.9409652,23.9827379 C43.6318485,24.4473228 43.0364271,24.6381644 42.5137995,24.6381644 C41.5436446,24.6381644 40.6806298,24.1444444 40.4691693,23.1216604 C40.425083,22.8945334 40.2577089,22.6689077 40.0275374,22.6579661 L37.5620369,22.9230579 C37.3539086,22.9695724 37.1227119,23.1347903 37.1824334,23.4501625 C37.7488911,26.4196075 40.4496893,27.3168176 42.8698219,27.3168176 C44.1078267,27.3168176 45.7251786,26.9890789 46.7009723,26.0600618 C47.9382081,24.9117804 47.818765,23.3815867 47.818765,21.7143942 L47.818765,17.7808681 C47.818765,16.59765 48.3144795,16.0783062 48.7789235,15.4405898 C48.940915,15.2105875 48.9775682,14.9380402 48.7709777,14.7693616 C48.2511695,14.3372707 47.3276642,13.5420972 46.8206718,13.0925252 L46.8147765,13.0980978 L46.8147765,13.0980978 Z M44.2503382,19.2549289 C44.2503382,18.2708985 44.2736629,17.4502795 43.7748726,16.5764793 C43.3706628,15.8653015 42.7273104,15.4284523 42.0144965,15.4284523 C41.0379338,15.4284523 40.4673751,16.1660679 40.4673751,17.2597432 C40.4673751,19.4096888 42.4102479,19.8011177 44.2503382,19.8011177 L44.2503382,19.2549289 L44.2503382,19.2549289 Z" id="path78" fill="#100F0D"></path>
                </g>
            </g>
        </g>
    </g>
</svg>
