<svg xmlns="http://www.w3.org/2000/svg" width="120" height="37" viewBox="0 0 273.33 82.67">
    <defs>
        <style>
            .cls-1{fill:#737373;}.cls-2{fill:#f25022;}.cls-3{fill:#7fba00;}.cls-4{fill:#00a4ef;}.cls-5{fill:#ffb900;}
        </style>
    </defs>
    <title>
        azure-stacked-color
    </title>
    <g id="Azure_s" data-name="Azure s">
        <path d="M113.13,47.24l11.42,30.32h-5.8L116.07,70H104.12l-2.58,7.53H95.79l11.42-30.32ZM110,52.87l-4.48,12.76h9.09l-4.46-12.76Z" class="cls-1"/>
        <path d="M127.11,55.83h17.36v2.05L133.07,73.5h11.46v4.06H126.31V75.13l11.22-15.25H127.11Z" class="cls-1"/>
        <path d="M166.3,55.83V77.56h-5.15V74.7h-.09A6.92,6.92,0,0,1,158.34,77a8.46,8.46,0,0,1-3.81.84,7.42,7.42,0,0,1-5.76-2.15q-2-2.14-2-6.67V55.83H152v12.6a6.57,6.57,0,0,0,1.09,4.13,3.92,3.92,0,0,0,3.29,1.38,4.34,4.34,0,0,0,3.48-1.53,5.93,5.93,0,0,0,1.32-4V55.83Z" class="cls-1"/>
        <path d="M181.71,55.47a6.17,6.17,0,0,1,1.1.08,5.38,5.38,0,0,1,.82.21v5.18a4.41,4.41,0,0,0-1.17-.56,5.7,5.7,0,0,0-1.87-.26,4,4,0,0,0-3.18,1.58,7.62,7.62,0,0,0-1.3,4.89v11H171V55.83h5.12v3.42h.08a6,6,0,0,1,2.12-2.78A5.69,5.69,0,0,1,181.71,55.47Z" class="cls-1"/>
        <path d="M202.05,72.08v4.21a11,11,0,0,1-3.32,1.3,18.65,18.65,0,0,1-4.38.5,10.07,10.07,0,0,1-7.72-2.94q-2.76-2.94-2.76-8.18a11.93,11.93,0,0,1,2.95-8.32,9.6,9.6,0,0,1,7.47-3.27,9,9,0,0,1,7,2.76q2.5,2.76,2.5,7.62v2.48H188.92c.23,2.18.93,3.71,2.1,4.57a7.49,7.49,0,0,0,4.56,1.3,10.76,10.76,0,0,0,3.51-.56A11.22,11.22,0,0,0,202.05,72.08Zm-3.28-7.59a5.7,5.7,0,0,0-1.17-3.87,4.21,4.21,0,0,0-3.31-1.33,4.78,4.78,0,0,0-3.3,1.32,6.76,6.76,0,0,0-1.94,3.88Z" class="cls-1"/>
    </g>
    <g id="MS-logotype">
        <path d="M130.41,5.56V35.88h-5.27V12.11h-.08l-9.41,23.77h-3.49l-9.64-23.77h-.06V35.88H97.59V5.56h7.55L113.85,28H114l9.19-22.47Zm4.4,2.3a2.76,2.76,0,0,1,.92-2.12,3.25,3.25,0,0,1,4.43,0,2.86,2.86,0,0,1,.89,2.1,2.78,2.78,0,0,1-.91,2.1,3.16,3.16,0,0,1-2.22.84,3.07,3.07,0,0,1-2.21-.85A2.78,2.78,0,0,1,134.81,7.86Zm5.64,6.28V35.88h-5.11V14.14Zm15.52,18a7.17,7.17,0,0,0,2.52-.53,10.41,10.41,0,0,0,2.53-1.4V35a10.3,10.3,0,0,1-2.78,1.06,15.06,15.06,0,0,1-3.41.36A10.35,10.35,0,0,1,144,25.62,12.4,12.4,0,0,1,147.09,17q3.07-3.4,8.69-3.4a12.22,12.22,0,0,1,2.91.37,9.83,9.83,0,0,1,2.33.86v4.9a10.75,10.75,0,0,0-2.42-1.34,7.08,7.08,0,0,0-2.52-.47,6.42,6.42,0,0,0-4.89,2,7.41,7.41,0,0,0-1.86,5.31,7.08,7.08,0,0,0,1.79,5.14A6.47,6.47,0,0,0,156,32.16Zm19.62-18.38a6,6,0,0,1,1.1.09,3.85,3.85,0,0,1,.83.21v5.18a4.49,4.49,0,0,0-1.18-.56,5.7,5.7,0,0,0-1.87-.26A4,4,0,0,0,171.29,20,7.61,7.61,0,0,0,170,24.9v11h-5.12V14.14H170v3.43h.08a6,6,0,0,1,2.12-2.78A5.72,5.72,0,0,1,175.59,13.78Zm2.2,11.55a11.76,11.76,0,0,1,3.05-8.54q3-3.15,8.45-3.15a10.42,10.42,0,0,1,8,3,11.44,11.44,0,0,1,2.87,8.19,11.56,11.56,0,0,1-3.05,8.42,11,11,0,0,1-8.28,3.13,10.86,10.86,0,0,1-8-3A11,11,0,0,1,177.79,25.33Zm5.33-.17a7.76,7.76,0,0,0,1.54,5.2,5.52,5.52,0,0,0,4.42,1.8,5.15,5.15,0,0,0,4.25-1.8A8.32,8.32,0,0,0,194.79,25a8,8,0,0,0-1.51-5.29A5.23,5.23,0,0,0,189,18a5.37,5.37,0,0,0-4.37,1.87A8.19,8.19,0,0,0,183.12,25.16Zm24.61-5.31a2.17,2.17,0,0,0,.7,1.72,11.52,11.52,0,0,0,3.08,1.58,10.53,10.53,0,0,1,4.31,2.76,5.74,5.74,0,0,1,1.23,3.71,6,6,0,0,1-2.35,4.93,10,10,0,0,1-6.38,1.86,15.24,15.24,0,0,1-3-.33,13.34,13.34,0,0,1-2.78-.84v-5a12.52,12.52,0,0,0,3,1.54,8.62,8.62,0,0,0,2.92.58,5.24,5.24,0,0,0,2.56-.49,1.73,1.73,0,0,0,.82-1.63,2.28,2.28,0,0,0-.85-1.79,13.19,13.19,0,0,0-3.25-1.68,10,10,0,0,1-4-2.66,5.83,5.83,0,0,1-1.18-3.76,5.94,5.94,0,0,1,2.34-4.83,9.24,9.24,0,0,1,6.05-1.9,14.6,14.6,0,0,1,2.56.26,11.69,11.69,0,0,1,2.37.65v4.87a10.91,10.91,0,0,0-2.37-1.17,8,8,0,0,0-2.68-.48,3.94,3.94,0,0,0-2.28.57A1.81,1.81,0,0,0,207.73,19.85Zm11.52,5.48a11.76,11.76,0,0,1,3.05-8.54c2-2.1,4.84-3.15,8.45-3.15a10.42,10.42,0,0,1,8,3,11.44,11.44,0,0,1,2.87,8.19,11.56,11.56,0,0,1-3.05,8.42,11,11,0,0,1-8.28,3.13,10.86,10.86,0,0,1-8-3A11,11,0,0,1,219.25,25.33Zm5.33-.17a7.76,7.76,0,0,0,1.54,5.2,5.5,5.5,0,0,0,4.42,1.8,5.15,5.15,0,0,0,4.25-1.8A8.32,8.32,0,0,0,236.25,25a8,8,0,0,0-1.51-5.29A5.23,5.23,0,0,0,230.5,18a5.36,5.36,0,0,0-4.37,1.87A8.19,8.19,0,0,0,224.58,25.16Zm34-6.83h-7.62V35.88h-5.18V18.33h-3.63V14.14h3.63v-3A7.55,7.55,0,0,1,248,5.51a7.84,7.84,0,0,1,5.72-2.19,13.44,13.44,0,0,1,1.65.09,6.81,6.81,0,0,1,1.27.29V8.12a5.23,5.23,0,0,0-.89-.36,4.63,4.63,0,0,0-1.46-.21,3.08,3.08,0,0,0-2.47,1,4.42,4.42,0,0,0-.87,3v2.62h7.62V9.26l5.14-1.57v6.45h5.18v4.19h-5.18V28.5a4.26,4.26,0,0,0,.73,2.83,2.91,2.91,0,0,0,2.29.83,3.18,3.18,0,0,0,1.07-.22,4.78,4.78,0,0,0,1.09-.5v4.23a5.88,5.88,0,0,1-1.62.5,10.71,10.71,0,0,1-2.23.24,6.35,6.35,0,0,1-4.85-1.73,7.34,7.34,0,0,1-1.62-5.19Z" class="cls-1"/>
    </g>
    <g id="MS-symbol">
        <rect width="34.22" height="34.22" x="3.99" y="5.56" class="cls-2"/>
        <rect width="34.22" height="34.22" x="41.77" y="5.56" class="cls-3"/>
        <rect width="34.22" height="34.22" x="3.99" y="43.34" class="cls-4"/>
        <rect width="34.22" height="34.22" x="41.77" y="43.34" class="cls-5"/>
        <rect width="34.22" height="34.22" x="3.99" y="5.56" class="cls-2"/>
        <rect width="34.22" height="34.22" x="41.77" y="5.56" class="cls-3"/>
        <rect width="34.22" height="34.22" x="3.99" y="43.34" class="cls-4"/>
        <rect width="34.22" height="34.22" x="41.77" y="43.34" class="cls-5"/>
    </g>
</svg>
