<svg width="86px" height="51px" viewBox="0 0 86 51" version="1.1" xmlns="http://www.w3.org/2000/svg" xmlns:xlink="http://www.w3.org/1999/xlink">
    <defs>
        <path d="M8.849,0.085 L5.999,6.152 C5.842,6.399 5.74,6.746 5.532,7.238 L5.481,7.238 C5.427,7.042 5.272,6.647 5.066,6.201 L2.268,0.136 L0.867,0.136 L0.867,8.866 L1.904,8.866 L1.904,2.995 L1.904,1.318 C2.008,1.713 2.059,2.009 2.163,2.208 L5.272,8.866 L5.791,8.866 L8.953,2.157 C9.004,2.009 9.108,1.713 9.212,1.318 C9.159,1.96 9.159,2.552 9.159,2.995 L9.159,8.866 L10.196,8.866 L10.196,0.085 L8.849,0.085 Z" id="path-1"></path>
        <path d="M0.217,0.937 C0.062,1.036 0.011,1.232 0.011,1.38 C0.011,1.528 0.113,1.676 0.217,1.824 C0.321,1.972 0.476,2.022 0.685,2.022 C0.891,2.022 1.048,1.972 1.15,1.824 C1.308,1.727 1.359,1.579 1.359,1.38 C1.359,1.232 1.308,1.085 1.15,0.937 C1.048,0.789 0.891,0.741 0.685,0.741 C0.53,0.741 0.375,0.789 0.217,0.937 Z M0.166,9.866 L1.203,9.866 L1.203,3.6 L0.166,3.6 L0.166,9.866 Z" id="path-3"></path>
        <path d="M1.379,1.39 C0.757,2.032 0.447,2.822 0.447,3.857 C0.447,4.794 0.757,5.534 1.328,6.125 C1.898,6.719 2.676,7.014 3.609,7.014 C4.336,7.014 4.903,6.866 5.421,6.571 L5.475,6.571 L5.475,5.633 C4.956,5.977 4.438,6.176 3.866,6.176 C3.192,6.176 2.676,5.977 2.261,5.534 C1.847,5.09 1.639,4.547 1.639,3.808 C1.639,3.067 1.847,2.476 2.261,2.032 C2.727,1.589 3.245,1.341 3.919,1.341 C4.488,1.341 5.009,1.489 5.475,1.836 L5.475,0.799 C5.009,0.552 4.488,0.452 3.919,0.452 C2.884,0.452 2.104,0.799 1.379,1.39 Z" id="path-5"></path>
        <path d="M2.378,0.85 C2.065,1.094 1.859,1.441 1.702,1.884 L1.702,0.603 L0.667,0.603 L0.667,6.864 L1.702,6.864 L1.702,3.661 C1.702,2.967 1.859,2.425 2.169,2.032 C2.479,1.637 2.843,1.441 3.311,1.441 C3.613,1.441 3.846,1.475 4.035,1.574 L4.035,0.603 C3.88,0.552 3.672,0.5 3.415,0.5 C3.051,0.5 2.688,0.603 2.378,0.85 Z M4.035,1.637 L4.139,1.637 C4.105,1.613 4.071,1.594 4.035,1.574 L4.035,1.637 Z" id="path-7"></path>
        <path d="M1.176,1.341 C0.604,1.933 0.294,2.771 0.294,3.808 C0.294,4.794 0.604,5.534 1.176,6.127 C1.746,6.719 2.524,7.014 3.507,7.014 C4.494,7.014 5.269,6.667 5.892,6.028 C6.461,5.434 6.771,4.647 6.771,3.658 C6.771,2.672 6.515,1.884 5.943,1.291 C5.424,0.748 4.649,0.452 3.663,0.452 C2.625,0.452 1.746,0.748 1.176,1.341 Z M1.952,5.485 C1.588,5.09 1.382,4.499 1.382,3.757 C1.382,2.967 1.537,2.376 1.952,1.933 C2.366,1.487 2.885,1.291 3.558,1.291 C4.232,1.291 4.751,1.538 5.114,1.933 C5.478,2.328 5.683,2.919 5.683,3.709 C5.683,4.499 5.478,5.09 5.114,5.485 C4.751,5.929 4.232,6.127 3.558,6.127 C2.885,6.127 2.366,5.929 1.952,5.485 Z" id="path-9"></path>
        <path d="M2.26,0.6 C2.003,0.699 1.742,0.799 1.482,0.946 C1.223,1.094 1.068,1.291 0.966,1.393 C0.809,1.637 0.758,1.884 0.758,2.18 C0.758,2.427 0.809,2.624 0.862,2.82 C0.913,3.019 1.017,3.166 1.172,3.314 C1.33,3.462 1.536,3.612 1.742,3.709 C2.003,3.857 2.209,3.956 2.519,4.056 C2.728,4.104 2.936,4.203 3.091,4.252 C3.244,4.351 3.401,4.399 3.557,4.499 C3.661,4.596 3.765,4.695 3.867,4.794 C3.918,4.942 3.973,5.09 3.973,5.238 C3.973,5.832 3.506,6.127 2.57,6.127 C1.897,6.127 1.276,5.929 0.704,5.536 L0.704,6.619 C1.172,6.866 1.795,7.014 2.364,7.014 C2.728,7.014 3.038,6.963 3.351,6.915 C3.661,6.815 3.918,6.719 4.179,6.571 C4.439,6.423 4.591,6.275 4.749,6.028 C4.904,5.832 4.955,5.536 4.955,5.238 C4.955,4.991 4.904,4.794 4.8,4.596 C4.749,4.399 4.591,4.252 4.439,4.104 C4.281,3.956 4.075,3.808 3.867,3.709 C3.661,3.561 3.401,3.462 3.091,3.365 C2.883,3.266 2.677,3.166 2.519,3.118 C2.364,3.019 2.209,2.967 2.105,2.871 C2.003,2.771 1.897,2.672 1.846,2.575 C1.795,2.476 1.742,2.328 1.742,2.18 C1.742,2.081 1.795,1.933 1.846,1.836 C1.897,1.688 2.003,1.637 2.105,1.538 C2.209,1.441 2.364,1.393 2.519,1.341 C2.677,1.291 2.83,1.291 3.038,1.291 C3.661,1.291 4.23,1.441 4.698,1.736 L4.698,0.748 C4.281,0.552 3.765,0.452 3.193,0.452 C2.883,0.452 2.57,0.5 2.26,0.6 Z" id="path-11"></path>
        <path d="M1.719,1.341 C1.147,1.933 0.837,2.771 0.837,3.808 C0.837,4.794 1.147,5.534 1.719,6.127 C2.288,6.719 3.066,7.014 4.05,7.014 C5.036,7.014 5.814,6.667 6.434,6.028 C7.004,5.434 7.314,4.647 7.314,3.658 C7.314,2.672 7.057,1.884 6.488,1.291 C5.967,0.748 5.191,0.452 4.205,0.452 C3.17,0.452 2.392,0.748 1.719,1.341 Z M2.497,5.485 C2.133,5.09 1.927,4.499 1.927,3.757 C1.927,2.967 2.08,2.376 2.497,1.933 C2.909,1.487 3.427,1.291 4.103,1.291 C4.777,1.291 5.346,1.538 5.659,1.933 C6.02,2.328 6.226,2.919 6.226,3.709 C6.226,4.499 6.02,5.09 5.659,5.485 C5.293,5.929 4.777,6.127 4.103,6.127 C3.427,6.127 2.909,5.929 2.497,5.485 Z" id="path-13"></path>
        <path d="M2.388,1.085 C1.974,1.479 1.819,1.974 1.819,2.614 L1.819,3.603 L0.677,3.603 L0.677,4.441 L1.819,4.441 L1.819,9.864 L2.856,9.864 L2.856,4.489 L3.58,4.489 L4.358,4.489 L5.706,4.489 L5.706,8.187 C5.706,9.42 6.277,10.014 7.416,10.014 C7.831,10.014 8.143,9.966 8.403,9.815 L8.403,8.977 C8.194,9.125 7.986,9.176 7.729,9.176 C7.365,9.176 7.157,9.076 7.002,8.929 C6.847,8.732 6.794,8.434 6.794,8.042 L6.794,4.489 L8.453,4.489 L8.453,3.603 L6.794,3.603 L6.794,1.775 L5.756,2.122 L5.756,3.651 L4.409,3.651 L3.634,3.651 L2.907,3.651 L2.907,2.665 C2.907,1.775 3.27,1.332 3.995,1.332 C4.256,1.332 4.462,1.383 4.668,1.479 L4.668,0.593 C4.462,0.542 4.203,0.494 3.893,0.494 C3.321,0.494 2.803,0.69 2.388,1.085 Z" id="path-15"></path>
        <path d="M4.398,0.136 L0.822,8.866 L2.014,8.866 L2.947,6.399 L6.834,6.399 L7.82,8.866 L9.01,8.866 L5.486,0.136 L4.398,0.136 Z M4.762,1.762 C4.813,1.616 4.866,1.417 4.917,1.17 C4.968,1.466 5.021,1.665 5.072,1.762 L6.523,5.462 L3.361,5.462 L4.762,1.762 Z" id="path-17"></path>
        <path d="M4.79,0.6 L4.79,4.152 C4.79,4.746 4.584,5.238 4.274,5.582 C3.962,5.929 3.547,6.125 3.029,6.125 C1.941,6.125 1.422,5.485 1.422,4.152 L1.422,0.6 L0.385,0.6 L0.385,4.351 C0.385,6.125 1.165,7.014 2.719,7.014 C3.651,7.014 4.325,6.619 4.74,5.878 L4.74,6.866 L5.777,6.866 L5.828,6.866 L5.828,0.6 L4.79,0.6 Z" id="path-19"></path>
        <path d="M2.249,0.85 C1.939,1.094 1.73,1.441 1.575,1.884 L1.575,0.603 L0.538,0.603 L0.538,6.864 L1.575,6.864 L1.575,3.661 C1.575,2.967 1.73,2.425 2.041,2.032 C2.353,1.637 2.714,1.441 3.182,1.441 C3.47,1.441 3.71,1.482 3.909,1.603 L3.909,0.603 C3.751,0.552 3.545,0.5 3.286,0.5 C2.923,0.5 2.559,0.603 2.249,0.85 Z M3.909,1.637 L3.96,1.637 C3.943,1.625 3.926,1.615 3.909,1.603 L3.909,1.637 Z" id="path-21"></path>
        <path d="M1.048,1.39 C0.476,1.981 0.166,2.771 0.166,3.757 C0.166,4.746 0.425,5.584 0.946,6.125 C1.462,6.667 2.187,6.966 3.12,6.966 C4.055,6.966 4.83,6.767 5.402,6.372 L5.402,5.434 C4.78,5.88 4.106,6.125 3.381,6.125 C2.708,6.125 2.187,5.977 1.826,5.584 C1.462,5.187 1.256,4.645 1.256,3.956 L5.868,3.956 L5.868,3.413 C5.868,2.524 5.608,1.785 5.143,1.242 C4.675,0.699 4.002,0.452 3.173,0.452 C2.344,0.452 1.62,0.799 1.048,1.39 Z M1.93,1.785 C2.24,1.441 2.654,1.291 3.173,1.291 C3.692,1.291 4.055,1.489 4.365,1.785 C4.625,2.081 4.78,2.524 4.78,3.118 L1.307,3.118 C1.358,2.575 1.566,2.129 1.93,1.785 Z" id="path-23"></path>
    </defs>
    <g id="Page-1" stroke="none" stroke-width="1" fill="none" fill-rule="evenodd">
        <g>
            <path d="M41.5513,2.9871 L41.5513,17.1581 L61.6853,17.0061 L61.6853,0.1911 L41.5513,2.9871 Z M24.5363,5.2121 L24.5513,17.2661 L39.7253,17.1841 L39.7203,3.2441 L24.5363,5.2121 Z M24.5493,30.7531 L39.7253,32.7391 L39.7123,18.7901 L24.5493,18.6951 L24.5493,30.7531 Z M41.5513,32.9551 L61.6853,35.6591 L61.6883,18.9211 L41.5253,18.8901 L41.5513,32.9551 Z" id="Fill-1" fill="#000000"></path>
            <g id="Group-4" transform="translate(0.000000, 41.410000)">
                <mask id="mask-2" fill="white">
                    <use xlink:href="#path-1"></use>
                </mask>
                <g id="Clip-3"></g>
                <polygon id="Fill-2" fill="#000000" mask="url(#mask-2)" points="-5.085 14.819 16.15 14.819 16.15 -5.868 -5.085 -5.868"></polygon>
            </g>
            <g id="Group-7" transform="translate(12.000000, 40.410000)">
                <mask id="mask-4" fill="white">
                    <use xlink:href="#path-3"></use>
                </mask>
                <g id="Clip-6"></g>
                <polygon id="Fill-5" fill="#000000" mask="url(#mask-4)" points="-5.942 15.819 7.311 15.819 7.311 -5.213 -5.942 -5.213"></polygon>
            </g>
            <g id="Group-10" transform="translate(14.000000, 43.410000)">
                <mask id="mask-6" fill="white">
                    <use xlink:href="#path-5"></use>
                </mask>
                <g id="Clip-9"></g>
                <polygon id="Fill-8" fill="#000000" mask="url(#mask-6)" points="-5.506 12.966 11.427 12.966 11.427 -5.501 -5.506 -5.501"></polygon>
            </g>
            <g id="Group-13" transform="translate(20.000000, 43.410000)">
                <mask id="mask-8" fill="white">
                    <use xlink:href="#path-7"></use>
                </mask>
                <g id="Clip-12"></g>
                <polygon id="Fill-11" fill="#000000" mask="url(#mask-8)" points="-5.286 12.818 10.092 12.818 10.092 -5.451 -5.286 -5.451"></polygon>
            </g>
            <g id="Group-16" transform="translate(24.000000, 43.410000)">
                <mask id="mask-10" fill="white">
                    <use xlink:href="#path-9"></use>
                </mask>
                <g id="Clip-15"></g>
                <polygon id="Fill-14" fill="#000000" mask="url(#mask-10)" points="-5.659 12.966 12.725 12.966 12.725 -5.501 -5.659 -5.501"></polygon>
            </g>
            <g id="Group-19" transform="translate(31.000000, 43.410000)">
                <mask id="mask-12" fill="white">
                    <use xlink:href="#path-11"></use>
                </mask>
                <g id="Clip-18"></g>
                <polygon id="Fill-17" fill="#000000" mask="url(#mask-12)" points="-5.246 12.967 10.909 12.967 10.909 -5.501 -5.246 -5.501"></polygon>
            </g>
            <g id="Group-22" transform="translate(36.000000, 43.410000)">
                <mask id="mask-14" fill="white">
                    <use xlink:href="#path-13"></use>
                </mask>
                <g id="Clip-21"></g>
                <polygon id="Fill-20" fill="#000000" mask="url(#mask-14)" points="-5.117 12.966 13.268 12.966 13.268 -5.501 -5.117 -5.501"></polygon>
            </g>
            <g id="Group-25" transform="translate(43.000000, 40.410000)">
                <mask id="mask-16" fill="white">
                    <use xlink:href="#path-15"></use>
                </mask>
                <g id="Clip-24"></g>
                <polygon id="Fill-23" fill="#000000" mask="url(#mask-16)" points="-5.275 15.965 14.406 15.965 14.406 -5.46 -5.275 -5.46"></polygon>
            </g>
            <g id="Group-28" transform="translate(54.000000, 41.410000)">
                <mask id="mask-18" fill="white">
                    <use xlink:href="#path-17"></use>
                </mask>
                <g id="Clip-27"></g>
                <polygon id="Fill-26" fill="#000000" mask="url(#mask-18)" points="-5.131 14.818 14.964 14.818 14.964 -5.818 -5.131 -5.818"></polygon>
            </g>
            <polygon id="Fill-29" fill="#000000" points="63.4272 44.0121 63.4272 44.8991 66.9502 44.8991 63.0632 49.9781 63.0632 50.2731 68.4012 50.2731 68.4012 49.3871 64.5652 49.3871 68.4522 44.3091 68.4522 44.0121"></polygon>
            <g id="Group-32" transform="translate(69.000000, 43.410000)">
                <mask id="mask-20" fill="white">
                    <use xlink:href="#path-19"></use>
                </mask>
                <g id="Clip-31"></g>
                <polygon id="Fill-30" fill="#000000" mask="url(#mask-20)" points="-5.567 12.966 11.781 12.966 11.781 -5.353 -5.567 -5.353"></polygon>
            </g>
            <g id="Group-35" transform="translate(76.000000, 43.410000)">
                <mask id="mask-22" fill="white">
                    <use xlink:href="#path-21"></use>
                </mask>
                <g id="Clip-34"></g>
                <polygon id="Fill-33" fill="#000000" mask="url(#mask-22)" points="-5.414 12.818 9.913 12.818 9.913 -5.451 -5.414 -5.451"></polygon>
            </g>
            <g id="Group-38" transform="translate(80.000000, 43.410000)">
                <mask id="mask-24" fill="white">
                    <use xlink:href="#path-23"></use>
                </mask>
                <g id="Clip-37"></g>
                <polygon id="Fill-36" fill="#000000" mask="url(#mask-24)" points="-5.786 12.917 11.821 12.917 11.821 -5.499 -5.786 -5.499"></polygon>
            </g>
        </g>
    </g>
</svg>
