
<svg width="99px" height="59px" viewBox="0 0 99 59" version="1.1" xmlns="http://www.w3.org/2000/svg" xmlns:xlink="http://www.w3.org/1999/xlink">
    <desc>Microsoft Azure Logo</desc>
    <defs>
        <path d="M10.2103846,0.0980769231 L6.92192308,7.09846154 C6.74076923,7.38346154 6.62307692,7.78384615 6.38307692,8.35153846 L6.32423077,8.35153846 C6.26192308,8.12538462 6.08307692,7.66961538 5.84538462,7.155 L2.61692308,0.156923077 L1.00038462,0.156923077 L1.00038462,10.23 L2.19692308,10.23 L2.19692308,3.45576923 L2.19692308,1.52076923 C2.31692308,1.97653846 2.37576923,2.31807692 2.49576923,2.54769231 L6.08307692,10.23 L6.68192308,10.23 L10.3303846,2.48884615 C10.3892308,2.31807692 10.5092308,1.97653846 10.6292308,1.52076923 C10.5680769,2.26153846 10.5680769,2.94461538 10.5680769,3.45576923 L10.5680769,10.23 L11.7646154,10.23 L11.7646154,0.0980769231 L10.2103846,0.0980769231 Z" id="path-1"></path>
        <path d="M0.250384615,1.08115385 C0.0715384615,1.19538462 0.0126923077,1.42153846 0.0126923077,1.59230769 C0.0126923077,1.76307692 0.130384615,1.93384615 0.250384615,2.10461538 C0.370384615,2.27538462 0.549230769,2.33307692 0.790384615,2.33307692 C1.02807692,2.33307692 1.20923077,2.27538462 1.32692308,2.10461538 C1.50923077,1.99269231 1.56807692,1.82192308 1.56807692,1.59230769 C1.56807692,1.42153846 1.50923077,1.25192308 1.32692308,1.08115385 C1.20923077,0.910384615 1.02807692,0.855 0.790384615,0.855 C0.611538462,0.855 0.432692308,0.910384615 0.250384615,1.08115385 Z M0.191538462,11.3838462 L1.38807692,11.3838462 L1.38807692,4.15384615 L0.191538462,4.15384615 L0.191538462,11.3838462 Z" id="path-3"></path>
        <path d="M1.59115385,1.60384615 C0.873461538,2.34461538 0.515769231,3.25615385 0.515769231,4.45038462 C0.515769231,5.53153846 0.873461538,6.38538462 1.53230769,7.06730769 C2.19,7.75269231 3.08769231,8.09307692 4.16423077,8.09307692 C5.00307692,8.09307692 5.65730769,7.92230769 6.255,7.58192308 L6.31730769,7.58192308 L6.31730769,6.49961538 C5.71846154,6.89653846 5.12076923,7.12615385 4.46076923,7.12615385 C3.68307692,7.12615385 3.08769231,6.89653846 2.60884615,6.38538462 C2.13115385,5.87307692 1.89115385,5.24653846 1.89115385,4.39384615 C1.89115385,3.53884615 2.13115385,2.85692308 2.60884615,2.34461538 C3.14653846,1.83346154 3.74423077,1.54730769 4.52192308,1.54730769 C5.17846154,1.54730769 5.77961538,1.71807692 6.31730769,2.11846154 L6.31730769,0.921923077 C5.77961538,0.636923077 5.17846154,0.521538462 4.52192308,0.521538462 C3.32769231,0.521538462 2.42769231,0.921923077 1.59115385,1.60384615 Z" id="path-5"></path>
        <path d="M2.74384615,0.980769231 C2.38269231,1.26230769 2.145,1.66269231 1.96384615,2.17384615 L1.96384615,0.695769231 L0.769615385,0.695769231 L0.769615385,7.92 L1.96384615,7.92 L1.96384615,4.22423077 C1.96384615,3.42346154 2.145,2.79807692 2.50269231,2.34461538 C2.86038462,1.88884615 3.28038462,1.66269231 3.82038462,1.66269231 C4.16884615,1.66269231 4.43769231,1.70192308 4.65576923,1.81615385 L4.65576923,0.695769231 C4.47692308,0.636923077 4.23692308,0.576923077 3.94038462,0.576923077 C3.52038462,0.576923077 3.10153846,0.695769231 2.74384615,0.980769231 Z M4.65576923,1.88884615 L4.77576923,1.88884615 C4.73653846,1.86115385 4.69730769,1.83923077 4.65576923,1.81615385 L4.65576923,1.88884615 Z" id="path-7"></path>
        <path d="M1.35692308,1.54730769 C0.696923077,2.23038462 0.339230769,3.19730769 0.339230769,4.39384615 C0.339230769,5.53153846 0.696923077,6.38538462 1.35692308,7.06961538 C2.01461538,7.75269231 2.91230769,8.09307692 4.04653846,8.09307692 C5.18538462,8.09307692 6.07961538,7.69269231 6.79846154,6.95538462 C7.455,6.27 7.81269231,5.36192308 7.81269231,4.22076923 C7.81269231,3.08307692 7.51730769,2.17384615 6.85730769,1.48961538 C6.25846154,0.863076923 5.36423077,0.521538462 4.22653846,0.521538462 C3.02884615,0.521538462 2.01461538,0.863076923 1.35692308,1.54730769 Z M2.25230769,6.32884615 C1.83230769,5.87307692 1.59461538,5.19115385 1.59461538,4.335 C1.59461538,3.42346154 1.77346154,2.74153846 2.25230769,2.23038462 C2.73,1.71576923 3.32884615,1.48961538 4.10538462,1.48961538 C4.88307692,1.48961538 5.48192308,1.77461538 5.90076923,2.23038462 C6.32076923,2.68615385 6.55730769,3.36807692 6.55730769,4.27961538 C6.55730769,5.19115385 6.32076923,5.87307692 5.90076923,6.32884615 C5.48192308,6.84115385 4.88307692,7.06961538 4.10538462,7.06961538 C3.32884615,7.06961538 2.73,6.84115385 2.25230769,6.32884615 Z" id="path-9"></path>
        <path d="M2.60769231,0.692307692 C2.31115385,0.806538462 2.01,0.921923077 1.71,1.09153846 C1.41115385,1.26230769 1.23230769,1.48961538 1.11461538,1.60730769 C0.933461538,1.88884615 0.874615385,2.17384615 0.874615385,2.51538462 C0.874615385,2.80038462 0.933461538,3.02769231 0.994615385,3.25384615 C1.05346154,3.48346154 1.17346154,3.65307692 1.35230769,3.82384615 C1.53461538,3.99461538 1.77230769,4.16769231 2.01,4.27961538 C2.31115385,4.45038462 2.54884615,4.56461538 2.90653846,4.68 C3.14769231,4.73538462 3.38769231,4.84961538 3.56653846,4.90615385 C3.74307692,5.02038462 3.92423077,5.07576923 4.10423077,5.19115385 C4.22423077,5.30307692 4.34423077,5.41730769 4.46192308,5.53153846 C4.52076923,5.70230769 4.58423077,5.87307692 4.58423077,6.04384615 C4.58423077,6.72923077 4.04538462,7.06961538 2.96538462,7.06961538 C2.18884615,7.06961538 1.47230769,6.84115385 0.812307692,6.38769231 L0.812307692,7.63730769 C1.35230769,7.92230769 2.07115385,8.09307692 2.72769231,8.09307692 C3.14769231,8.09307692 3.50538462,8.03423077 3.86653846,7.97884615 C4.22423077,7.86346154 4.52076923,7.75269231 4.82192308,7.58192308 C5.12192308,7.41115385 5.29730769,7.24038462 5.47961538,6.95538462 C5.65846154,6.72923077 5.71730769,6.38769231 5.71730769,6.04384615 C5.71730769,5.75884615 5.65846154,5.53153846 5.53846154,5.30307692 C5.47961538,5.07576923 5.29730769,4.90615385 5.12192308,4.73538462 C4.93961538,4.56461538 4.70192308,4.39384615 4.46192308,4.27961538 C4.22423077,4.10884615 3.92423077,3.99461538 3.56653846,3.88269231 C3.32653846,3.76846154 3.08884615,3.65307692 2.90653846,3.59769231 C2.72769231,3.48346154 2.54884615,3.42346154 2.42884615,3.31269231 C2.31115385,3.19730769 2.18884615,3.08307692 2.13,2.97115385 C2.07115385,2.85692308 2.01,2.68615385 2.01,2.51538462 C2.01,2.40115385 2.07115385,2.23038462 2.13,2.11846154 C2.18884615,1.94769231 2.31115385,1.88884615 2.42884615,1.77461538 C2.54884615,1.66269231 2.72769231,1.60730769 2.90653846,1.54730769 C3.08884615,1.48961538 3.26538462,1.48961538 3.50538462,1.48961538 C4.22423077,1.48961538 4.88076923,1.66269231 5.42076923,2.00307692 L5.42076923,0.863076923 C4.93961538,0.636923077 4.34423077,0.521538462 3.68423077,0.521538462 C3.32653846,0.521538462 2.96538462,0.576923077 2.60769231,0.692307692 Z" id="path-11"></path>
        <path d="M1.98346154,1.54730769 C1.32346154,2.23038462 0.965769231,3.19730769 0.965769231,4.39384615 C0.965769231,5.53153846 1.32346154,6.38538462 1.98346154,7.06961538 C2.64,7.75269231 3.53769231,8.09307692 4.67307692,8.09307692 C5.81076923,8.09307692 6.70846154,7.69269231 7.42384615,6.95538462 C8.08153846,6.27 8.43923077,5.36192308 8.43923077,4.22076923 C8.43923077,3.08307692 8.14269231,2.17384615 7.48615385,1.48961538 C6.885,0.863076923 5.98961538,0.521538462 4.85192308,0.521538462 C3.65769231,0.521538462 2.76,0.863076923 1.98346154,1.54730769 Z M2.88115385,6.32884615 C2.46115385,5.87307692 2.22346154,5.19115385 2.22346154,4.335 C2.22346154,3.42346154 2.4,2.74153846 2.88115385,2.23038462 C3.35653846,1.71576923 3.95423077,1.48961538 4.73423077,1.48961538 C5.51192308,1.48961538 6.16846154,1.77461538 6.52961538,2.23038462 C6.94615385,2.68615385 7.18384615,3.36807692 7.18384615,4.27961538 C7.18384615,5.19115385 6.94615385,5.87307692 6.52961538,6.32884615 C6.10730769,6.84115385 5.51192308,7.06961538 4.73423077,7.06961538 C3.95423077,7.06961538 3.35653846,6.84115385 2.88115385,6.32884615 Z" id="path-13"></path>
        <path d="M2.75538462,1.25192308 C2.27769231,1.70653846 2.09884615,2.27769231 2.09884615,3.01615385 L2.09884615,4.15730769 L0.781153846,4.15730769 L0.781153846,5.12423077 L2.09884615,5.12423077 L2.09884615,11.3815385 L3.29538462,11.3815385 L3.29538462,5.17961538 L4.13076923,5.17961538 L5.02846154,5.17961538 L6.58384615,5.17961538 L6.58384615,9.44653846 C6.58384615,10.8692308 7.24269231,11.5546154 8.55692308,11.5546154 C9.03576923,11.5546154 9.39576923,11.4992308 9.69576923,11.325 L9.69576923,10.3580769 C9.45461538,10.5288462 9.21461538,10.5876923 8.91807692,10.5876923 C8.49807692,10.5876923 8.25807692,10.4723077 8.07923077,10.3026923 C7.90038462,10.0753846 7.83923077,9.73153846 7.83923077,9.27923077 L7.83923077,5.17961538 L9.75346154,5.17961538 L9.75346154,4.15730769 L7.83923077,4.15730769 L7.83923077,2.04807692 L6.64153846,2.44846154 L6.64153846,4.21269231 L5.08730769,4.21269231 L4.19307692,4.21269231 L3.35423077,4.21269231 L3.35423077,3.075 C3.35423077,2.04807692 3.77307692,1.53692308 4.60961538,1.53692308 C4.91076923,1.53692308 5.14846154,1.59576923 5.38615385,1.70653846 L5.38615385,0.684230769 C5.14846154,0.625384615 4.84961538,0.57 4.49192308,0.57 C3.83192308,0.57 3.23423077,0.796153846 2.75538462,1.25192308 Z" id="path-15"></path>
        <path d="M5.07461538,0.156923077 L0.948461538,10.23 L2.32384615,10.23 L3.40038462,7.38346154 L7.88538462,7.38346154 L9.02307692,10.23 L10.3961538,10.23 L6.33,0.156923077 L5.07461538,0.156923077 Z M5.49461538,2.03307692 C5.55346154,1.86461538 5.61461538,1.635 5.67346154,1.35 C5.73230769,1.69153846 5.79346154,1.92115385 5.85230769,2.03307692 L7.52653846,6.30230769 L3.87807692,6.30230769 L5.49461538,2.03307692 Z" id="path-17"></path>
        <path d="M5.52692308,0.692307692 L5.52692308,4.79076923 C5.52692308,5.47615385 5.28923077,6.04384615 4.93153846,6.44076923 C4.57153846,6.84115385 4.09269231,7.06730769 3.495,7.06730769 C2.23961538,7.06730769 1.64076923,6.32884615 1.64076923,4.79076923 L1.64076923,0.692307692 L0.444230769,0.692307692 L0.444230769,5.02038462 C0.444230769,7.06730769 1.34423077,8.09307692 3.13730769,8.09307692 C4.21269231,8.09307692 4.99038462,7.63730769 5.46923077,6.78230769 L5.46923077,7.92230769 L6.66576923,7.92230769 L6.72461538,7.92230769 L6.72461538,0.692307692 L5.52692308,0.692307692 Z" id="path-19"></path>
        <path d="M2.595,0.980769231 C2.23730769,1.26230769 1.99615385,1.66269231 1.81730769,2.17384615 L1.81730769,0.695769231 L0.620769231,0.695769231 L0.620769231,7.92 L1.81730769,7.92 L1.81730769,4.22423077 C1.81730769,3.42346154 1.99615385,2.79807692 2.355,2.34461538 C2.715,1.88884615 3.13153846,1.66269231 3.67153846,1.66269231 C4.00384615,1.66269231 4.28076923,1.71 4.51038462,1.84961538 L4.51038462,0.695769231 C4.32807692,0.636923077 4.09038462,0.576923077 3.79153846,0.576923077 C3.37269231,0.576923077 2.95269231,0.695769231 2.595,0.980769231 Z M4.51038462,1.88884615 L4.56923077,1.88884615 C4.54961538,1.875 4.53,1.86346154 4.51038462,1.84961538 L4.51038462,1.88884615 Z" id="path-21"></path>
        <path d="M1.20923077,1.60384615 C0.549230769,2.28576923 0.191538462,3.19730769 0.191538462,4.335 C0.191538462,5.47615385 0.490384615,6.44307692 1.09153846,7.06730769 C1.68692308,7.69269231 2.52346154,8.03769231 3.6,8.03769231 C4.67884615,8.03769231 5.57307692,7.80807692 6.23307692,7.35230769 L6.23307692,6.27 C5.51538462,6.78461538 4.73769231,7.06730769 3.90115385,7.06730769 C3.12461538,7.06730769 2.52346154,6.89653846 2.10692308,6.44307692 C1.68692308,5.985 1.44923077,5.35961538 1.44923077,4.56461538 L6.77076923,4.56461538 L6.77076923,3.93807692 C6.77076923,2.91230769 6.47076923,2.05961538 5.93423077,1.43307692 C5.39423077,0.806538462 4.61769231,0.521538462 3.66115385,0.521538462 C2.70461538,0.521538462 1.86923077,0.921923077 1.20923077,1.60384615 Z M2.22692308,2.05961538 C2.58461538,1.66269231 3.06230769,1.48961538 3.66115385,1.48961538 C4.26,1.48961538 4.67884615,1.71807692 5.03653846,2.05961538 C5.33653846,2.40115385 5.51538462,2.91230769 5.51538462,3.59769231 L1.50807692,3.59769231 C1.56692308,2.97115385 1.80692308,2.45653846 2.22692308,2.05961538 Z" id="path-23"></path>
    </defs>
    <g id="Page-1" stroke="none" stroke-width="1" fill="none" fill-rule="evenodd">
        <g id="azure" transform="translate(-1.000000, 0.000000)">
            <path d="M47.9438077,3.44665385 L47.9438077,19.7978077 L71.1753462,19.6224231 L71.1753462,0.2205 L47.9438077,3.44665385 Z M28.3111154,6.01396154 L28.3284231,19.9224231 L45.8368846,19.8278077 L45.8311154,3.74319231 L28.3111154,6.01396154 Z M28.3261154,35.4843462 L45.8368846,37.7758846 L45.8218846,21.6808846 L28.3261154,21.5712692 L28.3261154,35.4843462 Z M47.9438077,38.0251154 L71.1753462,41.1451154 L71.1788077,21.8320385 L47.9138077,21.7962692 L47.9438077,38.0251154 Z" id="Fill-1" fill="#00BCF2" fill-rule="nonzero"></path>
            <g id="Group-4" transform="translate(0.000000, 47.780769)">
                <g id="Fill-2-Clipped">
                    <g>
                        <mask id="mask-2" fill="white">
                            <use xlink:href="#path-1"></use>
                        </mask>
                        <g id="path-1"></g>
                        <polygon id="Fill-2" fill="#00BCF2" fill-rule="nonzero" mask="url(#mask-2)" points="-5.86730769 17.0988462 18.6346154 17.0988462 18.6346154 -6.77076923 -5.86730769 -6.77076923"></polygon>
                    </g>
                </g>
            </g>
            <g id="Group-7" transform="translate(13.846154, 46.626923)">
                <g id="Fill-5-Clipped">
                    <g>
                        <mask id="mask-4" fill="white">
                            <use xlink:href="#path-3"></use>
                        </mask>
                        <g id="path-3"></g>
                        <polygon id="Fill-5" fill="#00BCF2" fill-rule="nonzero" mask="url(#mask-4)" points="-6.85615385 18.2526923 8.43576923 18.2526923 8.43576923 -6.015 -6.85615385 -6.015"></polygon>
                    </g>
                </g>
            </g>
            <g id="Group-10" transform="translate(16.153846, 50.088462)">
                <g id="Fill-8-Clipped">
                    <g>
                        <mask id="mask-6" fill="white">
                            <use xlink:href="#path-5"></use>
                        </mask>
                        <g id="path-5"></g>
                        <polygon id="Fill-8" fill="#00BCF2" fill-rule="nonzero" mask="url(#mask-6)" points="-6.35307692 14.9607692 13.185 14.9607692 13.185 -6.34730769 -6.35307692 -6.34730769"></polygon>
                    </g>
                </g>
            </g>
            <g id="Group-13" transform="translate(23.076923, 50.088462)">
                <g id="Fill-11-Clipped">
                    <g>
                        <mask id="mask-8" fill="white">
                            <use xlink:href="#path-7"></use>
                        </mask>
                        <g id="path-7"></g>
                        <polygon id="Fill-11" fill="#00BCF2" fill-rule="nonzero" mask="url(#mask-8)" points="-6.09923077 14.79 11.6446154 14.79 11.6446154 -6.28961538 -6.09923077 -6.28961538"></polygon>
                    </g>
                </g>
            </g>
            <g id="Group-16" transform="translate(27.692308, 50.088462)">
                <g id="Fill-14-Clipped">
                    <g>
                        <mask id="mask-10" fill="white">
                            <use xlink:href="#path-9"></use>
                        </mask>
                        <g id="path-9"></g>
                        <polygon id="Fill-14" fill="#00BCF2" fill-rule="nonzero" mask="url(#mask-10)" points="-6.52961538 14.9607692 14.6826923 14.9607692 14.6826923 -6.34730769 -6.52961538 -6.34730769"></polygon>
                    </g>
                </g>
            </g>
            <g id="Group-19" transform="translate(35.769231, 50.088462)">
                <g id="Fill-17-Clipped">
                    <g>
                        <mask id="mask-12" fill="white">
                            <use xlink:href="#path-11"></use>
                        </mask>
                        <g id="path-11"></g>
                        <polygon id="Fill-17" fill="#00BCF2" fill-rule="nonzero" mask="url(#mask-12)" points="-6.05307692 14.9619231 12.5873077 14.9619231 12.5873077 -6.34730769 -6.05307692 -6.34730769"></polygon>
                    </g>
                </g>
            </g>
            <g id="Group-22" transform="translate(41.538462, 50.088462)">
                <g id="Fill-20-Clipped">
                    <g>
                        <mask id="mask-14" fill="white">
                            <use xlink:href="#path-13"></use>
                        </mask>
                        <g id="path-13"></g>
                        <polygon id="Fill-20" fill="#00BCF2" fill-rule="nonzero" mask="url(#mask-14)" points="-5.90423077 14.9607692 15.3092308 14.9607692 15.3092308 -6.34730769 -5.90423077 -6.34730769"></polygon>
                    </g>
                </g>
            </g>
            <g id="Group-25" transform="translate(49.615385, 46.626923)">
                <g id="Fill-23-Clipped">
                    <g>
                        <mask id="mask-16" fill="white">
                            <use xlink:href="#path-15"></use>
                        </mask>
                        <g id="path-15"></g>
                        <polygon id="Fill-23" fill="#00BCF2" fill-rule="nonzero" mask="url(#mask-16)" points="-6.08653846 18.4211538 16.6223077 18.4211538 16.6223077 -6.3 -6.08653846 -6.3"></polygon>
                    </g>
                </g>
            </g>
            <g id="Group-28" transform="translate(62.307692, 47.780769)">
                <g id="Fill-26-Clipped">
                    <g>
                        <mask id="mask-18" fill="white">
                            <use xlink:href="#path-17"></use>
                        </mask>
                        <g id="path-17"></g>
                        <polygon id="Fill-26" fill="#00BCF2" fill-rule="nonzero" mask="url(#mask-18)" points="-5.92038462 17.0976923 17.2661538 17.0976923 17.2661538 -6.71307692 -5.92038462 -6.71307692"></polygon>
                    </g>
                </g>
            </g>
            <polygon id="Fill-29" fill="#00BCF2" fill-rule="nonzero" points="73.1852308 50.7831923 73.1852308 51.8066538 77.2502308 51.8066538 72.7652308 57.6670385 72.7652308 58.0074231 78.9244615 58.0074231 78.9244615 56.9851154 74.4983077 56.9851154 78.9833077 51.1258846 78.9833077 50.7831923"></polygon>
            <g id="Group-32" transform="translate(79.615385, 50.088462)">
                <g id="Fill-30-Clipped">
                    <g>
                        <mask id="mask-20" fill="white">
                            <use xlink:href="#path-19"></use>
                        </mask>
                        <g id="path-19"></g>
                        <polygon id="Fill-30" fill="#00BCF2" fill-rule="nonzero" mask="url(#mask-20)" points="-6.42346154 14.9607692 13.5934615 14.9607692 13.5934615 -6.17653846 -6.42346154 -6.17653846"></polygon>
                    </g>
                </g>
            </g>
            <g id="Group-35" transform="translate(87.692308, 50.088462)">
                <g id="Fill-33-Clipped">
                    <g>
                        <mask id="mask-22" fill="white">
                            <use xlink:href="#path-21"></use>
                        </mask>
                        <g id="path-21"></g>
                        <polygon id="Fill-33" fill="#00BCF2" fill-rule="nonzero" mask="url(#mask-22)" points="-6.24692308 14.79 11.4380769 14.79 11.4380769 -6.28961538 -6.24692308 -6.28961538"></polygon>
                    </g>
                </g>
            </g>
            <g id="Group-38" transform="translate(92.307692, 50.088462)">
                <g id="Fill-36-Clipped">
                    <g>
                        <mask id="mask-24" fill="white">
                            <use xlink:href="#path-23"></use>
                        </mask>
                        <g id="path-23"></g>
                        <polygon id="Fill-36" fill="#00BCF2" fill-rule="nonzero" mask="url(#mask-24)" points="-6.67615385 14.9042308 13.6396154 14.9042308 13.6396154 -6.345 -6.67615385 -6.345"></polygon>
                    </g>
                </g>
            </g>
        </g>
    </g>
</svg>
