<svg width="73px" height="18px" viewBox="0 0 73 18" version="1.1" xmlns="http://www.w3.org/2000/svg" xmlns:xlink="http://www.w3.org/1999/xlink">
    <defs>
        <polygon id="path-1" points="7.65941019 13.0049549 7.65941019 0.0216043925 0.0217380566 0.0216043925 0.0217380566 13.0049549 7.65941019 13.0049549"></polygon>
    </defs>
    <g id="Page-1" stroke="none" stroke-width="1" fill="none" fill-rule="evenodd">
        <g>
            <path d="M24.6664602,12.7431526 C23.8186847,14.1329087 22.6005184,14.9678227 20.9525203,14.9678227 C20.1797856,14.9678227 19.4512113,14.7844881 18.789733,14.3798947 C17.3810072,13.517805 16.5626913,12.2918853 16.5626913,10.625418 C16.5626913,10.0089236 16.684995,9.41731617 16.953437,8.85995355 C17.7471356,7.21159374 19.0700632,6.2835928 20.9083599,6.2835928 C21.7510322,6.2835928 22.5300009,6.51927972 23.2296955,6.98978439 C24.506752,7.84761523 25.2537386,9.03140963 25.2537386,10.581004 C25.2537386,11.3525564 25.0708048,12.0805349 24.6664602,12.7431526 M20.9952889,4.08974888 L20.6911533,4.08974888 C19.5885348,4.08974888 18.5388624,4.37155916 17.589979,4.93486103 C15.5489735,6.14722178 14.3684727,8.03097879 14.3684727,10.4087078 L14.3684727,10.8429975 C14.3651382,11.9327779 14.6574436,13.003147 15.2142765,13.9402162 C16.4213954,15.9849704 18.3120583,17.1599573 20.6911533,17.1599573 L21.1258275,17.1599573 C22.2261843,17.1599573 23.2750158,16.8722367 24.2244501,16.3157143 C26.2753721,15.113262 27.4482471,13.2195965 27.4482471,10.8429975 L27.4482471,10.4087078 C27.4482471,9.39439935 27.1860392,8.4262143 26.6961573,7.53923766 C25.4709161,5.32192645 23.5374846,4.08974888 20.9952889,4.08974888" id="Fill-1" fill="#000000"></path>
            <path d="M10.2968944,12.7448504 C9.4340991,14.1727915 8.18310975,14.9678401 6.49660538,14.9678401 C5.80198502,14.9678401 5.14111563,14.7890251 4.53229347,14.4562821 C3.0267511,13.6329569 2.19396635,12.342256 2.19396635,10.6254354 C2.19396635,10.0089121 2.3162991,9.41730458 2.58416113,8.85994196 C3.37814967,7.21161112 4.70107728,6.28358121 6.53934501,6.28358121 C7.43273071,6.28358121 8.25191648,6.54586439 8.97962091,7.0687214 C10.1799548,7.93136159 10.8850136,9.09278963 10.8850136,10.5809924 C10.8850136,11.3536747 10.6981365,12.0805233 10.2968944,12.7448504 M12.0703278,2.60747664e-05 L11.8958898,2.60747664e-05 C11.2655818,2.60747664e-05 10.8850136,0.488638224 10.8850136,1.09693355 L10.8850136,5.7262186 C9.73313148,4.71332981 8.36714529,4.08976626 6.75710252,4.08976626 L6.32187745,4.08976626 C5.2311182,4.08597093 4.15972805,4.37783449 3.22183399,4.93429897 C1.17572528,6.14127093 3.76943759e-05,8.03125692 3.76943759e-05,10.4086962 L3.76943759e-05,10.8429859 C-0.00355776917,11.9327373 0.288428665,13.0030485 0.844971627,13.9402336 C2.05267043,15.9849588 3.94275343,17.1599747 6.32187745,17.1599747 L6.75710252,17.1599747 C7.84742684,17.1625242 8.91823707,16.8707186 9.8563051,16.315413 C11.9041246,15.1107008 13.0792322,13.2196139 13.0792322,10.8429859 L13.0792322,1.09693355 C13.0792322,0.489188692 12.7003748,2.60747664e-05 12.0703278,2.60747664e-05" id="Fill-3" fill="#000000"></path>
            <g id="Group-7" transform="translate(64.689348, 4.155014)">
                <mask id="mask-2" fill="white">
                    <use xlink:href="#path-1"></use>
                </mask>
                <g id="Clip-6"></g>
                <path d="M6.5621762,0.0216043925 L6.34412873,0.0216043925 L6.34412873,0.0218941121 C5.06454965,0.0218941121 3.86734728,0.410929626 2.82219822,1.14794738 C1.0717004,2.38180533 0.0217380566,4.14104084 0.0217380566,6.29612028 L0.0217380566,11.9083081 C0.0217380566,12.5168932 0.401726361,13.0049549 1.03232427,13.0049549 L1.20563142,13.0049549 C1.83622933,13.0049549 2.21650759,12.5166035 2.21650759,11.9083081 L2.21650759,6.60084738 C2.21650759,5.42612121 2.58715929,4.35749037 3.43409392,3.52312682 C4.11340457,2.85456981 5.05434317,2.25844271 6.03973215,2.25844271 C6.79098106,2.25844271 7.65943049,2.02614551 7.65943049,1.11851187 C7.65943049,0.464672617 7.22023302,0.0216043925 6.5621762,0.0216043925" id="Fill-5" fill="#000000" mask="url(#mask-2)"></path>
            </g>
            <g id="Group-10" transform="translate(50.220507, 3.981182)" fill="#000000">
                <path d="M8.21458456,5.1993229 C6.59065285,6.60011729 4.96190787,7.99636308 3.33374279,9.39118925 C3.17913786,9.20759393 3.0361312,9.0149014 2.90814429,8.80977991 C2.5448575,8.22779112 2.36079296,7.56856308 2.33814734,6.88444813 C2.28151879,5.14755 2.92852825,3.75185467 4.44769859,2.87533692 C5.60836641,2.20593972 6.85625322,2.04410234 8.12200137,2.52593505 C8.74891683,2.76501168 9.48682773,3.16589673 9.92854783,3.72215841 C9.37809396,4.22490888 8.76959075,4.72116963 8.21458456,5.1993229 L8.21458456,5.1993229 Z M12.212827,3.15882757 C11.6085572,2.1128528 10.731612,1.31754346 9.64908752,0.78393785 C7.63609187,-0.208293925 5.53532631,-0.285822897 3.57527676,0.84475 L3.27456262,1.01820514 C2.47973322,1.47738178 1.79987165,2.06446963 1.27968927,2.82440421 C-0.227302886,5.02305748 -0.407655976,7.45510888 0.928580652,9.76721636 L1.05938014,9.99383505 C1.61919961,10.9634397 2.37807438,11.7587491 3.36998739,12.2946145 C5.44471483,13.4155977 7.65844753,13.5819547 9.739699,12.3817621 L9.92741699,12.273407 C10.4914988,11.9477621 10.6293733,11.3711332 10.3422581,10.7976332 C10.2193744,10.552907 9.9897287,10.3879696 9.74903561,10.2713864 L9.69240706,10.2436603 L9.63096523,10.2332014 C9.23679804,10.1647407 8.16532091,10.6318556 7.74624643,10.8098014 C6.92706066,10.9524014 6.01668349,10.9922958 5.21817163,10.7136145 C6.67305856,9.45683972 8.12681465,8.19809486 9.58283241,6.94216028 C10.235786,6.37914813 10.9235924,5.74706682 11.6048747,5.22195 C12.1918631,4.76926308 12.7604393,4.10722477 12.3215608,3.34726121 L12.212827,3.15882757 Z" id="Fill-8"></path>
            </g>
            <path d="M38.7859934,5.09217589 L38.7067192,5.03727402 C37.7411343,4.3783357 36.663974,4.04646187 35.4945205,4.04646187 L35.0595854,4.04646187 C33.9572569,4.04646187 32.9078454,4.32940206 31.958991,4.89241421 C29.9182465,6.10364505 28.7374557,7.98682262 28.7374557,10.3642908 L28.7374557,10.7980011 C28.7374557,11.3650114 28.8108147,11.9053964 28.9736254,12.4494609 C29.9108816,15.5826338 32.3695697,17.3865731 35.6570702,17.1594039 C36.5886722,17.0943329 39.030079,16.7887656 39.030079,15.4538824 L39.030079,15.2368824 C39.030079,14.7004665 38.6534832,14.3844114 38.1545546,14.2805759 L38.1098143,14.2715366 L37.7040488,14.2715366 L37.6134373,14.314531 C37.0907033,14.5626759 36.2582085,14.9231161 35.6692484,14.9231161 C34.9995643,14.9231161 34.2084174,14.8676637 33.5956518,14.5751049 C31.9182231,13.7735665 30.9313843,12.4588189 30.9313843,10.5810011 C30.9313843,9.96421701 31.054007,9.37431888 31.3227099,8.81692729 C32.1008378,7.20113196 33.4271869,6.16958523 35.2603514,6.23859645 C35.618274,6.2521843 36.2384045,6.30366748 36.5696801,6.45872542 C36.8619275,6.59622636 37.6063334,6.9349086 37.9336656,6.9349086 L38.0633632,6.9349086 L38.105262,6.92754972 C38.6110045,6.83020393 39.030079,6.52918523 39.030079,5.96953383 L39.030079,5.75253383 C39.030079,5.54712262 38.9403084,5.34738991 38.8361269,5.17480393 L38.7859934,5.09217589 Z" id="Fill-11" fill="#000000"></path>
            <path d="M48.2098686,4.18595318 L48.1651283,4.17662421 L47.7720919,4.17662421 C47.4127775,4.17662421 46.5001387,5.16685692 46.2591847,5.40086346 C45.3941277,6.23945692 44.5389583,7.09050832 43.6866595,7.94324009 L43.6866595,1.13937748 C43.6866595,0.53108215 43.3055114,0.0444400935 42.6760443,0.0444400935 L42.5033171,0.0444400935 C41.8732991,0.0444400935 41.4924409,0.53108215 41.4924409,1.13937748 L41.4924409,16.0203336 C41.4924409,16.6286289 41.8730091,17.1175307 42.5033171,17.1175307 L42.6760443,17.1175307 C43.3055114,17.1175307 43.6866595,16.6286289 43.6866595,16.0203336 L43.6866595,13.3794522 L45.3711922,15.0317522 C45.8735132,15.524913 46.3681794,16.0324728 46.8807069,16.5151747 C47.1293158,16.7497027 47.5393437,17.1599457 47.9023695,17.1599457 L48.0770684,17.1599457 C48.6317847,17.1599457 48.9494903,16.7565111 49.0726639,16.2562812 L49.085393,16.2039289 L49.085393,15.9775999 C49.085393,15.7984952 49.025082,15.6307186 48.9268446,15.4819186 C48.8353633,15.3231812 48.6745243,15.1805812 48.5655296,15.0659971 C48.2563777,14.7433653 47.9447902,14.4231093 47.630796,14.1051709 C46.4987179,12.9533616 45.3584341,11.8094906 44.2170194,10.6664597 L46.8679778,7.97748495 C47.3838979,7.45462794 47.9145187,6.93828963 48.4185505,6.4043943 C48.6555611,6.15343916 49.085393,5.7273485 49.085393,5.36067935 L49.085393,5.14394009 C49.085393,4.6063943 48.7105079,4.28978869 48.2098686,4.18595318" id="Fill-13" fill="#000000"></path>
        </g>
    </g>
</svg>
