
<svg width="69px" height="58px" viewBox="0 0 69 58" version="1.1" xmlns="http://www.w3.org/2000/svg" xmlns:xlink="http://www.w3.org/1999/xlink">
    <desc>Docker Logo</desc>
    <defs>
        <polygon id="path-1" points="59.4988192 0.066917124 0.0504950991 0.066917124 0.0504950991 38.7311309 59.4988192 38.7311309 59.4988192 0.066917124"></polygon>
    </defs>
    <g id="Page-1" stroke="none" stroke-width="1" fill="none" fill-rule="evenodd">
        <g transform="translate(0.500000, -0.016393)">
            <g id="Group-3" transform="translate(0.000000, 40.764593)" fill="#394D54">
                <path d="M10.2576862,5.82882835 L10.2576862,1.46019825 C10.2576862,0.886684181 10.6147573,0.425270593 11.2057029,0.425270593 L11.3695858,0.425270593 C11.9606736,0.425270593 12.3160377,0.886827166 12.3160377,1.46019825 L12.3160377,10.6571562 C12.3160377,12.8998808 11.2135272,14.6841944 9.29274059,15.8210706 C8.40191213,16.3476855 7.41776151,16.6180707 6.38524268,16.6180707 L5.97710042,16.6180707 C3.74547699,16.6180707 1.97221339,15.5090767 0.839401674,13.5796329 C0.313753138,12.683687 0.0467322176,11.6959445 0.0467322176,10.6571562 L0.0467322176,10.2470744 C0.0467322176,8.00377787 1.14981172,6.22032213 3.06917573,5.08144415 C3.96043096,4.5525415 4.94330126,4.28444405 5.97710042,4.28444405 L6.38524268,4.28444405 C7.89561088,4.28444405 9.17708368,4.87282859 10.2576862,5.82882835 L10.2576862,5.82882835 Z M2.1046569,10.4518293 C2.1046569,12.0718529 2.88608787,13.2898017 4.29829707,14.0663549 C4.86932636,14.3806366 5.48943515,14.5492163 6.14112552,14.5492163 C7.72319247,14.5492163 8.89654812,13.7991154 9.70586192,12.4516218 C10.0824226,11.8247742 10.2576862,11.1391597 10.2576862,10.4099346 C10.2576862,9.00553293 9.59617992,7.90969354 8.47033891,7.0955352 C7.78763598,6.6020929 7.01900837,6.35472832 6.18110042,6.35472832 C4.45677406,6.35472832 3.21584519,7.23022736 2.4709749,8.78576452 C2.21946025,9.31152149 2.1046569,9.87016509 2.1046569,10.4518293 L2.1046569,10.4518293 Z M19.4564644,4.28444405 L19.7418368,4.28444405 C22.1266736,4.28444405 23.9401967,5.44734355 25.0896527,7.53964756 C25.5491506,8.37654057 25.7951172,9.2900737 25.7951172,10.2470744 L25.7951172,10.6571562 C25.7951172,12.8995948 24.6947406,14.6866252 22.7709665,15.8213566 C21.8801381,16.3463986 20.896272,16.6180707 19.8640377,16.6180707 L19.4564644,16.6180707 C17.224841,16.6180707 15.4512929,15.5090767 14.3187657,13.5796329 C13.7931172,12.683687 13.5255272,11.6959445 13.5255272,10.6571562 L13.5255272,10.2470744 C13.5255272,8.0034919 14.6327322,6.22589855 16.5474017,5.08201609 C17.4376611,4.55039672 18.4220962,4.28444405 19.4564644,4.28444405 L19.4564644,4.28444405 Z M15.5835941,10.4518293 C15.5835941,12.0243817 16.3515105,13.1811329 17.6729582,13.9942903 C18.2933515,14.3763471 18.9766234,14.5492163 19.7018619,14.5492163 C21.247795,14.5492163 22.3902803,13.7615102 23.185795,12.450049 C23.5650586,11.8247742 23.7364812,11.1380158 23.7364812,10.4099346 C23.7364812,8.94776687 23.0357113,7.83062266 21.837887,7.02103985 C21.1813598,6.57692748 20.4505732,6.35472832 19.6601799,6.35472832 C17.9358536,6.35472832 16.6949247,7.23022736 15.9503389,8.78576452 C15.6982552,9.31152149 15.5835941,9.87016509 15.5835941,10.4518293 L15.5835941,10.4518293 Z M34.3517364,6.52001933 C34.0411841,6.37374536 33.4593431,6.32513036 33.1233264,6.31226168 C31.4038368,6.24720336 30.1594937,7.22036137 29.4297029,8.74515669 C29.1776192,9.27105665 29.0625314,9.82798442 29.0625314,10.4099346 C29.0625314,12.1819515 29.9880711,13.4223491 31.561887,14.1785984 C32.1367573,14.454846 32.8789247,14.5073216 33.5071423,14.5073216 C34.0596778,14.5073216 34.8405397,14.1668736 35.3309079,13.9329496 L35.4159791,13.8924848 L35.7962385,13.8924848 L35.838205,13.9010639 C36.3063808,13.9988658 36.6598954,14.2971332 36.6598954,14.8034442 L36.6598954,15.0080562 C36.6598954,16.2676137 34.3695188,16.5560151 33.4957615,16.6172128 C30.4118619,16.8319767 28.10541,15.1295937 27.2259623,12.1729435 C27.0731757,11.6596262 27.0046067,11.1497406 27.0046067,10.6146896 L27.0046067,10.2051797 C27.0046067,7.96188317 28.1120962,6.18486177 30.0264812,5.04183722 C30.9167406,4.51036083 31.9011757,4.24369323 32.9352594,4.24369323 L33.3431172,4.24369323 C34.4400795,4.24369323 35.4506904,4.55683106 36.3564561,5.17867416 L36.4308577,5.23029186 L36.4778033,5.30821885 C36.5756778,5.47136509 36.6598954,5.65953375 36.6598954,5.8537078 L36.6598954,6.05831977 C36.6598954,6.5865075 36.2666904,6.87047632 35.792113,6.96241587 L35.7529916,6.96942215 L35.6312176,6.96942215 C35.3239372,6.96942215 34.6260126,6.64956402 34.3517364,6.52001933 L34.3517364,6.52001933 Z M41.0279707,7.92084639 C41.8273264,7.11626806 42.6298117,6.31311959 43.4411172,5.52169591 C43.6673096,5.30106958 44.5232845,4.36651761 44.8602971,4.36651761 L45.2290335,4.36651761 L45.271,4.37523972 C45.7405983,4.47332764 46.0922636,4.77202395 46.0922636,5.27919283 L46.0922636,5.48394779 C46.0922636,5.82997224 45.6891004,6.23176095 45.4668912,6.46868761 C44.9940209,6.97242485 44.496113,7.45971877 44.0120042,7.95316107 L41.5255941,10.4904354 C42.5960962,11.5689735 43.665887,12.6485126 44.7278536,13.7354869 C45.021477,14.035899 45.3155272,14.3370261 45.6047406,14.6420138 C45.7068828,14.7501107 45.8578201,14.8846598 45.9437448,15.0346514 C46.0356444,15.174777 46.0922636,15.3332047 46.0922636,15.5020704 L46.0922636,15.7159764 L46.0803138,15.7651634 C45.9647992,16.2371579 45.6666234,16.6180707 45.1462385,16.6180707 L44.9826402,16.6180707 C44.6419289,16.6180707 44.2574017,16.2307235 44.023954,16.0095252 C43.5435439,15.554117 43.0793515,15.0751163 42.608046,14.6098421 L41.0279707,13.0507303 L41.0279707,15.5426782 C41.0279707,16.1164783 40.6703305,16.5778918 40.079954,16.5778918 L39.917636,16.5778918 C39.3266904,16.5778918 38.9696192,16.1164783 38.9696192,15.5426782 L38.9696192,1.50052011 C38.9696192,0.926291111 39.3269749,0.467165288 39.917636,0.467165288 L40.079954,0.467165288 C40.6703305,0.467165288 41.0279707,0.926291111 41.0279707,1.50052011 L41.0279707,7.92084639 Z M66.6813264,4.36651761 L66.8856109,4.36651761 C67.5028745,4.36651761 67.915,4.78460665 67.915,5.40158826 C67.915,6.25807025 67.1002803,6.47726672 66.3953849,6.47726672 C65.4709833,6.47726672 64.5885481,7.03977093 63.9515105,7.6706221 C63.1568494,8.45789921 62.8088828,9.4662316 62.8088828,10.5746537 L62.8088828,15.5831431 C62.8088828,16.1572291 62.4523808,16.6180707 61.8605816,16.6180707 L61.6984059,16.6180707 C61.106749,16.6180707 60.7503891,16.1572291 60.7503891,15.5831431 L60.7503891,10.2873962 C60.7503891,8.25371619 61.735251,6.59379975 63.3770669,5.42947039 C64.3579456,4.73384687 65.4807992,4.36651761 66.6813264,4.36651761 L66.6813264,4.36651761 Z M52.0519372,14.2918427 C52.8010753,14.5545068 53.6552008,14.5171876 54.4236862,14.3824954 C54.8166067,14.2146307 55.8218117,13.77395 56.1916862,13.8385793 L56.2494435,13.8483023 L56.3025063,13.8746116 C56.5281297,13.9845673 56.743795,14.1401353 56.8587406,14.3707706 C57.1283222,14.912256 56.9987238,15.4563151 56.4698033,15.7634475 L56.2935439,15.865682 C54.3411757,16.9984116 52.2644728,16.8415568 50.3185063,15.7836085 C49.3878452,15.2781554 48.6761213,14.5274825 48.1508996,13.6126625 L48.0281297,13.3986135 C46.774682,11.2170867 46.9439707,8.92202952 48.357318,6.8473127 C48.8455523,6.1300984 49.483159,5.57603033 50.2290251,5.14292783 L50.5109833,4.97935264 C52.3498285,3.91253926 54.3202636,3.98531878 56.2088996,4.92172956 C57.2240628,5.42532382 58.0468912,6.17599668 58.6136527,7.16288128 L58.7156527,7.34046903 C59.1273515,8.05768333 58.5938787,8.68267211 58.0431925,9.10962624 C57.4041632,9.6053563 56.7590167,10.201605 56.1463054,10.7330814 C54.7807573,11.9180007 53.4170586,13.1057796 52.0519372,14.2918427 L52.0519372,14.2918427 Z M50.2842218,13.04401 C51.8119456,11.7275442 53.3398117,10.4102206 54.8629833,9.08846441 C55.3833682,8.63720278 55.9543975,8.16878291 56.4709414,7.69435766 C56.0562552,7.16960158 55.3641632,6.79111948 54.7759205,6.56548866 C53.5890502,6.11093837 52.418113,6.26364668 51.3295439,6.89535576 C49.9041046,7.7222398 49.2973682,9.03956344 49.3507155,10.678604 C49.3714854,11.3240397 49.5443305,11.9458828 49.8853264,12.4952324 C50.005251,12.6888345 50.1395439,12.8705688 50.2842218,13.04401 L50.2842218,13.04401 Z" id="Fill-1"></path>
            </g>
            <g id="Group-6" transform="translate(8.251046, 0.076068)">
                <mask id="mask-2" fill="white">
                    <use xlink:href="#path-1"></use>
                </mask>
                <g id="Clip-5"></g>
                <path d="M30.9253046,12.2765612 L36.9990703,12.2765612 L36.9990703,18.517298 L40.0701665,18.517298 C41.4883506,18.517298 42.9470787,18.2632131 44.2901498,17.8058031 C44.9500912,17.5810302 45.690836,17.2678924 46.3418151,16.8742538 C45.4844176,15.7491024 45.0468276,14.3285434 44.9177983,12.9281453 C44.7428192,11.023295 45.1250703,8.54407276 46.4076812,7.05345093 L47.0461414,6.31107121 L47.8069448,6.92576505 C49.7224678,8.47258011 51.3334134,10.634089 51.6173632,13.0978688 C53.9238151,12.4161149 56.631723,12.5774023 58.6647523,13.7567451 L59.4988192,14.2403214 L59.059949,15.1016649 C57.3406017,18.4744024 53.7459908,19.519053 50.2317565,19.334173 C44.9731372,32.4986873 33.5245264,38.7311309 19.6431372,38.7311309 C12.4715556,38.7311309 5.89177322,36.0364298 2.14494477,29.6411259 L2.08363096,29.5367467 L1.53763933,28.4204604 C0.271246025,25.6055086 -0.149415063,22.5214585 0.135815063,19.4402681 L0.22145523,18.517298 L5.41534644,18.517298 L5.41534644,12.2765612 L11.4888276,12.2765612 L11.4888276,6.17180352 L23.6367858,6.17180352 L23.6367858,0.0669028255 L30.9253046,0.0669028255 L30.9253046,12.2765612 Z" id="Fill-4" fill="#394D54" mask="url(#mask-2)"></path>
            </g>
            <path d="M58.8545548,14.6613417 C59.2618435,11.4802046 56.8932243,8.98125034 55.4242536,7.79504423 C53.7315088,9.7620931 53.4684711,14.9174284 56.1241699,17.0879453 C54.6421113,18.4111314 51.5190904,19.6104921 48.321241,19.6104921 L9.39522427,19.6104921 C9.08438745,22.9656424 9.67035397,26.0552689 11.0087305,28.6999252 L11.4515841,29.5139405 C11.7319774,29.9922264 12.0382619,30.4537829 12.3692996,30.8981813 L12.3694418,30.8981813 C13.969718,31.0014167 15.4452326,31.037163 16.7951322,31.0071361 L16.7958435,31.0071361 C19.4485548,30.9480832 21.6130318,30.6335155 23.2535674,30.0621462 C23.4978268,29.976784 23.7639941,30.1069006 23.8484962,30.3522634 C23.9328561,30.5974832 23.8036845,30.8651517 23.5597096,30.9502279 C23.3416259,31.0261531 23.1141531,31.0972168 22.8792828,31.1647059 C22.8789983,31.1648489 22.8787138,31.1648489 22.8784293,31.1649919 C21.5867138,31.5356098 20.2016762,31.7851191 18.4144711,31.8959328 C18.5204544,31.8976486 18.3039356,31.9119471 18.3033665,31.9119471 C18.2426218,31.9158077 18.1660862,31.9243868 18.1050569,31.9279615 C17.4017264,31.9675684 16.6424879,31.9758615 15.8663205,31.9758615 C15.0176008,31.9758615 14.1814,31.9597042 13.2467556,31.9119471 L13.2228561,31.9279615 C16.4662285,35.59196 21.5376343,37.7895012 27.8942117,37.7895012 C41.3476845,37.7895012 52.7590234,31.7952711 57.8120778,18.3379229 C61.3971573,18.7076829 64.8425381,17.7888593 66.40981,14.7138173 C63.9134418,13.2658051 60.7030736,13.7275046 58.8545548,14.6613417" id="Fill-7" fill="#00AADA"></path>
            <path d="M58.8545548,14.6613417 C59.2618435,11.4802046 56.8932243,8.98125034 55.4242536,7.79504423 C53.7315088,9.7620931 53.4684711,14.9174284 56.1241699,17.0879453 C54.6421113,18.4111314 51.5190904,19.6104921 48.321241,19.6104921 L11.7002536,19.6104921 C11.5413498,24.7488122 13.4385213,28.6491654 16.7951322,31.0071361 L16.7958435,31.0071361 C19.4485548,30.9480832 21.6130318,30.6335155 23.2535674,30.0621462 C23.4978268,29.976784 23.7639941,30.1069006 23.8484962,30.3522634 C23.9328561,30.5974832 23.8036845,30.8651517 23.5597096,30.9502279 C23.3416259,31.0261531 23.1141531,31.0972168 22.8792828,31.1647059 C22.8789983,31.1648489 22.8787138,31.1648489 22.8784293,31.1649919 C21.5867138,31.5356098 20.082605,31.8170049 18.2955423,31.9279615 C18.2949732,31.9279615 18.2521531,31.8863527 18.2515841,31.8864957 C22.8302033,34.2470402 29.4691657,34.238604 37.0804711,31.299827 C45.6153247,28.0044446 53.5568142,21.7259598 59.0982452,14.5449516 C59.0145967,14.5828428 58.9332243,14.6217348 58.8545548,14.6613417" id="Fill-9" fill="#24B8EC"></path>
            <path d="M9.46803264,23.6870176 C9.7100159,25.4840569 10.2329615,27.166994 11.0087021,28.6999395 L11.4515556,29.5139548 C11.731949,29.9922407 12.0382335,30.4537972 12.3695556,30.8981956 C13.9699741,31.001431 15.4457732,31.0371773 16.7958151,31.0071504 C19.4485264,30.9480975 21.6130033,30.6335298 23.2535389,30.0621605 C23.4977983,29.9767983 23.7639657,30.1069149 23.8484678,30.3522777 C23.9329699,30.5974975 23.8036561,30.865166 23.5598234,30.9502422 C23.3415975,31.0261674 23.1141247,31.0972311 22.8792544,31.1647202 C22.8789699,31.1648632 22.8788276,31.1648632 22.8785431,31.1650062 C21.5868276,31.5356241 20.0905431,31.8011478 18.3033381,31.9119614 C18.2421665,31.915822 18.1350452,31.9165369 18.0731623,31.9199686 C17.3701163,31.9595755 16.6188444,31.98374 15.8425347,31.98374 C14.9938151,31.98374 14.1257481,31.9675827 13.191246,31.9199686 C16.4346184,35.5839671 21.5376059,37.7895155 27.8941833,37.7895155 C39.4116477,37.7895155 49.4321163,33.395434 55.2481079,23.6870176 L9.46803264,23.6870176 Z" id="Fill-11" fill="#008BB8"></path>
            <path d="M12.0506527,23.6870176 C12.7391883,26.8425603 14.3938075,29.3199238 16.7957155,31.0071504 C19.448569,30.9480975 21.613046,30.6335298 23.2535816,30.0621605 C23.497841,29.9767983 23.7640084,30.1069149 23.8485105,30.3522777 C23.9328703,30.5974975 23.8036987,30.865166 23.5597238,30.9502422 C23.3416402,31.0261674 23.1141674,31.0972311 22.8792971,31.1647202 C22.8790126,31.1648632 22.878728,31.1648632 22.8784435,31.1650062 C21.586728,31.5356241 20.0588619,31.8011478 18.2716569,31.9119614 C22.8498494,34.2722199 29.4696067,34.2383324 37.0804854,31.2998413 C41.6848536,29.521819 46.1162343,26.874875 50.0919582,23.6870176 L12.0506527,23.6870176 Z" id="Fill-13" fill="#039BC6"></path>
            <path d="M14.6786109,18.6610125 L19.9424937,18.6610125 L19.9424937,13.3699842 L14.6786109,13.3699842 L14.6786109,18.6610125 Z M15.1170544,18.2203318 L15.5324519,18.2203318 L15.5324519,13.8109509 L15.1170544,13.8109509 L15.1170544,18.2203318 Z M15.8980586,18.2203318 L16.3301004,18.2203318 L16.3301004,13.8109509 L15.8980586,13.8109509 L15.8980586,18.2203318 Z M16.6954226,18.2203318 L17.1274644,18.2203318 L17.1274644,13.8109509 L16.6954226,13.8109509 L16.6954226,18.2203318 Z M17.4932134,18.2203318 L17.9252552,18.2203318 L17.9252552,13.8109509 L17.4932134,13.8109509 L17.4932134,18.2203318 Z M18.2908619,18.2203318 L18.7229038,18.2203318 L18.7229038,13.8109509 L18.2908619,13.8109509 L18.2908619,18.2203318 Z M19.0883682,18.2203318 L19.5040502,18.2203318 L19.5040502,13.8109509 L19.0883682,13.8109509 L19.0883682,18.2203318 Z" id="Fill-15" fill="#00ACD3"></path>
            <path d="M20.7520921,12.5561118 L26.0165439,12.5561118 L26.0165439,7.26522647 L20.7520921,7.26522647 L20.7520921,12.5561118 Z M21.1911046,12.1152881 L21.6062176,12.1152881 L21.6062176,7.70619316 L21.1911046,7.70619316 L21.1911046,12.1152881 Z M21.9721088,12.1152881 L22.4038661,12.1152881 L22.4038661,7.70619316 L21.9721088,7.70619316 L21.9721088,12.1152881 Z M22.7693305,12.1152881 L23.2013724,12.1152881 L23.2013724,7.70619316 L22.7693305,7.70619316 L22.7693305,12.1152881 Z M23.5669791,12.1152881 L23.9990209,12.1152881 L23.9990209,7.70619316 L23.5669791,7.70619316 L23.5669791,12.1152881 Z M24.3647699,12.1152881 L24.7968117,12.1152881 L24.7968117,7.70619316 L24.3647699,7.70619316 L24.3647699,12.1152881 Z M25.1621339,12.1152881 L25.5781004,12.1152881 L25.5781004,7.70619316 L25.1621339,7.70619316 L25.1621339,12.1152881 Z" id="Fill-17" fill="#00ACD3"></path>
            <path d="M20.7520921,18.6610125 L26.0165439,18.6610125 L26.0165439,13.3699842 L20.7520921,13.3699842 L20.7520921,18.6610125 Z M21.1911046,18.2203318 L21.6062176,18.2203318 L21.6062176,13.8109509 L21.1911046,13.8109509 L21.1911046,18.2203318 Z M21.9721088,18.2203318 L22.4038661,18.2203318 L22.4038661,13.8109509 L21.9721088,13.8109509 L21.9721088,18.2203318 Z M22.7693305,18.2203318 L23.2013724,18.2203318 L23.2013724,13.8109509 L22.7693305,13.8109509 L22.7693305,18.2203318 Z M23.5669791,18.2203318 L23.9990209,18.2203318 L23.9990209,13.8109509 L23.5669791,13.8109509 L23.5669791,18.2203318 Z M24.3647699,18.2203318 L24.7968117,18.2203318 L24.7968117,13.8109509 L24.3647699,13.8109509 L24.3647699,18.2203318 Z M25.1621339,18.2203318 L25.5781004,18.2203318 L25.5781004,13.8109509 L25.1621339,13.8109509 L25.1621339,18.2203318 Z" id="Fill-18" fill="#1FC2EF"></path>
            <path d="M26.8261423,18.6610125 L32.0903096,18.6610125 L32.0903096,13.3699842 L26.8261423,13.3699842 L26.8261423,18.6610125 Z M27.2648703,18.2203318 L27.6799833,18.2203318 L27.6799833,13.8109509 L27.2648703,13.8109509 L27.2648703,18.2203318 Z M28.0457322,18.2203318 L28.4777741,18.2203318 L28.4777741,13.8109509 L28.0457322,13.8109509 L28.0457322,18.2203318 Z M28.8433808,18.2203318 L29.2754226,18.2203318 L29.2754226,13.8109509 L28.8433808,13.8109509 L28.8433808,18.2203318 Z M29.6410293,18.2203318 L30.0730711,18.2203318 L30.0730711,13.8109509 L29.6410293,13.8109509 L29.6410293,18.2203318 Z M30.4385356,18.2203318 L30.8708619,18.2203318 L30.8708619,13.8109509 L30.4385356,13.8109509 L30.4385356,18.2203318 Z M31.2361841,18.2203318 L31.6515816,18.2203318 L31.6515816,13.8109509 L31.2361841,13.8109509 L31.2361841,18.2203318 Z" id="Fill-19" fill="#00ACD3"></path>
            <path d="M26.8261423,12.5561118 L32.0903096,12.5561118 L32.0903096,7.26522647 L26.8261423,7.26522647 L26.8261423,12.5561118 Z M27.2648703,12.1152881 L27.6799833,12.1152881 L27.6799833,7.70619316 L27.2648703,7.70619316 L27.2648703,12.1152881 Z M28.0457322,12.1152881 L28.4777741,12.1152881 L28.4777741,7.70619316 L28.0457322,7.70619316 L28.0457322,12.1152881 Z M28.8433808,12.1152881 L29.2754226,12.1152881 L29.2754226,7.70619316 L28.8433808,7.70619316 L28.8433808,12.1152881 Z M29.6410293,12.1152881 L30.0730711,12.1152881 L30.0730711,7.70619316 L29.6410293,7.70619316 L29.6410293,12.1152881 Z M30.4385356,12.1152881 L30.8708619,12.1152881 L30.8708619,7.70619316 L30.4385356,7.70619316 L30.4385356,12.1152881 Z M31.2361841,12.1152881 L31.6515816,12.1152881 L31.6515816,7.70619316 L31.2361841,7.70619316 L31.2361841,12.1152881 Z" id="Fill-20" fill="#1FC2EF"></path>
            <path d="M32.9000502,18.6610125 L38.1642176,18.6610125 L38.1642176,13.3699842 L32.9000502,13.3699842 L32.9000502,18.6610125 Z M33.3387782,18.2203318 L33.7541757,18.2203318 L33.7541757,13.8109509 L33.3387782,13.8109509 L33.3387782,18.2203318 Z M34.1197824,18.2203318 L34.5518243,18.2203318 L34.5518243,13.8109509 L34.1197824,13.8109509 L34.1197824,18.2203318 Z M34.9171464,18.2203318 L35.3491883,18.2203318 L35.3491883,13.8109509 L34.9171464,13.8109509 L34.9171464,18.2203318 Z M35.7149372,18.2203318 L36.1469791,18.2203318 L36.1469791,13.8109509 L35.7149372,13.8109509 L35.7149372,18.2203318 Z M36.5125858,18.2203318 L36.9446276,18.2203318 L36.9446276,13.8109509 L36.5125858,13.8109509 L36.5125858,18.2203318 Z M37.3100921,18.2203318 L37.7257741,18.2203318 L37.7257741,13.8109509 L37.3100921,13.8109509 L37.3100921,18.2203318 Z" id="Fill-21" fill="#1FC2EF"></path>
            <path d="M32.9000502,12.5561118 L38.1642176,12.5561118 L38.1642176,7.26522647 L32.9000502,7.26522647 L32.9000502,12.5561118 Z M33.3387782,12.1152881 L33.7541757,12.1152881 L33.7541757,7.70619316 L33.3387782,7.70619316 L33.3387782,12.1152881 Z M34.1197824,12.1152881 L34.5518243,12.1152881 L34.5518243,7.70619316 L34.1197824,7.70619316 L34.1197824,12.1152881 Z M34.9171464,12.1152881 L35.3491883,12.1152881 L35.3491883,7.70619316 L34.9171464,7.70619316 L34.9171464,12.1152881 Z M35.7149372,12.1152881 L36.1469791,12.1152881 L36.1469791,7.70619316 L35.7149372,7.70619316 L35.7149372,12.1152881 Z M36.5125858,12.1152881 L36.9446276,12.1152881 L36.9446276,7.70619316 L36.5125858,7.70619316 L36.5125858,12.1152881 Z M37.3100921,12.1152881 L37.7257741,12.1152881 L37.7257741,7.70619316 L37.3100921,7.70619316 L37.3100921,12.1152881 Z" id="Fill-22" fill="#00ACD3"></path>
            <path d="M32.9000502,6.45149708 L38.1642176,6.45149708 L38.1642176,1.16046876 L32.9000502,1.16046876 L32.9000502,6.45149708 Z M33.3387782,6.01053039 L33.7541757,6.01053039 L33.7541757,1.60114948 L33.3387782,1.60114948 L33.3387782,6.01053039 Z M34.1197824,6.01053039 L34.5518243,6.01053039 L34.5518243,1.60114948 L34.1197824,1.60114948 L34.1197824,6.01053039 Z M34.9171464,6.01053039 L35.3491883,6.01053039 L35.3491883,1.60114948 L34.9171464,1.60114948 L34.9171464,6.01053039 Z M35.7149372,6.01053039 L36.1469791,6.01053039 L36.1469791,1.60114948 L35.7149372,1.60114948 L35.7149372,6.01053039 Z M36.5125858,6.01053039 L36.9446276,6.01053039 L36.9446276,1.60114948 L36.5125858,1.60114948 L36.5125858,6.01053039 Z M37.3100921,6.01053039 L37.7257741,6.01053039 L37.7257741,1.60114948 L37.3100921,1.60114948 L37.3100921,6.01053039 Z" id="Fill-23" fill="#1FC2EF"></path>
            <path d="M38.9738159,18.6610125 L44.2379833,18.6610125 L44.2379833,13.3699842 L38.9738159,13.3699842 L38.9738159,18.6610125 Z M39.4122594,18.2203318 L39.8279414,18.2203318 L39.8279414,13.8109509 L39.4122594,13.8109509 L39.4122594,18.2203318 Z M40.1932636,18.2203318 L40.6253054,18.2203318 L40.6253054,13.8109509 L40.1932636,13.8109509 L40.1932636,18.2203318 Z M40.9910544,18.2203318 L41.4230962,18.2203318 L41.4230962,13.8109509 L40.9910544,13.8109509 L40.9910544,18.2203318 Z M41.7884184,18.2203318 L42.2204603,18.2203318 L42.2204603,13.8109509 L41.7884184,13.8109509 L41.7884184,18.2203318 Z M42.5863515,18.2203318 L43.0181088,18.2203318 L43.0181088,13.8109509 L42.5863515,13.8109509 L42.5863515,18.2203318 Z M43.3838577,18.2203318 L43.7992552,18.2203318 L43.7992552,13.8109509 L43.3838577,13.8109509 L43.3838577,18.2203318 Z" id="Fill-24" fill="#00ACD3"></path>
            <path d="M25.687,27.2393016 C26.4889163,27.2393016 27.1390418,27.8930305 27.1390418,28.6990387 C27.1390418,29.5050468 26.4889163,30.1584897 25.687,30.1584897 C24.8847992,30.1584897 24.2346736,29.5050468 24.2346736,28.6990387 C24.2346736,27.8930305 24.8847992,27.2393016 25.687,27.2393016" id="Fill-25" fill="#D4EDF1"></path>
            <path d="M25.687,27.6534586 C25.8198703,27.6534586 25.9464812,27.678624 26.0634184,27.7240933 C25.9368075,27.7978738 25.8508828,27.9358546 25.8508828,28.0935674 C25.8508828,28.3293501 26.0409414,28.5200925 26.2755272,28.5200925 C26.4361381,28.5200925 26.5755523,28.4304408 26.6478201,28.2980364 C26.6986067,28.4214327 26.7270586,28.5568398 26.7270586,28.6989672 C26.7270586,29.2763418 26.2613013,29.7443327 25.687,29.7443327 C25.1126987,29.7443327 24.6467992,29.2763418 24.6467992,28.6989672 C24.6467992,28.1214495 25.1126987,27.6534586 25.687,27.6534586" id="Fill-26" fill="#394D54"></path>
            <path d="M0,24.2145476 L31.8110544,24.2145476 L35.745523,24.2145476 L67.5557238,24.2145476 C66.0847615,23.8394971 62.9017071,23.3329001 63.4266444,21.3953062 C60.7520251,24.5060946 54.3016987,23.577834 52.6738243,22.0437446 C50.8610126,24.6865421 40.3077824,23.6819273 39.5717322,21.6232248 C37.2991381,24.3039134 30.2570126,24.3039134 27.9842762,21.6232248 C27.2479414,23.6819273 16.6948536,24.6865421 14.8818996,22.0437446 C13.2540251,23.577834 6.80426778,24.5060946 4.12936402,21.3953062 C4.65430126,23.3329001 1.47124686,23.8394971 0,24.2145476" id="Fill-27" fill="#394D54"></path>
            <path d="M29.547451,37.7579443 C25.9509908,36.0425496 23.9768569,33.7106022 22.878472,31.1650348 C21.5425138,31.5482354 19.9365473,31.7931692 18.0708151,31.8985494 C17.3679113,31.9381563 16.6284469,31.9583172 15.8524218,31.9583172 C14.9580368,31.9583172 14.0152837,31.931865 13.0258695,31.8791034 C16.3240117,35.192073 20.3813925,37.7429309 27.8942544,37.7895441 C28.4487816,37.7895441 28.9994678,37.7786772 29.547451,37.7579443" id="Fill-28" fill="#BFDBE0"></path>
            <path d="M24.2143874,33.5138973 C23.716764,32.8350031 23.2340778,31.9818097 22.8792828,31.1646487 C21.5431824,31.5481353 19.9369314,31.7932121 18.0707724,31.8984493 C19.3525297,32.5979334 21.1858268,33.2457999 24.2143874,33.5138973" id="Fill-29" fill="#D4EDF1"></path>
        </g>
    </g>
</svg>
