<svg width="91px" height="10px" viewBox="0 0 91 10" version="1.1" xmlns="http://www.w3.org/2000/svg" xmlns:xlink="http://www.w3.org/1999/xlink">
    <defs>
        <polygon id="path-1" points="0 9.85414706 90.7994466 9.85414706 90.7994466 2.94117647e-05 0 2.94117647e-05"></polygon>
    </defs>
    <g id="Page-1" stroke="none" stroke-width="1" fill="none" fill-rule="evenodd">
        <g>
            <path d="M77.5193071,6.88202941 C76.7606793,6.88202941 76.0397472,6.27555882 76.0397472,5.21467647 C76.0397472,4.15379412 76.7606793,3.54761765 77.5193071,3.54761765 C78.2782294,3.54761765 78.998867,4.15379412 78.998867,5.21467647 C78.998867,6.23791176 78.2782294,6.84408824 77.5193071,6.88202941 Z M77.5193071,2.78967647 C76.1534236,2.78967647 75.166854,3.81261765 75.166854,5.21467647 C75.166854,6.57908824 76.1534236,7.63997059 77.5193071,7.63997059 C78.8854851,7.63997059 79.8717602,6.61702941 79.8717602,5.21467647 C79.8717602,3.81261765 78.8854851,2.78967647 77.5193071,2.78967647 Z" id="Fill-1" fill="#000000"></path>
            <path d="M35.858123,6.80620588 C34.4542492,6.80620588 33.2780227,5.78297059 33.2780227,4.15385294 C33.2780227,2.52414706 34.4542492,1.50120588 35.858123,1.50120588 C36.6170453,1.50120588 37.2619968,1.7665 37.7172913,2.33473529 L38.3245469,1.7665 C37.7172913,1.08444118 36.8826828,0.667382353 35.858123,0.667382353 C33.8849838,0.667382353 32.3674337,2.18326471 32.3674337,4.15385294 C32.3674337,6.16238235 33.8849838,7.64002941 35.858123,7.60208824 C36.9963592,7.60208824 37.9449385,7.10944118 38.5142039,6.42738235 L37.9069482,5.82091176 C37.4136634,6.42738235 36.6927314,6.80620588 35.858123,6.80620588" id="Fill-3" fill="#000000"></path>
            <mask id="mask-2" fill="white">
                <use xlink:href="#path-1"></use>
            </mask>
            <g id="Clip-6"></g>
            <polygon id="Fill-5" fill="#000000" mask="url(#mask-2)" points="39.1591553 7.48826471 40.031754 7.48826471 40.031754 0.819147059 39.1591553 0.819147059"></polygon>
            <path d="M81.4274479,3.699 L81.3894576,3.699 L81.3894576,2.94105882 L80.5548492,2.94105882 L80.5548492,7.48841176 L81.4274479,7.48841176 L81.4274479,4.98752941 C81.4274479,4.15370588 81.9967133,3.66105882 82.6036744,3.66105882 C82.7936259,3.66105882 82.9449981,3.699 83.0589689,3.73694118 L83.4005871,2.94105882 C83.2109301,2.86547059 83.0209786,2.82752941 82.7556356,2.82752941 C82.2623508,2.82752941 81.6173994,3.16841176 81.4274479,3.699" id="Fill-7" fill="#000000" mask="url(#mask-2)"></path>
            <path d="M89.1678078,2.78964706 C88.4468757,2.78964706 87.9156006,3.13052941 87.574277,3.66111765 C87.3463353,3.13052941 86.853345,2.78964706 86.1324129,2.78964706 C85.6011379,2.78964706 84.9941767,3.13052941 84.7285392,3.58552941 L84.6905489,3.58552941 L84.6905489,2.94111765 L83.8559405,2.94111765 L83.7799599,2.94111765 L83.7799599,7.602 L84.6525586,7.602 L84.6525586,5.06317647 C84.6525586,4.38111765 85.1458434,3.66111765 85.8287851,3.66111765 C86.4740311,3.66111765 86.853345,3.96435294 86.853345,4.91170588 L86.853345,7.56405882 L87.7259437,7.56405882 L87.7259437,5.02552941 C87.7259437,4.34317647 88.2192285,3.62317647 88.9024647,3.62317647 C89.5471217,3.62317647 89.9267301,3.92641176 89.9267301,4.87376471 L89.9267301,7.52611765 L90.7993288,7.52611765 L90.7993288,4.722 C90.7993288,3.58552941 90.306044,2.78964706 89.1678078,2.78964706" id="Fill-8" fill="#000000" mask="url(#mask-2)"></path>
            <polygon id="Fill-9" fill="#000000" mask="url(#mask-2)" points="62.6836861 7.48826471 63.5565793 7.48826471 63.5565793 0.819147059 62.6836861 0.819147059"></polygon>
            <path d="M43.0293353,6.88202941 C42.2704129,6.88202941 41.5497754,6.27555882 41.5497754,5.21467647 C41.5497754,4.15379412 42.2704129,3.54761765 43.0293353,3.54761765 C43.7882576,3.54761765 44.5088951,4.15379412 44.5088951,5.21467647 C44.5088951,6.23791176 43.7882576,6.84408824 43.0293353,6.88202941 M43.0293353,2.78967647 C41.6634518,2.78967647 40.6768822,3.81261765 40.6768822,5.21467647 C40.6768822,6.57908824 41.6634518,7.63997059 43.0293353,7.63997059 C44.3955133,7.63997059 45.3817883,6.61702941 45.3817883,5.21467647 C45.3817883,3.81261765 44.3955133,2.78967647 43.0293353,2.78967647" id="Fill-10" fill="#000000" mask="url(#mask-2)"></path>
            <path d="M53.1222366,6.88202941 C52.3633142,6.88202941 51.6803725,6.23791176 51.6803725,5.21467647 C51.6803725,4.15379412 52.3633142,3.54761765 53.1222366,3.54761765 C53.8808644,3.54761765 54.5641006,4.15379412 54.5641006,5.21467647 C54.5641006,6.23791176 53.8428741,6.84408824 53.1222366,6.88202941 L53.1222366,6.88202941 Z M54.4881201,2.94114706 L54.5261104,3.58555882 L54.4881201,3.58555882 C54.2224825,3.1685 53.6535117,2.78967647 52.9322851,2.78967647 C51.7940489,2.78967647 50.7697835,3.81261765 50.7697835,5.21467647 C50.7697835,6.61702941 51.7940489,7.63997059 52.9702754,7.63997059 C53.6915019,7.63997059 54.2604728,7.26114706 54.5261104,6.84408824 L54.5641006,6.84408824 L54.5641006,7.4885 L55.3610133,7.4885 L55.3610133,0.819088235 L54.4881201,0.819088235 L54.4881201,2.94114706 Z" id="Fill-11" fill="#000000" mask="url(#mask-2)"></path>
            <path d="M60.0276935,3.96426471 L58.5858294,3.96426471 L58.5858294,1.61485294 L60.0276935,1.61485294 C60.7866159,1.61485294 61.2039201,2.25926471 61.2039201,2.78955882 C61.2039201,3.32014706 60.7866159,3.96426471 60.0276935,3.96426471 M59.9897032,0.819264706 L57.7132307,0.819264706 L57.7132307,7.45044118 L58.5858294,7.45044118 L58.5858294,4.76014706 L59.9897032,4.76014706 C61.0899492,4.76014706 62.0765188,3.92661765 62.0765188,2.78955882 C62.0765188,1.65279412 61.0899492,0.819264706 59.9897032,0.819264706" id="Fill-12" fill="#000000" mask="url(#mask-2)"></path>
            <path d="M66.1365324,6.84411765 C65.6812379,6.84411765 65.1879531,6.61705882 65.1879531,6.12441176 C65.1879531,5.70735294 65.5292767,5.21470588 66.4398657,5.21470588 C67.1610922,5.21470588 67.5404061,5.51794118 67.5404061,5.51794118 C67.5404061,6.27558824 66.8194741,6.84411765 66.1365324,6.84411765 M66.3264838,2.78970588 C65.1879531,2.78970588 64.6189822,3.47176471 64.467021,3.88852941 L65.2636392,4.22941176 C65.4156003,3.81264706 65.8708948,3.58529412 66.3641796,3.58529412 C66.9711408,3.58529412 67.5404061,4.00205882 67.5404061,4.68411765 L67.5404061,4.79794118 C67.3507492,4.72205882 66.8954547,4.53294118 66.2884935,4.53294118 C65.2259434,4.53294118 64.2773641,5.10117647 64.2773641,6.12441176 C64.2773641,7.07147059 65.0742767,7.64 65.9845712,7.67794118 C66.7814838,7.67794118 67.2367783,7.26117647 67.5024159,6.88205882 L67.5404061,6.88205882 L67.5404061,7.52617647 L68.3753091,7.52617647 L68.3753091,4.76 C68.3753091,3.47176471 67.4647201,2.78970588 66.3264838,2.78970588" id="Fill-13" fill="#000000" mask="url(#mask-2)"></path>
            <path d="M71.0690858,6.84411765 C70.6897718,6.84411765 70.4618301,6.61705882 70.4618301,6.08647059 L70.4618301,3.73705882 L71.6003608,3.73705882 L71.6003608,2.94117647 L70.4618301,2.94117647 L70.4618301,1.53911765 L69.5895259,1.53911765 L69.5895259,2.94117647 L68.7926133,2.94117647 L68.7926133,3.73705882 L69.5895259,3.73705882 L69.5895259,6.12441176 C69.5895259,7.03382353 70.1205065,7.56411765 71.0690858,7.60205882 C71.3344288,7.60205882 71.5623706,7.56411765 71.7520275,7.48823529 L71.4483997,6.76852941 C71.3344288,6.84411765 71.2210469,6.84411765 71.0690858,6.84411765" id="Fill-14" fill="#000000" mask="url(#mask-2)"></path>
            <path d="M49.2520566,5.44217647 C49.2520566,6.12423529 48.7964676,6.84423529 48.0378398,6.84423529 C47.3928883,6.84423529 46.8996036,6.50305882 46.8996036,5.556 L46.8996036,2.90335294 L46.0270049,2.90335294 L46.0270049,5.70717647 C46.0270049,6.84423529 46.5959757,7.64011765 47.7722023,7.64011765 C48.3791634,7.64011765 48.9484288,7.26129412 49.2140663,6.84423529 L49.2520566,6.84423529 L49.2520566,7.48835294 L49.2520566,7.52629412 L50.1246553,7.52629412 L50.1246553,2.94129412 L49.2520566,2.94129412 L49.2520566,5.44217647 Z" id="Fill-15" fill="#000000" mask="url(#mask-2)"></path>
            <path d="M73.7250489,2.33482353 C73.7250489,1.80423529 74.0663725,1.53894118 74.4839712,1.53894118 C74.6356379,1.53894118 74.7496087,1.57688235 74.8632851,1.61482353 L75.1669129,0.894823529 C74.977256,0.819235294 74.7873045,0.781294118 74.5219615,0.781294118 C73.5353919,0.781294118 72.8904405,1.38747059 72.8904405,2.33482353 L72.8904405,2.90335294 L72.0175472,2.90335294 L72.0175472,3.69894118 L72.8524502,3.69894118 L72.8524502,7.48835294 L73.7250489,7.48835294 L73.7250489,3.69894118 L74.9012754,3.69894118 L74.9012754,2.90335294 L73.7250489,2.90335294 L73.7250489,2.33482353 Z" id="Fill-16" fill="#000000" mask="url(#mask-2)"></path>
            <path d="M10.3044984,6.6715 C9.56059547,6.6715 8.91152104,6.05973529 8.91152104,5.17826471 C8.91152104,4.28973529 9.55323301,3.68532353 10.3044984,3.68532353 C11.0484013,3.68532353 11.6971812,4.28973529 11.6971812,5.17826471 C11.6971812,6.05973529 11.0484013,6.6715 10.3044984,6.6715 M10.3044984,2.72385294 C8.94067638,2.72385294 7.83218447,3.75826471 7.83218447,5.18561765 C7.83218447,6.60561765 8.94067638,7.64738235 10.3044984,7.64738235 C11.6680259,7.64738235 12.7768123,6.60561765 12.7768123,5.18561765 C12.7768123,3.75826471 11.6680259,2.72385294 10.3044984,2.72385294" id="Fill-17" fill="#000000" mask="url(#mask-2)"></path>
            <path d="M3.88693689,3.47411765 L3.88693689,4.51558824 L6.38840615,4.51558824 C6.31537055,5.09823529 6.11864563,5.52794118 5.81943528,5.82647059 C5.45484628,6.19058824 4.8861699,6.59147059 3.88693689,6.59147059 C2.34818285,6.59147059 1.14486246,5.35323529 1.14486246,3.81647059 C1.14486246,2.27970588 2.34818285,1.04147059 3.88693689,1.04147059 C4.71830583,1.04147059 5.3235,1.36911765 5.76848706,1.79176471 L6.51238997,1.05617647 C5.88510841,0.458823529 5.05373948,0 3.88693689,0 C1.77214401,0 0.000147249191,1.71147059 0.000147249191,3.82352941 C0.000147249191,5.92852941 1.77214401,7.64 3.88693689,7.64 C5.02458414,7.64 5.88510841,7.26852941 6.56333819,6.56941176 C7.25599838,5.88470588 7.46774272,4.91617647 7.46774272,4.12970588 C7.46774272,3.88205882 7.44565534,3.66352941 7.40913754,3.47411765 L3.88693689,3.47411765 Z" id="Fill-18" fill="#000000" mask="url(#mask-2)"></path>
            <path d="M21.0828741,6.6715 C20.3392657,6.6715 19.7119841,6.04502941 19.7119841,5.18561765 C19.7119841,4.31885294 20.3392657,3.68532353 21.0828741,3.68532353 C21.8194146,3.68532353 22.3957479,4.31885294 22.3957479,5.18561765 C22.4028159,6.05238235 21.8194146,6.6715 21.0828741,6.6715 L21.0828741,6.6715 Z M22.3227123,3.27032353 L22.2861945,3.27032353 C22.0455893,2.97885294 21.5788094,2.71679412 20.9880456,2.71679412 C19.7555699,2.71679412 18.6252851,3.79444118 18.6252851,5.18561765 C18.6252851,6.56208824 19.7555699,7.64002941 20.9880456,7.64002941 C21.5788094,7.64002941 22.0455893,7.37767647 22.2861945,7.07944118 L22.3227123,7.07944118 L22.3227123,7.43620588 C22.3227123,8.37561765 21.8194146,8.87826471 21.0098385,8.87826471 C20.3463337,8.87826471 19.9378644,8.40502941 19.7702948,8.00414706 L18.829667,8.39738235 C19.0994275,9.05297059 19.821243,9.85414706 21.017201,9.85414706 C22.2861945,9.85414706 23.3581686,9.11120588 23.3581686,7.29032353 L23.3581686,2.86973529 L22.3227123,2.86973529 L22.3227123,3.27032353 Z" id="Fill-19" fill="#000000" mask="url(#mask-2)"></path>
            <path d="M15.7009456,6.6715 C14.9570427,6.6715 14.3082628,6.05973529 14.3082628,5.17826471 C14.3082628,4.28973529 14.9499748,3.68532353 15.7009456,3.68532353 C16.452211,3.68532353 17.093923,4.28973529 17.093923,5.17826471 C17.093923,6.05973529 16.4448485,6.6715 15.7009456,6.6715 M15.7009456,2.72385294 C14.3374181,2.72385294 13.2286317,3.75826471 13.2286317,5.18561765 C13.2286317,6.60561765 14.3374181,7.64738235 15.7009456,7.64738235 C17.0647676,7.64738235 18.1732595,6.60561765 18.1732595,5.18561765 C18.1732595,3.75826471 17.0647676,2.72385294 15.7009456,2.72385294" id="Fill-20" fill="#000000" mask="url(#mask-2)"></path>
            <polygon id="Fill-21" fill="#000000" mask="url(#mask-2)" points="24.1020421 7.49444118 25.1813786 7.49444118 25.1813786 0.262382353 24.1020421 0.262382353"></polygon>
            <path d="M26.7784434,5.10552941 C26.749288,4.15876471 27.5149838,3.67082353 28.0692298,3.67082353 C28.4994919,3.67082353 28.8640809,3.882 28.9809968,4.19494118 L26.7784434,5.10552941 Z M30.1404369,4.28994118 C29.936055,3.73641176 29.309068,2.72376471 28.032712,2.72376471 C26.7640129,2.72376471 25.7064693,3.72170588 25.7064693,5.18552941 C25.7064693,6.562 26.749288,7.64758824 28.1493333,7.64758824 C29.2799126,7.64758824 29.9289871,6.95552941 30.20611,6.55494118 L29.3673786,5.99405882 C29.0828932,6.40170588 28.7038738,6.67141176 28.1493333,6.67141176 C27.5950874,6.67141176 27.2087055,6.41641176 26.9533754,5.92847059 L30.2496958,4.56641176 L30.1404369,4.28994118 Z" id="Fill-22" fill="#000000" mask="url(#mask-2)"></path>
        </g>
    </g>
</svg>
