<svg xmlns="http://www.w3.org/2000/svg" xmlns:cc="http://creativecommons.org/ns#" xmlns:dc="http://purl.org/dc/elements/1.1/" xmlns:rdf="http://www.w3.org/1999/02/22-rdf-syntax-ns#" xmlns:svg="http://www.w3.org/2000/svg" id="svg2" width="140" height="86" version="1.1" viewBox="0 0 2002.6667 1237.3333" xml:space="preserve">
    <metadata id="metadata8">
        <rdf:RDF>
            <cc:Work rdf:about="">
                <dc:format>
                    image/svg+xml
                </dc:format>
                <dc:type rdf:resource="http://purl.org/dc/dcmitype/StillImage"/>
            </cc:Work>
        </rdf:RDF>
    </metadata>
    <defs id="defs6">
        <clipPath id="clipPath18" clipPathUnits="userSpaceOnUse">
            <path id="path16" d="M 0,928 H 1502 V 0 H 0 Z"/>
        </clipPath>
        <clipPath id="clipPath46" clipPathUnits="userSpaceOnUse">
            <path id="path44" d="M 530.797,799.473 H 943.992 V 653.641 H 530.797 Z"/>
        </clipPath>
        <clipPath id="clipPath62" clipPathUnits="userSpaceOnUse">
            <path id="path60" d="M 585.703,706.566 H 943.992 V 559.715 H 585.703 Z"/>
        </clipPath>
        <clipPath id="clipPath78" clipPathUnits="userSpaceOnUse">
            <path id="path76" d="M 481.614,655.137 H 834.062 V 412.859 H 481.614 Z"/>
        </clipPath>
        <clipPath id="clipPath94" clipPathUnits="userSpaceOnUse">
            <path id="path92" d="M 481.614,561.215 H 780.625 V 319.953 H 481.614 Z"/>
        </clipPath>
        <clipPath id="clipPath110" clipPathUnits="userSpaceOnUse">
            <path id="path108" d="M 778.891,703.57 H 1020.96 V 319.953 H 778.891 Z"/>
        </clipPath>
        <clipPath id="clipPath130" clipPathUnits="userSpaceOnUse">
            <path id="path128" d="M 778.891,703.57 H 1020.96 V 319.953 H 778.891 Z"/>
        </clipPath>
        <clipPath id="clipPath150" clipPathUnits="userSpaceOnUse">
            <path id="path148" d="m 634.402,799.473 c -12.886,0 -24.785,-6.891 -31.199,-18.071 v 0 L 486.32,577.606 c -6.355,-11.087 -6.355,-24.696 0,-35.785 v 0 L 603.203,338.024 c 6.414,-11.176 18.313,-18.071 31.199,-18.071 v 0 h 233.77 c 12.883,0 24.781,6.895 31.195,18.071 v 0 l 116.883,203.797 c 6.355,11.089 6.355,24.698 0,35.785 v 0 l -72.258,125.964 -44.625,77.832 c -6.414,11.18 -18.312,18.071 -31.195,18.071 v 0 z"/>
        </clipPath>
        <radialGradient id="radialGradient164" cx="0" cy="0" r="1" fx="0" fy="0" gradientTransform="matrix(553.65015,0,0,553.65015,559.08789,767.08496)" gradientUnits="userSpaceOnUse" spreadMethod="pad">
            <stop id="stop160" offset="0" style="stop-opacity:0.09999237;stop-color:#ffffff"/>
            <stop id="stop162" offset="1" style="stop-opacity:0;stop-color:#ffffff"/>
        </radialGradient>
        <mask id="mask166" width="1" height="1" x="0" y="0" maskUnits="userSpaceOnUse">
            <g id="g176">
                <g id="g174">
                    <g id="g172">
                        <g id="g170">
                            <path id="path168" d="M -32768,32767 H 32767 V -32768 H -32768 Z" style="fill:url(#radialGradient164);stroke:none"/>
                        </g>
                    </g>
                </g>
            </g>
        </mask>
        <radialGradient id="radialGradient186" cx="0" cy="0" r="1" fx="0" fy="0" gradientTransform="matrix(553.65015,0,0,553.65015,559.08789,767.08496)" gradientUnits="userSpaceOnUse" spreadMethod="pad">
            <stop id="stop182" offset="0" style="stop-opacity:1;stop-color:#ffffff"/>
            <stop id="stop184" offset="1" style="stop-opacity:1;stop-color:#ffffff"/>
        </radialGradient>
        <clipPath id="clipPath196" clipPathUnits="userSpaceOnUse">
            <path id="path194" d="M 128,80 H 1374 V 272 H 128 Z"/>
        </clipPath>
        <clipPath id="clipPath254" clipPathUnits="userSpaceOnUse">
            <path id="path252" d="M 0,136 H 416 V 0 H 0 Z"/>
        </clipPath>
    </defs>
    <g id="g10" transform="matrix(1.3333333,0,0,-1.3333333,0,1237.3333)">
        <g id="g12">
            <g id="g14" clip-path="url(#clipPath18)">
                <g id="g20" transform="translate(834.0625,415.8555)">
                    <path id="path22" d="M 0,0 -55.172,-95.902 H -199.66 c -12.887,0 -24.785,6.894 -31.199,18.07 l -116.883,203.797 c -6.356,11.09 -6.356,24.699 0,35.785 l 44.476,77.531 54.907,-95.422 L -165.586,0 Z" style="fill:#f8bb16;fill-opacity:1;fill-rule:nonzero;stroke:none"/>
                </g>
                <g id="g24" transform="translate(1016.25,541.8203)">
                    <path id="path26" d="m 0,0 -116.883,-203.797 c -6.414,-11.176 -18.312,-18.07 -31.195,-18.07 h -89.281 l 55.172,95.902 82.808,143.86 -82.808,143.855 H -72.258 L 0,35.785 C 6.355,24.699 6.355,11.09 0,0" style="fill:#ea4334;fill-opacity:1;fill-rule:nonzero;stroke:none"/>
                </g>
                <g id="g28" transform="translate(943.9922,703.5703)">
                    <path id="path30" d="m 0,0 h -275.516 l -82.773,-143.855 -54.906,95.421 72.406,126.266 c 6.414,11.18 18.312,18.07 31.199,18.07 h 233.77 c 12.882,0 24.781,-6.89 31.195,-18.07 z" style="fill:#0074bc;fill-opacity:1;fill-rule:nonzero;stroke:none"/>
                </g>
                <g id="g32" transform="translate(834.0625,703.5703)">
                    <path id="path34" d="M 0,0 82.781,-143.855 0,-287.715 h -165.555 l -82.804,143.86 L -165.586,0 Z" style="fill:#e2e3e4;fill-opacity:1;fill-rule:nonzero;stroke:none"/>
                </g>
                <g id="g36" transform="translate(751.2852,631.6445)">
                    <path id="path38" d="m 0,0 c 39.727,0 71.93,-32.207 71.93,-71.93 0,-39.726 -32.203,-71.929 -71.93,-71.929 -39.723,0 -71.926,32.203 -71.926,71.929 C -71.926,-32.207 -39.723,0 0,0" style="fill:#ffffff;fill-opacity:1;fill-rule:nonzero;stroke:none"/>
                </g>
                <g id="g40">
                    <g id="g42"/>
                    <g id="g54">
                        <g id="g52" clip-path="url(#clipPath46)" style="opacity:0.19999701">
                            <g id="g50" transform="translate(603.2031,778.4062)">
                                <path id="path48" d="m 0,0 c 6.414,11.18 18.312,18.074 31.199,18.074 h 233.77 c 12.883,0 24.781,-6.894 31.195,-18.074 l 42.918,-74.836 h 1.707 L 296.164,2.996 c -6.414,11.18 -18.312,18.07 -31.195,18.07 H 31.199 C 18.312,21.066 6.414,14.176 0,2.996 l -72.406,-126.266 0.867,-1.496 z" style="fill:#ffffff;fill-opacity:1;fill-rule:nonzero;stroke:none"/>
                            </g>
                        </g>
                    </g>
                </g>
                <g id="g56">
                    <g id="g58"/>
                    <g id="g70">
                        <g id="g68" clip-path="url(#clipPath62)" style="opacity:0.19999701">
                            <g id="g66" transform="translate(585.7031,559.7148)">
                                <path id="path64" d="m 0,0 82.773,143.855 h 275.516 l -1.707,2.997 H 82.773 L 0,2.996" style="fill:#2c3079;fill-opacity:1;fill-rule:nonzero;stroke:none"/>
                            </g>
                        </g>
                    </g>
                </g>
                <g id="g72">
                    <g id="g74"/>
                    <g id="g86">
                        <g id="g84" clip-path="url(#clipPath78)" style="opacity:0.19999701">
                            <g id="g82" transform="translate(486.3203,574.6094)">
                                <path id="path80" d="m 0,0 44.477,77.535 54.906,-95.43 82.773,-143.855 h 163.848 l 1.738,2.996 H 182.156 L 99.383,-14.895 44.477,80.527 0,2.996 C -3.445,-2.996 -4.945,-9.711 -4.676,-16.395 -4.437,-10.73 -2.906,-5.098 0,0" style="fill:#ffffff;fill-opacity:1;fill-rule:nonzero;stroke:none"/>
                            </g>
                        </g>
                    </g>
                </g>
                <g id="g88">
                    <g id="g90"/>
                    <g id="g102">
                        <g id="g100" clip-path="url(#clipPath94)" style="opacity:0.19999701">
                            <g id="g98" transform="translate(780.625,322.9492)">
                                <path id="path96" d="m 0,0 h -146.223 c -12.886,0 -24.785,6.891 -31.199,18.07 l -116.883,203.797 c -2.906,5.098 -4.437,10.731 -4.675,16.399 -0.27,-6.688 1.23,-13.399 4.675,-19.395 L -177.422,15.074 c 6.414,-11.176 18.313,-18.07 31.199,-18.07 H -1.734 Z" style="fill:#be3b26;fill-opacity:1;fill-rule:nonzero;stroke:none"/>
                            </g>
                        </g>
                    </g>
                </g>
                <g id="g104">
                    <g id="g106"/>
                    <g id="g122">
                        <g id="g120" clip-path="url(#clipPath110)" style="opacity:0.19999701">
                            <g id="g114" transform="translate(918.5508,559.7148)">
                                <path id="path112" d="m 0,0 -82.75,143.855 h -1.738 L -1.68,0 Z" style="fill:#3f2723;fill-opacity:1;fill-rule:nonzero;stroke:none"/>
                            </g>
                            <g id="g118" transform="translate(1016.25,544.8164)">
                                <path id="path116" d="m 0,0 -116.883,-203.797 c -6.414,-11.18 -18.312,-18.07 -31.195,-18.07 h -87.547 l -1.734,-2.996 h 89.281 c 12.883,0 24.781,6.894 31.195,18.07 L 0,-2.996 C 3.449,3 4.945,9.711 4.68,16.398 4.437,10.73 2.91,5.098 0,0" style="fill:#3f2723;fill-opacity:1;fill-rule:nonzero;stroke:none"/>
                            </g>
                        </g>
                    </g>
                </g>
                <g id="g124">
                    <g id="g126"/>
                    <g id="g142">
                        <g id="g140" clip-path="url(#clipPath130)" style="opacity:0.19999701">
                            <g id="g134" transform="translate(943.9922,700.5742)">
                                <path id="path132" d="m 0,0 72.258,-125.965 c 2.91,-5.097 4.437,-10.73 4.68,-16.394 0.265,6.683 -1.231,13.398 -4.68,19.39 L 0,2.996 H -109.93 L -108.191,0" style="fill:#ffffff;fill-opacity:1;fill-rule:nonzero;stroke:none"/>
                            </g>
                            <g id="g138" transform="translate(834.0625,412.8594)">
                                <path id="path136" d="M 0,0 84.488,146.855 H 82.809 L 0,2.996 -55.172,-92.906 h 1.734 z" style="fill:#ffffff;fill-opacity:1;fill-rule:nonzero;stroke:none"/>
                            </g>
                        </g>
                    </g>
                </g>
            </g>
        </g>
        <g id="g144">
            <g id="g146" clip-path="url(#clipPath150)">
                <g id="g152">
                    <g id="g154"/>
                    <g id="g178" mask="url(#mask166)">
                        <g id="g180">
                            <path id="path188" d="m 634.402,799.473 c -12.886,0 -24.785,-6.891 -31.199,-18.071 v 0 L 486.32,577.606 c -6.355,-11.087 -6.355,-24.696 0,-35.785 v 0 L 603.203,338.024 c 6.414,-11.176 18.313,-18.071 31.199,-18.071 v 0 h 233.77 c 12.883,0 24.781,6.895 31.195,18.071 v 0 l 116.883,203.797 c 6.355,11.089 6.355,24.698 0,35.785 v 0 l -72.258,125.964 -44.625,77.832 c -6.414,11.18 -18.312,18.071 -31.195,18.071 v 0 z" style="fill:url(#radialGradient186);stroke:none"/>
                        </g>
                    </g>
                </g>
            </g>
        </g>
        <g id="g190">
            <g id="g192" clip-path="url(#clipPath196)">
                <g id="g198" transform="translate(572.6328,173.8242)">
                    <path id="path200" d="m 0,0 c 0,27.266 20.609,47.875 47.617,47.875 13.824,0 25.473,-5.504 33.664,-14.977 L 73.09,24.961 C 66.691,32.898 58.113,36.609 47.617,36.609 28.289,36.609 12.031,22.531 12.031,0 c 0,-22.527 16.258,-36.609 35.586,-36.609 11.524,0 21.25,5.379 28.164,13.312 l 8.188,-8.191 C 75.906,-41.086 62.977,-47.871 47.617,-47.871 20.609,-47.871 0,-27.266 0,0" style="fill:#767576;fill-opacity:1;fill-rule:nonzero;stroke:none"/>
                </g>
                <path id="path202" d="m 665.816,219.652 h 11.777 V 128 h -11.777 z" style="fill:#767576;fill-opacity:1;fill-rule:nonzero;stroke:none"/>
                <g id="g204" transform="translate(739.1602,159.3633)">
                    <path id="path206" d="m 0,0 c 0,14.336 -9.984,22.656 -20.48,22.656 -10.497,0 -20.481,-8.32 -20.481,-22.656 0,-14.34 9.984,-22.66 20.481,-22.66 C -9.984,-22.66 0,-14.34 0,0 m 11.777,0 c 0,-19.074 -13.441,-33.41 -32.257,-33.41 -18.817,0 -32.258,14.336 -32.258,33.41 0,19.07 13.441,33.406 32.258,33.406 C -1.664,33.406 11.777,19.07 11.777,0" style="fill:#767576;fill-opacity:1;fill-rule:nonzero;stroke:none"/>
                </g>
                <g id="g208" transform="translate(804.1836,128)">
                    <path id="path210" d="m 0,0 v 8.703 h -0.512 c -3.453,-5.762 -11.265,-10.75 -19.84,-10.75 -16.128,0 -23.937,10.879 -23.937,26.367 v 38.403 h 11.777 V 26.242 c 0,-13.058 6.528,-17.539 15.489,-17.539 10.238,0 16.511,9.856 16.511,19.457 V 62.723 H 11.266 V 0 Z" style="fill:#767576;fill-opacity:1;fill-rule:nonzero;stroke:none"/>
                </g>
                <g id="g212" transform="translate(876.6328,159.3633)">
                    <path id="path214" d="m 0,0 c 0,14.336 -9.473,22.656 -19.969,22.656 -10.5,0 -19.969,-8.578 -19.969,-22.656 0,-14.082 9.469,-22.66 19.969,-22.66 C -9.473,-22.66 0,-14.34 0,0 m -51.715,0 c 0,19.199 13.949,33.406 29.824,33.406 9.985,0 17.793,-4.992 21.375,-10.75 H 0 l -0.516,8.703 v 28.93 H 11.266 V -31.363 H 0 v 8.703 h -0.516 c -3.582,-5.762 -11.39,-10.75 -21.375,-10.75 -15.875,0 -29.824,14.207 -29.824,33.41" style="fill:#767576;fill-opacity:1;fill-rule:nonzero;stroke:none"/>
                </g>
                <g id="g216" transform="translate(951.5078,176.3867)">
                    <path id="path218" d="M 0,0 C 10.496,0 16.383,8.703 16.383,16 16.383,23.297 10.496,32 0,32 H -19.711 V 0 Z M -31.492,-48.387 V 43.266 H -0.258 C 14.977,43.266 28.418,32 28.418,16 28.418,0 14.977,-11.266 -0.258,-11.266 h -19.453 v -37.121 z" style="fill:#767576;fill-opacity:1;fill-rule:nonzero;stroke:none"/>
                </g>
                <path id="path220" d="m 988.242,219.652 h 11.773 V 128 h -11.773 z" style="fill:#767576;fill-opacity:1;fill-rule:nonzero;stroke:none"/>
                <g id="g222" transform="translate(1054.6758,155.0078)">
                    <path id="path224" d="m 0,0 c 0,0 -4.992,4.098 -14.98,4.098 -12.415,0 -17.278,-6.657 -17.278,-12.414 0,-6.657 6.91,-9.989 13.055,-9.989 C -9.855,-18.305 0,-10.238 0,0 m -44.547,-8.063 c 0,14.208 12.801,21.887 27.52,21.887 8.449,0 14.593,-2.429 17.027,-3.84 v 1.793 c 0,9.473 -7.551,15.235 -16.387,15.235 -6.527,0 -12.8,-3.203 -14.976,-9.09 l -10.75,4.609 c 2.172,5.762 9.726,15.231 25.468,15.231 15.364,0 27.907,-9.215 27.907,-26.879 V -27.008 H 0 v 8.703 h -0.512 c -3.457,-5.246 -9.859,-10.75 -20.609,-10.75 -12.801,0 -23.426,7.934 -23.426,20.992" style="fill:#767576;fill-opacity:1;fill-rule:nonzero;stroke:none"/>
                </g>
                <g id="g226" transform="translate(1082.9609,147.0742)">
                    <path id="path228" d="m 0,0 v 32.898 h -11.008 v 10.75 H 0 V 62.852 H 11.777 V 43.648 h 15.36 V 32.898 H 11.777 V 0.895 c 0,-7.04 2.942,-10.239 8.45,-10.239 2.171,0 3.71,0.254 5.375,1.024 l 4.093,-10.114 c -2.687,-1.152 -5.5,-1.664 -9.468,-1.664 C 7.039,-20.098 0,-12.801 0,0" style="fill:#767576;fill-opacity:1;fill-rule:nonzero;stroke:none"/>
                </g>
                <g id="g230" transform="translate(1159.5039,218.5)">
                    <path id="path232" d="m 0,0 -4.098,-10.113 c -1.535,0.769 -3.199,1.023 -5.375,1.023 -5.886,0 -10.496,-3.453 -10.496,-10.75 v -7.937 h 16.387 v -10.75 H -19.969 V -90.5 h -11.777 v 51.973 H -43.52 v 10.75 h 11.774 v 8.32 c 0,12.801 9.09,21.121 22.273,21.121 C -5.504,1.664 -2.688,1.152 0,0" style="fill:#767576;fill-opacity:1;fill-rule:nonzero;stroke:none"/>
                </g>
                <g id="g234" transform="translate(1211.8555,159.3633)">
                    <path id="path236" d="m 0,0 c 0,14.336 -9.984,22.656 -20.48,22.656 -10.497,0 -20.481,-8.32 -20.481,-22.656 0,-14.34 9.984,-22.66 20.481,-22.66 C -9.984,-22.66 0,-14.34 0,0 m 11.777,0 c 0,-19.074 -13.441,-33.41 -32.257,-33.41 -18.817,0 -32.258,14.336 -32.258,33.41 0,19.07 13.441,33.406 32.258,33.406 C -1.664,33.406 11.777,19.07 11.777,0" style="fill:#767576;fill-opacity:1;fill-rule:nonzero;stroke:none"/>
                </g>
                <g id="g238" transform="translate(1233.1016,128)">
                    <path id="path240" d="M 0,0 V 62.723 H 11.266 V 52.48 h 0.511 c 2.559,7.172 11.649,11.778 18.176,11.778 3.84,0 6.399,-0.512 8.832,-1.535 l -4.48,-11.008 c -1.664,0.64 -3.711,0.894 -6.274,0.894 -8.062,0 -16.254,-6.785 -16.254,-18.304 L 11.777,0 Z" style="fill:#767576;fill-opacity:1;fill-rule:nonzero;stroke:none"/>
                </g>
                <g id="g242" transform="translate(1278.2852,190.7227)">
                    <path id="path244" d="m 0,0 h 11.262 v -8.703 h 0.515 c 3.582,6.015 11.903,10.75 19.328,10.75 10.11,0 16.641,-4.606 19.84,-12.031 4.481,7.039 12.16,12.031 21.891,12.031 15.359,0 22.402,-10.879 22.402,-26.367 V -62.723 H 83.457 v 36.61 c 0,13.058 -4.992,17.41 -13.949,17.41 -9.602,0 -16.004,-9.731 -16.004,-19.328 V -62.723 H 41.73 v 36.61 c 0,13.058 -4.992,17.41 -13.953,17.41 -9.601,0 -16,-9.731 -16,-19.328 V -62.723 H 0 Z" style="fill:#767576;fill-opacity:1;fill-rule:nonzero;stroke:none"/>
                </g>
                <g id="g246" transform="matrix(1,0,0,-1,128,231)">
                    <g id="g248">
                        <g id="g250" clip-path="url(#clipPath254)">
                            <g id="g256" transform="translate(0.7227,52.5654)">
                                <path id="path258" d="m 0,0 c 0,-28.929 24.321,-52.482 53.251,-52.482 16.001,0 27.394,6.272 35.97,14.464 L 79.108,-27.905 C 72.964,-33.665 64.644,-38.146 53.251,-38.146 32.13,-38.146 15.617,-21.12 15.617,0 c 0,21.121 16.513,38.145 37.634,38.145 13.696,0 21.505,-5.503 26.497,-10.496 4.097,-4.095 6.784,-9.984 7.809,-18.048 H 53.251 V -4.735 h 48.258 c 0.512,2.559 0.768,5.631 0.768,8.96 0,10.753 -2.944,24.065 -12.417,33.538 C 80.645,47.362 68.867,52.482 53.251,52.482 24.321,52.482 0,28.93 0,0" style="fill:#767576;fill-opacity:1;fill-rule:nonzero;stroke:none"/>
                            </g>
                            <g id="g260" transform="translate(142.0005,91.7354)">
                                <path id="path262" d="m 0,0 c -10.241,0 -19.073,-8.448 -19.073,-20.482 0,-12.16 8.832,-20.48 19.073,-20.48 10.24,0 19.072,8.32 19.072,20.48 C 19.072,-8.448 10.24,0 0,0 m 0,-54.275 c -18.689,0 -33.922,14.21 -33.922,33.793 0,19.457 15.233,33.794 33.922,33.794 18.689,0 33.921,-14.337 33.921,-33.794 0,-19.583 -15.232,-33.793 -33.921,-33.793" style="fill:#767576;fill-opacity:1;fill-rule:nonzero;stroke:none"/>
                            </g>
                            <g id="g264" transform="translate(216,91.7354)">
                                <path id="path266" d="m 0,0 c -10.24,0 -19.073,-8.448 -19.073,-20.482 0,-12.16 8.833,-20.48 19.073,-20.48 10.24,0 19.072,8.32 19.072,20.48 C 19.072,-8.448 10.24,0 0,0 m 0,-54.275 c -18.689,0 -33.922,14.21 -33.922,33.793 0,19.457 15.233,33.794 33.922,33.794 18.688,0 33.922,-14.337 33.922,-33.794 0,-19.583 -15.234,-33.793 -33.922,-33.793" style="fill:#767576;fill-opacity:1;fill-rule:nonzero;stroke:none"/>
                            </g>
                            <g id="g268" transform="translate(289.8057,91.7354)">
                                <path id="path270" d="m 0,0 c -10.24,0 -18.817,-8.576 -18.817,-20.353 0,-11.904 8.577,-20.609 18.817,-20.609 10.112,0 18.049,8.705 18.049,20.609 C 18.049,-8.576 10.112,0 0,0 m 17.024,-52.227 v 5.505 h -0.511 c -3.328,-3.968 -9.729,-7.553 -17.793,-7.553 -16.897,0 -32.386,14.849 -32.386,33.922 0,18.946 15.489,33.665 32.386,33.665 8.064,0 14.465,-3.584 17.793,-7.68 h 0.511 v 4.865 c 0,12.928 -6.912,19.84 -18.048,19.84 -9.088,0 -14.721,-6.527 -17.025,-12.031 l -12.929,5.375 c 3.712,8.961 13.569,19.969 29.954,19.969 17.409,0 32.129,-10.241 32.129,-35.202 v -60.675 z" style="fill:#767576;fill-opacity:1;fill-rule:nonzero;stroke:none"/>
                            </g>
                            <path id="path272" d="M 346,103 H 331.151 V 3.668 H 346 Z" style="fill:#767576;fill-opacity:1;fill-rule:nonzero;stroke:none"/>
                            <g id="g274" transform="translate(385.5537,50.5176)">
                                <path id="path276" d="M 0,0 C 5.889,0 10.881,2.944 12.545,7.168 L -17.664,19.713 C -18.049,6.656 -7.552,0 0,0 m 1.152,41.218 c -7.552,0 -12.928,-3.456 -16.384,-10.24 L 29.954,12.289 28.418,8.448 c -2.816,-7.551 -11.393,-21.505 -28.93,-21.505 -17.409,0 -31.873,13.698 -31.873,33.793 0,18.946 14.336,33.794 33.537,33.794 15.489,0 24.45,-9.471 28.162,-14.976 L 17.793,31.873 c -3.84,5.633 -9.088,9.345 -16.641,9.345" style="fill:#767576;fill-opacity:1;fill-rule:nonzero;stroke:none"/>
                            </g>
                        </g>
                    </g>
                </g>
            </g>
        </g>
    </g>
</svg>
