
<svg width="120px" height="63px" viewBox="0 0 120 63" version="1.1" xmlns="http://www.w3.org/2000/svg" xmlns:xlink="http://www.w3.org/1999/xlink">
    <desc>Google Cloud Services Logo</desc>
    <defs>
        <polygon id="path-1" points="22.7788002 20.3009738 22.7788002 40.5813157 0.0726752197 40.5813157 0.0726752197 0.0206318246 22.7788002 0.0206318246"></polygon>
        <polygon id="path-3" points="0 15.5727799 0 31.1419188 46.2935726 31.1419188 46.2935726 0.00364091023 0 0.00364091023"></polygon>
    </defs>
    <g id="Page-1" stroke="none" stroke-width="1" fill="none" fill-rule="evenodd">
        <g id="Group">
            <g id="Google-Cloud-01" transform="translate(34.666667, 0.000000)">
                <polyline id="Fill-1" fill="#C5C3B8" points="15.7408289 36.7477069 7.0416322 21.7629341 15.7408289 6.77816121 33.1385443 6.77816121 41.8376054 21.7629341 33.1385443 36.7477069 15.7408289 36.7477069"></polyline>
                <path d="M24.7301841,28.6028559 C20.9914779,28.6028559 17.9496945,25.577664 17.9496945,21.8593508 C17.9496945,18.1410375 20.9914779,15.1158456 24.7301841,15.1158456 C28.4688902,15.1158456 31.5106736,18.1410375 31.5106736,21.8593508 C31.5106736,25.577664 28.4688902,28.6028559 24.7301841,28.6028559" id="Fill-2" fill="#FFFFFF"></path>
                <path d="M38.3710245,1.75437934 C37.8380277,0.836195716 36.529467,0.0848197234 35.4632022,0.0848197234 L14.0261818,0.0848197234 C12.9600526,0.0848197234 11.6514919,0.836195716 11.1184951,1.75437934 L4.8545962,12.5445539 C4.80551331,13.2417208 4.93405083,13.9699028 5.2430561,14.5020151 L9.48303146,21.7118265 L17.0522369,8.70676484 L40.9762142,8.70676484 C41.5420233,8.70676484 42.1754909,8.91982551 42.7259786,9.25573319 L38.3710245,1.75437934" id="Fill-3" fill="#4885ED"></path>
                <path d="M5.1268571,12.0723144 L4.85283356,12.5445539 C4.80361508,13.2417208 4.93228818,13.9699028 5.24129345,14.5020151 L9.48126881,21.7118265 L11.737048,17.8360101 L5.1268571,12.0723144" id="Fill-4" fill="#4A5F86"></path>
                <path d="M14.5787033,5.62803812 C13.8573746,5.62803812 13.2704138,5.04427885 13.2704138,4.32688468 C13.2704138,3.60949052 13.8573746,3.0258661 14.5787033,3.0258661 C15.3001676,3.0258661 15.8868573,3.60949052 15.8868573,4.32688468 C15.8868573,5.04427885 15.3001676,5.62803812 14.5787033,5.62803812" id="Fill-5" fill="#FFFFFF"></path>
                <g id="Group-9" transform="translate(26.710855, 3.101516)">
                    <mask id="mask-2" fill="white">
                        <use xlink:href="#path-1"></use>
                    </mask>
                    <g id="Clip-7"></g>
                    <path d="M9.30459752,1.22536856 C9.30459752,1.89084604 8.76238073,2.4301053 8.09338906,2.4301053 C7.42439739,2.4301053 6.88190942,1.89084604 6.88190942,1.22536856 C6.88190942,0.560025932 7.42439739,0.0206318246 8.09338906,0.0206318246 C8.76238073,0.0206318246 9.30459752,0.560025932 9.30459752,1.22536856" id="Fill-6" fill="#FFFFFF" mask="url(#mask-2)"></path>
                    <path d="M22.3789509,17.1168629 L16.0151236,6.15421707 C15.4646359,5.81830939 14.8311683,5.60524872 14.2653592,5.60524872 L5.63802422,5.60524872 L13.0976745,18.6821846 L1.28740897,39.434429 C1.02748659,39.8818564 0.583028814,40.2889641 0.0726752197,40.5894066 L8.75234721,40.5894066 C9.818612,40.5894066 11.1271727,39.8381655 11.6601695,38.9199818 L22.3789509,20.456117 C22.9120833,19.5377985 22.9120833,18.0351814 22.3789509,17.1168629" id="Fill-8" fill="#DB3236" mask="url(#mask-2)"></path>
                </g>
                <path d="M43.0131542,9.74739092 L42.7278768,9.25573319 C42.1776603,8.91982551 41.5443283,8.70676484 40.978248,8.70676484 L32.3510486,8.70676484 L34.5967943,12.6433979 L43.0131542,9.74739092" id="Fill-10" fill="#A23D35"></path>
                <path d="M34.804244,40.5017551 C34.0827798,40.5017551 33.4959545,39.9181306 33.4959545,39.2006016 C33.4959545,38.4830726 34.0827798,37.899583 34.804244,37.899583 C35.5255727,37.899583 36.112398,38.4830726 36.112398,39.2006016 C36.112398,39.9181306 35.5255727,40.5017551 34.804244,40.5017551" id="Fill-11" fill="#FFFFFF"></path>
                <g id="Group-16" transform="translate(0.000000, 12.540913)">
                    <mask id="mask-4" fill="white">
                        <use xlink:href="#path-3"></use>
                    </mask>
                    <g id="Clip-13"></g>
                    <path d="M44.985283,10.6194563 C44.2639544,10.6194563 43.6769935,10.0358319 43.6769935,9.31843776 C43.6769935,8.60104359 44.2639544,8.01728432 44.985283,8.01728432 C45.7067473,8.01728432 46.2935726,8.60104359 46.2935726,9.31843776 C46.2935726,10.0358319 45.7067473,10.6194563 44.985283,10.6194563" id="Fill-12" fill="#FFFFFF" mask="url(#mask-4)"></path>
                    <path d="M17.2171121,22.3216115 L5.2430561,1.96110213 C4.93405083,1.42898984 4.80551331,0.700807795 4.8545962,0.00364091023 L0.399849296,7.67746603 C-0.133283099,8.5957845 -0.133283099,10.0984016 0.399849296,11.0167201 L11.1184951,29.480585 C11.6514919,30.3987686 12.9600526,31.1500097 14.0261818,31.1500097 L26.7835302,31.1500097 C27.2938838,30.8495672 27.7383416,30.4424595 27.998264,29.9950321 L32.3650142,22.3216115 L17.2171121,22.3216115" id="Fill-14" fill="#F4C20D" mask="url(#mask-4)"></path>
                    <path d="M26.0582695,31.1500097 L26.8002075,31.1500097 C27.3105611,30.8495672 27.7548833,30.4424595 28.0146701,29.9950321 L32.3816915,22.3216115 L27.731291,22.3216115 L26.0582695,31.1500097" id="Fill-15" fill="#BC9038" mask="url(#mask-4)"></path>
                </g>
                <path d="M14.5787033,40.5017551 C13.8573746,40.5017551 13.2704138,39.9181306 13.2704138,39.2006016 C13.2704138,38.4830726 13.8573746,37.899583 14.5787033,37.899583 C15.3001676,37.899583 15.8868573,38.4830726 15.8868573,39.2006016 C15.8868573,39.9181306 15.3001676,40.5017551 14.5787033,40.5017551" id="Fill-17" fill="#FFFFFF"></path>
                <path d="M4.37935992,23.1603694 C3.65803125,23.1603694 3.07107038,22.5767449 3.07107038,21.8593508 C3.07107038,21.1419566 3.65803125,20.5581973 4.37935992,20.5581973 C5.10082419,20.5581973 5.68764947,21.1419566 5.68764947,21.8593508 C5.68764947,22.5767449 5.10082419,23.1603694 4.37935992,23.1603694" id="Fill-18" fill="#FFFFFF"></path>
            </g>
            <g id="Page-1" transform="translate(0.000000, 48.750000)" fill="#6C6D6D">
                <g id="Group-59" transform="translate(0.000000, 0.172554)">
                    <path d="M110.037165,4.59610718 L111.12298,4.59610718 L111.12298,5.46562631 L111.172405,5.46562631 C111.517996,4.85180139 112.307645,4.39163122 112.998827,4.39163122 C113.936751,4.39163122 114.578508,4.85180139 114.874674,5.56806281 C115.318732,4.85180139 116.009914,4.39163122 116.947838,4.39163122 C118.428669,4.39163122 119.070427,5.46562631 119.070427,7.00018862 L119.070427,10.7855747 L117.935187,10.7855747 L117.935187,7.20506163 C117.935187,5.92619353 117.441321,5.51684456 116.602247,5.51684456 C115.713748,5.51684456 115.072374,6.4888002 115.072374,7.40953759 L115.072374,10.8367929 L113.936751,10.8367929 L113.936751,7.25627988 C113.936751,5.97741178 113.443268,5.56806281 112.603811,5.56806281 C111.715313,5.56806281 111.073555,6.54001845 111.073555,7.46075584 L111.073555,10.8880112 L109.938315,10.8880112 L109.938315,4.59610718 L110.037165,4.59610718 Z M105.742563,10.7343564 L105.742563,4.59610718 L106.828378,4.59610718 L106.828378,5.61928107 L106.877803,5.61928107 C107.124545,4.90301964 107.964001,4.44245243 108.605759,4.44245243 C108.950967,4.44245243 109.198091,4.49367068 109.444833,4.59610718 L109.000392,5.67049932 C108.852117,5.61928107 108.655184,5.56806281 108.408059,5.56806281 C107.61841,5.56806281 106.877803,6.23310599 106.877803,7.35871638 L106.877803,10.7343564 L105.742563,10.7343564 Z M103.718441,7.6652318 C103.718441,6.23310599 102.780901,5.4148051 101.793169,5.4148051 C100.806204,5.4148051 99.8682804,6.23310599 99.8682804,7.6652318 C99.8682804,9.09735761 100.806204,9.91605553 101.793169,9.91605553 C102.780901,9.86483728 103.718441,9.04613936 103.718441,7.6652318 Z M104.854064,7.6652318 C104.854064,9.55832186 103.57055,10.9392294 101.793169,10.9392294 C100.016555,10.9392294 98.7326572,9.50710361 98.7326572,7.6652318 C98.7326572,5.77253878 100.016555,4.39163122 101.793169,4.39163122 C103.57055,4.39163122 104.854064,5.77253878 104.854064,7.6652318 Z M98.7326572,1.83389502 L98.3380243,2.80585066 C98.1897497,2.75463241 98.041475,2.70341416 97.8445417,2.70341416 C97.301251,2.70341416 96.8571932,3.06154487 96.8571932,3.77740925 L96.8571932,4.54488893 L98.3874492,4.54488893 L98.3874492,5.61928107 L96.8571932,5.61928107 L96.8571932,10.7343564 L95.7219532,10.7343564 L95.7219532,5.61928107 L94.6357549,5.61928107 L94.6357549,4.54488893 L95.7713781,4.54488893 L95.7713781,3.77740925 C95.7713781,2.49893819 96.6100687,1.68024027 97.8939666,1.68024027 C98.2391745,1.68024027 98.486299,1.73145852 98.7326572,1.83389502 Z M91.4767762,8.89327869 L91.4767762,5.67049932 L90.4400029,5.67049932 L90.4400029,4.59610718 L91.4767762,4.59610718 L91.4767762,2.70341416 L92.6120162,2.70341416 L92.6120162,4.59610718 L94.0928474,4.59610718 L94.0928474,5.67049932 L92.6120162,5.67049932 L92.6120162,8.84206044 C92.6120162,9.55832186 92.9081825,9.86483728 93.4016651,9.86483728 C93.5993647,9.86483728 93.7468731,9.86483728 93.8951478,9.76279782 L94.2901638,10.7343564 C94.0434225,10.8367929 93.7468731,10.8880112 93.4016651,10.8880112 C92.1675753,10.8367929 91.4767762,10.1209285 91.4767762,8.89327869 Z M88.810897,8.07458076 C88.810897,8.07458076 88.3174144,7.6652318 87.3791077,7.6652318 C86.1948259,7.6652318 85.750385,8.33027497 85.750385,8.89327869 C85.750385,9.55832186 86.3921423,9.86483728 86.9844748,9.86483728 C87.8729735,9.86483728 88.810897,9.09735761 88.810897,8.07458076 Z M84.5657201,8.89327869 C84.5657201,7.51197409 85.7998099,6.74489145 87.1821744,6.74489145 C87.9718232,6.74489145 88.5641557,7.00018862 88.810897,7.10262512 L88.810897,6.94897037 C88.810897,6.02823299 88.0702899,5.46562631 87.280641,5.46562631 C86.6388837,5.46562631 86.0465512,5.77253878 85.8488516,6.33514545 L84.8124614,5.87497528 C85.010161,5.3123686 85.750385,4.39163122 87.2315992,4.39163122 C88.7124304,4.39163122 89.8970953,5.3123686 89.8970953,7.05140687 L89.8970953,10.7855747 L88.810897,10.7855747 L88.810897,9.91605553 L88.7614721,9.91605553 C88.415881,10.427841 87.8235486,10.9904477 86.7867752,10.9904477 C85.6024934,10.9392294 84.5657201,10.1717497 84.5657201,8.89327869 Z M82.4921733,10.7343564 L83.6277965,10.7343564 L83.6277965,1.73145852 L82.4921733,1.73145852 L82.4921733,10.7343564 Z M79.0370284,5.97741178 C80.0243769,5.97741178 80.5672844,5.10789264 80.5672844,4.39163122 C80.5672844,3.67536979 80.0243769,2.80585066 79.0370284,2.80585066 L77.1611812,2.80585066 L77.1611812,5.97741178 L79.0370284,5.97741178 Z M76.0255581,10.7343564 L76.0255581,1.73145852 L78.9876035,1.73145852 C80.4190097,1.73145852 81.7025244,2.85706891 81.7025244,4.39163122 C81.7025244,5.92619353 80.4190097,7.05140687 78.9876035,7.05140687 L77.1611812,7.05140687 L77.1611812,10.6835352 L76.0255581,10.6835352 L76.0255581,10.7343564 Z M71.9286558,7.6652318 C71.9286558,6.23310599 71.0401571,5.4148051 70.0531918,5.4148051 C69.0654602,5.4148051 68.1769615,6.23310599 68.1769615,7.6652318 C68.1769615,9.04613936 69.0654602,9.91605553 70.0531918,9.91605553 C70.9907322,9.86483728 71.9286558,9.04613936 71.9286558,7.6652318 Z M66.9922966,7.6652318 C66.9922966,5.77253878 68.3252362,4.39163122 69.8060673,4.39163122 C70.7439909,4.39163122 71.484598,4.90301964 71.829806,5.46562631 L71.8792309,5.46562631 L71.829806,4.59610718 L71.829806,1.73145852 L72.9654292,1.73145852 L72.9654292,10.7343564 L71.9286558,10.7343564 L71.9286558,9.86483728 L71.8792309,9.86483728 C71.5340229,10.427841 70.7934158,10.9392294 69.8554922,10.9392294 C68.3252362,10.9392294 66.9922966,9.55832186 66.9922966,7.6652318 Z M65.0179828,10.7343564 L65.0179828,9.86483728 L64.9685579,9.86483728 C64.6229668,10.427841 63.8823596,10.9392294 63.0927107,10.9392294 C61.5624547,10.9392294 60.8222307,9.86483728 60.8222307,8.33027497 L60.8222307,4.54488893 L61.9574707,4.54488893 L61.9574707,8.12579901 C61.9574707,9.40466711 62.5992281,9.86483728 63.4383019,9.86483728 C64.4256503,9.86483728 65.0179828,8.89327869 65.0179828,7.97214426 L65.0179828,4.59610718 L66.1532228,4.59610718 L66.1532228,10.7855747 L65.0179828,10.7855747 L65.0179828,10.7343564 Z M58.8475338,7.6652318 C58.8475338,6.23310599 57.9096102,5.4148051 56.9222617,5.4148051 C55.9349132,5.4148051 54.9973728,6.23310599 54.9973728,7.6652318 C54.9973728,9.09735761 55.9349132,9.91605553 56.9222617,9.91605553 C57.9096102,9.86483728 58.8475338,9.04613936 58.8475338,7.6652318 Z M59.9827738,7.6652318 C59.9827738,9.55832186 58.6996422,10.9392294 56.9222617,10.9392294 C55.1452644,10.9392294 53.8617497,9.50710361 53.8617497,7.6652318 C53.8617497,5.77253878 55.1452644,4.39163122 56.9222617,4.39163122 C58.6996422,4.39163122 59.9827738,5.77253878 59.9827738,7.6652318 Z M51.8874359,10.7343564 L53.023059,10.7343564 L53.023059,1.73145852 L51.8874359,1.73145852 L51.8874359,10.7343564 Z M43.0514908,6.23310599 C43.0514908,3.57293329 45.0258046,1.52698256 47.592834,1.52698256 C48.9257736,1.52698256 50.0115887,2.08958923 50.8016207,3.01032662 L50.0115887,3.77740925 C49.4192562,3.01032662 48.5797993,2.65219591 47.592834,2.65219591 C45.7660286,2.65219591 44.2361557,4.0335005 44.2361557,6.23310599 C44.2361557,8.43271147 45.7660286,9.81361903 47.592834,9.81361903 C48.6786491,9.81361903 49.6165727,9.30223061 50.25833,8.48392972 L51.0479789,9.30223061 C50.3073718,10.222968 49.0736651,10.8880112 47.592834,10.8880112 C45.0258046,10.9392294 43.0514908,8.94449694 43.0514908,6.23310599 Z" id="Fill-52"></path>
                    <path d="M28.3702282,9.6318538 C27.402803,9.6318538 26.5867175,8.78615711 26.5867175,7.62600418 C26.5867175,6.45592523 27.402803,5.60069956 28.3702282,5.60069956 C29.3284581,5.60069956 30.0782606,6.45592523 30.0782606,7.62600418 C30.0874559,8.79608312 29.3284581,9.6318538 28.3702282,9.6318538 L28.3702282,9.6318538 Z M29.9832422,4.4997057 L29.9832422,5.04047513 L29.935733,5.04047513 C29.6227087,4.6470078 29.0154338,4.29324453 28.2468576,4.29324453 C26.643422,4.29324453 25.1729356,5.74800166 25.1729356,7.62600418 C25.1729356,9.48415466 26.643422,10.9393088 28.2468576,10.9393088 C29.0154338,10.9393088 29.6227087,10.5851485 29.935733,10.1825493 L29.9832422,10.1825493 L29.9832422,10.6641596 C29.9832422,11.9323076 29.3284581,12.6108502 28.2752098,12.6108502 C27.4119983,12.6108502 26.8805849,11.9720117 26.662579,11.4308452 L25.4388339,11.9616886 C25.789789,12.8466924 26.728862,13.9282312 28.2847883,13.9282312 C29.935733,13.9282312 31.3303579,12.9253064 31.3303579,10.4672274 L31.3303579,4.4997057 L29.9832422,4.4997057 Z M21.3683682,9.6318538 C20.4005598,9.6318538 19.5565052,8.80600914 19.5565052,7.6164752 C19.5565052,6.4166182 20.3913645,5.60069956 21.3683682,5.60069956 C22.3457551,5.60069956 23.1806143,6.4166182 23.1806143,7.6164752 C23.1806143,8.80600914 22.3361766,9.6318538 21.3683682,9.6318538 L21.3683682,9.6318538 Z M21.3683682,4.30277351 C19.5944359,4.30277351 18.1523018,5.69916565 18.1523018,7.62600418 C18.1523018,9.54291668 19.5944359,10.9492348 21.3683682,10.9492348 C23.1426836,10.9492348 24.5848177,9.54291668 24.5848177,7.62600418 C24.5848177,5.69916565 23.1426836,4.30277351 21.3683682,4.30277351 L21.3683682,4.30277351 Z M14.3477344,9.6318538 C13.379926,9.6318538 12.5354882,8.80600914 12.5354882,7.6164752 C12.5354882,6.4166182 13.3703475,5.60069956 14.3477344,5.60069956 C15.3155428,5.60069956 16.1595973,6.4166182 16.1595973,7.6164752 C16.1595973,8.80600914 15.3155428,9.6318538 14.3477344,9.6318538 L14.3477344,9.6318538 Z M14.3477344,4.30277351 C12.573419,4.30277351 11.1312848,5.69916565 11.1312848,7.62600418 C11.1312848,9.54291668 12.573419,10.9492348 14.3477344,10.9492348 C16.1216666,10.9492348 17.5638007,9.54291668 17.5638007,7.62600418 C17.5638007,5.69916565 16.1216666,4.30277351 14.3477344,4.30277351 L14.3477344,4.30277351 Z M0.941710697,5.78730869 C0.941710697,2.93615942 3.24705635,0.625779575 5.99837547,0.625779575 C7.5167542,0.625779575 8.59835479,1.24516307 9.41405712,2.05155273 L8.44624872,3.04455153 C7.86770926,2.47400404 7.0803592,2.0317007 5.99837547,2.0317007 C3.99685882,2.0317007 2.43135402,3.70324205 2.43135402,5.77738267 C2.43135402,7.85231738 3.99685882,9.52385873 5.99837547,9.52385873 C7.29836513,9.52385873 8.03858913,8.98269225 8.51291486,8.49115586 C8.90180066,8.08815955 9.15773732,7.50808309 9.25275572,6.72154546 L5.99837547,6.72154546 L5.99837547,5.31562434 L10.5810976,5.31562434 C10.6286068,5.57092151 10.6569591,5.86631979 10.6569591,6.20023102 C10.6569591,7.26231489 10.3818655,8.56976992 9.48034012,9.49408068 C8.59835479,10.4378464 7.47882347,10.9393088 5.99837547,10.9393088 C3.24705635,10.9393088 0.941710697,8.62892899 0.941710697,5.78730869 L0.941710697,5.78730869 Z" id="Fill-54"></path>
                    <polygon id="Fill-56" points="32.2979748 10.7426149 33.7021782 10.7426149 33.7021782 0.979781064 32.2979748 0.979781064"></polygon>
                    <path d="M37.4595046,5.58096664 C38.0192703,5.58096664 38.493596,5.86604186 38.6453189,6.28889021 L35.7802076,7.51773118 C35.7422769,6.23965716 36.7384375,5.58096664 37.4595046,5.58096664 M37.5637183,9.63197291 C36.8426513,9.63197291 36.3399733,9.28734158 36.007792,8.62865106 L40.2962637,6.78995557 L40.1537361,6.41673731 C39.8882209,5.66950671 39.0721355,4.30289262 37.4119954,4.30289262 C35.7610507,4.30289262 34.3855827,5.64965468 34.3855827,7.62612329 C34.3855827,9.48427377 35.7422769,10.949354 37.5637183,10.949354 C39.0342047,10.949354 39.8786425,10.0151172 40.239176,9.47434775 L39.1483801,8.71719114 C38.7782681,9.26788659 38.2847854,9.63197291 37.5637183,9.63197291" id="Fill-58"></path>
                </g>
            </g>
        </g>
    </g>
</svg>
