<svg width="84px" height="14px" viewBox="0 0 84 14" version="1.1" xmlns="http://www.w3.org/2000/svg" xmlns:xlink="http://www.w3.org/1999/xlink">
    <defs>
        <polygon id="path-1" points="6.05538447e-21 0.198342857 6.05538447e-21 13.4639143 31.4560787 13.4639143 31.4560787 0.198342857 0 0.198342857"></polygon>
    </defs>
    <g id="Page-1" stroke="none" stroke-width="1" fill="none" fill-rule="evenodd">
        <g>
            <path d="M49.0568489,0.731203571 C48.5640191,0.731203571 48.3088915,1.06920357 48.1922745,1.45966786 L45.1030404,10.6580964 L42.0656362,1.48241786 C41.9257851,1.04691786 41.6219553,0.731203571 41.1300191,0.731203571 L41.0348489,0.731203571 C40.5697213,0.731203571 40.2886787,1.04691786 40.1492745,1.48241786 L37.0864021,10.6580964 L34.0449766,1.50748929 C33.9055723,1.04738214 33.6008489,0.731667857 33.1325936,0.731667857 C32.5964234,0.731667857 32.2224447,1.16856071 32.2224447,1.62913214 C32.2224447,1.79906071 32.2921468,1.99313214 32.3390617,2.13984643 L36.0087,12.7589893 C36.1972532,13.3152036 36.5698915,13.606775 37.0126787,13.606775 L37.0618277,13.606775 C37.5282957,13.606775 37.879934,13.3152036 38.0439128,12.7589893 L41.0839979,3.73513214 L44.0981681,12.7589893 C44.2630404,13.3152036 44.6146787,13.606775 45.0824872,13.606775 L45.1526362,13.606775 C45.5739766,13.606775 45.9466149,13.3152036 46.1351681,12.7589893 L49.828934,2.11523929 C49.8745085,1.96759643 49.9455511,1.77398929 49.9455511,1.604525 C49.9455511,1.14209643 49.5706787,0.731203571 49.0568489,0.731203571" id="Fill-1" fill="#000000"></path>
            <path d="M68.7321511,0.7319 C67.4252362,0.7319 65.4530234,1.71943571 64.5638745,3.81243571 L64.5638745,1.65768571 C64.5638745,1.12097143 64.1671085,0.707292857 63.6497043,0.707292857 C63.1586617,0.707292857 62.7610021,1.14511429 62.7610021,1.65768571 L62.7618957,12.6412929 C62.7618957,13.1738286 63.1595553,13.5898286 63.6756191,13.5898286 C64.1903426,13.5898286 64.5647681,13.1524714 64.5647681,12.6412929 L64.5647681,8.37357857 C64.5647681,4.74657857 66.482917,2.92007857 68.8259809,2.62850714 C69.2987043,2.55515 69.6244277,2.19207857 69.6244277,1.67997143 C69.6244277,1.14511429 69.2732362,0.7319 68.7321511,0.7319" id="Fill-3" fill="#000000"></path>
            <path d="M71.2812383,6.50533929 C71.508217,4.07108929 73.0684723,2.26594643 75.1336213,2.26594643 C77.4981319,2.26594643 78.7375787,4.23916071 78.9225574,6.50533929 L71.2812383,6.50533929 Z M75.1814298,0.698982143 C71.9000681,0.698982143 69.4895362,3.589625 69.4895362,7.17808929 L69.4895362,7.22776786 C69.4895362,11.0804107 72.1511745,13.7082679 75.4110894,13.7082679 C77.4293234,13.7082679 78.7617064,12.9584464 79.884983,11.8279107 C80.0708553,11.6607679 80.1624511,11.4434821 80.1624511,11.2275893 C80.1624511,10.7920893 79.8170681,10.430875 79.3823234,10.430875 C79.1745574,10.430875 79.0146,10.5269821 78.8765362,10.6463036 C78.0030255,11.4889821 76.9280043,12.091625 75.4584511,12.091625 C73.3441532,12.091625 71.5323447,10.5748036 71.2821319,7.87916071 L79.8621957,7.87916071 C80.2956,7.87916071 80.6892383,7.51655357 80.6892383,7.00908929 C80.6892383,3.70755357 78.6911106,0.698982143 75.1814298,0.698982143 L75.1814298,0.698982143 Z" id="Fill-5" fill="#000000"></path>
            <path d="M58.8752872,8.83716786 C58.8752872,10.824775 57.0523085,12.2324893 54.8352447,12.2324893 C53.1985851,12.2324893 51.7991809,11.3104179 51.7991809,9.73370357 L51.7991809,9.68541786 C51.7991809,8.11009643 53.0618617,7.08959643 55.3240532,7.08959643 C56.7940532,7.08959643 57.9865851,7.357025 58.8752872,7.623525 L58.8752872,8.83716786 Z M55.4415638,0.733989286 C53.9014149,0.733989286 53.0046702,0.912275 51.8157128,1.448525 C51.4868617,1.59988214 51.3246702,1.83991786 51.3246702,2.22666786 C51.3246702,2.66263214 51.6995426,3.02756071 52.1204362,3.02756071 C52.2115851,3.02756071 52.3295426,3.00295357 52.4439255,2.95420357 C53.3335213,2.54238214 54.0408191,2.38173929 55.2552447,2.38173929 C57.517883,2.38173929 58.8525,3.548025 58.8525,5.80306071 L58.8525,6.24181071 C57.7761383,5.92423929 56.6796702,5.706025 55.1372872,5.706025 C52.0793298,5.706025 49.9775426,7.11513214 49.9775426,9.75923929 L49.9775426,9.80798929 C49.9775426,12.3801321 52.2446489,13.7130964 54.4880745,13.7149536 C56.6086277,13.7149536 58.0107128,12.6972393 58.8529468,11.5550964 L58.8529468,12.7515607 C58.8529468,13.236275 59.200117,13.6253464 59.7117128,13.6253464 C60.2049894,13.6253464 60.5785213,13.2358107 60.5785213,12.703275 L60.5785213,5.780775 C60.5785213,4.178525 60.1576277,2.96581071 59.3390745,2.11663214 C58.4535,1.19363214 57.1452447,0.733989286 55.4415638,0.733989286 L55.4415638,0.733989286 Z" id="Fill-7" fill="#000000"></path>
            <g id="Group-11" transform="translate(0.000000, 0.265804)">
                <mask id="mask-2" fill="white">
                    <use xlink:href="#path-1"></use>
                </mask>
                <g id="Clip-10"></g>
                <path d="M27.1403553,0.198342857 C24.7861213,0.198342857 23.3116532,1.89112857 23.3116532,1.89112857 C22.5283979,0.835342857 21.4480149,0.200664286 19.6201213,0.200664286 C17.6908021,0.200664286 16.0027596,1.89112857 16.0027596,1.89112857 C15.2181638,0.835342857 13.8835468,0.200664286 12.7781426,0.200664286 C11.0686532,0.200664286 9.71080213,0.981592857 8.88286596,2.95016429 L6.43569574,8.94316429 L3.29686596,1.25366429 C2.90144043,0.35295 1.92427021,-0.0551571429 1.01144043,0.36595 C0.0977170213,0.78845 -0.238282979,1.84098571 0.174121277,2.74216429 L4.00639787,11.3969143 C4.60914255,12.7530929 5.24405745,13.4639143 6.43569574,13.4639143 C7.7091,13.4639143 8.26448298,12.68995 8.86633404,11.3969143 C8.86633404,11.3969143 12.2089085,3.83509286 12.2419723,3.75616429 C12.2759298,3.67584286 12.3836106,3.43162857 12.7236319,3.43395 C13.0109298,3.43580714 13.2531,3.67398571 13.2531,3.99480714 L13.2531,11.3894857 C13.2531,12.5293071 13.8612064,13.4639143 15.0318447,13.4639143 C16.2015894,13.4639143 16.8338234,12.5293071 16.8338234,11.3894857 L16.8338234,5.33798571 C16.8338234,4.17123571 17.6385255,3.41352143 18.7354404,3.41352143 C19.8323553,3.41352143 20.5624404,4.19816429 20.5624404,5.33798571 L20.5624404,11.3894857 C20.5624404,12.5293071 21.1727809,13.4639143 22.3411851,13.4639143 C23.510483,13.4639143 24.1462915,12.5293071 24.1462915,11.3894857 L24.1462915,5.33798571 C24.1462915,4.17123571 24.947866,3.41352143 26.0452277,3.41352143 C27.1403553,3.41352143 27.8731213,4.19816429 27.8731213,5.33798571 L27.8731213,11.3894857 C27.8731213,12.5293071 28.4830149,13.4639143 29.6527596,13.4639143 C30.8216106,13.4639143 31.4560787,12.5293071 31.4560787,11.3894857 L31.4560787,4.50273571 C31.4560787,1.97145 29.4972702,0.198342857 27.1403553,0.198342857" id="Fill-9" fill="#000000" mask="url(#mask-2)"></path>
            </g>
            <path d="M83.5352745,2.25875 C83.5352745,2.95285714 83.0093809,3.53275 82.3275511,3.53275 C81.6372319,3.53275 81.1175936,2.96167857 81.1175936,2.26710714 L81.1175936,2.25875 C81.1175936,1.56835714 81.6434872,0.987071429 82.3275511,0.987071429 C83.0178702,0.987071429 83.5352745,1.55814286 83.5352745,2.25457143 L83.5352745,2.25875 Z M82.3275511,0.69875 C81.4964872,0.69875 80.8352106,1.41189286 80.8352106,2.25875 L80.8352106,2.26896429 C80.8352106,3.11814286 81.4844234,3.82153571 82.3275511,3.82153571 C83.163083,3.82153571 83.8225723,3.10839286 83.8225723,2.25875 L83.8225723,2.25225 C83.8225723,1.40446429 83.1702319,0.69875 82.3275511,0.69875 L82.3275511,0.69875 Z" id="Fill-12" fill="#000000"></path>
            <path d="M82.6377702,1.99642857 C82.6377702,2.12457143 82.5528766,2.20907143 82.3973872,2.20907143 L82.3973872,2.20814286 L82.0738979,2.20814286 L82.0738979,1.77589286 L82.3915787,1.77589286 C82.5461745,1.77589286 82.6377702,1.85157143 82.6377702,1.99132143 L82.6377702,1.99642857 Z M82.4152596,1.47875 L81.9170681,1.47875 C81.8272596,1.47875 81.7557702,1.55210714 81.7557702,1.64496429 L81.7566638,1.64496429 L81.7566638,2.82889286 C81.7566638,2.92082143 81.8277064,2.99417857 81.9175149,2.99417857 C82.0068766,2.99417857 82.0752383,2.92175 82.0752383,2.82889286 L82.0752383,2.50203571 L82.3299191,2.50203571 L82.6395574,2.90921429 C82.6770894,2.95703571 82.7248979,2.99464286 82.7959404,2.99464286 C82.8718979,2.99464286 82.9465149,2.93428571 82.9465149,2.84235714 C82.9465149,2.79128571 82.9264085,2.75739286 82.8951319,2.71560714 L82.6753021,2.43703571 C82.8491106,2.36089286 82.9639404,2.2165 82.9639404,1.97971429 L82.9639404,1.97507143 C82.9639404,1.83578571 82.9192596,1.71553571 82.8370468,1.63242857 C82.7472383,1.534 82.6029191,1.47875 82.4152596,1.47875 L82.4152596,1.47875 Z" id="Fill-14" fill="#000000"></path>
        </g>
    </g>
</svg>
