<?xml version="1.0" encoding="utf-8"?>
<!-- Generator: Adobe Illustrator 21.0.2, SVG Export Plug-In . SVG Version: 6.00 Build 0)  -->
<svg version="1.1" id="Layer_1" xmlns="http://www.w3.org/2000/svg" xmlns:xlink="http://www.w3.org/1999/xlink" x="0px" y="0px"
	 viewBox="0 0 741.7 491" style="enable-background:new 0 0 741.7 491;" xml:space="preserve">
<style type="text/css">
	.st0{fill:url(#SVGID_1_);}
	.st1{opacity:0.8;fill-rule:evenodd;clip-rule:evenodd;fill:#1DAEFF;}
	.st2{opacity:0.5;fill-rule:evenodd;clip-rule:evenodd;fill:#1DAEFF;}
	.st3{opacity:0.3;fill-rule:evenodd;clip-rule:evenodd;fill:#1DAEFF;}
	.st4{fill-rule:evenodd;clip-rule:evenodd;fill:#1DAEFF;}
	.st5{opacity:0.4;fill-rule:evenodd;clip-rule:evenodd;fill:#1DAEFF;}
	.st6{opacity:0.6;fill-rule:evenodd;clip-rule:evenodd;fill:#1DAEFF;}
	.st7{fill:none;stroke:#000000;stroke-miterlimit:10;}
	.st8{fill:#FFFFFF;stroke:#000000;stroke-miterlimit:10;}
</style>
<title>Artboard 1</title>
<linearGradient id="SVGID_1_" gradientUnits="userSpaceOnUse" x1="370.8584" y1="491" x2="370.8584" y2="-9.094947e-13">
	<stop  offset="0" style="stop-color:#FFFFFF"/>
	<stop  offset="0.5175" style="stop-color:#E5E5E4"/>
	<stop  offset="1" style="stop-color:#FFFFFF"/>
</linearGradient>
<path class="st0" d="M1,491v-5.6l9.8,5.6h2L1,484.2v-28.3L25.5,470v21h1v-20.4l24.5,14.2v6.2h1v-5.6l9.8,5.6h2l-11.8-6.8v-28.3
	L76.6,470v21h1v-20.4l24.5,14.2v6.2h1v-5.6l9.8,5.6h2l-11.8-6.8v-28.3l24.5,14.2v21h1v-20.4l24.5,14.2v6.2h1v-5.6l9.8,5.6h2
	l-11.8-6.8v-28.3l24.5,14.2v21h1v-20.4l24.5,14.2v6.2h1v-5.6l9.8,5.6h2l-11.8-6.8v-28.3l24.5,14.2v21h1v-20.4l24.5,14.2v6.2h1v-5.6
	l9.8,5.6h2l-11.8-6.8v-28.3l24.5,14.2v21h1v-20.4l24.5,14.2v6.2h1v-5.6l9.8,5.6h2l-11.8-6.8v-28.3L332,470v21h1v-20.4l24.5,14.2v6.2
	h1v-5.6l9.8,5.6h2l-11.8-6.8v-28.3l24.5,14.2v21h1v-20.4l24.5,14.2v6.2h1v-5.6l9.8,5.6h2l-11.8-6.8v-28.3l24.5,14.2v21h1v-20.4
	l24.5,14.2v6.2h1v-5.6l9.8,5.6h2l-11.8-6.8v-28.3l24.5,14.2v21h1v-20.4l24.5,14.2v6.2h1v-5.6l9.8,5.6h2l-11.8-6.8v-28.3l24.5,14.2
	v21h1v-20.4l24.5,14.2v6.2h1v-5.6l9.8,5.6h2l-11.8-6.8v-28.3l24.5,14.2v21h1v-20.4l24.5,14.2v6.2h1v-5.6l9.8,5.6h2l-11.8-6.8v-28.3
	l24.5,14.2v21h1v-20.4l24.5,14.2v6.2h1v-5.6l9.8,5.6h2l-11.8-6.8v-28.3l24.5,14.2v21h1v-20.4l24.5,14.2v6.2h1v-5.6l9.8,5.6h2
	l-11.8-6.8v-28.3l24.5,14.2v21h1v-20.4v-1.2v-28.3V440v-28.3v-1.2v-28.3V381v-28.3v-1.2v-28.3V322v-28.3v-1.2v-28.3V263v-28.3v-1.2
	v-28.3V204v-28.3v-1.2v-28.3V145v-28.3v-1.2V87.2V86V57.7v-1.2V28.2V27V0h-1v26.5l-24.5-14.2V0h-1v11.7L694.9,0h-2l22.3,12.9v28.3
	L690.6,27V0h-1v26.5l-24.5-14.2V0h-1v11.7L643.8,0h-2l22.3,12.9v28.3L639.5,27V0h-1v26.5L614,12.3V0h-1v11.7L592.7,0h-2L613,12.9
	v28.3L588.5,27V0h-1v26.5l-24.5-14.2V0h-1v11.7L541.6,0h-2l22.3,12.9v28.3L537.4,27V0h-1v26.5l-24.5-14.2V0h-1v11.7L490.5,0h-2
	l22.3,12.9v28.3L486.3,27V0h-1v26.5l-24.5-14.2V0h-1v11.7L439.5,0h-2l22.3,12.9v28.3L435.2,27V0h-1v26.5l-24.5-14.2V0h-1v11.7
	L388.4,0h-2l22.3,12.9v28.3L384.1,27V0h-1v26.5l-24.5-14.2V0h-1v11.7L337.3,0h-2l22.3,12.9v28.3L333,27V0h-1v26.5l-24.5-14.2V0h-1
	v11.7L286.2,0h-2l22.3,12.9v28.3L281.9,27V0h-1v26.5l-24.5-14.2V0h-1v11.7L235.1,0h-2l22.3,12.9v28.3L230.9,27V0h-1v26.5l-24.5-14.2
	V0h-1v11.7L184,0h-2l22.3,12.9v28.3L179.8,27V0h-1v26.5l-24.5-14.2V0h-1v11.7L132.9,0h-2l22.3,12.9v28.3L128.7,27V0h-1v26.5
	l-24.5-14.2V0h-1v11.7L81.9,0h-2l22.3,12.9v28.3L77.6,27V0h-1v26.5L52.1,12.3V0h-1v11.7L30.8,0h-2l22.3,12.9v28.3L26.5,27V0h-1v26.5
	L1,12.3V0H0v491H1z M716.2,13.4l24.5,14.2V56l-24.5-14.2V13.4z M716.2,42.9l24.5,14.2v28.3l-24.5-14.2V42.9z M716.2,72.4l24.5,14.2
	v28.3l-24.5-14.2V72.4z M716.2,101.9l24.5,14.2v28.3l-24.5-14.2V101.9z M716.2,131.4l24.5,14.2v28.3l-24.5-14.2V131.4z M716.2,160.9
	l24.5,14.2v28.3l-24.5-14.2V160.9z M716.2,190.4l24.5,14.2v28.3l-24.5-14.2V190.4z M716.2,219.9l24.5,14.2v28.3l-24.5-14.2V219.9z
	 M716.2,249.4l24.5,14.2v28.3l-24.5-14.2V249.4z M716.2,278.9l24.5,14.2v28.3l-24.5-14.2V278.9z M716.2,308.4l24.5,14.2v28.3
	l-24.5-14.2V308.4z M716.2,337.9l24.5,14.2v28.3l-24.5-14.2V337.9z M716.2,367.4l24.5,14.2v28.3l-24.5-14.2V367.4z M716.2,396.9
	l24.5,14.2v28.3l-24.5-14.2V396.9z M716.2,426.4l24.5,14.2v28.3l-24.5-14.2V426.4z M690.6,28.2l24.5,14.2v28.3l-24.5-14.2V28.2z
	 M690.6,57.7l24.5,14.2v28.3L690.6,86V57.7z M690.6,87.2l24.5,14.2v28.3l-24.5-14.2V87.2z M690.6,116.7l24.5,14.2v28.3L690.6,145
	V116.7z M690.6,146.2l24.5,14.2v28.3l-24.5-14.2V146.2z M690.6,175.7l24.5,14.2v28.3L690.6,204V175.7z M690.6,205.2l24.5,14.2v28.3
	l-24.5-14.2V205.2z M690.6,234.7l24.5,14.2v28.3L690.6,263V234.7z M690.6,264.1l24.5,14.2v28.3l-24.5-14.2V264.1z M690.6,293.6
	l24.5,14.2v28.3L690.6,322V293.6z M690.6,323.1l24.5,14.2v28.3l-24.5-14.2V323.1z M690.6,352.6l24.5,14.2v28.3L690.6,381V352.6z
	 M690.6,382.1l24.5,14.2v28.3l-24.5-14.2V382.1z M690.6,411.6l24.5,14.2v28.3L690.6,440V411.6z M690.6,441.1l24.5,14.2v28.3
	l-24.5-14.2V441.1z M665.1,13.4l24.5,14.2V56l-24.5-14.2V13.4z M665.1,42.9l24.5,14.2v28.3l-24.5-14.2V42.9z M665.1,72.4l24.5,14.2
	v28.3l-24.5-14.2V72.4z M665.1,101.9l24.5,14.2v28.3l-24.5-14.2V101.9z M665.1,131.4l24.5,14.2v28.3l-24.5-14.2V131.4z M665.1,160.9
	l24.5,14.2v28.3l-24.5-14.2V160.9z M665.1,190.4l24.5,14.2v28.3l-24.5-14.2V190.4z M665.1,219.9l24.5,14.2v28.3l-24.5-14.2V219.9z
	 M665.1,249.4l24.5,14.2v28.3l-24.5-14.2V249.4z M665.1,278.9l24.5,14.2v28.3l-24.5-14.2V278.9z M665.1,308.4l24.5,14.2v28.3
	l-24.5-14.2V308.4z M665.1,337.9l24.5,14.2v28.3l-24.5-14.2V337.9z M665.1,367.4l24.5,14.2v28.3l-24.5-14.2V367.4z M665.1,396.9
	l24.5,14.2v28.3l-24.5-14.2V396.9z M665.1,426.4l24.5,14.2v28.3l-24.5-14.2V426.4z M639.5,28.2l24.5,14.2v28.3l-24.5-14.2V28.2z
	 M639.5,57.7l24.5,14.2v28.3L639.5,86V57.7z M639.5,87.2l24.5,14.2v28.3l-24.5-14.2V87.2z M639.5,116.7l24.5,14.2v28.3L639.5,145
	V116.7z M639.5,146.2l24.5,14.2v28.3l-24.5-14.2V146.2z M639.5,175.7l24.5,14.2v28.3L639.5,204V175.7z M639.5,205.2l24.5,14.2v28.3
	l-24.5-14.2V205.2z M639.5,234.7l24.5,14.2v28.3L639.5,263V234.7z M639.5,264.1l24.5,14.2v28.3l-24.5-14.2V264.1z M639.5,293.6
	l24.5,14.2v28.3L639.5,322V293.6z M639.5,323.1l24.5,14.2v28.3l-24.5-14.2V323.1z M639.5,352.6l24.5,14.2v28.3L639.5,381V352.6z
	 M639.5,382.1l24.5,14.2v28.3l-24.5-14.2V382.1z M639.5,411.6l24.5,14.2v28.3L639.5,440V411.6z M639.5,441.1l24.5,14.2v28.3
	l-24.5-14.2V441.1z M614,13.4l24.5,14.2V56L614,41.8V13.4z M614,42.9l24.5,14.2v28.3L614,71.3V42.9z M614,72.4l24.5,14.2v28.3
	L614,100.8V72.4z M614,101.9l24.5,14.2v28.3L614,130.3V101.9z M614,131.4l24.5,14.2v28.3L614,159.8V131.4z M614,160.9l24.5,14.2
	v28.3L614,189.3V160.9z M614,190.4l24.5,14.2v28.3L614,218.7V190.4z M614,219.9l24.5,14.2v28.3L614,248.2V219.9z M614,249.4
	l24.5,14.2v28.3L614,277.7V249.4z M614,278.9l24.5,14.2v28.3L614,307.2V278.9z M614,308.4l24.5,14.2v28.3L614,336.7V308.4z
	 M614,337.9l24.5,14.2v28.3L614,366.2V337.9z M614,367.4l24.5,14.2v28.3L614,395.7V367.4z M614,396.9l24.5,14.2v28.3L614,425.2
	V396.9z M614,426.4l24.5,14.2v28.3L614,454.7V426.4z M588.5,28.2L613,42.4v28.3l-24.5-14.2V28.2z M588.5,57.7L613,71.9v28.3
	L588.5,86V57.7z M588.5,87.2l24.5,14.2v28.3l-24.5-14.2V87.2z M588.5,116.7l24.5,14.2v28.3L588.5,145V116.7z M588.5,146.2l24.5,14.2
	v28.3l-24.5-14.2V146.2z M588.5,175.7l24.5,14.2v28.3L588.5,204V175.7z M588.5,205.2l24.5,14.2v28.3l-24.5-14.2V205.2z M588.5,234.7
	l24.5,14.2v28.3L588.5,263V234.7z M588.5,264.1l24.5,14.2v28.3l-24.5-14.2V264.1z M588.5,293.6l24.5,14.2v28.3L588.5,322V293.6z
	 M588.5,323.1l24.5,14.2v28.3l-24.5-14.2V323.1z M588.5,352.6l24.5,14.2v28.3L588.5,381V352.6z M588.5,382.1l24.5,14.2v28.3
	l-24.5-14.2V382.1z M588.5,411.6l24.5,14.2v28.3L588.5,440V411.6z M588.5,441.1l24.5,14.2v28.3l-24.5-14.2V441.1z M562.9,13.4
	l24.5,14.2V56l-24.5-14.2V13.4z M562.9,42.9l24.5,14.2v28.3l-24.5-14.2V42.9z M562.9,72.4l24.5,14.2v28.3l-24.5-14.2V72.4z
	 M562.9,101.9l24.5,14.2v28.3l-24.5-14.2V101.9z M562.9,131.4l24.5,14.2v28.3l-24.5-14.2V131.4z M562.9,160.9l24.5,14.2v28.3
	l-24.5-14.2V160.9z M562.9,190.4l24.5,14.2v28.3l-24.5-14.2V190.4z M562.9,219.9l24.5,14.2v28.3l-24.5-14.2V219.9z M562.9,249.4
	l24.5,14.2v28.3l-24.5-14.2V249.4z M562.9,278.9l24.5,14.2v28.3l-24.5-14.2V278.9z M562.9,308.4l24.5,14.2v28.3l-24.5-14.2V308.4z
	 M562.9,337.9l24.5,14.2v28.3l-24.5-14.2V337.9z M562.9,367.4l24.5,14.2v28.3l-24.5-14.2V367.4z M562.9,396.9l24.5,14.2v28.3
	l-24.5-14.2V396.9z M562.9,426.4l24.5,14.2v28.3l-24.5-14.2V426.4z M537.4,28.2l24.5,14.2v28.3l-24.5-14.2V28.2z M537.4,57.7
	l24.5,14.2v28.3L537.4,86V57.7z M537.4,87.2l24.5,14.2v28.3l-24.5-14.2V87.2z M537.4,116.7l24.5,14.2v28.3L537.4,145V116.7z
	 M537.4,146.2l24.5,14.2v28.3l-24.5-14.2V146.2z M537.4,175.7l24.5,14.2v28.3L537.4,204V175.7z M537.4,205.2l24.5,14.2v28.3
	l-24.5-14.2V205.2z M537.4,234.7l24.5,14.2v28.3L537.4,263V234.7z M537.4,264.1l24.5,14.2v28.3l-24.5-14.2V264.1z M537.4,293.6
	l24.5,14.2v28.3L537.4,322V293.6z M537.4,323.1l24.5,14.2v28.3l-24.5-14.2V323.1z M537.4,352.6l24.5,14.2v28.3L537.4,381V352.6z
	 M537.4,382.1l24.5,14.2v28.3l-24.5-14.2V382.1z M537.4,411.6l24.5,14.2v28.3L537.4,440V411.6z M537.4,441.1l24.5,14.2v28.3
	l-24.5-14.2V441.1z M511.8,13.4l24.5,14.2V56l-24.5-14.2V13.4z M511.8,42.9l24.5,14.2v28.3l-24.5-14.2V42.9z M511.8,72.4l24.5,14.2
	v28.3l-24.5-14.2V72.4z M511.8,101.9l24.5,14.2v28.3l-24.5-14.2V101.9z M511.8,131.4l24.5,14.2v28.3l-24.5-14.2V131.4z M511.8,160.9
	l24.5,14.2v28.3l-24.5-14.2V160.9z M511.8,190.4l24.5,14.2v28.3l-24.5-14.2V190.4z M511.8,219.9l24.5,14.2v28.3l-24.5-14.2V219.9z
	 M511.8,249.4l24.5,14.2v28.3l-24.5-14.2V249.4z M511.8,278.9l24.5,14.2v28.3l-24.5-14.2V278.9z M511.8,308.4l24.5,14.2v28.3
	l-24.5-14.2V308.4z M511.8,337.9l24.5,14.2v28.3l-24.5-14.2V337.9z M511.8,367.4l24.5,14.2v28.3l-24.5-14.2V367.4z M511.8,396.9
	l24.5,14.2v28.3l-24.5-14.2V396.9z M511.8,426.4l24.5,14.2v28.3l-24.5-14.2V426.4z M486.3,28.2l24.5,14.2v28.3l-24.5-14.2V28.2z
	 M486.3,57.7l24.5,14.2v28.3L486.3,86V57.7z M486.3,87.2l24.5,14.2v28.3l-24.5-14.2V87.2z M486.3,116.7l24.5,14.2v28.3L486.3,145
	V116.7z M486.3,146.2l24.5,14.2v28.3l-24.5-14.2V146.2z M486.3,175.7l24.5,14.2v28.3L486.3,204V175.7z M486.3,205.2l24.5,14.2v28.3
	l-24.5-14.2V205.2z M486.3,234.7l24.5,14.2v28.3L486.3,263V234.7z M486.3,264.1l24.5,14.2v28.3l-24.5-14.2V264.1z M486.3,293.6
	l24.5,14.2v28.3L486.3,322V293.6z M486.3,323.1l24.5,14.2v28.3l-24.5-14.2V323.1z M486.3,352.6l24.5,14.2v28.3L486.3,381V352.6z
	 M486.3,382.1l24.5,14.2v28.3l-24.5-14.2V382.1z M486.3,411.6l24.5,14.2v28.3L486.3,440V411.6z M486.3,441.1l24.5,14.2v28.3
	l-24.5-14.2V441.1z M460.7,13.4l24.5,14.2V56l-24.5-14.2V13.4z M460.7,42.9l24.5,14.2v28.3l-24.5-14.2V42.9z M460.7,72.4l24.5,14.2
	v28.3l-24.5-14.2V72.4z M460.7,101.9l24.5,14.2v28.3l-24.5-14.2V101.9z M460.7,131.4l24.5,14.2v28.3l-24.5-14.2V131.4z M460.7,160.9
	l24.5,14.2v28.3l-24.5-14.2V160.9z M460.7,190.4l24.5,14.2v28.3l-24.5-14.2V190.4z M460.7,219.9l24.5,14.2v28.3l-24.5-14.2V219.9z
	 M460.7,249.4l24.5,14.2v28.3l-24.5-14.2V249.4z M460.7,278.9l24.5,14.2v28.3l-24.5-14.2V278.9z M460.7,308.4l24.5,14.2v28.3
	l-24.5-14.2V308.4z M460.7,337.9l24.5,14.2v28.3l-24.5-14.2V337.9z M460.7,367.4l24.5,14.2v28.3l-24.5-14.2V367.4z M460.7,396.9
	l24.5,14.2v28.3l-24.5-14.2V396.9z M460.7,426.4l24.5,14.2v28.3l-24.5-14.2V426.4z M435.2,28.2l24.5,14.2v28.3l-24.5-14.2V28.2z
	 M435.2,57.7l24.5,14.2v28.3L435.2,86V57.7z M435.2,87.2l24.5,14.2v28.3l-24.5-14.2V87.2z M435.2,116.7l24.5,14.2v28.3L435.2,145
	V116.7z M435.2,146.2l24.5,14.2v28.3l-24.5-14.2V146.2z M435.2,175.7l24.5,14.2v28.3L435.2,204V175.7z M435.2,205.2l24.5,14.2v28.3
	l-24.5-14.2V205.2z M435.2,234.7l24.5,14.2v28.3L435.2,263V234.7z M435.2,264.1l24.5,14.2v28.3l-24.5-14.2V264.1z M435.2,293.6
	l24.5,14.2v28.3L435.2,322V293.6z M435.2,323.1l24.5,14.2v28.3l-24.5-14.2V323.1z M435.2,352.6l24.5,14.2v28.3L435.2,381V352.6z
	 M435.2,382.1l24.5,14.2v28.3l-24.5-14.2V382.1z M435.2,411.6l24.5,14.2v28.3L435.2,440V411.6z M435.2,441.1l24.5,14.2v28.3
	l-24.5-14.2V441.1z M409.7,13.4l24.5,14.2V56l-24.5-14.2V13.4z M409.7,42.9l24.5,14.2v28.3l-24.5-14.2V42.9z M409.7,72.4l24.5,14.2
	v28.3l-24.5-14.2V72.4z M409.7,101.9l24.5,14.2v28.3l-24.5-14.2V101.9z M409.7,131.4l24.5,14.2v28.3l-24.5-14.2V131.4z M409.7,160.9
	l24.5,14.2v28.3l-24.5-14.2V160.9z M409.7,190.4l24.5,14.2v28.3l-24.5-14.2V190.4z M409.7,219.9l24.5,14.2v28.3l-24.5-14.2V219.9z
	 M409.7,249.4l24.5,14.2v28.3l-24.5-14.2V249.4z M409.7,278.9l24.5,14.2v28.3l-24.5-14.2V278.9z M409.7,308.4l24.5,14.2v28.3
	l-24.5-14.2V308.4z M409.7,337.9l24.5,14.2v28.3l-24.5-14.2V337.9z M409.7,367.4l24.5,14.2v28.3l-24.5-14.2V367.4z M409.7,396.9
	l24.5,14.2v28.3l-24.5-14.2V396.9z M409.7,426.4l24.5,14.2v28.3l-24.5-14.2V426.4z M384.1,28.2l24.5,14.2v28.3l-24.5-14.2V28.2z
	 M384.1,57.7l24.5,14.2v28.3L384.1,86V57.7z M384.1,87.2l24.5,14.2v28.3l-24.5-14.2V87.2z M384.1,116.7l24.5,14.2v28.3L384.1,145
	V116.7z M384.1,146.2l24.5,14.2v28.3l-24.5-14.2V146.2z M384.1,175.7l24.5,14.2v28.3L384.1,204V175.7z M384.1,205.2l24.5,14.2v28.3
	l-24.5-14.2V205.2z M384.1,234.7l24.5,14.2v28.3L384.1,263V234.7z M384.1,264.1l24.5,14.2v28.3l-24.5-14.2V264.1z M384.1,293.6
	l24.5,14.2v28.3L384.1,322V293.6z M384.1,323.1l24.5,14.2v28.3l-24.5-14.2V323.1z M384.1,352.6l24.5,14.2v28.3L384.1,381V352.6z
	 M384.1,382.1l24.5,14.2v28.3l-24.5-14.2V382.1z M384.1,411.6l24.5,14.2v28.3L384.1,440V411.6z M384.1,441.1l24.5,14.2v28.3
	l-24.5-14.2V441.1z M358.6,13.4l24.5,14.2V56l-24.5-14.2V13.4z M358.6,42.9l24.5,14.2v28.3l-24.5-14.2V42.9z M358.6,72.4l24.5,14.2
	v28.3l-24.5-14.2V72.4z M358.6,101.9l24.5,14.2v28.3l-24.5-14.2V101.9z M358.6,131.4l24.5,14.2v28.3l-24.5-14.2V131.4z M358.6,160.9
	l24.5,14.2v28.3l-24.5-14.2V160.9z M358.6,190.4l24.5,14.2v28.3l-24.5-14.2V190.4z M358.6,219.9l24.5,14.2v28.3l-24.5-14.2V219.9z
	 M358.6,249.4l24.5,14.2v28.3l-24.5-14.2V249.4z M358.6,278.9l24.5,14.2v28.3l-24.5-14.2V278.9z M358.6,308.4l24.5,14.2v28.3
	l-24.5-14.2V308.4z M358.6,337.9l24.5,14.2v28.3l-24.5-14.2V337.9z M358.6,367.4l24.5,14.2v28.3l-24.5-14.2V367.4z M358.6,396.9
	l24.5,14.2v28.3l-24.5-14.2V396.9z M358.6,426.4l24.5,14.2v28.3l-24.5-14.2V426.4z M333,28.2l24.5,14.2v28.3L333,56.5V28.2z
	 M333,57.7l24.5,14.2v28.3L333,86V57.7z M333,87.2l24.5,14.2v28.3L333,115.5V87.2z M333,116.7l24.5,14.2v28.3L333,145V116.7z
	 M333,146.2l24.5,14.2v28.3L333,174.5V146.2z M333,175.7l24.5,14.2v28.3L333,204V175.7z M333,205.2l24.5,14.2v28.3L333,233.5V205.2z
	 M333,234.7l24.5,14.2v28.3L333,263V234.7z M333,264.1l24.5,14.2v28.3L333,292.5V264.1z M333,293.6l24.5,14.2v28.3L333,322V293.6z
	 M333,323.1l24.5,14.2v28.3L333,351.5V323.1z M333,352.6l24.5,14.2v28.3L333,381V352.6z M333,382.1l24.5,14.2v28.3L333,410.5V382.1z
	 M333,411.6l24.5,14.2v28.3L333,440V411.6z M333,441.1l24.5,14.2v28.3L333,469.5V441.1z M307.5,13.4L332,27.6V56l-24.5-14.2V13.4z
	 M307.5,42.9L332,57.1v28.3l-24.5-14.2V42.9z M307.5,72.4L332,86.6v28.3l-24.5-14.2V72.4z M307.5,101.9l24.5,14.2v28.3l-24.5-14.2
	V101.9z M307.5,131.4l24.5,14.2v28.3l-24.5-14.2V131.4z M307.5,160.9l24.5,14.2v28.3l-24.5-14.2V160.9z M307.5,190.4l24.5,14.2v28.3
	l-24.5-14.2V190.4z M307.5,219.9l24.5,14.2v28.3l-24.5-14.2V219.9z M307.5,249.4l24.5,14.2v28.3l-24.5-14.2V249.4z M307.5,278.9
	l24.5,14.2v28.3l-24.5-14.2V278.9z M307.5,308.4l24.5,14.2v28.3l-24.5-14.2V308.4z M307.5,337.9l24.5,14.2v28.3l-24.5-14.2V337.9z
	 M307.5,367.4l24.5,14.2v28.3l-24.5-14.2V367.4z M307.5,396.9L332,411v28.3l-24.5-14.2V396.9z M307.5,426.4l24.5,14.2v28.3
	l-24.5-14.2V426.4z M281.9,28.2l24.5,14.2v28.3l-24.5-14.2V28.2z M281.9,57.7l24.5,14.2v28.3L281.9,86V57.7z M281.9,87.2l24.5,14.2
	v28.3l-24.5-14.2V87.2z M281.9,116.7l24.5,14.2v28.3L281.9,145V116.7z M281.9,146.2l24.5,14.2v28.3l-24.5-14.2V146.2z M281.9,175.7
	l24.5,14.2v28.3L281.9,204V175.7z M281.9,205.2l24.5,14.2v28.3l-24.5-14.2V205.2z M281.9,234.7l24.5,14.2v28.3L281.9,263V234.7z
	 M281.9,264.1l24.5,14.2v28.3l-24.5-14.2V264.1z M281.9,293.6l24.5,14.2v28.3L281.9,322V293.6z M281.9,323.1l24.5,14.2v28.3
	l-24.5-14.2V323.1z M281.9,352.6l24.5,14.2v28.3L281.9,381V352.6z M281.9,382.1l24.5,14.2v28.3l-24.5-14.2V382.1z M281.9,411.6
	l24.5,14.2v28.3L281.9,440V411.6z M281.9,441.1l24.5,14.2v28.3l-24.5-14.2V441.1z M256.4,13.4l24.5,14.2V56l-24.5-14.2V13.4z
	 M256.4,42.9l24.5,14.2v28.3l-24.5-14.2V42.9z M256.4,72.4l24.5,14.2v28.3l-24.5-14.2V72.4z M256.4,101.9l24.5,14.2v28.3l-24.5-14.2
	V101.9z M256.4,131.4l24.5,14.2v28.3l-24.5-14.2V131.4z M256.4,160.9l24.5,14.2v28.3l-24.5-14.2V160.9z M256.4,190.4l24.5,14.2v28.3
	l-24.5-14.2V190.4z M256.4,219.9l24.5,14.2v28.3l-24.5-14.2V219.9z M256.4,249.4l24.5,14.2v28.3l-24.5-14.2V249.4z M256.4,278.9
	l24.5,14.2v28.3l-24.5-14.2V278.9z M256.4,308.4l24.5,14.2v28.3l-24.5-14.2V308.4z M256.4,337.9l24.5,14.2v28.3l-24.5-14.2V337.9z
	 M256.4,367.4l24.5,14.2v28.3l-24.5-14.2V367.4z M256.4,396.9l24.5,14.2v28.3l-24.5-14.2V396.9z M256.4,426.4l24.5,14.2v28.3
	l-24.5-14.2V426.4z M230.9,28.2l24.5,14.2v28.3l-24.5-14.2V28.2z M230.9,57.7l24.5,14.2v28.3L230.9,86V57.7z M230.9,87.2l24.5,14.2
	v28.3l-24.5-14.2V87.2z M230.9,116.7l24.5,14.2v28.3L230.9,145V116.7z M230.9,146.2l24.5,14.2v28.3l-24.5-14.2V146.2z M230.9,175.7
	l24.5,14.2v28.3L230.9,204V175.7z M230.9,205.2l24.5,14.2v28.3l-24.5-14.2V205.2z M230.9,234.7l24.5,14.2v28.3L230.9,263V234.7z
	 M230.9,264.1l24.5,14.2v28.3l-24.5-14.2V264.1z M230.9,293.6l24.5,14.2v28.3L230.9,322V293.6z M230.9,323.1l24.5,14.2v28.3
	l-24.5-14.2V323.1z M230.9,352.6l24.5,14.2v28.3L230.9,381V352.6z M230.9,382.1l24.5,14.2v28.3l-24.5-14.2V382.1z M230.9,411.6
	l24.5,14.2v28.3L230.9,440V411.6z M230.9,441.1l24.5,14.2v28.3l-24.5-14.2V441.1z M205.3,13.4l24.5,14.2V56l-24.5-14.2V13.4z
	 M205.3,42.9l24.5,14.2v28.3l-24.5-14.2V42.9z M205.3,72.4l24.5,14.2v28.3l-24.5-14.2V72.4z M205.3,101.9l24.5,14.2v28.3l-24.5-14.2
	V101.9z M205.3,131.4l24.5,14.2v28.3l-24.5-14.2V131.4z M205.3,160.9l24.5,14.2v28.3l-24.5-14.2V160.9z M205.3,190.4l24.5,14.2v28.3
	l-24.5-14.2V190.4z M205.3,219.9l24.5,14.2v28.3l-24.5-14.2V219.9z M205.3,249.4l24.5,14.2v28.3l-24.5-14.2V249.4z M205.3,278.9
	l24.5,14.2v28.3l-24.5-14.2V278.9z M205.3,308.4l24.5,14.2v28.3l-24.5-14.2V308.4z M205.3,337.9l24.5,14.2v28.3l-24.5-14.2V337.9z
	 M205.3,367.4l24.5,14.2v28.3l-24.5-14.2V367.4z M205.3,396.9l24.5,14.2v28.3l-24.5-14.2V396.9z M205.3,426.4l24.5,14.2v28.3
	l-24.5-14.2V426.4z M179.8,28.2l24.5,14.2v28.3l-24.5-14.2V28.2z M179.8,57.7l24.5,14.2v28.3L179.8,86V57.7z M179.8,87.2l24.5,14.2
	v28.3l-24.5-14.2V87.2z M179.8,116.7l24.5,14.2v28.3L179.8,145V116.7z M179.8,146.2l24.5,14.2v28.3l-24.5-14.2V146.2z M179.8,175.7
	l24.5,14.2v28.3L179.8,204V175.7z M179.8,205.2l24.5,14.2v28.3l-24.5-14.2V205.2z M179.8,234.7l24.5,14.2v28.3L179.8,263V234.7z
	 M179.8,264.1l24.5,14.2v28.3l-24.5-14.2V264.1z M179.8,293.6l24.5,14.2v28.3L179.8,322V293.6z M179.8,323.1l24.5,14.2v28.3
	l-24.5-14.2V323.1z M179.8,352.6l24.5,14.2v28.3L179.8,381V352.6z M179.8,382.1l24.5,14.2v28.3l-24.5-14.2V382.1z M179.8,411.6
	l24.5,14.2v28.3L179.8,440V411.6z M179.8,441.1l24.5,14.2v28.3l-24.5-14.2V441.1z M154.2,13.4l24.5,14.2V56l-24.5-14.2V13.4z
	 M154.2,42.9l24.5,14.2v28.3l-24.5-14.2V42.9z M154.2,72.4l24.5,14.2v28.3l-24.5-14.2V72.4z M154.2,101.9l24.5,14.2v28.3l-24.5-14.2
	V101.9z M154.2,131.4l24.5,14.2v28.3l-24.5-14.2V131.4z M154.2,160.9l24.5,14.2v28.3l-24.5-14.2V160.9z M154.2,190.4l24.5,14.2v28.3
	l-24.5-14.2V190.4z M154.2,219.9l24.5,14.2v28.3l-24.5-14.2V219.9z M154.2,249.4l24.5,14.2v28.3l-24.5-14.2V249.4z M154.2,278.9
	l24.5,14.2v28.3l-24.5-14.2V278.9z M154.2,308.4l24.5,14.2v28.3l-24.5-14.2V308.4z M154.2,337.9l24.5,14.2v28.3l-24.5-14.2V337.9z
	 M154.2,367.4l24.5,14.2v28.3l-24.5-14.2V367.4z M154.2,396.9l24.5,14.2v28.3l-24.5-14.2V396.9z M154.2,426.4l24.5,14.2v28.3
	l-24.5-14.2V426.4z M128.7,28.2l24.5,14.2v28.3l-24.5-14.2V28.2z M128.7,57.7l24.5,14.2v28.3L128.7,86V57.7z M128.7,87.2l24.5,14.2
	v28.3l-24.5-14.2V87.2z M128.7,116.7l24.5,14.2v28.3L128.7,145V116.7z M128.7,146.2l24.5,14.2v28.3l-24.5-14.2V146.2z M128.7,175.7
	l24.5,14.2v28.3L128.7,204V175.7z M128.7,205.2l24.5,14.2v28.3l-24.5-14.2V205.2z M128.7,234.7l24.5,14.2v28.3L128.7,263V234.7z
	 M128.7,264.1l24.5,14.2v28.3l-24.5-14.2V264.1z M128.7,293.6l24.5,14.2v28.3L128.7,322V293.6z M128.7,323.1l24.5,14.2v28.3
	l-24.5-14.2V323.1z M128.7,352.6l24.5,14.2v28.3L128.7,381V352.6z M128.7,382.1l24.5,14.2v28.3l-24.5-14.2V382.1z M128.7,411.6
	l24.5,14.2v28.3L128.7,440V411.6z M128.7,441.1l24.5,14.2v28.3l-24.5-14.2V441.1z M103.1,13.4l24.5,14.2V56l-24.5-14.2V13.4z
	 M103.1,42.9l24.5,14.2v28.3l-24.5-14.2V42.9z M103.1,72.4l24.5,14.2v28.3l-24.5-14.2V72.4z M103.1,101.9l24.5,14.2v28.3l-24.5-14.2
	V101.9z M103.1,131.4l24.5,14.2v28.3l-24.5-14.2V131.4z M103.1,160.9l24.5,14.2v28.3l-24.5-14.2V160.9z M103.1,190.4l24.5,14.2v28.3
	l-24.5-14.2V190.4z M103.1,219.9l24.5,14.2v28.3l-24.5-14.2V219.9z M103.1,249.4l24.5,14.2v28.3l-24.5-14.2V249.4z M103.1,278.9
	l24.5,14.2v28.3l-24.5-14.2V278.9z M103.1,308.4l24.5,14.2v28.3l-24.5-14.2V308.4z M103.1,337.9l24.5,14.2v28.3l-24.5-14.2V337.9z
	 M103.1,367.4l24.5,14.2v28.3l-24.5-14.2V367.4z M103.1,396.9l24.5,14.2v28.3l-24.5-14.2V396.9z M103.1,426.4l24.5,14.2v28.3
	l-24.5-14.2V426.4z M77.6,28.2l24.5,14.2v28.3L77.6,56.5V28.2z M77.6,57.7l24.5,14.2v28.3L77.6,86V57.7z M77.6,87.2l24.5,14.2v28.3
	l-24.5-14.2V87.2z M77.6,116.7l24.5,14.2v28.3L77.6,145V116.7z M77.6,146.2l24.5,14.2v28.3l-24.5-14.2V146.2z M77.6,175.7l24.5,14.2
	v28.3L77.6,204V175.7z M77.6,205.2l24.5,14.2v28.3l-24.5-14.2V205.2z M77.6,234.7l24.5,14.2v28.3L77.6,263V234.7z M77.6,264.1
	l24.5,14.2v28.3l-24.5-14.2V264.1z M77.6,293.6l24.5,14.2v28.3L77.6,322V293.6z M77.6,323.1l24.5,14.2v28.3l-24.5-14.2V323.1z
	 M77.6,352.6l24.5,14.2v28.3L77.6,381V352.6z M77.6,382.1l24.5,14.2v28.3l-24.5-14.2V382.1z M77.6,411.6l24.5,14.2v28.3L77.6,440
	V411.6z M77.6,441.1l24.5,14.2v28.3l-24.5-14.2V441.1z M52.1,13.4l24.5,14.2V56L52.1,41.8V13.4z M52.1,42.9l24.5,14.2v28.3
	L52.1,71.3V42.9z M52.1,72.4l24.5,14.2v28.3l-24.5-14.2V72.4z M52.1,101.9l24.5,14.2v28.3l-24.5-14.2V101.9z M52.1,131.4l24.5,14.2
	v28.3l-24.5-14.2V131.4z M52.1,160.9l24.5,14.2v28.3l-24.5-14.2V160.9z M52.1,190.4l24.5,14.2v28.3l-24.5-14.2V190.4z M52.1,219.9
	l24.5,14.2v28.3l-24.5-14.2V219.9z M52.1,249.4l24.5,14.2v28.3l-24.5-14.2V249.4z M52.1,278.9l24.5,14.2v28.3l-24.5-14.2V278.9z
	 M52.1,308.4l24.5,14.2v28.3l-24.5-14.2V308.4z M52.1,337.9l24.5,14.2v28.3l-24.5-14.2V337.9z M52.1,367.4l24.5,14.2v28.3
	l-24.5-14.2V367.4z M52.1,396.9L76.6,411v28.3l-24.5-14.2V396.9z M52.1,426.4l24.5,14.2v28.3l-24.5-14.2V426.4z M26.5,28.2
	l24.5,14.2v28.3L26.5,56.5V28.2z M26.5,57.7l24.5,14.2v28.3L26.5,86V57.7z M26.5,87.2l24.5,14.2v28.3l-24.5-14.2V87.2z M26.5,116.7
	l24.5,14.2v28.3L26.5,145V116.7z M26.5,146.2l24.5,14.2v28.3l-24.5-14.2V146.2z M26.5,175.7l24.5,14.2v28.3L26.5,204V175.7z
	 M26.5,205.2l24.5,14.2v28.3l-24.5-14.2V205.2z M26.5,234.7l24.5,14.2v28.3L26.5,263V234.7z M26.5,264.1l24.5,14.2v28.3l-24.5-14.2
	V264.1z M26.5,293.6l24.5,14.2v28.3L26.5,322V293.6z M26.5,323.1l24.5,14.2v28.3l-24.5-14.2V323.1z M26.5,352.6l24.5,14.2v28.3
	L26.5,381V352.6z M26.5,382.1l24.5,14.2v28.3l-24.5-14.2V382.1z M26.5,411.6l24.5,14.2v28.3L26.5,440V411.6z M26.5,441.1l24.5,14.2
	v28.3l-24.5-14.2V441.1z M1,13.5l24.5,14.2V56L1,41.8V13.5z M1,43l24.5,14.2v28.3L1,71.3V43z M1,72.4l24.5,14.2v28.3L1,100.8V72.4z
	 M1,101.9l24.5,14.2v28.3L1,130.3V101.9z M1,131.4l24.5,14.2v28.3L1,159.8V131.4z M1,160.9l24.5,14.2v28.3L1,189.3V160.9z M1,190.4
	l24.5,14.2v28.3L1,218.8V190.4z M1,219.9l24.5,14.2v28.3L1,248.3V219.9z M1,249.4l24.5,14.2v28.3L1,277.8V249.4z M1,278.9l24.5,14.2
	v28.3L1,307.2V278.9z M1,308.4l24.5,14.2v28.3L1,336.7V308.4z M1,337.9l24.5,14.2v28.3L1,366.2V337.9z M1,367.4l24.5,14.2v28.3
	L1,395.7V367.4z M1,396.9L25.5,411v28.3L1,425.2V396.9z M1,426.4l24.5,14.2v28.3L1,454.7V426.4z"/>
<g>
	<polygon class="st1" points="178.9,115.2 281.8,174.2 281.8,292.2 178.9,232.8 	"/>
	<polygon class="st2" points="230.6,86.5 230.6,144.8 281.8,174.2 281.8,233.7 333.5,263.5 333.5,145.5 	"/>
	<polygon class="st3" points="281.9,56.5 281.9,116 333.5,145.5 333.5,204.2 384.8,233.9 384.8,116.5 	"/>
	<g>
		<polygon class="st4" points="128.2,145.1 230.4,203.4 230.4,411.1 128.2,351.1 		"/>
		<polygon class="st4" points="128.2,350.8 141,357.8 141,372.7 128.2,365.2 		"/>
		<polygon class="st5" points="179.5,376 192.3,383 192.3,397.8 179.5,390.3 		"/>
		<polygon class="st6" points="217.9,403.8 230.7,410.8 230.7,446.8 217.9,439.3 		"/>
		<polygon class="st6" points="159.9,377.5 172.7,384.5 172.7,420.4 159.9,412.9 		"/>
		<polygon class="st4" points="166.5,403 179.3,410 179.3,445.9 166.5,438.4 		"/>
		<polygon class="st4" points="204.9,420.1 217.7,427.1 217.7,463 204.9,455.5 		"/>
		<polygon class="st4" points="141.2,402.8 153.9,409.8 153.9,424.6 141.2,417.1 		"/>
		<polygon class="st4" points="192.6,404.8 205.4,411.8 205.4,426.6 192.6,419.1 		"/>
		<polygon class="st5" points="128.2,403.8 141,410.8 141,449 128.2,441.5 		"/>
		<polygon class="st5" points="141.2,356.9 153.9,363.9 153.9,402.1 141.2,394.6 		"/>
	</g>
	<line class="st7" x1="233.8" y1="306.1" x2="225.2" y2="301.2"/>
	<rect x="233.8" y="302.6" class="st8" width="35" height="14"/>
	<line class="st7" x1="288.1" y1="276.6" x2="279.5" y2="271.7"/>
	<rect x="288.1" y="274.1" class="st8" width="79.9" height="14"/>
	<g>
		<path d="M298.9,277.5h1.6l-2.4,8h-2.2l-2.4-8h1.6l1.9,6.7L298.9,277.5z"/>
		<path d="M303.1,285.4h-1.5v-8h1.5V285.4z"/>
		<path d="M309.7,285.4l-1.8-2.6h-1.4v2.6h-1.5v-8h3.3c1.9,0,2.5,0.8,2.5,2.2v1c0,1-0.4,1.6-1.2,1.9l2,2.9H309.7z M308.1,278.8h-1.7
			v2.7h1.7c0.8,0,1.1-0.3,1.1-1v-0.8C309.2,279.1,308.9,278.8,308.1,278.8z"/>
		<path d="M313.9,278.8h-2.2v-1.3h6v1.3h-2.2v6.7h-1.5V278.8z"/>
		<path d="M324.7,277.5v5.7c0,1.3-0.7,2.4-3,2.4c-2.2,0-3-1.2-3-2.4v-5.7h1.5v5.6c0,0.8,0.4,1.2,1.4,1.2s1.4-0.4,1.4-1.2v-5.6H324.7
			z"/>
		<path d="M330.7,283.8h-3l-0.5,1.7h-1.6l2.5-8h2.1l2.5,8h-1.6L330.7,283.8z M328.1,282.5h2.2l-1.1-3.8L328.1,282.5z"/>
		<path d="M335.5,284.1h3.3v1.3H334v-8h1.5V284.1z"/>
		<path d="M342.6,285.4v-8h3.1c1.5,0,2.1,0.6,2.1,1.7v0.8c0,0.7-0.3,1-0.9,1.3c0.7,0.2,1.2,0.7,1.2,1.5v0.9c0,1.1-0.7,1.8-2.2,1.8
			H342.6z M346.4,279.3c0-0.4-0.2-0.6-0.8-0.6h-1.5v2.1h1.4c0.6,0,0.8-0.3,0.8-0.7V279.3z M346.6,282.8c0-0.5-0.2-0.8-0.8-0.8h-1.7
			v2.2h1.5c0.7,0,1-0.2,1-0.8V282.8z"/>
		<path d="M355.4,283.1c0,1.3-0.8,2.5-3,2.5s-3-1.1-3-2.5v-3.3c0-1.3,0.8-2.5,3-2.5s3,1.1,3,2.5V283.1z M350.9,283
			c0,0.8,0.4,1.2,1.5,1.2c1.1,0,1.5-0.5,1.5-1.2v-3.1c0-0.8-0.4-1.2-1.5-1.2c-1.1,0-1.5,0.5-1.5,1.2V283z"/>
		<path d="M363,285.4h-1.6l-1.7-2.8l-1.7,2.8h-1.6l2.5-4l-2.4-4h1.6l1.7,2.8l1.7-2.8h1.6l-2.4,4L363,285.4z"/>
	</g>
	<g>
		<path d="M244.4,312.1h-3l-0.5,1.7h-1.6l2.5-8h2.1l2.5,8h-1.6L244.4,312.1z M241.8,310.8h2.2l-1.1-3.8L241.8,310.8z"/>
		<path d="M254.4,312l1.5-6.2h1.5l-2,8h-2l-1.5-6.4l-1.5,6.4h-2l-2-8h1.5l1.5,6.2l1.5-6.2h2L254.4,312z"/>
		<path d="M260.7,313.9c-0.9,0-2-0.2-2.5-0.5l0.3-1.2c0.7,0.2,1.5,0.4,2.3,0.4c1.1,0,1.3-0.2,1.3-1c0-0.9,0-1-1.5-1.3
			c-1.9-0.4-2.2-0.8-2.2-2.5c0-1.5,0.7-2.2,2.7-2.2c0.7,0,1.5,0.1,2.3,0.3l-0.2,1.3c-0.7-0.1-1.4-0.2-2.1-0.2c-1,0-1.2,0.2-1.2,0.9
			c0,0.9,0,0.9,1.4,1.3c2.1,0.5,2.3,0.9,2.3,2.5C263.5,313.1,263,313.9,260.7,313.9z"/>
	</g>
	<line class="st7" x1="336.6" y1="245.9" x2="328.1" y2="240.9"/>
	<rect x="336.6" y="242.4" class="st8" width="60.7" height="14"/>
	<g>
		<path d="M347.6,245h1.6l-2.4,8h-2.2l-2.4-8h1.6l1.9,6.7L347.6,245z"/>
		<path d="M355.1,252h-1.9l-1.5-4.1l-0.1,5.2H350l0.4-8h1.7l2.1,5.7l2.1-5.7h1.7l0.4,8h-1.5l-0.1-5.2L355.1,252z"/>
		<path d="M367.2,251.2l1.5-6.2h1.5l-2,8h-2l-1.5-6.4l-1.5,6.4h-2l-2-8h1.5l1.5,6.2l1.5-6.2h2L367.2,251.2z"/>
		<path d="M375.2,251.3h-3l-0.5,1.7h-1.6l2.5-8h2.1l2.5,8h-1.6L375.2,251.3z M372.6,250h2.2l-1.1-3.8L372.6,250z"/>
		<path d="M383.3,253l-1.8-2.6H380v2.6h-1.5v-8h3.3c1.9,0,2.5,0.8,2.5,2.2v1c0,1-0.4,1.6-1.2,1.9l2,2.9H383.3z M381.7,246.3H380v2.7
			h1.7c0.8,0,1.1-0.3,1.1-1v-0.8C382.8,246.6,382.5,246.3,381.7,246.3z"/>
		<path d="M386.3,245h4.9v1.3h-3.4v1.9h3.1v1.3h-3.1v2.1h3.4v1.3h-4.9V245z"/>
	</g>
	<line class="st7" x1="387.1" y1="214.1" x2="378.5" y2="209.2"/>
	<rect x="387.1" y="210.6" class="st8" width="75.3" height="14"/>
	<g>
		<path d="M398.8,219.9c0,1.3-0.8,2.5-3,2.5s-3-1.1-3-2.5v-3.3c0-1.3,0.8-2.5,3-2.5s3,1.1,3,2.5V219.9z M394.2,219.8
			c0,0.8,0.4,1.2,1.5,1.2c1.1,0,1.5-0.5,1.5-1.2v-3.1c0-0.8-0.4-1.2-1.5-1.2c-1.1,0-1.5,0.5-1.5,1.2V219.8z"/>
		<path d="M400.4,214.2h3.1c1.8,0,2.5,0.8,2.5,2.2v1.1c0,1.4-0.7,2.1-2.6,2.1h-1.5v2.6h-1.5V214.2z M403.4,215.6h-1.5v2.7h1.5
			c0.9,0,1.1-0.3,1.1-1v-0.8C404.5,215.9,404.3,215.6,403.4,215.6z"/>
		<path d="M407.3,214.2h4.9v1.3h-3.4v1.9h3.1v1.3h-3.1v2.1h3.4v1.3h-4.9V214.2z"/>
		<path d="M415.2,216.2v6.1h-1.5v-8h2l3,6.1v-6.1h1.5v8h-2L415.2,216.2z"/>
		<path d="M426.8,222.4c-0.9,0-2-0.2-2.5-0.5l0.3-1.2c0.7,0.2,1.5,0.4,2.3,0.4c1.1,0,1.3-0.2,1.3-1c0-0.9,0-1-1.5-1.3
			c-1.9-0.4-2.2-0.8-2.2-2.5c0-1.5,0.7-2.2,2.7-2.2c0.7,0,1.5,0.1,2.3,0.3l-0.2,1.3c-0.7-0.1-1.4-0.2-2.1-0.2c-1,0-1.2,0.2-1.2,0.9
			c0,0.9,0,0.9,1.4,1.3c2.1,0.5,2.3,0.9,2.3,2.5C429.6,221.6,429.1,222.4,426.8,222.4z"/>
		<path d="M432.7,215.6h-2.2v-1.3h6v1.3h-2.2v6.7h-1.5V215.6z"/>
		<path d="M441.4,220.6h-3l-0.5,1.7h-1.6l2.5-8h2.1l2.5,8h-1.6L441.4,220.6z M438.8,219.3h2.2l-1.1-3.8L438.8,219.3z"/>
		<path d="M444.3,216.4c0-1.5,0.9-2.3,2.8-2.3c0.7,0,1.5,0.1,2.2,0.3l-0.2,1.3c-0.6-0.1-1.4-0.2-2-0.2c-1,0-1.4,0.4-1.4,1.2v3.1
			c0,0.9,0.3,1.2,1.4,1.2c0.6,0,1.3-0.1,2-0.2l0.2,1.3c-0.7,0.2-1.4,0.3-2.2,0.3c-2,0-2.8-0.9-2.8-2.3V216.4z"/>
		<path d="M452.2,222.2h-1.5v-8h1.5V222.2z M454.1,218.2l2.7,4h-1.7l-2.6-4l2.5-3.9h1.7L454.1,218.2z"/>
	</g>
</g>
</svg>
