
<svg width="110px" height="42px" viewBox="423 368 183 70" version="1.1" xmlns="http://www.w3.org/2000/svg" xmlns:xlink="http://www.w3.org/1999/xlink">
    <desc>HashiCorp Packer</desc>
    <defs>
        <polygon id="path-1" points="22.6878 62 0 62 0 0.5562 22.6878 0.5562 22.6878 62"></polygon>
        <polygon id="path-3" points="33.7967 0 0.2587 0 0.2587 55.0389996 33.7967 55.0389996 33.7967 1.42108547e-14"></polygon>
    </defs>
    <g id="Page-1" stroke="none" stroke-width="1" fill="none" fill-rule="evenodd" transform="translate(423.000000, 368.000000)">
        <path d="M72.5193,24.7828 L66.4223,24.7828 L66.4223,35.7278 L72.5193,35.7278 C75.9273,35.7278 76.9363,34.4798 76.9363,31.8398 L76.9363,28.5758 C76.9363,25.9348 75.8323,24.7828 72.5193,24.7828 L72.5193,24.7828 Z M60.3743,19.4548 L72.8553,19.4548 C80.2483,19.4548 82.9843,22.4788 82.9843,28.0958 L82.9843,32.4638 C82.9843,38.0328 80.0083,41.0568 72.5673,41.0568 L66.4223,41.0568 L66.4223,51.4258 L60.3743,51.4258 L60.3743,19.4548 Z" id="Fill-1" fill="#FFFFFF"></path>
        <path d="M97.575,42.5928 L93.255,42.5928 C91.335,42.5928 90.806,43.1208 90.806,44.8978 C90.806,46.5298 91.335,47.2488 93.159,47.2488 C94.887,47.2488 96.471,46.6738 97.575,46.0498 L97.575,42.5928 Z M103.431,51.4258 L98.632,51.4258 L98.199,49.8418 C96.087,51.2338 93.591,51.9058 91.239,51.9058 C86.967,51.9058 85.142,48.9778 85.142,44.9458 C85.142,40.1928 87.207,38.3678 91.959,38.3678 L97.575,38.3678 L97.575,35.9208 C97.575,33.3278 96.855,32.4158 93.111,32.4158 C90.999,32.4158 88.694,32.7038 86.631,33.1348 L85.91,28.6718 C88.118,27.9998 91.335,27.5668 93.927,27.5668 C101.271,27.5668 103.431,30.1598 103.431,36.0158 L103.431,51.4258 Z" id="Fill-3" fill="#FFFFFF"></path>
        <path d="M106.9324,42.9288 L106.9324,36.5448 C106.9324,30.2558 109.6684,27.5668 117.0134,27.5668 C118.6464,27.5668 120.9974,27.8548 122.7264,28.4308 L122.0064,33.2318 C120.4214,32.7998 118.3104,32.6078 117.1584,32.6078 C113.7974,32.6078 112.7894,33.6158 112.7894,36.4958 L112.7894,42.9778 C112.7894,45.8578 113.7974,46.8658 117.1584,46.8658 C118.6464,46.8658 120.3264,46.6738 122.0064,46.2418 L122.7264,51.0418 C121.1904,51.5698 118.9344,51.9068 117.0134,51.9068 C109.6684,51.9068 106.9324,49.2178 106.9324,42.9288" id="Fill-5" fill="#FFFFFF"></path>
        <path d="M146.2947,28.0474 L139.4297,39.6174 L146.5827,51.4254 L140.1497,51.4254 L133.0937,39.6174 L139.7657,28.0474 L146.2947,28.0474 Z M126.4207,51.4254 L126.4207,18.4944 L132.2767,17.6784 L132.2767,51.4254 L126.4207,51.4254 Z" id="Fill-7" fill="#FFFFFF"></path>
        <path d="M153.9256,37.2647 L161.3656,37.2647 L161.3656,36.1117 C161.3656,33.9037 160.6946,32.3677 157.8136,32.3677 C154.9336,32.3677 153.9256,33.9037 153.9256,36.1117 L153.9256,37.2647 Z M158.4856,47.1057 C160.7416,47.1057 163.0936,46.7697 165.6386,46.0007 L166.5506,50.4177 C163.9096,51.4257 160.7416,51.9067 157.9576,51.9067 C150.6126,51.9067 148.0696,48.4967 148.0696,42.8807 L148.0696,36.6887 C148.0696,31.7437 150.2776,27.5667 157.7656,27.5667 C165.2536,27.5667 166.9346,31.9357 166.9346,36.9767 L166.9346,41.9687 L153.9256,41.9687 L153.9256,43.1687 C153.9256,46.0007 154.9336,47.1057 158.4856,47.1057 L158.4856,47.1057 Z" id="Fill-9" fill="#FFFFFF"></path>
        <path d="M182.5799,32.9439 C180.3239,33.9519 178.4999,35.0079 176.3879,36.3519 L176.3879,51.4259 L170.5309,51.4259 L170.5309,28.0479 L175.4759,28.0479 L175.8589,30.6389 C177.1549,29.7759 179.9399,28.1429 182.0039,27.5669 L182.5799,32.9439 Z" id="Fill-11" fill="#FFFFFF"></path>
        <g id="Group-15" transform="translate(0.000000, 8.000000)">
            <mask id="mask-2" fill="white">
                <use xlink:href="#path-1"></use>
            </mask>
            <g id="Clip-14"></g>
            <polygon id="Fill-13" fill="#71A798" mask="url(#mask-2)" points="-0.0002 0.5562 22.6878 13.6642 22.6878 62.0002 -0.0002 48.8912"></polygon>
        </g>
        <g id="Group-18" transform="translate(9.000000, 0.000000)">
            <mask id="mask-4" fill="white">
                <use xlink:href="#path-3"></use>
            </mask>
            <g id="Clip-17"></g>
            <path d="M24.9187,14.2047 L0.2587,-0.0003 L0.2587,9.8647 L17.0267,19.5477 L17.0267,49.1407 L24.9187,53.6737 C29.8017,56.4927 33.7967,54.8037 33.7967,49.9207 L33.7967,28.2077 C33.7967,23.3247 29.8017,17.0237 24.9187,14.2047" id="Fill-16" fill="#567D72" mask="url(#mask-4)"></path>
        </g>
    </g>
</svg>
