<svg width="142px" height="54px" viewBox="423 368 142 54" version="1.1" xmlns="http://www.w3.org/2000/svg" xmlns:xlink="http://www.w3.org/1999/xlink">
    <g stroke="none" stroke-width="1" fill="none" fill-rule="evenodd" transform="translate(423.000000, 368.000000)">
        <g id="Group">
            <g id="Group-3" transform="translate(46.285714, 13.885714)" fill="#020302">
                <path d="M9.76303017,5.59004 L5.21499244,5.59004 L5.21499244,13.7839543 L9.76303017,13.7839543 C12.3062229,13.7839543 13.0584349,12.84944 13.0584349,10.8725829 L13.0584349,8.42952571 C13.0584349,6.45266857 12.2356372,5.59004 9.76303017,5.59004 L9.76303017,5.59004 Z M0.701720789,1.60144 L10.0137675,1.60144 C15.5299884,1.60144 17.5717065,3.86478286 17.5717065,8.07009715 L17.5717065,11.33984 C17.5717065,15.5092115 15.3508904,17.7725543 9.79884979,17.7725543 L5.21499244,17.7725543 L5.21499244,25.5362115 L0.701720789,25.5362115 L0.701720789,1.60144 Z" id="Fill-1"></path>
                <path d="M28.8200141,18.9230429 L25.5962487,18.9230429 C24.1634641,18.9230429 23.7694482,19.3184143 23.7694482,20.6493571 C23.7694482,21.8703572 24.1634641,22.4095 25.5246094,22.4095 C26.8151692,22.4095 27.996163,21.9792428 28.8200141,21.5109286 L28.8200141,18.9230429 Z M33.1889538,25.5365286 L29.6080457,25.5365286 L29.2856692,24.3504143 C27.709606,25.3927571 25.8480395,25.8959572 24.0928783,25.8959572 C20.9049325,25.8959572 19.5437871,23.7034428 19.5437871,20.6842429 C19.5437871,17.1269571 21.0840305,15.7611286 24.6291191,15.7611286 L28.8200141,15.7611286 L28.8200141,13.9280429 C28.8200141,11.9871286 28.2827199,11.3042143 25.4898434,11.3042143 C23.9137803,11.3042143 22.1944386,11.5198714 20.6541951,11.8433571 L20.1169009,8.50172857 C21.7646033,7.99852857 24.1634641,7.67398571 26.0977233,7.67398571 C31.5781246,7.67398571 33.1889538,9.6149 33.1889538,13.9999286 L33.1889538,25.5365286 Z" id="Fill-3"></path>
                <path d="M36.3427657,19.17496 L36.3427657,14.3956171 C36.3427657,9.68710286 38.3834303,7.67430285 43.8648851,7.67430285 C45.0816984,7.67430285 46.8368596,7.88995999 48.1263659,8.32127429 L47.5890717,11.91556 C46.4070244,11.5920743 44.8320147,11.4483029 43.9712904,11.4483029 C41.4639173,11.4483029 40.7117054,12.2031029 40.7117054,14.3586171 L40.7117054,19.2109028 C40.7117054,21.3674742 41.4639173,22.1222742 43.9712904,22.1222742 C45.0816984,22.1222742 46.3353851,21.9785029 47.5890717,21.6550171 L48.1263659,25.2493029 C46.9801381,25.6436172 45.2966162,25.8952171 43.8648851,25.8952171 C38.3834303,25.8952171 36.3427657,23.8834742 36.3427657,19.17496" id="Fill-5"></path>
                <path d="M66.2497221,8.03373143 L61.1285705,16.6949028 L66.4646398,25.5368457 L61.6648113,25.5368457 L56.4003811,16.6949028 L61.3793078,8.03373143 L66.2497221,8.03373143 Z M51.422508,25.5368457 L51.422508,0.88216 L55.7914477,0.271131428 L55.7914477,25.5368457 L51.422508,25.5368457 Z" id="Fill-7"></path>
                <path d="M72.125298,14.9340199 L77.6773386,14.9340199 L77.6773386,14.0724486 C77.6773386,12.41802 77.1758639,11.2678486 75.026687,11.2678486 C72.8775099,11.2678486 72.125298,12.41802 72.125298,14.0724486 L72.125298,14.9340199 Z M75.5271081,22.3023058 C77.2106301,22.3023058 78.9657912,22.0496486 80.8642309,21.4745629 L81.5448036,24.7813058 C79.5747247,25.5361058 77.2106301,25.8955342 75.1330922,25.8955342 C69.6537445,25.8955342 67.7563584,23.3435914 67.7563584,19.1393343 L67.7563584,14.5037628 C67.7563584,10.8016486 69.4030073,7.67461999 74.9908673,7.67461999 C80.577674,7.67461999 81.8313605,10.94542 81.8313605,14.7183629 L81.8313605,18.45642 L72.125298,18.45642 L72.125298,19.3549914 C72.125298,21.4745629 72.8775099,22.3023058 75.5271081,22.3023058 L75.5271081,22.3023058 Z" id="Fill-9"></path>
                <path d="M94.0464818,11.6995857 C92.3629597,12.4543857 91.0018144,13.2451286 89.4257512,14.2515285 L89.4257512,25.5365286 L85.0568116,25.5365286 L85.0568116,8.03341429 L88.7462321,8.03341429 L89.0317355,9.97432857 C89.9988651,9.32841429 92.0764029,8.10635714 93.6166464,7.67398571 L94.0464818,11.6995857 Z" id="Fill-11"></path>
            </g>
            <g id="Group-2">
                <polygon id="Fill-14" fill="#4DA7DD" points="0.0457551661 6.78122188 17.4668089 16.7388331 17.4668089 53.4565393 0.0457551661 43.4989281"></polygon>
                <path d="M26.0912358,11.0720936 L7.15522129,0.281399106 L7.15522129,7.77521048 L20.0313926,15.1311594 L20.0313926,37.6116087 L26.0912358,41.0552169 C29.8408135,43.1960245 32.9085593,41.9129186 32.9085593,38.2044175 L32.9085593,21.7091699 C32.9085593,18.0006687 29.8408135,13.2129012 26.0912358,11.0720936" id="Fill-17" fill="#3192D0"></path>
            </g>
        </g>
    </g>
</svg>
