<?xml version="1.0" standalone="no"?>
<!DOCTYPE svg PUBLIC "-//W3C//DTD SVG 20010904//EN"
 "http://www.w3.org/TR/2001/REC-SVG-20010904/DTD/svg10.dtd">
<svg version="1.0" xmlns="http://www.w3.org/2000/svg"
 width="16.000000pt" height="16.000000pt" viewBox="0 0 16.000000 16.000000"
 preserveAspectRatio="xMidYMid meet">
<metadata>
Created by potrace 1.11, written by Peter Selinger 2001-2013
</metadata>
<g transform="translate(0.000000,16.000000) scale(0.001739,-0.001739)"
fill="#000000" stroke="none">
<path d="M3022 8509 l3 -633 1087 -621 1087 -620 3 -1910 3 -1910 560 -318
c589 -334 690 -383 860 -418 171 -35 346 -17 468 48 79 43 168 138 211 224 77
157 71 19 71 1769 0 1767 7 1612 -81 1876 -166 503 -568 1014 -1014 1291 -78
49 -3224 1841 -3245 1849 -13 6 -15 -70 -13 -627z"/>
<path d="M1812 4929 l3 -3112 1460 -834 c803 -459 1466 -837 1473 -840 9 -4
12 621 12 3105 l0 3111 -1471 840 c-809 463 -1473 841 -1475 841 -2 0 -3
-1400 -2 -3111z"/>
</g>
</svg>
