<svg width="456" height="592" viewBox="0 0 456 592" fill="none" xmlns="http://www.w3.org/2000/svg"><path d="M429.11 198h-3.22L228 83.432v-1.864l200.865 116.289.245.143zm18.754-.143L228 70.567v1.865L444.89 198h3.22l-.246-.143zm-57 0L228 103.567v1.864L387.89 198h3.22l-.246-.143zm19 0L228 92.567v1.864L406.89 198h3.22l-.246-.143zm-37.999 0L228 114.567v1.864L368.89 198h3.22l-.245-.143zm-19 0L228 125.566v1.864L349.891 198h3.219l-.245-.143zM254.89 0h3.22L456 114.568v1.864L255.135.142 254.89 0zm-18.754.143L456 127.432v-1.864L239.11 0h-3.22l.246.143zm57 0L456 94.433v-1.864L296.11 0h-3.22l.246.143zm-19 0L456 105.433v-1.864L277.11 0h-3.22l.246.143zm37.999 0L456 83.433v-1.864L315.11 0h-3.22l.245.143zm19 0L456 72.433V70.57L334.109 0h-3.219l.245.143zM228.082 48.615L456 180.568v1.864l-.082-.048L228 50.432v-1.865l.082.048zM228 37.568v1.864l227.918 131.953.082.048v-1.865L228.082 37.616l-.082-.048zm0 22v1.864l227.918 131.952.082.048v-1.863L228.082 59.615l-.082-.048zm0-33v1.864l227.918 131.953.082.047v-1.864L228.082 26.616l-.082-.048zm0-11v1.864l227.918 131.953.082.047v-1.864L228.082 15.615l-.082-.047zm0-11v1.864l227.918 131.953.082.047v-1.864L228.082 4.615 228 4.568zM334.11 394h-3.22L228 335.033v-1.845l105.865 60.671.245.141zm-95 0L228 387.632v1.845l7.891 4.523h3.219zm75.755-.141L228 344.077v1.845L311.891 394h3.22l-.246-.141zm-19 0L228 354.965v1.845L292.891 394h3.22l-.246-.141zm-38 0L228 376.743v1.846L254.89 394h3.221l-.246-.141zm19 0L228 365.854v1.845L273.891 394h3.219l-.245-.141zM349.89 198h3.22L456 256.967v1.845l-105.865-60.671-.245-.141zm95 0l11.11 6.368v-1.845L448.109 198h-3.219zm-75.755.141L456 247.923v-1.845L372.109 198h-3.22l.246.141zm19 0L456 237.035v-1.845L391.109 198h-3.22l.246.141zm38 0L456 215.257v-1.846L429.11 198h-3.221l.246.141zm-19 0L456 226.146v-1.845L410.109 198h-3.219l.245.141zM201.11 394h-3.22L0 280.589v-1.845l200.865 115.115.245.141zm18.754-.141L0 267.855v1.845L216.89 394h3.22l-.246-.141zm-57 0L0 300.521v1.845L159.89 394h3.22l-.246-.141zm19 0L0 289.632v1.845L178.89 394h3.22l-.246-.141zm-37.999 0L0 311.41v1.845L140.89 394h3.22l-.245-.141zm-19 0L0 322.298v1.845L121.891 394h3.219l-.245-.141zM26.89 198h3.22L228 311.411v1.845L27.135 198.141 26.89 198zm-18.754.141L228 324.145V322.3L11.11 198H7.89l.246.141zm57 0L228 291.479v-1.845L68.11 198h-3.22l.246.141zm-19 0L228 302.368v-1.845L49.11 198h-3.22l.246.141zm38 0L228 280.59v-1.845L87.11 198h-3.22l.245.141zm18.999 0L228 269.702v-1.845L106.109 198h-3.219l.245.141z" fill="#63D0FF"/><path d="M.082 246.124L228 376.745v1.844l-.082-.047L0 247.923v-1.846l.082.047zM0 235.189v1.845l227.918 130.62.082.047v-1.845L.082 235.236 0 235.189zm0 21.777v1.846l227.918 130.619.082.047v-1.844L.082 257.013 0 256.966zM0 224.3v1.845l227.918 130.62.082.047v-1.845L.082 224.347 0 224.3zm0-10.889v1.845l227.918 130.62.082.047v-1.845L.082 213.458 0 213.411zm0-10.889v1.845l227.918 130.62.082.047v-1.845L.082 202.569 0 202.522zM229 519.69a.815.815 0 00-.746.5.815.815 0 00.175.882.8.8 0 00.88.176.81.81 0 00-.309-1.558zm0-11a.807.807 0 00-.792.968.814.814 0 00.635.636.808.808 0 00.728-1.367.814.814 0 00-.571-.237zm0 22.001a.806.806 0 00-.792.967.818.818 0 00.222.415.8.8 0 00.879.175.807.807 0 00.437-1.058.814.814 0 00-.746-.499zm0-44.001a.807.807 0 00-.792.968.814.814 0 00.635.636.808.808 0 00.728-1.367.814.814 0 00-.571-.237zm0 11.001a.806.806 0 00-.792.967.806.806 0 001.599-.158.804.804 0 00-.807-.809zm0 77a.806.806 0 00-.792.967.806.806 0 001.599-.158.804.804 0 00-.807-.809zm0-11.001a.807.807 0 00-.792.968.814.814 0 00.635.636.808.808 0 00.728-1.367.814.814 0 00-.571-.237zm0-22a.807.807 0 00-.792.968.814.814 0 00.635.636.808.808 0 00.728-1.367.814.814 0 00-.571-.237zm0 11a.807.807 0 00-.792.968.814.814 0 00.635.636.809.809 0 10.157-1.604zm0-88a.807.807 0 00-.792.968.814.814 0 00.635.636.808.808 0 00.728-1.367.814.814 0 00-.571-.237zm0-44a.815.815 0 00-.746.5.815.815 0 00.175.882.8.8 0 00.88.176.81.81 0 00-.309-1.558zm0-11a.807.807 0 00-.792.968.814.814 0 00.635.636.808.808 0 00.728-1.367.798.798 0 00-.571-.237zm0-10.999a.806.806 0 00-.792.967.806.806 0 001.599-.158.804.804 0 00-.807-.809zm0 33a.806.806 0 00-.792.967.818.818 0 00.222.415.8.8 0 00.879.175.807.807 0 00.437-1.058.814.814 0 00-.746-.499zm0 21.999a.807.807 0 00-.792.968.814.814 0 00.635.636.809.809 0 10.157-1.604zm0-11a.807.807 0 00-.792.968.814.814 0 00.635.636.808.808 0 00.728-1.367.814.814 0 00-.571-.237zm0 143a.807.807 0 00-.792.968.814.814 0 00.635.636.808.808 0 00.728-1.367.814.814 0 00-.571-.237zm0-109.999a.806.806 0 00-.792.967.806.806 0 001.599-.158.804.804 0 00-.807-.809zm85.5-82.501a.807.807 0 00-.792.968.814.814 0 00.635.636.808.808 0 00.728-1.367.814.814 0 00-.571-.237zm19 0a.804.804 0 00-.746.5.815.815 0 00.175.882.809.809 0 00.88.176.81.81 0 00-.309-1.558zm19 0a.814.814 0 00-.746.5.806.806 0 00.176.882.798.798 0 00.879.176.807.807 0 00.437-1.058.813.813 0 00-.437-.438.8.8 0 00-.309-.062zm95 0a.804.804 0 00-.746.5.815.815 0 00.175.882.809.809 0 00.88.176.81.81 0 00-.309-1.558zm-171 0a.804.804 0 00-.746.5.815.815 0 00.175.882.809.809 0 00.88.176.81.81 0 00-.309-1.558zm152 0a.807.807 0 00-.792.968.821.821 0 00.221.414.8.8 0 00.88.176.81.81 0 00-.309-1.558zm-171 0a.806.806 0 00-.746.5.815.815 0 00.175.882.808.808 0 101.142-1.144.81.81 0 00-.571-.238zm114 0a.807.807 0 00-.792.968.814.814 0 00.635.636.808.808 0 00.728-1.367.814.814 0 00-.571-.237zm-76 0a.807.807 0 00-.57 1.382.807.807 0 001.316-.882.813.813 0 00-.437-.438.8.8 0 00-.309-.062zm95 0a.804.804 0 00-.746.5.815.815 0 00.175.882.809.809 0 00.88.176.81.81 0 00-.309-1.558zm-152 0a.807.807 0 00-.57 1.382.798.798 0 00.879.176.807.807 0 00.437-1.058.813.813 0 00-.437-.438.8.8 0 00-.309-.062zm171 0a.814.814 0 00-.746.5.806.806 0 00.176.882.798.798 0 00.879.176.807.807 0 00.437-1.058.813.813 0 00-.437-.438.8.8 0 00-.309-.062zM305 508.69a.804.804 0 00-.746.5.815.815 0 00.175.882.809.809 0 00.88.176.81.81 0 00-.309-1.558zm0 66.001a.807.807 0 00-.571 1.381.802.802 0 00.88.176.81.81 0 00-.309-1.557zm0-33.001a.804.804 0 00-.746.5.815.815 0 00.175.882.809.809 0 00.88.176.81.81 0 00-.309-1.558zm0 22a.804.804 0 00-.746.5.815.815 0 00.175.882.809.809 0 00.88.176.81.81 0 00-.309-1.558zm0-32.999a.803.803 0 00-.746.499.815.815 0 00.175.882.8.8 0 00.88.176.812.812 0 00.262-1.32.807.807 0 00-.571-.237zm0-11.001a.804.804 0 00-.746.5.815.815 0 00.175.882.802.802 0 00.88.176.81.81 0 00-.309-1.558zm0 33a.804.804 0 00-.746.5.811.811 0 00.588 1.104.811.811 0 00.829-.344.81.81 0 00-.671-1.26zm0-154a.804.804 0 00-.746.5.815.815 0 00.175.882.802.802 0 00.88.176.81.81 0 00-.309-1.558zm9.5 181.501a.806.806 0 00-.792.967.806.806 0 001.599-.158.82.82 0 00-.236-.573.814.814 0 00-.571-.236zM305 409.69a.804.804 0 00-.746.5.815.815 0 00.175.882.809.809 0 00.88.176.81.81 0 00-.309-1.558zm9.5 148.5a.807.807 0 00-.792.968.814.814 0 00.635.636.808.808 0 00.728-1.367.814.814 0 00-.571-.237zm-9.5-137.5a.804.804 0 00-.746.5.815.815 0 00.175.882.802.802 0 00.88.176.81.81 0 00-.309-1.558zm9.5 148.5a.815.815 0 00-.746.5.815.815 0 00.175.882.8.8 0 00.88.176.81.81 0 00-.309-1.558zM305 431.691a.803.803 0 00-.746.499.815.815 0 00.175.882.8.8 0 00.88.176.812.812 0 00.262-1.32.807.807 0 00-.571-.237zm0 44a.807.807 0 00-.571 1.381.802.802 0 00.88.176.81.81 0 00-.309-1.557zm0 21.999a.804.804 0 00-.746.5.815.815 0 00.175.882.802.802 0 00.88.176.81.81 0 00-.309-1.558zm0-33a.804.804 0 00-.746.5.815.815 0 00.175.882.809.809 0 00.88.176.81.81 0 00-.309-1.558zm0 22a.804.804 0 00-.746.5.815.815 0 00.175.882.809.809 0 00.88.176.81.81 0 00-.309-1.558zm0-33a.804.804 0 00-.746.5.811.811 0 00.588 1.104.811.811 0 00.829-.344.81.81 0 00-.671-1.26zm0-11a.804.804 0 00-.746.5.815.815 0 00.175.882.809.809 0 00.88.176.81.81 0 00-.309-1.558zm-19-33a.806.806 0 00-.746.5.815.815 0 00.175.882.808.808 0 101.142-1.144.806.806 0 00-.571-.238zm9.5 170.501a.8.8 0 00-.746.5.81.81 0 001.056 1.057.81.81 0 00-.31-1.557zm0-22.001a.807.807 0 00-.57 1.382.807.807 0 001.316-.882.802.802 0 00-.746-.5zm0-32.999a.813.813 0 00-.791.967.813.813 0 00.634.636.807.807 0 00.903-1.104.813.813 0 00-.437-.438.781.781 0 00-.309-.061zm0 10.999a.807.807 0 00-.57 1.382.807.807 0 001.316-.882.802.802 0 00-.746-.5zm0 11.001a.807.807 0 00-.57 1.382.8.8 0 00.879.175.807.807 0 00.437-1.058.813.813 0 00-.437-.438.781.781 0 00-.309-.061zm0 21.999a.81.81 0 10.309 1.558.807.807 0 00.437-1.058.813.813 0 00-.437-.438.8.8 0 00-.309-.062zM286 398.691a.814.814 0 00-.792.967.806.806 0 001.599-.158.81.81 0 00-.807-.809zm0 43.999a.806.806 0 00-.746.5.815.815 0 00.175.882.808.808 0 101.142-1.144.81.81 0 00-.571-.238zm0 11a.806.806 0 00-.746.5.811.811 0 00.588 1.104.811.811 0 00.829-.344.81.81 0 00-.671-1.26zm0-33a.806.806 0 00-.746.5.815.815 0 00.175.882.8.8 0 00.88.176.81.81 0 00-.309-1.558zm0 11.001a.805.805 0 00-.746.499.815.815 0 00.175.882.8.8 0 00.88.176.812.812 0 00.262-1.32.805.805 0 00-.571-.237zm9.5 49.5a.8.8 0 00-.746.5.81.81 0 001.056 1.057.81.81 0 00-.31-1.557zm0-55a.813.813 0 00-.791.967.813.813 0 00.634.636.807.807 0 00.903-1.104.813.813 0 00-.437-.438.781.781 0 00-.309-.061zm0 87.999a.807.807 0 00-.57 1.382.807.807 0 001.316-.882.813.813 0 00-.437-.438.8.8 0 00-.309-.062zm0-99a.807.807 0 00-.57 1.382.807.807 0 001.316-.882.813.813 0 00-.437-.438.8.8 0 00-.309-.062zm0 33.001a.807.807 0 00-.57 1.382.8.8 0 00.879.175.807.807 0 00.437-1.058.813.813 0 00-.437-.438.781.781 0 00-.309-.061zm0-44.001a.814.814 0 00-.746.5.812.812 0 00.589 1.104.808.808 0 00.728-1.367.814.814 0 00-.571-.237zm0 33a.807.807 0 00-.57 1.382.807.807 0 001.316-.882.802.802 0 00-.746-.5zm0 55a.807.807 0 00-.57 1.382.807.807 0 001.316-.882.813.813 0 00-.437-.438.8.8 0 00-.309-.062zm0 11a.814.814 0 00-.746.5.812.812 0 00.589 1.104.808.808 0 00.728-1.367.814.814 0 00-.571-.237zm0-44a.807.807 0 00-.57 1.382.807.807 0 001.316-.882.802.802 0 00-.746-.5zm0 11a.81.81 0 10.309 1.558.807.807 0 00.437-1.058.813.813 0 00-.437-.438.8.8 0 00-.309-.062zm9.5 115.5a.804.804 0 00-.746.5.815.815 0 00.175.882.809.809 0 00.88.176.81.81 0 00-.309-1.558zm19-54.999a.8.8 0 00-.746.5.81.81 0 001.056 1.057.81.81 0 00-.31-1.557zm9.5 27.499a.804.804 0 00-.746.5.815.815 0 00.175.882.809.809 0 00.88.176.81.81 0 00-.309-1.558zm0-44a.804.804 0 00-.746.5.815.815 0 00.175.882.809.809 0 00.88.176.81.81 0 00-.309-1.558zm0 33.001a.807.807 0 00-.571 1.381.802.802 0 00.88.176.81.81 0 00-.309-1.557zm0-11.001a.804.804 0 00-.746.5.815.815 0 00.175.882.809.809 0 00.88.176.81.81 0 00-.309-1.558zm0 44.001a.803.803 0 00-.746.499.815.815 0 00.175.882.8.8 0 00.88.176.812.812 0 00.262-1.32.807.807 0 00-.571-.237zm0-55a.807.807 0 00-.571 1.381.802.802 0 00.88.176.81.81 0 00-.309-1.557zm0 43.999a.804.804 0 00-.746.5.815.815 0 00.175.882.802.802 0 00.88.176.81.81 0 00-.309-1.558zM324 398.691a.807.807 0 00-.57 1.382.803.803 0 00.879.175.807.807 0 00.437-1.058.813.813 0 00-.437-.438.781.781 0 00-.309-.061zm0 43.999a.807.807 0 00-.57 1.382.798.798 0 00.879.176.807.807 0 00.437-1.058.813.813 0 00-.437-.438.8.8 0 00-.309-.062zm0 11a.814.814 0 00-.746.5.812.812 0 00.589 1.104.808.808 0 00.728-1.367.814.814 0 00-.571-.237zm0-44a.807.807 0 00-.57 1.382.798.798 0 00.879.176.814.814 0 00.499-.748.805.805 0 00-.237-.573.798.798 0 00-.571-.237zm0 22.001a.8.8 0 00-.746.5.81.81 0 001.056 1.057.81.81 0 00-.31-1.557zm9.5-5.5a.807.807 0 00-.571 1.381.802.802 0 00.88.176.81.81 0 00-.309-1.557zm0 76.999a.804.804 0 00-.746.5.811.811 0 00.588 1.104.811.811 0 00.829-.344.81.81 0 00-.671-1.26zm0-88a.804.804 0 00-.746.5.815.815 0 00.175.882.809.809 0 00.88.176.81.81 0 00-.309-1.558zm-9.5 49.5a.807.807 0 00-.57 1.382.798.798 0 00.879.176.807.807 0 00.437-1.058.813.813 0 00-.437-.438.8.8 0 00-.309-.062zm-9.5 82.501a.806.806 0 00-.792.967.806.806 0 001.599-.158.804.804 0 00-.807-.809zM286 464.69a.806.806 0 00-.746.5.815.815 0 00.175.882.808.808 0 101.142-1.144.81.81 0 00-.571-.238zm47.5-27.5a.804.804 0 00-.746.5.815.815 0 00.175.882.809.809 0 00.88.176.81.81 0 00-.309-1.558zm0 55a.804.804 0 00-.746.5.815.815 0 00.175.882.809.809 0 00.88.176.81.81 0 00-.309-1.558zm0-10.999a.803.803 0 00-.746.499.815.815 0 00.175.882.8.8 0 00.88.176.812.812 0 00.262-1.32.807.807 0 00-.571-.237zm0-22.001a.804.804 0 00-.746.5.815.815 0 00.175.882.809.809 0 00.88.176.81.81 0 00-.309-1.558zm0 11a.804.804 0 00-.746.5.815.815 0 00.175.882.802.802 0 00.88.176.81.81 0 00-.309-1.558zm0-21.999a.807.807 0 00-.571 1.381.802.802 0 00.88.176.81.81 0 00-.309-1.557zm0-44.001a.804.804 0 00-.746.5.811.811 0 00.588 1.104.811.811 0 00.829-.344.81.81 0 00-.671-1.26zm-19 55a.807.807 0 00-.792.968.814.814 0 00.635.636.808.808 0 00.728-1.367.814.814 0 00-.571-.237zm0 11a.815.815 0 00-.746.5.815.815 0 00.175.882.8.8 0 00.88.176.81.81 0 00-.309-1.558zm0-21.999a.806.806 0 00-.792.967.806.806 0 001.599-.158.814.814 0 00-.807-.809zm0-11.001a.807.807 0 00-.792.968.814.814 0 00.635.636.808.808 0 00.728-1.367.814.814 0 00-.571-.237zm0-10.999a.806.806 0 00-.792.967.806.806 0 001.599-.158.814.814 0 00-.807-.809zm0 55a.806.806 0 00-.792.967.806.806 0 001.599-.158.823.823 0 00-.236-.573.814.814 0 00-.571-.236zm0 54.999a.807.807 0 00-.792.968.814.814 0 00.635.636.808.808 0 00.728-1.367.814.814 0 00-.571-.237zm0-10.999a.806.806 0 00-.792.967.806.806 0 001.599-.158.814.814 0 00-.807-.809zm0-22.001a.807.807 0 00-.792.968.814.814 0 00.635.636.809.809 0 10.157-1.604zm0-11a.807.807 0 00-.792.968.814.814 0 00.635.636.808.808 0 00.728-1.367.814.814 0 00-.571-.237zm0 22a.807.807 0 00-.792.968.814.814 0 00.635.636.808.808 0 00.728-1.367.814.814 0 00-.571-.237zm9.5-27.5a.807.807 0 00-.57 1.382.807.807 0 001.316-.882.802.802 0 00-.746-.5zm0 55a.807.807 0 00-.57 1.382.807.807 0 001.316-.882.813.813 0 00-.437-.438.8.8 0 00-.309-.062zm0-33a.807.807 0 00-.57 1.382.807.807 0 001.316-.882.802.802 0 00-.746-.5zm0 11a.81.81 0 10.309 1.558.807.807 0 00.437-1.058.813.813 0 00-.437-.438.8.8 0 00-.309-.062zm-9.5-104.5a.807.807 0 00-.792.968.814.814 0 00.635.636.808.808 0 00.728-1.367.814.814 0 00-.571-.237zm9.5 82.501a.807.807 0 00-.57 1.382.803.803 0 00.879.175.807.807 0 00.437-1.058.813.813 0 00-.437-.438.781.781 0 00-.309-.061zm0-22a.813.813 0 00-.791.967.813.813 0 00.634.636.807.807 0 00.903-1.104.813.813 0 00-.437-.438.781.781 0 00-.309-.061zm0 76.999a.814.814 0 00-.746.5.812.812 0 00.589 1.104.808.808 0 00.728-1.367.814.814 0 00-.571-.237zm-9.5-148.5a.807.807 0 00-.792.968.814.814 0 00.635.636.809.809 0 10.157-1.604zm9.5 181.5a.807.807 0 00-.57 1.382.798.798 0 00.879.176.814.814 0 00.499-.748.805.805 0 00-.237-.573.814.814 0 00-.571-.237zm0-10.999a.813.813 0 00-.791.967.813.813 0 00.634.636.807.807 0 00.903-1.104.813.813 0 00-.437-.438.781.781 0 00-.309-.061zm0-11.001a.807.807 0 00-.57 1.382.798.798 0 00.879.176.814.814 0 00.499-.748.805.805 0 00-.237-.573.814.814 0 00-.571-.237zm0-143a.81.81 0 10.309 1.558.807.807 0 00.437-1.058.813.813 0 00-.437-.438.8.8 0 00-.309-.062zm-66.5 16.5a.806.806 0 00-.746.5.815.815 0 00.175.882.808.808 0 101.142-1.144.81.81 0 00-.571-.238zm-9.5 71.5a.806.806 0 00-.745.5.815.815 0 00.175.882.802.802 0 00.879.176.814.814 0 00.499-.748.81.81 0 00-.808-.81zm0-76.999a.805.805 0 00-.791.967.81.81 0 001.101.59.81.81 0 00-.31-1.557zm0-33a.805.805 0 00-.791.967.813.813 0 00.634.636.807.807 0 00.965-.794.806.806 0 00-.808-.809zm0 43.999a.806.806 0 00-.745.5.815.815 0 00.175.882.802.802 0 00.879.176.807.807 0 00.262-1.32.806.806 0 00-.571-.238zm9.5 137.501a.805.805 0 00-.746.499.815.815 0 00.175.882.8.8 0 00.88.176.812.812 0 00.262-1.32.805.805 0 00-.571-.237zM248 453.69a.806.806 0 00-.745.5.815.815 0 00.175.882.807.807 0 001.378-.572.806.806 0 00-.237-.572.806.806 0 00-.571-.238zm0 33a.806.806 0 00-.745.5.815.815 0 00.175.882.802.802 0 00.879.176.814.814 0 00.499-.748.81.81 0 00-.808-.81zm9.5 82.5a.806.806 0 00-.746.5.815.815 0 00.175.882.8.8 0 00.88.176.81.81 0 00-.309-1.558zm28.5-93.499a.814.814 0 00-.792.967.806.806 0 001.599-.158.81.81 0 00-.807-.809zm-38-11.001a.806.806 0 00-.745.5.815.815 0 00.175.882.802.802 0 00.879.176.807.807 0 00.499-.748.81.81 0 00-.808-.81zm0 11.001a.805.805 0 00-.791.967.813.813 0 00.634.636.807.807 0 00.965-.794.806.806 0 00-.808-.809zm0-55.001a.815.815 0 00-.745.5.815.815 0 00.175.882.802.802 0 00.879.176.807.807 0 00.262-1.32.806.806 0 00-.571-.238zm9.5 71.5a.806.806 0 00-.746.5.815.815 0 00.175.882.808.808 0 101.142-1.144.81.81 0 00-.571-.238zm0-10.999a.805.805 0 00-.746.499.815.815 0 00.175.882.8.8 0 00.88.176.812.812 0 00.262-1.32.805.805 0 00-.571-.237zm0-11.001a.806.806 0 00-.746.5.815.815 0 00.175.882.8.8 0 00.88.176.81.81 0 00-.309-1.558zm0-11a.806.806 0 00-.746.5.815.815 0 00.175.882.808.808 0 101.142-1.144.806.806 0 00-.571-.238zm0-10.999a.814.814 0 00-.792.967.806.806 0 001.599-.158.81.81 0 00-.807-.809zm0 109.999a.806.806 0 00-.746.5.815.815 0 00.175.882.808.808 0 101.142-1.144.806.806 0 00-.571-.238zm0-22a.806.806 0 00-.746.5.815.815 0 00.175.882.808.808 0 101.142-1.144.81.81 0 00-.571-.238zm0 11.001a.814.814 0 00-.792.967.806.806 0 001.599-.158.81.81 0 00-.807-.809zm0-22a.814.814 0 00-.792.967.806.806 0 001.599-.158.81.81 0 00-.807-.809zm0-11.001a.806.806 0 00-.746.5.815.815 0 00.175.882.808.808 0 101.142-1.144.81.81 0 00-.571-.238zm0-11a.806.806 0 00-.746.5.811.811 0 00.588 1.104.811.811 0 00.829-.344.81.81 0 00-.671-1.26zm-9.5-93.5a.806.806 0 00-.745.5.815.815 0 00.175.882.802.802 0 00.879.176.814.814 0 00.499-.748.81.81 0 00-.808-.81zm-9.5 93.5a.814.814 0 00-.746.5.806.806 0 00.176.882.808.808 0 00.879.176.806.806 0 00.499-.748.805.805 0 00-.237-.573.814.814 0 00-.571-.237zm0 11a.807.807 0 00-.57 1.382.798.798 0 00.879.176.814.814 0 00.499-.748.805.805 0 00-.237-.573.814.814 0 00-.571-.237zm0-32.999a.8.8 0 00-.746.5.81.81 0 001.056 1.057.81.81 0 00-.31-1.557zm0 44a.813.813 0 00-.791.967.813.813 0 00.634.636.807.807 0 00.903-1.104.813.813 0 00-.437-.438.781.781 0 00-.309-.061zm0-33.001a.807.807 0 00-.57 1.382.798.798 0 00.879.176.807.807 0 00.437-1.058.813.813 0 00-.437-.438.8.8 0 00-.309-.062zm0 77a.81.81 0 10.309 1.558.807.807 0 00.437-1.058.813.813 0 00-.437-.438.8.8 0 00-.309-.062zm0-110a.807.807 0 00-.57 1.382.798.798 0 00.879.176.814.814 0 00.499-.748.805.805 0 00-.237-.573.798.798 0 00-.571-.237zm0 121.001a.8.8 0 00-.746.5.81.81 0 001.056 1.057.81.81 0 00-.31-1.557zm0-33a.807.807 0 00-.57 1.382.803.803 0 00.879.175.807.807 0 00.437-1.058.813.813 0 00-.437-.438.781.781 0 00-.309-.061zm0-11.001a.807.807 0 00-.57 1.382.798.798 0 00.879.176.814.814 0 00.499-.748.805.805 0 00-.237-.573.814.814 0 00-.571-.237zm0 22a.807.807 0 00-.57 1.382.798.798 0 00.879.176.814.814 0 00.499-.748.805.805 0 00-.237-.573.798.798 0 00-.571-.237zm9.5-16.5a.806.806 0 00-.745.5.815.815 0 00.175.882.802.802 0 00.879.176.807.807 0 00.262-1.32.806.806 0 00-.571-.238zm0 33.001a.805.805 0 00-.791.967.813.813 0 00.634.636.807.807 0 00.965-.794.806.806 0 00-.808-.809zm0-11.001a.806.806 0 00-.745.5.815.815 0 00.175.882.802.802 0 00.879.176.814.814 0 00.499-.748.81.81 0 00-.808-.81zm0-11a.806.806 0 00-.745.5.815.815 0 00.175.882.807.807 0 001.378-.572.806.806 0 00-.237-.572.806.806 0 00-.571-.238zm0-21.999a.805.805 0 00-.791.967.81.81 0 001.101.59.81.81 0 00-.31-1.557zm-9.5-82.5a.807.807 0 00-.57 1.382.803.803 0 00.879.175.807.807 0 00.437-1.058.813.813 0 00-.437-.438.781.781 0 00-.309-.061zm9.5 71.499a.815.815 0 00-.745.5.815.815 0 00.175.882.802.802 0 00.879.176.807.807 0 00.262-1.32.806.806 0 00-.571-.238zm-9.5-93.499a.813.813 0 00-.791.967.813.813 0 00.634.636.807.807 0 00.903-1.104.813.813 0 00-.437-.438.781.781 0 00-.309-.061zm0 10.999a.807.807 0 00-.57 1.382.798.798 0 00.879.176.814.814 0 00.499-.748.805.805 0 00-.237-.573.814.814 0 00-.571-.237zm9.5 148.5a.806.806 0 00-.745.5.815.815 0 00.175.882.802.802 0 00.879.176.814.814 0 00.499-.748.81.81 0 00-.808-.81zm-9.5-181.5a.814.814 0 00-.746.5.806.806 0 00.176.882.808.808 0 00.879.176.806.806 0 00.499-.748.805.805 0 00-.237-.573.814.814 0 00-.571-.237zm0 11a.807.807 0 00-.57 1.382.798.798 0 00.879.176.814.814 0 00.499-.748.805.805 0 00-.237-.573.814.814 0 00-.571-.237zm9.5 82.501a.805.805 0 00-.791.967.813.813 0 00.634.636.807.807 0 00.965-.794.806.806 0 00-.808-.809zm28.5-49.5a.807.807 0 00-.571 1.381.802.802 0 00.88.176.81.81 0 00-.309-1.557zm0 99a.807.807 0 00-.571 1.381.802.802 0 00.88.176.81.81 0 00-.309-1.557zm0-77.001a.804.804 0 00-.746.5.815.815 0 00.175.882.802.802 0 00.88.176.81.81 0 00-.309-1.558zm0-33a.804.804 0 00-.746.5.815.815 0 00.175.882.809.809 0 00.88.176.81.81 0 00-.309-1.558zm0-10.999a.807.807 0 00-.571 1.381.802.802 0 00.88.176.81.81 0 00-.309-1.557zm0 55a.803.803 0 00-.746.499.815.815 0 00.175.882.8.8 0 00.88.176.812.812 0 00.262-1.32.807.807 0 00-.571-.237zm0 10.999a.804.804 0 00-.746.5.815.815 0 00.175.882.809.809 0 00.88.176.81.81 0 00-.309-1.558zm0 33.001a.807.807 0 00-.571 1.381.802.802 0 00.88.176.81.81 0 00-.309-1.557zm0 10.999a.804.804 0 00-.746.5.815.815 0 00.175.882.809.809 0 00.88.176.81.81 0 00-.309-1.558zm0-33a.804.804 0 00-.746.5.811.811 0 00.588 1.104.811.811 0 00.829-.344.81.81 0 00-.671-1.26zm0-88a.804.804 0 00-.746.5.815.815 0 00.175.882.809.809 0 00.88.176.81.81 0 00-.309-1.558zm0 99a.804.804 0 00-.746.5.815.815 0 00.175.882.809.809 0 00.88.176.81.81 0 00-.309-1.558zm0-55a.804.804 0 00-.746.5.815.815 0 00.175.882.809.809 0 00.88.176.81.81 0 00-.309-1.558zm0-55a.804.804 0 00-.746.5.811.811 0 00.588 1.104.811.811 0 00.829-.344.81.81 0 00-.671-1.26zm9.5 115.5a.806.806 0 00-.746.5.815.815 0 00.175.882.8.8 0 00.88.176.81.81 0 00-.309-1.558zm0 11.001a.805.805 0 00-.746.499.815.815 0 00.175.882.8.8 0 00.88.176.812.812 0 00.262-1.32.805.805 0 00-.571-.237zm0-44.001a.806.806 0 00-.746.5.815.815 0 00.175.882.808.808 0 101.142-1.144.81.81 0 00-.571-.238zm0 11.001a.814.814 0 00-.792.967.806.806 0 001.599-.158.81.81 0 00-.807-.809zm0 10.999a.806.806 0 00-.746.5.815.815 0 00.175.882.808.808 0 101.142-1.144.806.806 0 00-.571-.238zm0 33a.806.806 0 00-.746.5.815.815 0 00.175.882.808.808 0 101.142-1.144.81.81 0 00-.571-.238zm0 33.001a.814.814 0 00-.792.967.806.806 0 001.599-.158.81.81 0 00-.807-.809zm0 10.999a.806.806 0 00-.746.5.815.815 0 00.175.882.808.808 0 101.142-1.144.81.81 0 00-.571-.238zm0-33a.806.806 0 00-.746.5.811.811 0 00.588 1.104.811.811 0 00.829-.344.81.81 0 00-.671-1.26zm0 11a.806.806 0 00-.746.5.815.815 0 00.175.882.808.808 0 101.142-1.144.81.81 0 00-.571-.238zm-19-11a.814.814 0 00-.746.5.812.812 0 00.589 1.104.808.808 0 00.728-1.367.814.814 0 00-.571-.237zm0-21.999a.8.8 0 00-.746.5.81.81 0 001.056 1.057.81.81 0 00-.31-1.557zm0 10.999a.807.807 0 00-.57 1.382.807.807 0 001.316-.882.813.813 0 00-.437-.438.8.8 0 00-.309-.062zm0-43.999a.807.807 0 00-.57 1.382.8.8 0 00.879.175.807.807 0 00.437-1.058.813.813 0 00-.437-.438.781.781 0 00-.309-.061zm0 10.999a.807.807 0 00-.57 1.382.807.807 0 001.316-.882.802.802 0 00-.746-.5zm-9.5-82.499a.814.814 0 00-.792.967.806.806 0 001.599-.158.81.81 0 00-.807-.809zm9.5 93.499a.81.81 0 10.309 1.558.807.807 0 00.437-1.058.813.813 0 00-.437-.438.8.8 0 00-.309-.062zm-9.5-104.5a.806.806 0 00-.746.5.815.815 0 00.175.882.808.808 0 101.142-1.144.81.81 0 00-.571-.238zm0-11a.806.806 0 00-.746.5.811.811 0 00.588 1.104.811.811 0 00.829-.344.81.81 0 00-.671-1.26zm9.5 159.5a.807.807 0 00-.57 1.382.807.807 0 001.316-.882.813.813 0 00-.437-.438.8.8 0 00-.309-.062zm0 11.001a.813.813 0 00-.791.967.813.813 0 00.634.636.807.807 0 00.903-1.104.813.813 0 00-.437-.438.781.781 0 00-.309-.061zm0 10.999a.807.807 0 00-.57 1.382.807.807 0 001.316-.882.802.802 0 00-.746-.5zm0-165a.81.81 0 10.309 1.558.807.807 0 00.437-1.058.813.813 0 00-.437-.438.8.8 0 00-.309-.062zm9.5 137.5a.804.804 0 00-.746.5.815.815 0 00.175.882.809.809 0 00.88.176.81.81 0 00-.309-1.558zM267 398.691a.807.807 0 00-.57 1.382.8.8 0 00.879.175.807.807 0 00.437-1.058.813.813 0 00-.437-.438.781.781 0 00-.309-.061zm0 10.999a.807.807 0 00-.57 1.382.807.807 0 001.316-.882.802.802 0 00-.746-.5zm9.5 159.5a.804.804 0 00-.746.5.815.815 0 00.175.882.802.802 0 00.88.176.81.81 0 00-.309-1.558zm0 11.001a.803.803 0 00-.746.499.815.815 0 00.175.882.8.8 0 00.88.176.812.812 0 00.262-1.32.807.807 0 00-.571-.237zM267 453.69a.814.814 0 00-.746.5.812.812 0 00.589 1.104.808.808 0 00.728-1.367.814.814 0 00-.571-.237zm0 11a.807.807 0 00-.57 1.382.807.807 0 001.316-.882.813.813 0 00-.437-.438.8.8 0 00-.309-.062zm0 11.001a.813.813 0 00-.791.967.813.813 0 00.634.636.807.807 0 00.903-1.104.813.813 0 00-.437-.438.781.781 0 00-.309-.061zm0 10.999a.807.807 0 00-.57 1.382.807.807 0 001.316-.882.802.802 0 00-.746-.5zm0-44a.807.807 0 00-.57 1.382.807.807 0 001.316-.882.813.813 0 00-.437-.438.8.8 0 00-.309-.062zm0-10.999a.8.8 0 00-.746.5.81.81 0 001.056 1.057.81.81 0 00-.31-1.557zm-28.5 38.499a.81.81 0 10.309 1.558.807.807 0 00.437-1.058.813.813 0 00-.437-.438.8.8 0 00-.309-.062zm171-33a.814.814 0 00-.746.5.806.806 0 00.176.882.798.798 0 00.879.176.814.814 0 00.499-.748.805.805 0 00-.237-.573.814.814 0 00-.571-.237zm0-22a.814.814 0 00-.746.5.806.806 0 00.176.882.798.798 0 00.879.176.814.814 0 00.499-.748.805.805 0 00-.237-.573.814.814 0 00-.571-.237zm0 11.001a.8.8 0 00-.448.136.806.806 0 00-.343.831.813.813 0 00.634.636.807.807 0 00.903-1.104.813.813 0 00-.437-.438.781.781 0 00-.309-.061zm0-22.001a.814.814 0 00-.746.5.806.806 0 00.176.882.808.808 0 00.879.176.806.806 0 00.499-.748.805.805 0 00-.237-.573.814.814 0 00-.571-.237zm9.5 181.5a.804.804 0 00-.746.5.815.815 0 00.175.882.809.809 0 00.88.176.81.81 0 00-.309-1.558zm0-10.999a.807.807 0 00-.571 1.381.802.802 0 00.88.176.81.81 0 00-.309-1.557zm-9.5-126.5a.814.814 0 00-.746.499.813.813 0 00.589 1.104.807.807 0 00.903-1.104.813.813 0 00-.437-.438.781.781 0 00-.309-.061zm0 43.999a.814.814 0 00-.746.5.806.806 0 00.176.882.798.798 0 00.879.176.807.807 0 00.437-1.058.813.813 0 00-.437-.438.8.8 0 00-.309-.062zm0 11a.814.814 0 00-.746.5.806.806 0 00.176.882.808.808 0 00.879.176.806.806 0 00.499-.748.805.805 0 00-.237-.573.814.814 0 00-.571-.237zm9.5 60.5a.804.804 0 00-.746.5.815.815 0 00.175.882.809.809 0 00.88.176.81.81 0 00-.309-1.558zm0-154a.804.804 0 00-.746.5.815.815 0 00.175.882.809.809 0 00.88.176.81.81 0 00-.309-1.558zm-9.5 49.5a.814.814 0 00-.746.5.806.806 0 00.176.882.798.798 0 00.879.176.814.814 0 00.499-.748.805.805 0 00-.237-.573.798.798 0 00-.571-.237zm0 11a.81.81 0 10.309 1.558.807.807 0 00.437-1.058.813.813 0 00-.437-.438.8.8 0 00-.309-.062zm9.5 49.5a.804.804 0 00-.746.5.815.815 0 00.175.882.802.802 0 00.88.176.81.81 0 00-.309-1.558zm0-77a.804.804 0 00-.746.5.815.815 0 00.175.882.809.809 0 00.88.176.81.81 0 00-.309-1.558zm0 11a.806.806 0 00-.746.5.811.811 0 00.588 1.104.811.811 0 00.829-.344.81.81 0 00-.671-1.26zm0 11a.804.804 0 00-.746.5.815.815 0 00.175.882.809.809 0 00.88.176.81.81 0 00-.309-1.558zm0-32.999a.803.803 0 00-.746.499.815.815 0 00.175.882.8.8 0 00.88.176.812.812 0 00.262-1.32.807.807 0 00-.571-.237zm0-11.001a.804.804 0 00-.746.5.815.815 0 00.175.882.802.802 0 00.88.176.81.81 0 00-.309-1.558zm0 55.001a.807.807 0 00-.571 1.381.802.802 0 00.88.176.81.81 0 00-.309-1.557zm0 65.999a.804.804 0 00-.746.5.815.815 0 00.175.882.809.809 0 00.88.176.81.81 0 00-.309-1.558zm-9.5-27.5a.814.814 0 00-.746.5.806.806 0 00.176.882.798.798 0 00.879.176.814.814 0 00.499-.748.805.805 0 00-.237-.573.814.814 0 00-.571-.237zm9.5-27.5a.804.804 0 00-.746.5.815.815 0 00.175.882.809.809 0 00.88.176.81.81 0 00-.309-1.558zm0 66a.806.806 0 00-.746.5.811.811 0 00.588 1.104.811.811 0 00.829-.344.81.81 0 00-.671-1.26zm0-21.999a.803.803 0 00-.746.499.815.815 0 00.175.882.8.8 0 00.88.176.812.812 0 00.262-1.32.807.807 0 00-.571-.237zm0-33a.807.807 0 00-.571 1.381.802.802 0 00.88.176.81.81 0 00-.309-1.557zm0 10.999a.804.804 0 00-.746.5.815.815 0 00.175.882.809.809 0 00.88.176.81.81 0 00-.309-1.558zm-9.5-27.499a.8.8 0 00-.746.5.81.81 0 001.056 1.057.81.81 0 00-.31-1.557zM400 519.69a.815.815 0 00-.746.5.815.815 0 00.175.882.8.8 0 00.88.176.81.81 0 00-.309-1.558zm0 22a.807.807 0 00-.792.968.821.821 0 00.221.414.8.8 0 00.88.176.81.81 0 00-.309-1.558zm0-33a.807.807 0 00-.792.968.821.821 0 00.221.414.8.8 0 00.88.176.806.806 0 00.498-.748.804.804 0 00-.498-.748.8.8 0 00-.309-.062zm0 22.001a.806.806 0 00-.792.967.818.818 0 00.222.415.8.8 0 00.879.175.807.807 0 00.437-1.058.814.814 0 00-.746-.499zm0-44.001a.807.807 0 00-.792.968.821.821 0 00.221.414.8.8 0 00.88.176.806.806 0 00.498-.748.804.804 0 00-.498-.748.8.8 0 00-.309-.062zm0-10.999a.806.806 0 00-.792.967.806.806 0 001.599-.158.804.804 0 00-.807-.809zm0 22a.806.806 0 00-.792.967.806.806 0 001.599-.158.804.804 0 00-.807-.809zm-9.5-93.501a.806.806 0 00-.746.5.811.811 0 00.588 1.104.811.811 0 00.829-.344.81.81 0 00-.671-1.26zm0 11a.804.804 0 00-.746.5.815.815 0 00.175.882.809.809 0 00.88.176.81.81 0 00-.309-1.558zm9.5 170.5a.807.807 0 00-.792.968.821.821 0 00.221.414.8.8 0 00.88.176.806.806 0 00.498-.748.804.804 0 00-.498-.748.8.8 0 00-.309-.062zm0-22a.807.807 0 00-.792.968.821.821 0 00.221.414.8.8 0 00.88.176.806.806 0 00.498-.748.804.804 0 00-.498-.748.8.8 0 00-.309-.062zm0-11a.807.807 0 00-.571 1.382.809.809 0 10.571-1.382zm9.5-27.499a.8.8 0 00-.448.136.806.806 0 00-.343.831.813.813 0 00.634.636.807.807 0 00.903-1.104.813.813 0 00-.437-.438.781.781 0 00-.309-.061zm-9.5 49.5a.806.806 0 00-.792.967.806.806 0 001.599-.158.804.804 0 00-.807-.809zm9.5-5.501a.81.81 0 10.309 1.558.807.807 0 00.437-1.058.813.813 0 00-.437-.438.8.8 0 00-.309-.062zm-9.5-104.5a.807.807 0 00-.792.968.821.821 0 00.221.414.8.8 0 00.88.176.81.81 0 00-.309-1.558zm9.5 115.501a.8.8 0 00-.746.5.81.81 0 001.056 1.057.81.81 0 00-.31-1.557zm0-44.001a.814.814 0 00-.746.5.806.806 0 00.176.882.798.798 0 00.879.176.814.814 0 00.499-.748.805.805 0 00-.237-.573.814.814 0 00-.571-.237zM400 398.691a.806.806 0 00-.792.967.806.806 0 001.599-.158.804.804 0 00-.807-.809zm-9.5 27.5a.807.807 0 00-.571 1.381.802.802 0 00.88.176.81.81 0 00-.309-1.557zm19 131.999a.814.814 0 00-.746.5.806.806 0 00.176.882.798.798 0 00.879.176.814.814 0 00.499-.748.805.805 0 00-.237-.573.798.798 0 00-.571-.237zm-9.5-115.5a.807.807 0 00-.792.968.821.821 0 00.221.414.8.8 0 00.88.176.81.81 0 00-.309-1.558zm0 11a.807.807 0 00-.571 1.382.809.809 0 10.571-1.382zm0-33a.815.815 0 00-.746.5.815.815 0 00.175.882.8.8 0 00.88.176.81.81 0 00-.309-1.558zm0 11.001a.806.806 0 00-.792.967.822.822 0 00.222.415.8.8 0 00.879.175.807.807 0 00.437-1.058.814.814 0 00-.746-.499zm0-22.001a.807.807 0 00-.792.968.821.821 0 00.221.414.8.8 0 00.88.176.806.806 0 00.498-.748.804.804 0 00-.498-.748.8.8 0 00-.309-.062zm9.5 137.501a.814.814 0 00-.746.499.806.806 0 00.176.882.798.798 0 00.879.176.807.807 0 00.437-1.058.813.813 0 00-.437-.438.781.781 0 00-.309-.061zm38 33a.803.803 0 00-.746.499.815.815 0 00.175.882.8.8 0 00.88.176.812.812 0 00.262-1.32.807.807 0 00-.571-.237zm0-11.001a.804.804 0 00-.746.5.815.815 0 00.175.882.802.802 0 00.88.176.81.81 0 00-.309-1.558zm-9.5-170.5a.81.81 0 10.309 1.558.807.807 0 00.437-1.058.813.813 0 00-.437-.438.8.8 0 00-.309-.062zm9.5 137.5a.804.804 0 00-.746.5.815.815 0 00.175.882.809.809 0 00.88.176.81.81 0 00-.309-1.558zm0 11.001a.807.807 0 00-.571 1.381.802.802 0 00.88.176.81.81 0 00-.309-1.557zM438 409.69a.814.814 0 00-.746.5.806.806 0 00.176.882.798.798 0 00.879.176.814.814 0 00.499-.748.805.805 0 00-.237-.573.798.798 0 00-.571-.237zm9.5 148.5a.804.804 0 00-.746.5.815.815 0 00.175.882.809.809 0 00.88.176.817.817 0 00.498-.748.809.809 0 00-.807-.81zm-9.5-93.5a.814.814 0 00-.746.5.806.806 0 00.176.882.798.798 0 00.879.176.814.814 0 00.499-.748.805.805 0 00-.237-.573.814.814 0 00-.571-.237zm0-44a.81.81 0 10.309 1.558.807.807 0 00.437-1.058.813.813 0 00-.437-.438.8.8 0 00-.309-.062zm0 55.001a.8.8 0 00-.448.136.806.806 0 00-.343.831.813.813 0 00.634.636.807.807 0 00.903-1.104.813.813 0 00-.437-.438.781.781 0 00-.309-.061zm0-22.001a.814.814 0 00-.746.5.806.806 0 00.176.882.808.808 0 00.879.176.806.806 0 00.499-.748.805.805 0 00-.237-.573.814.814 0 00-.571-.237zm0-11a.814.814 0 00-.746.5.806.806 0 00.176.882.798.798 0 00.879.176.807.807 0 00.437-1.058.813.813 0 00-.437-.438.8.8 0 00-.309-.062zm0-10.999a.8.8 0 00-.746.5.81.81 0 001.056 1.057.81.81 0 00-.31-1.557zm9.5-16.501a.804.804 0 00-.746.5.815.815 0 00.175.882.809.809 0 00.88.176.81.81 0 00-.309-1.558zm0 22a.804.804 0 00-.746.5.815.815 0 00.175.882.809.809 0 00.88.176.81.81 0 00-.309-1.558zm0 22a.804.804 0 00-.746.5.815.815 0 00.175.882.809.809 0 00.88.176.81.81 0 00-.309-1.558zm0-11a.804.804 0 00-.746.5.815.815 0 00.175.882.802.802 0 00.88.176.81.81 0 00-.309-1.558zm0-21.999a.807.807 0 00-.571 1.381.802.802 0 00.88.176.81.81 0 00-.309-1.557zM438 486.69a.814.814 0 00-.746.5.806.806 0 00.176.882.798.798 0 00.879.176.814.814 0 00.499-.748.805.805 0 00-.237-.573.814.814 0 00-.571-.237zm9.5 38.501a.807.807 0 00-.571 1.381.802.802 0 00.88.176.81.81 0 00-.309-1.557zm0-121.001a.806.806 0 00-.746.5.811.811 0 00.588 1.104.811.811 0 00.829-.344.81.81 0 00-.671-1.26zm0 99a.806.806 0 00-.746.5.811.811 0 00.588 1.104.811.811 0 00.829-.344.81.81 0 00-.671-1.26zm0-33a.804.804 0 00-.746.5.815.815 0 00.175.882.802.802 0 00.88.176.81.81 0 00-.309-1.558zm0 44a.804.804 0 00-.746.5.815.815 0 00.175.882.809.809 0 00.88.176.81.81 0 00-.309-1.558zm0-22a.804.804 0 00-.746.5.815.815 0 00.175.882.809.809 0 00.88.176.81.81 0 00-.309-1.558zm0-10.999a.803.803 0 00-.746.499.815.815 0 00.175.882.8.8 0 00.88.176.812.812 0 00.262-1.32.807.807 0 00-.571-.237zm-19-77.001a.807.807 0 00-.792.968.814.814 0 00.635.636.809.809 0 10.157-1.604zm0 77.001a.806.806 0 00-.792.967.822.822 0 00.222.415.8.8 0 00.879.175.807.807 0 00.437-1.058.814.814 0 00-.746-.499zm0 10.999a.807.807 0 00-.792.968.821.821 0 00.221.414.8.8 0 00.88.176.81.81 0 00-.309-1.558zm0 11a.807.807 0 00-.792.968.814.814 0 00.635.636.809.809 0 10.157-1.604zm0-33a.815.815 0 00-.746.5.815.815 0 00.175.882.8.8 0 00.88.176.81.81 0 00-.309-1.558zm0-11a.807.807 0 00-.792.968.821.821 0 00.221.414.8.8 0 00.88.176.806.806 0 00.498-.748.804.804 0 00-.498-.748.8.8 0 00-.309-.062zm0 55a.807.807 0 00-.792.968.821.821 0 00.221.414.8.8 0 00.88.176.806.806 0 00.498-.748.804.804 0 00-.498-.748.8.8 0 00-.309-.062zm0 22a.807.807 0 00-.792.968.821.821 0 00.221.414.8.8 0 00.88.176.806.806 0 00.498-.748.804.804 0 00-.498-.748.8.8 0 00-.309-.062zm0 33a.815.815 0 00-.746.5.815.815 0 00.175.882.8.8 0 00.88.176.81.81 0 00-.309-1.558zm9.5-71.5a.81.81 0 10.309 1.558.807.807 0 00.437-1.058.813.813 0 00-.437-.438.8.8 0 00-.309-.062zm-9.5 60.5a.807.807 0 00-.792.968.821.821 0 00.221.414.8.8 0 00.88.176.806.806 0 00.498-.748.804.804 0 00-.498-.748.8.8 0 00-.309-.062zm0-10.999a.806.806 0 00-.792.967.821.821 0 00.221.414.8.8 0 00.88.176.81.81 0 00-.309-1.557zm0-99.001a.815.815 0 00-.746.5.815.815 0 00.175.882.8.8 0 00.88.176.81.81 0 00-.309-1.558zm0 77.001a.806.806 0 00-.792.967.806.806 0 001.599-.158.804.804 0 00-.807-.809zm0 55a.806.806 0 00-.792.967.822.822 0 00.222.415.8.8 0 00.879.175.807.807 0 00.437-1.058.814.814 0 00-.746-.499zm9.5-16.501a.807.807 0 00-.57 1.382.798.798 0 00.879.176.814.814 0 00.499-.748.805.805 0 00-.237-.573.814.814 0 00-.571-.237zm0-22a.807.807 0 00-.57 1.382.798.798 0 00.879.176.807.807 0 00.437-1.058.813.813 0 00-.437-.438.8.8 0 00-.309-.062zm0 11a.814.814 0 00-.746.5.812.812 0 00.589 1.104.808.808 0 00.728-1.367.814.814 0 00-.571-.237zm0-21.999a.8.8 0 00-.746.5.813.813 0 00.589 1.103.811.811 0 00.829-.344.82.82 0 00.074-.76.813.813 0 00-.437-.438.781.781 0 00-.309-.061zm0-11.001a.81.81 0 10.309 1.558.807.807 0 00.437-1.058.813.813 0 00-.437-.438.8.8 0 00-.309-.062zm0-11a.807.807 0 00-.57 1.382.798.798 0 00.879.176.814.814 0 00.499-.748.805.805 0 00-.237-.573.798.798 0 00-.571-.237zm-9.5-82.499a.806.806 0 00-.792.967.806.806 0 001.599-.158.804.804 0 00-.807-.809zm9.5 148.5a.8.8 0 00-.448.136.806.806 0 00-.343.831.813.813 0 00.634.636.807.807 0 00.903-1.104.813.813 0 00-.437-.438.781.781 0 00-.309-.061zm-9.5-137.501a.807.807 0 00-.792.968.821.821 0 00.221.414.8.8 0 00.88.176.806.806 0 00.498-.748.804.804 0 00-.498-.748.8.8 0 00-.309-.062zm0-22a.807.807 0 00-.792.968.821.821 0 00.221.414.8.8 0 00.88.176.81.81 0 00-.309-1.558zm9.5 170.5a.814.814 0 00-.746.5.806.806 0 00.176.882.798.798 0 00.879.176.814.814 0 00.499-.748.805.805 0 00-.237-.573.814.814 0 00-.571-.237zm-19-186.999a.807.807 0 00-.571 1.381.802.802 0 00.88.176.81.81 0 00-.309-1.557zm-57 132a.803.803 0 00-.746.499.815.815 0 00.175.882.8.8 0 00.88.176.812.812 0 00.262-1.32.807.807 0 00-.571-.237zm0 54.999a.804.804 0 00-.746.5.815.815 0 00.175.882.809.809 0 00.88.176.81.81 0 00-.309-1.558zm0-10.999a.807.807 0 00-.571 1.381.802.802 0 00.88.176.81.81 0 00-.309-1.557zm-9.5-170.501a.814.814 0 00-.746.5.812.812 0 00.589 1.104.808.808 0 00.728-1.367.814.814 0 00-.571-.237zm0 11a.807.807 0 00-.57 1.382.798.798 0 00.879.176.814.814 0 00.499-.748.805.805 0 00-.237-.573.814.814 0 00-.571-.237zm9.5 148.5a.804.804 0 00-.746.5.815.815 0 00.175.882.809.809 0 00.88.176.81.81 0 00-.309-1.558zm0-11a.804.804 0 00-.746.5.811.811 0 00.588 1.104.811.811 0 00.829-.344.81.81 0 00-.671-1.26zm-9.5-93.5a.807.807 0 00-.57 1.382.798.798 0 00.879.176.814.814 0 00.499-.748.805.805 0 00-.237-.573.798.798 0 00-.571-.237zm0-32.999a.813.813 0 00-.791.967.813.813 0 00.634.636.807.807 0 00.903-1.104.813.813 0 00-.437-.438.781.781 0 00-.309-.061zm0 43.999a.81.81 0 10.309 1.558.807.807 0 00.437-1.058.813.813 0 00-.437-.438.8.8 0 00-.309-.062zm0 11.001a.8.8 0 00-.746.5.81.81 0 001.056 1.057.81.81 0 00-.31-1.557zm9.5 60.499a.804.804 0 00-.746.5.815.815 0 00.175.882.809.809 0 00.88.176.81.81 0 00-.309-1.558zm-9.5-49.5a.807.807 0 00-.57 1.382.798.798 0 00.879.176.807.807 0 00.437-1.058.813.813 0 00-.437-.438.8.8 0 00-.309-.062zm0-55a.807.807 0 00-.57 1.382.798.798 0 00.879.176.814.814 0 00.499-.748.805.805 0 00-.237-.573.814.814 0 00-.571-.237zm0 11.001a.807.807 0 00-.57 1.382.803.803 0 00.879.175.807.807 0 00.437-1.058.813.813 0 00-.437-.438.781.781 0 00-.309-.061zm9.5-5.501a.804.804 0 00-.746.5.815.815 0 00.175.882.809.809 0 00.88.176.81.81 0 00-.309-1.558zm0-10.999a.803.803 0 00-.746.499.815.815 0 00.175.882.8.8 0 00.88.176.812.812 0 00.262-1.32.807.807 0 00-.571-.237zm0 32.999a.804.804 0 00-.746.5.815.815 0 00.175.882.809.809 0 00.88.176.81.81 0 00-.309-1.558zm0-11a.804.804 0 00-.746.5.811.811 0 00.588 1.104.811.811 0 00.829-.344.81.81 0 00-.671-1.26zm0-44a.804.804 0 00-.746.5.815.815 0 00.175.882.809.809 0 00.88.176.81.81 0 00-.309-1.558zm0 11a.804.804 0 00-.746.5.815.815 0 00.175.882.802.802 0 00.88.176.81.81 0 00-.309-1.558zm-19 165a.807.807 0 00-.792.968.814.814 0 00.635.636.808.808 0 00.728-1.367.814.814 0 00-.571-.237zm19-77a.804.804 0 00-.746.5.815.815 0 00.175.882.809.809 0 00.88.176.81.81 0 00-.309-1.558zm0-32.999a.807.807 0 00-.571 1.381.802.802 0 00.88.176.81.81 0 00-.309-1.557zm0 43.999a.804.804 0 00-.746.5.815.815 0 00.175.882.802.802 0 00.88.176.81.81 0 00-.309-1.558zm0-21.999a.807.807 0 00-.571 1.381.802.802 0 00.88.176.81.81 0 00-.309-1.557zm0-11.001a.804.804 0 00-.746.5.815.815 0 00.175.882.809.809 0 00.88.176.81.81 0 00-.309-1.558zm-9.5 60.501a.807.807 0 00-.57 1.382.803.803 0 00.879.175.807.807 0 00.437-1.058.813.813 0 00-.437-.438.781.781 0 00-.309-.061zM343 486.69a.807.807 0 00-.792.968.814.814 0 00.635.636.808.808 0 00.728-1.367.814.814 0 00-.571-.237zm0 11.001a.806.806 0 00-.792.967.806.806 0 001.599-.158.804.804 0 00-.807-.809zm0 10.999a.807.807 0 00-.792.968.814.814 0 00.635.636.808.808 0 00.728-1.367.814.814 0 00-.571-.237zm0 11a.815.815 0 00-.746.5.815.815 0 00.175.882.8.8 0 00.88.176.81.81 0 00-.309-1.558zm0-43.999a.806.806 0 00-.792.967.806.806 0 001.599-.158.804.804 0 00-.807-.809zm0-11.001a.807.807 0 00-.792.968.814.814 0 00.635.636.808.808 0 00.728-1.367.814.814 0 00-.571-.237zm0 88a.807.807 0 00-.571 1.382.809.809 0 10.571-1.382zm0-21.999a.806.806 0 00-.792.967.818.818 0 00.222.415.8.8 0 00.879.175.807.807 0 00.437-1.058.814.814 0 00-.746-.499zm0 32.999a.807.807 0 00-.792.968.814.814 0 00.635.636.808.808 0 00.728-1.367.814.814 0 00-.571-.237zm0 11.001a.806.806 0 00-.792.967.806.806 0 001.599-.158.804.804 0 00-.807-.809zm0-33.001a.807.807 0 00-.792.968.814.814 0 00.635.636.808.808 0 00.728-1.367.814.814 0 00-.571-.237zm0-88a.807.807 0 00-.571 1.382.809.809 0 10.571-1.382zm0-11a.807.807 0 00-.792.968.814.814 0 00.635.636.808.808 0 00.728-1.367.814.814 0 00-.571-.237zm9.5 126.5a.81.81 0 10.309 1.558.807.807 0 00.437-1.058.813.813 0 00-.437-.438.8.8 0 00-.309-.062zm0-33a.807.807 0 00-.57 1.382.798.798 0 00.879.176.814.814 0 00.499-.748.805.805 0 00-.237-.573.814.814 0 00-.571-.237zm0-33a.814.814 0 00-.746.5.812.812 0 00.589 1.104.808.808 0 00.728-1.367.814.814 0 00-.571-.237zm9.5-104.499a.807.807 0 00-.571 1.381.802.802 0 00.88.176.81.81 0 00-.309-1.557zm-9.5 126.5a.813.813 0 00-.791.967.813.813 0 00.634.636.807.807 0 00.903-1.104.813.813 0 00-.437-.438.781.781 0 00-.309-.061zm0-11.001a.807.807 0 00-.57 1.382.798.798 0 00.879.176.814.814 0 00.499-.748.805.805 0 00-.237-.573.814.814 0 00-.571-.237zm0 44a.807.807 0 00-.57 1.382.798.798 0 00.879.176.814.814 0 00.499-.748.805.805 0 00-.237-.573.798.798 0 00-.571-.237zM343 431.691a.806.806 0 00-.792.967.818.818 0 00.222.415.8.8 0 00.879.175.807.807 0 00.437-1.058.814.814 0 00-.746-.499zm0-11.001a.815.815 0 00-.746.5.815.815 0 00.175.882.8.8 0 00.88.176.81.81 0 00-.309-1.558zm0-11a.807.807 0 00-.792.968.814.814 0 00.635.636.808.808 0 00.728-1.367.814.814 0 00-.571-.237zm0-10.999a.806.806 0 00-.792.967.806.806 0 001.599-.158.804.804 0 00-.807-.809zm9.5 181.5a.8.8 0 00-.746.5.81.81 0 001.056 1.057.81.81 0 00-.31-1.557zm19-33a.806.806 0 00-.792.967.806.806 0 001.599-.158.804.804 0 00-.807-.809zm9.5-115.5a.8.8 0 00-.746.5.81.81 0 001.056 1.057.81.81 0 00-.31-1.557zm0-11.001a.81.81 0 10.309 1.558.807.807 0 00.437-1.058.813.813 0 00-.437-.438.8.8 0 00-.309-.062zm0 33a.814.814 0 00-.746.5.806.806 0 00.176.882.808.808 0 00.879.176.806.806 0 00.499-.748.805.805 0 00-.237-.573.814.814 0 00-.571-.237zm0-11a.814.814 0 00-.746.5.806.806 0 00.176.882.798.798 0 00.879.176.807.807 0 00.437-1.058.813.813 0 00-.437-.438.8.8 0 00-.309-.062zm0-43.999a.814.814 0 00-.746.499.813.813 0 00.589 1.104.807.807 0 00.903-1.104.813.813 0 00-.437-.438.781.781 0 00-.309-.061zm0 10.999a.814.814 0 00-.746.5.806.806 0 00.176.882.798.798 0 00.879.176.814.814 0 00.499-.748.805.805 0 00-.237-.573.798.798 0 00-.571-.237zm0 110a.81.81 0 10.309 1.558.807.807 0 00.437-1.058.813.813 0 00-.437-.438.8.8 0 00-.309-.062zm0-11a.814.814 0 00-.746.5.806.806 0 00.176.882.798.798 0 00.879.176.814.814 0 00.499-.748.805.805 0 00-.237-.573.798.798 0 00-.571-.237zm9.5 71.501a.803.803 0 00-.746.499.815.815 0 00.175.882.8.8 0 00.88.176.812.812 0 00.262-1.32.807.807 0 00-.571-.237zM381 464.69a.814.814 0 00-.746.5.806.806 0 00.176.882.798.798 0 00.879.176.807.807 0 00.437-1.058.813.813 0 00-.437-.438.8.8 0 00-.309-.062zm0 33.001a.814.814 0 00-.746.499.813.813 0 00.589 1.104.807.807 0 00.903-1.104.813.813 0 00-.437-.438.781.781 0 00-.309-.061zm0-22a.8.8 0 00-.448.136.806.806 0 00-.343.831.813.813 0 00.634.636.807.807 0 00.903-1.104.813.813 0 00-.437-.438.781.781 0 00-.309-.061zm9.5 16.499a.804.804 0 00-.746.5.815.815 0 00.175.882.809.809 0 00.88.176.81.81 0 00-.309-1.558zm0-10.999a.803.803 0 00-.746.499.815.815 0 00.175.882.8.8 0 00.88.176.812.812 0 00.262-1.32.807.807 0 00-.571-.237zm-9.5 49.5a.8.8 0 00-.746.5.81.81 0 001.056 1.057.81.81 0 00-.31-1.557zm9.5-60.501a.804.804 0 00-.746.5.815.815 0 00.175.882.802.802 0 00.88.176.81.81 0 00-.309-1.558zm0 99a.804.804 0 00-.746.5.815.815 0 00.175.882.802.802 0 00.88.176.81.81 0 00-.309-1.558zm0-66a.806.806 0 00-.746.5.811.811 0 00.588 1.104.811.811 0 00.829-.344.81.81 0 00-.671-1.26zm0-54.999a.807.807 0 00-.571 1.381.802.802 0 00.88.176.81.81 0 00-.309-1.557zm0 10.999a.804.804 0 00-.746.5.815.815 0 00.175.882.809.809 0 00.88.176.81.81 0 00-.309-1.558zm0 88.001a.807.807 0 00-.571 1.381.802.802 0 00.88.176.81.81 0 00-.309-1.557zm0 10.999a.804.804 0 00-.746.5.815.815 0 00.175.882.809.809 0 00.88.176.81.81 0 00-.309-1.558zm0-32.999a.807.807 0 00-.571 1.381.802.802 0 00.88.176.81.81 0 00-.309-1.557zm0 10.999a.804.804 0 00-.746.5.815.815 0 00.175.882.809.809 0 00.88.176.81.81 0 00-.309-1.558zm0-22a.804.804 0 00-.746.5.815.815 0 00.175.882.809.809 0 00.88.176.81.81 0 00-.309-1.558zm-9.5-27.5a.814.814 0 00-.746.5.806.806 0 00.176.882.798.798 0 00.879.176.814.814 0 00.499-.748.805.805 0 00-.237-.573.814.814 0 00-.571-.237zm-9.5-16.5a.815.815 0 00-.746.5.815.815 0 00.175.882.8.8 0 00.88.176.81.81 0 00-.309-1.558zm0 66a.807.807 0 00-.792.968.814.814 0 00.635.636.808.808 0 00.728-1.367.814.814 0 00-.571-.237zm0 22a.807.807 0 00-.792.968.814.814 0 00.635.636.808.808 0 00.728-1.367.814.814 0 00-.571-.237zm19-121a.804.804 0 00-.746.5.815.815 0 00.175.882.809.809 0 00.88.176.81.81 0 00-.309-1.558zm-19 132a.815.815 0 00-.746.5.815.815 0 00.175.882.8.8 0 00.88.176.81.81 0 00-.309-1.558zm0-110a.807.807 0 00-.792.968.814.814 0 00.635.636.808.808 0 00.728-1.367.814.814 0 00-.571-.237zm0-10.999a.806.806 0 00-.792.967.806.806 0 001.599-.158.804.804 0 00-.807-.809zm0 65.999a.807.807 0 00-.792.968.814.814 0 00.635.636.808.808 0 00.728-1.367.814.814 0 00-.571-.237zm0-11a.807.807 0 00-.571 1.382.809.809 0 10.571-1.382zm0-21.999a.806.806 0 00-.792.967.818.818 0 00.222.415.8.8 0 00.879.175.807.807 0 00.437-1.058.814.814 0 00-.746-.499zm0 10.999a.807.807 0 00-.792.968.814.814 0 00.635.636.808.808 0 00.728-1.367.814.814 0 00-.571-.237zm9.5 49.5a.814.814 0 00-.746.5.806.806 0 00.176.882.798.798 0 00.879.176.807.807 0 00.437-1.058.813.813 0 00-.437-.438.8.8 0 00-.309-.062zm-9.5-115.499a.806.806 0 00-.792.967.806.806 0 001.599-.158.804.804 0 00-.807-.809zm9.5 148.5a.8.8 0 00-.448.136.806.806 0 00-.343.831.813.813 0 00.634.636.807.807 0 00.903-1.104.813.813 0 00-.437-.438.781.781 0 00-.309-.061zm-9.5 5.5a.806.806 0 00-.792.967.818.818 0 00.222.415.8.8 0 00.879.175.807.807 0 00.437-1.058.814.814 0 00-.746-.499zm9.5 5.499a.814.814 0 00-.746.5.806.806 0 00.176.882.798.798 0 00.879.176.814.814 0 00.499-.748.805.805 0 00-.237-.573.814.814 0 00-.571-.237zm0-33a.814.814 0 00-.746.5.806.806 0 00.176.882.808.808 0 00.879.176.806.806 0 00.499-.748.805.805 0 00-.237-.573.814.814 0 00-.571-.237zm0 11a.814.814 0 00-.746.5.806.806 0 00.176.882.798.798 0 00.879.176.814.814 0 00.499-.748.805.805 0 00-.237-.573.814.814 0 00-.571-.237zm-9.5-159.5a.807.807 0 00-.571 1.382.809.809 0 10.571-1.382zm0 33a.807.807 0 00-.792.968.814.814 0 00.635.636.808.808 0 00.728-1.367.814.814 0 00-.571-.237zm0 88.001a.806.806 0 00-.792.967.806.806 0 001.599-.158.804.804 0 00-.807-.809zm0-110.001a.807.807 0 00-.792.968.814.814 0 00.635.636.808.808 0 00.728-1.367.814.814 0 00-.571-.237zM107.11 592h-3.22L1 532.432v-1.865l105.865 61.29.245.143zm-95 0L1 585.567v1.864L8.89 592h3.22zm75.755-.143L1 541.567v1.865L84.891 592h3.22l-.246-.143zm-19 0L1 552.566v1.865L65.89 592h3.22l-.245-.143zm-38 0L1 574.567v1.865L27.89 592h3.22l-.245-.143zm19 0L1 563.567v1.864L46.89 592h3.22l-.245-.143z" fill="#63D0FF"/><path d="M122.89 394h3.22L229 453.568v1.865l-105.865-61.29-.245-.143zm95 0l11.11 6.433v-1.864L221.109 394h-3.219zm-75.755.143L229 444.433v-1.865L145.109 394h-3.22l.246.143zm19 0L229 433.434v-1.865L164.109 394h-3.22l.246.143zm38 0L229 411.433v-1.865L202.11 394h-3.221l.246.143zm-19 0L229 422.433v-1.864L183.109 394h-3.219l.245.143zM1.082 442.615L229 574.568v1.864l-.082-.048L1 444.432v-1.865l.082.048zM1 431.568v1.864l227.918 131.953.082.048v-1.865L1.082 431.616 1 431.568zm0 21.999v1.866l227.918 131.951.082.048v-1.863L1.082 453.615 1 453.567zm0-32.999v1.864l227.918 131.953.082.047v-1.864L1.082 420.616 1 420.568zm0-11v1.864l227.918 131.953.082.047v-1.864L1.082 409.616 1 409.568zm0-11v1.864l227.918 131.953.082.047v-1.864L1.082 398.615 1 398.568zM228 72.31a.808.808 0 00.792-.968.808.808 0 10-1.363.73.807.807 0 00.571.237zm0 11a.807.807 0 00.792-.968.808.808 0 10-1.363.73.807.807 0 00.571.238zm0-22a.808.808 0 00.792-.968.807.807 0 10-1.538.468.815.815 0 00.437.438c.098.04.203.062.309.061zm0 44a.807.807 0 00.792-.968.814.814 0 00-.635-.636.808.808 0 00-.728 1.367.814.814 0 00.571.237zm0-11a.808.808 0 00.792-.968.807.807 0 10-1.538.468.817.817 0 00.437.438c.098.04.203.062.309.061zm0-77a.808.808 0 00.792-.968.807.807 0 10-1.538.468.816.816 0 00.437.438c.098.04.203.061.309.061zm0 11a.808.808 0 00.792-.968.807.807 0 10-1.538.468.815.815 0 00.437.438c.098.04.203.062.309.062zm0 22a.808.808 0 00.792-.968.807.807 0 10-1.538.468.815.815 0 00.437.438c.098.04.203.062.309.062zm0-11a.808.808 0 00.792-.968.807.807 0 10-1.538.468.817.817 0 00.437.438c.098.04.203.062.309.062zm0 88a.807.807 0 00.792-.968.814.814 0 00-.635-.636.808.808 0 00-.728 1.367.814.814 0 00.571.237zm0 44a.815.815 0 00.746-.5.815.815 0 00-.175-.882.8.8 0 00-.88-.176.81.81 0 00.309 1.558zm0 11a.807.807 0 00.792-.968.814.814 0 00-.635-.636.808.808 0 00-.728 1.367.798.798 0 00.571.237zm0 10.999a.806.806 0 00.792-.967.806.806 0 00-1.599.158.804.804 0 00.807.809zm0-33a.806.806 0 00.792-.967.806.806 0 00-1.599.158.8.8 0 00.236.573.814.814 0 00.571.236zm0-21.999a.807.807 0 00.792-.968.814.814 0 00-.635-.636.809.809 0 10-.157 1.604zm0 11a.807.807 0 00.792-.968.814.814 0 00-.635-.636.808.808 0 00-.728 1.367.814.814 0 00.571.237zm0-143a.807.807 0 00.792-.968.807.807 0 10-1.538.468.816.816 0 00.437.438c.098.04.203.062.309.062zm0 109.999a.806.806 0 00.792-.967.806.806 0 00-1.599.158.804.804 0 00.807.809zm-85.5 82.501a.807.807 0 00.792-.968.821.821 0 00-.221-.414.8.8 0 00-.88-.176.81.81 0 00.309 1.558zm-19 0a.804.804 0 00.746-.5.815.815 0 00-.175-.882.809.809 0 00-.88-.176.81.81 0 00.309 1.558zm-19 0a.814.814 0 00.746-.5.806.806 0 00-.176-.882.798.798 0 00-.879-.176.807.807 0 00-.437 1.058.813.813 0 00.437.438.8.8 0 00.309.062zm-95 0a.806.806 0 00.746-.5.812.812 0 00-.588-1.104.81.81 0 10-.158 1.604zm171 0a.804.804 0 00.746-.5.815.815 0 00-.175-.882.809.809 0 00-.88-.176.81.81 0 00.309 1.558zm-152 0a.806.806 0 00.746-.5.812.812 0 00-.589-1.104.81.81 0 10-.157 1.604zm171 0a.806.806 0 00.746-.5.815.815 0 00-.175-.882.808.808 0 10-1.142 1.144.81.81 0 00.571.238zm-114 0a.806.806 0 00.746-.5.813.813 0 00-.589-1.104.81.81 0 10-.157 1.604zm76 0a.807.807 0 00.57-1.382.798.798 0 00-.879-.176.807.807 0 00-.437 1.058.813.813 0 00.437.438.8.8 0 00.309.062zm-95 0a.806.806 0 00.746-.5.812.812 0 00-.588-1.104.81.81 0 10-.158 1.604zm152 0a.807.807 0 00.57-1.382.798.798 0 00-.879-.176.807.807 0 00-.437 1.058.813.813 0 00.437.438.8.8 0 00.309.062zm-171 0a.806.806 0 00.745-.5.813.813 0 00-.588-1.104.81.81 0 10-.157 1.604zM152 83.31a.803.803 0 00.746-.5.814.814 0 00-.175-.882.809.809 0 00-.88-.176.812.812 0 00-.262 1.32.807.807 0 00.571.238zm0-66a.804.804 0 00.746-.5.814.814 0 00-.175-.882.808.808 0 00-.88-.176.81.81 0 00.309 1.557zm0 33a.804.804 0 00.746-.5.814.814 0 00-.175-.882.808.808 0 00-.88-.176.81.81 0 00.309 1.558zm0-22a.803.803 0 00.746-.5.814.814 0 00-.175-.882.808.808 0 10-1.142 1.144.807.807 0 00.571.238zm0 33a.803.803 0 00.746-.5.814.814 0 00-.175-.883.807.807 0 00-1.378.573.811.811 0 00.807.81zm0 11a.803.803 0 00.746-.5.814.814 0 00-.175-.882.808.808 0 00-1.242.122.809.809 0 00.671 1.26zm0-33a.803.803 0 00.746-.5.814.814 0 00-.175-.882.808.808 0 00-1.242.122.809.809 0 00.671 1.26zm0 153.999a.807.807 0 00.571-1.381.802.802 0 00-.88-.176.81.81 0 00.309 1.557zm-9.5-181.5a.807.807 0 00.792-.967.808.808 0 10-1.363.73.805.805 0 00.571.237zM152 182.31a.804.804 0 00.746-.5.815.815 0 00-.175-.882.809.809 0 00-.88-.176.81.81 0 00.309 1.558zm-9.5-148.5a.807.807 0 00.792-.968.815.815 0 00-.635-.636.804.804 0 00-.828.344.809.809 0 00.671 1.26zm9.5 137.5a.804.804 0 00.746-.5.815.815 0 00-.175-.882.802.802 0 00-.88-.176.81.81 0 00.309 1.558zm-9.5-148.5a.807.807 0 00.792-.968.807.807 0 10-1.538.468.816.816 0 00.437.438c.098.04.203.062.309.061zm9.5 137.499a.803.803 0 00.746-.499.815.815 0 00-.175-.882.8.8 0 00-.88-.176.812.812 0 00-.262 1.32.807.807 0 00.571.237zm0-44a.807.807 0 00.571-1.381.802.802 0 00-.88-.176.81.81 0 00.309 1.557zm0-22a.803.803 0 00.746-.499.814.814 0 00-.175-.882.808.808 0 10-1.142 1.144.807.807 0 00.571.237zm0 33.001a.804.804 0 00.746-.5.815.815 0 00-.175-.882.809.809 0 00-.88-.176.81.81 0 00.309 1.558zm0-22a.804.804 0 00.746-.5.815.815 0 00-.175-.882.809.809 0 00-.88-.176.81.81 0 00.309 1.558zm0 33a.804.804 0 00.746-.5.811.811 0 00-.588-1.104.811.811 0 00-.829.344.81.81 0 00.671 1.26zm0 11a.804.804 0 00.746-.5.815.815 0 00-.175-.882.809.809 0 00-.88-.176.81.81 0 00.309 1.558zm19 33a.806.806 0 00.746-.5.815.815 0 00-.175-.882.808.808 0 10-1.142 1.144.806.806 0 00.571.238zm-9.5-170.5a.808.808 0 10-.002-1.617.808.808 0 00.002 1.616zm0 22a.808.808 0 10-.002-1.617.808.808 0 00.002 1.617zm0 33a.808.808 0 10-.002-1.617.808.808 0 00.002 1.617zm0-11a.802.802 0 00.746-.5.808.808 0 00-1.418-.76.817.817 0 00-.074.76.8.8 0 00.437.438c.098.04.203.062.309.062zm0-11a.808.808 0 10-.002-1.617.808.808 0 00.002 1.616zm0-22a.802.802 0 00.746-.5.808.808 0 00-1.418-.76.817.817 0 00-.074.76.8.8 0 00.437.438c.098.04.203.062.309.061zm9.5 170.499a.814.814 0 00.792-.967.806.806 0 00-1.599.158.81.81 0 00.807.809zm0-43.999a.806.806 0 00.746-.5.815.815 0 00-.175-.882.808.808 0 10-1.142 1.144.81.81 0 00.571.238zm0-11a.806.806 0 00.746-.5.811.811 0 00-.588-1.104.811.811 0 00-.829.344.81.81 0 00.671 1.26zm0 33a.806.806 0 00.746-.5.815.815 0 00-.175-.882.8.8 0 00-.88-.176.81.81 0 00.309 1.558zm0-11.001a.805.805 0 00.746-.499.815.815 0 00-.175-.882.8.8 0 00-.88-.176.812.812 0 00-.262 1.32.805.805 0 00.571.237zm-9.5-49.5a.8.8 0 00.746-.5.81.81 0 00-1.056-1.057.81.81 0 00.31 1.557zm0 55a.813.813 0 00.791-.967.813.813 0 00-.634-.636.807.807 0 00-.903 1.104.813.813 0 00.437.438.781.781 0 00.309.061zm0-88a.809.809 0 10-.002-1.618.809.809 0 00.002 1.619zm0 99.001a.807.807 0 00.57-1.382.798.798 0 00-.879-.176.807.807 0 00-.437 1.058.813.813 0 00.437.438.8.8 0 00.309.062zm0-33.001a.807.807 0 00.57-1.382.8.8 0 00-.879-.175.807.807 0 00-.437 1.058.813.813 0 00.437.438.781.781 0 00.309.061zm0 44.001a.814.814 0 00.746-.5.806.806 0 00-.176-.882.808.808 0 00-.879-.176.806.806 0 00-.499.748.805.805 0 00.237.573.814.814 0 00.571.237zm0-33a.807.807 0 00.57-1.382.807.807 0 00-1.316.882.802.802 0 00.746.5zm0-55a.809.809 0 10-.002-1.618.809.809 0 00.002 1.617zm0-11a.803.803 0 00.746-.5.814.814 0 00-.175-.882.807.807 0 00-1.317.882.8.8 0 00.437.438c.098.04.203.062.309.062zm0 44a.807.807 0 00.57-1.382.807.807 0 00-1.316.882.802.802 0 00.746.5zm0-11a.81.81 0 10-.309-1.558.807.807 0 00-.437 1.058.813.813 0 00.437.438.8.8 0 00.309.062zM152 6.31a.803.803 0 00.746-.5.814.814 0 00-.175-.882.808.808 0 00-1.242.122.809.809 0 00.671 1.26zm-19 55a.808.808 0 10-.002-1.617.808.808 0 00.002 1.616zm-9.5-27.5a.803.803 0 00.746-.5.814.814 0 00-.175-.882.808.808 0 00-1.242.122.809.809 0 00.671 1.26zm0 44a.804.804 0 00.746-.5.814.814 0 00-.175-.882.808.808 0 10-1.142 1.144.807.807 0 00.571.238zm0-33a.804.804 0 00.746-.5.814.814 0 00-.175-.882.808.808 0 00-.88-.176.81.81 0 00.309 1.557zm0 11a.803.803 0 00.746-.5.814.814 0 00-.175-.882.808.808 0 00-1.242.122.81.81 0 00.671 1.26zm0-44a.803.803 0 00.746-.5.814.814 0 00-.175-.883.808.808 0 10-1.142 1.145.808.808 0 00.571.237zm0 55a.804.804 0 00.746-.5.814.814 0 00-.175-.882.809.809 0 00-.88-.176.81.81 0 00.309 1.558zm0-44a.803.803 0 00.746-.5.814.814 0 00-.175-.882.809.809 0 00-.88-.176.811.811 0 00.309 1.558zm9.5 170.499a.814.814 0 00.746-.499.813.813 0 00-.589-1.104.807.807 0 00-.903 1.104.813.813 0 00.437.438.781.781 0 00.309.061zm0-43.999a.81.81 0 10-.309-1.558.807.807 0 00-.437 1.058.813.813 0 00.437.438.8.8 0 00.309.062zm0-11a.814.814 0 00.746-.5.806.806 0 00-.176-.882.808.808 0 00-.879-.176.81.81 0 00.309 1.558zm0 44a.814.814 0 00.746-.5.806.806 0 00-.176-.882.798.798 0 00-.879-.176.814.814 0 00-.499.748.805.805 0 00.237.573.798.798 0 00.571.237zm0-22.001a.8.8 0 00.746-.5.81.81 0 00-1.056-1.057.81.81 0 00.31 1.557zm-9.5 5.5a.807.807 0 00.571-1.381.802.802 0 00-.88-.176.81.81 0 00.309 1.557zm0-77a.803.803 0 00.746-.499.814.814 0 00-.175-.882.808.808 0 00-1.242.122.809.809 0 00.671 1.26zm0 88.001a.804.804 0 00.746-.5.815.815 0 00-.175-.882.809.809 0 00-.88-.176.81.81 0 00.309 1.558zm9.5-49.5a.807.807 0 00.57-1.382.798.798 0 00-.879-.176.807.807 0 00-.437 1.058.813.813 0 00.437.438.8.8 0 00.309.062zm9.5-82.5a.808.808 0 00.792-.968.807.807 0 10-1.538.468.817.817 0 00.437.438c.098.04.203.062.309.062zm28.5 82.5a.806.806 0 00.746-.5.815.815 0 00-.175-.882.808.808 0 10-1.142 1.144.81.81 0 00.571.238zm-47.5 27.5a.804.804 0 00.746-.5.815.815 0 00-.175-.882.809.809 0 00-.88-.176.81.81 0 00.309 1.558zm0-55a.803.803 0 00.746-.5.814.814 0 00-.175-.882.809.809 0 00-.88-.176.812.812 0 00-.262 1.32.807.807 0 00.571.237zm0 10.999a.803.803 0 00.746-.499.815.815 0 00-.175-.883.806.806 0 00-1.378.573.809.809 0 00.807.809zm0 22.001a.804.804 0 00.746-.5.815.815 0 00-.175-.882.809.809 0 00-.88-.176.81.81 0 00.309 1.558zm0-11a.804.804 0 00.746-.5.815.815 0 00-.175-.882.802.802 0 00-.88-.176.81.81 0 00.309 1.558zm0 21.999a.807.807 0 00.571-1.381.802.802 0 00-.88-.176.81.81 0 00.309 1.557zm0 44.001a.806.806 0 00.746-.5.811.811 0 00-.588-1.104.811.811 0 00-.829.344.81.81 0 00.671 1.26zm19-55a.807.807 0 00.792-.968.814.814 0 00-.635-.636.808.808 0 00-.728 1.367.814.814 0 00.571.237zm0-11a.815.815 0 00.746-.5.815.815 0 00-.175-.882.8.8 0 00-.88-.176.81.81 0 00.309 1.558zm0 21.999a.806.806 0 00.792-.967.806.806 0 00-1.599.158.804.804 0 00.807.809zm0 11.001a.807.807 0 00.792-.968.814.814 0 00-.635-.636.808.808 0 00-.728 1.367.814.814 0 00.571.237zm0 10.999a.806.806 0 00.792-.967.806.806 0 00-1.599.158.804.804 0 00.807.809zm0-55a.806.806 0 00.792-.967.806.806 0 00-1.599.158.823.823 0 00.236.573.814.814 0 00.571.236zm0-55a.808.808 0 00.792-.967.807.807 0 10-1.538.468.816.816 0 00.437.438c.098.04.203.062.309.062zm0 11a.808.808 0 00.792-.967.807.807 0 10-1.538.468.816.816 0 00.437.438c.098.04.203.061.309.061zm0 22a.808.808 0 10-.001-1.616.808.808 0 00.001 1.617zm0 11a.807.807 0 00.792-.967.815.815 0 00-.635-.636.804.804 0 00-.828.344.809.809 0 00.671 1.26zm0-22a.808.808 0 00.792-.967.807.807 0 10-1.538.468.815.815 0 00.437.438c.098.04.203.062.309.062zM133 105.31a.807.807 0 00.57-1.382.807.807 0 00-1.316.882.813.813 0 00.437.438.8.8 0 00.309.062zm0-55a.809.809 0 10-.002-1.618.809.809 0 00.002 1.617zm0 33a.808.808 0 10-.002-1.617.808.808 0 00.002 1.617zm0-11a.802.802 0 00.746-.5.808.808 0 00-1.418-.76.817.817 0 00-.074.76.8.8 0 00.437.438c.098.04.203.062.309.061zm9.5 104.5a.807.807 0 00.792-.968.821.821 0 00-.221-.414.8.8 0 00-.88-.176.81.81 0 00.309 1.558zm-9.5-82.5a.808.808 0 10-.002-1.617.808.808 0 00.002 1.617zm0 21.999a.813.813 0 00.791-.967.813.813 0 00-.634-.636.807.807 0 00-.903 1.104.813.813 0 00.437.438.781.781 0 00.309.061zm0-77a.815.815 0 00.746-.5.814.814 0 00-.175-.882.807.807 0 00-1.317.883.8.8 0 00.437.438c.098.04.203.062.309.062zm9.5 148.501a.807.807 0 00.571-1.382.809.809 0 10-.571 1.382zM133 6.31a.809.809 0 10-.002-1.618A.809.809 0 00133 6.31zm0 11a.809.809 0 10-.002-1.618.809.809 0 00.002 1.618zm0 11a.809.809 0 10-.002-1.618.809.809 0 00.002 1.618zm0 143a.81.81 0 10-.309-1.558.807.807 0 00-.437 1.058.813.813 0 00.437.438.8.8 0 00.309.062zm66.5-16.5a.806.806 0 00.746-.5.815.815 0 00-.175-.882.808.808 0 10-1.142 1.144.81.81 0 00.571.238zm9.5-71.5a.806.806 0 00.791-.968.808.808 0 00-1.463-.292.809.809 0 00.672 1.26zm0 76.999a.805.805 0 00.791-.967.81.81 0 00-1.101-.59.81.81 0 00.31 1.557zm0 33a.805.805 0 00.791-.967.813.813 0 00-.634-.636.807.807 0 00-.965.794.806.806 0 00.808.809zm0-43.999a.806.806 0 00.745-.5.815.815 0 00-.175-.882.802.802 0 00-.879-.176.807.807 0 00-.262 1.32.806.806 0 00.571.238zm-9.5-137.5a.806.806 0 00.746-.5.814.814 0 00-.175-.883.808.808 0 10-1.142 1.145.807.807 0 00.571.237zm9.5 126.5a.806.806 0 00.745-.5.815.815 0 00-.175-.882.807.807 0 00-1.378.572c0 .215.085.421.237.572a.806.806 0 00.571.238zm0-33a.806.806 0 00.745-.5.815.815 0 00-.175-.882.802.802 0 00-.879-.176.814.814 0 00-.499.748.81.81 0 00.808.81zm-9.5-82.5a.805.805 0 00.746-.5.814.814 0 00-.175-.882.808.808 0 10-1.142 1.144.807.807 0 00.571.238zM171 116.308a.814.814 0 00.792-.967.806.806 0 00-1.599.158.81.81 0 00.807.809zm38 11.001a.806.806 0 00.745-.5.815.815 0 00-.175-.882.802.802 0 00-.879-.176.807.807 0 00-.499.748.81.81 0 00.808.81zm0-11.001a.805.805 0 00.791-.967.813.813 0 00-.634-.636.807.807 0 00-.965.794.806.806 0 00.808.809zm0 55.001a.815.815 0 00.745-.5.815.815 0 00-.175-.882.802.802 0 00-.879-.176.807.807 0 00-.262 1.32.806.806 0 00.571.238zm-9.5-71.5a.807.807 0 00.792-.968.809.809 0 00-1.463-.292.809.809 0 00.671 1.26zm0 10.999a.805.805 0 00.746-.499.815.815 0 00-.175-.882.8.8 0 00-.88-.176.812.812 0 00-.262 1.32.805.805 0 00.571.237zm0 11.001a.806.806 0 00.746-.5.815.815 0 00-.175-.882.8.8 0 00-.88-.176.81.81 0 00.309 1.558zm0 11a.806.806 0 00.746-.5.815.815 0 00-.175-.882.808.808 0 10-1.142 1.144.806.806 0 00.571.238zm0 10.999a.814.814 0 00.792-.967.806.806 0 00-1.599.158.81.81 0 00.807.809zm0-110a.806.806 0 00.746-.499.814.814 0 00-.175-.882.808.808 0 10-1.142 1.144.807.807 0 00.571.238zm0 22a.806.806 0 00.746-.499.814.814 0 00-.175-.882.807.807 0 10-1.142 1.144.807.807 0 00.571.238zm0-11a.806.806 0 00.746-.499.814.814 0 00-.175-.882.807.807 0 10-1.142 1.144.807.807 0 00.571.237zm0 22a.807.807 0 00.792-.967.809.809 0 00-1.463-.292.809.809 0 00.671 1.26zm0 11a.807.807 0 00.792-.967.809.809 0 00-1.463-.292.809.809 0 00.671 1.26zm0 11a.806.806 0 00.746-.499.813.813 0 00-.175-.882.808.808 0 00-1.242.122.809.809 0 00.671 1.26zm9.5 93.501a.806.806 0 00.745-.5.815.815 0 00-.175-.882.802.802 0 00-.879-.176.814.814 0 00-.499.748.81.81 0 00.808.81zm9.5-93.5a.815.815 0 00.746-.5.814.814 0 00-.175-.882.807.807 0 00-1.317.882.8.8 0 00.437.438c.098.04.203.062.309.062zm0-11a.808.808 0 10-.002-1.617.808.808 0 00.002 1.617zm0 32.999a.8.8 0 00.746-.5.81.81 0 00-.589-1.103.807.807 0 00-.903 1.104.813.813 0 00.437.438.781.781 0 00.309.061zm0-44a.809.809 0 10-.002-1.618.809.809 0 00.002 1.618zm0 33a.809.809 0 10-.002-1.618.809.809 0 00.002 1.619zm0-77a.802.802 0 00.746-.5.808.808 0 00-1.418-.76.817.817 0 00-.074.76.8.8 0 00.437.439c.098.04.203.062.309.061zm0 110.001a.807.807 0 00.57-1.382.807.807 0 00-1.316.882.802.802 0 00.746.5zm0-121a.808.808 0 10-.002-1.617.808.808 0 00.002 1.616zm0 33a.808.808 0 10-.002-1.617.808.808 0 00.002 1.616zm0 11a.802.802 0 00.746-.5.808.808 0 00-1.418-.76.817.817 0 00-.074.76.8.8 0 00.437.438c.098.04.203.062.309.062zm0-22a.808.808 0 10-.002-1.617.808.808 0 00.002 1.617zm-9.5 16.5a.807.807 0 00.791-.968.808.808 0 00-1.463-.292.809.809 0 00.672 1.26zm0-33a.807.807 0 00.791-.968.808.808 0 00-1.463-.292.809.809 0 00.672 1.26zm0 11a.807.807 0 00.791-.968.808.808 0 00-1.463-.292.809.809 0 00.672 1.26zm0 11a.807.807 0 00.791-.968.808.808 0 00-1.463-.292.809.809 0 00.672 1.26zm0 22a.806.806 0 00.791-.968.808.808 0 10-1.362.73.805.805 0 00.571.237zm9.5 82.499a.807.807 0 00.57-1.382.8.8 0 00-.879-.175.807.807 0 00-.437 1.058.813.813 0 00.437.438.781.781 0 00.309.061zm-9.5-71.5a.807.807 0 00.791-.967.808.808 0 00-1.463-.292.809.809 0 00.672 1.26zm9.5 93.5a.813.813 0 00.791-.967.813.813 0 00-.634-.636.807.807 0 00-.903 1.104.813.813 0 00.437.438.781.781 0 00.309.061zm0-10.999a.807.807 0 00.57-1.382.807.807 0 00-1.316.882.802.802 0 00.746.5zM209 6.31a.807.807 0 00.791-.968.808.808 0 00-1.463-.292.809.809 0 00.672 1.26zm9.5 181.5a.814.814 0 00.746-.5.806.806 0 00-.176-.882.808.808 0 00-.879-.176.806.806 0 00-.499.748.805.805 0 00.237.573.814.814 0 00.571.237zm0-11a.807.807 0 00.57-1.382.798.798 0 00-.879-.176.814.814 0 00-.499.748.805.805 0 00.237.573.814.814 0 00.571.237zm-9.5-82.5a.807.807 0 00.791-.968.808.808 0 00-1.463-.292.809.809 0 00.672 1.26zm-28.5 49.499a.807.807 0 00.571-1.381.802.802 0 00-.88-.176.81.81 0 00.309 1.557zm0-99a.803.803 0 00.746-.499.814.814 0 00-.175-.882.808.808 0 10-1.142 1.144.807.807 0 00.571.237zm0 77.001a.804.804 0 00.746-.5.815.815 0 00-.175-.882.802.802 0 00-.88-.176.81.81 0 00.309 1.558zm0 33a.804.804 0 00.746-.5.815.815 0 00-.175-.882.809.809 0 00-.88-.176.81.81 0 00.309 1.558zm0 10.999a.807.807 0 00.571-1.381.802.802 0 00-.88-.176.81.81 0 00.309 1.557zm0-55a.803.803 0 00.746-.499.815.815 0 00-.175-.882.8.8 0 00-.88-.176.812.812 0 00-.262 1.32.807.807 0 00.571.237zm0-11a.804.804 0 00.746-.499.814.814 0 00-.175-.882.809.809 0 00-.88-.176.812.812 0 00-.262 1.32.807.807 0 00.571.238zm0-33a.804.804 0 00.746-.5.814.814 0 00-.175-.881.808.808 0 00-.88-.176.81.81 0 00.309 1.558zm0-11a.803.803 0 00.746-.499.814.814 0 00-.175-.882.808.808 0 00-1.242.122.81.81 0 00.671 1.26zm0 33a.803.803 0 00.746-.499.814.814 0 00-.175-.882.808.808 0 00-1.242.122.809.809 0 00.671 1.26zm0 88.001a.804.804 0 00.746-.5.815.815 0 00-.175-.882.809.809 0 00-.88-.176.81.81 0 00.309 1.558zm0-99a.804.804 0 00.746-.5.814.814 0 00-.175-.882.808.808 0 10-1.142 1.144.807.807 0 00.571.238zm0 55a.804.804 0 00.746-.5.815.815 0 00-.175-.882.809.809 0 00-.88-.176.81.81 0 00.309 1.558zm0 55a.804.804 0 00.746-.5.811.811 0 00-.588-1.104.811.811 0 00-.829.344.81.81 0 00.671 1.26zM171 72.31a.806.806 0 00.746-.5.814.814 0 00-.175-.882.808.808 0 10-1.142 1.144.807.807 0 00.571.237zm0-11a.806.806 0 00.746-.5.814.814 0 00-.175-.883.808.808 0 10-1.142 1.145.807.807 0 00.571.237zm0 44a.806.806 0 00.746-.5.815.815 0 00-.175-.882.808.808 0 10-1.142 1.144.81.81 0 00.571.238zm0-11a.807.807 0 00.792-.968.809.809 0 00-1.463-.292.809.809 0 00.671 1.26zm0-11a.806.806 0 00.746-.5.814.814 0 00-.175-.882.808.808 0 10-1.142 1.144.807.807 0 00.571.238zm0-33a.807.807 0 00.792-.968.81.81 0 00-1.101-.59.809.809 0 00.309 1.558zm0-33a.807.807 0 00.792-.968.809.809 0 00-1.463-.292.809.809 0 00.671 1.26zm0-11a.806.806 0 00.746-.5.814.814 0 00-.175-.882.807.807 0 10-1.142 1.144.807.807 0 00.571.238zm0 33a.806.806 0 00.746-.5.814.814 0 00-.175-.882.808.808 0 00-1.242.122.809.809 0 00.671 1.26zm0-11a.807.807 0 00.792-.968.809.809 0 00-1.463-.292.809.809 0 00.671 1.26zm19 11a.815.815 0 00.746-.5.814.814 0 00-.175-.882.807.807 0 00-1.317.882.8.8 0 00.437.438c.098.04.203.062.309.062zm0 22a.808.808 0 10-.002-1.617.808.808 0 00.002 1.616zm0-11a.809.809 0 10-.002-1.618.809.809 0 00.002 1.618zm0 44a.808.808 0 10-.002-1.617.808.808 0 00.002 1.617zm0-11a.808.808 0 10-.002-1.617.808.808 0 00.002 1.617zm9.5 82.499a.814.814 0 00.792-.967.806.806 0 00-1.599.158.81.81 0 00.807.809zm-9.5-93.5a.809.809 0 10-.808-.81.804.804 0 00.237.574.807.807 0 00.571.237zm9.5 104.501a.806.806 0 00.746-.5.815.815 0 00-.175-.882.808.808 0 10-1.142 1.144.81.81 0 00.571.238zm0 11a.806.806 0 00.746-.5.811.811 0 00-.588-1.104.811.811 0 00-.829.344.81.81 0 00.671 1.26zM190 28.31a.809.809 0 10-.002-1.618.809.809 0 00.002 1.618zm0-11a.809.809 0 10-.002-1.618.809.809 0 00.002 1.618zm0-11a.809.809 0 10-.002-1.618A.809.809 0 00190 6.31zm0 165a.81.81 0 10-.309-1.558.807.807 0 00-.437 1.058.813.813 0 00.437.438.8.8 0 00.309.062zm-9.5-137.5a.803.803 0 00.746-.5.814.814 0 00-.175-.882.809.809 0 00-.88-.176.811.811 0 00.309 1.558zm9.5 159.499a.807.807 0 00.57-1.382.803.803 0 00-.879-.175.807.807 0 00-.437 1.058.813.813 0 00.437.438.781.781 0 00.309.061zm0-10.999a.807.807 0 00.57-1.382.798.798 0 00-.879-.176.814.814 0 00-.499.748.805.805 0 00.237.573.798.798 0 00.571.237zm-9.5-159.5a.803.803 0 00.746-.5.814.814 0 00-.175-.882.809.809 0 00-.88-.176.811.811 0 00.309 1.558zm0-11a.803.803 0 00.746-.5.814.814 0 00-.175-.883.808.808 0 10-1.142 1.145.808.808 0 00.571.237zm9.5 126.5a.814.814 0 00.746-.5.812.812 0 00-.589-1.104.808.808 0 00-.728 1.367.814.814 0 00.571.237zm0-11a.807.807 0 00.57-1.382.807.807 0 00-1.316.882.813.813 0 00.437.438.8.8 0 00.309.062zm0-11.001a.813.813 0 00.791-.967.813.813 0 00-.634-.636.807.807 0 00-.903 1.104.813.813 0 00.437.438.781.781 0 00.309.061zm0-10.999a.807.807 0 00.57-1.382.807.807 0 00-1.316.882.802.802 0 00.746.5zm0 44a.81.81 0 10-.309-1.558.807.807 0 00-.437 1.058.813.813 0 00.437.438.8.8 0 00.309.062zm0 10.999a.8.8 0 00.746-.5.81.81 0 00-1.056-1.057.81.81 0 00.31 1.557zm28.5-38.499a.81.81 0 10-.309-1.558.807.807 0 00-.437 1.058.813.813 0 00.437.438.8.8 0 00.309.062zm-171 33a.806.806 0 00.745-.5.813.813 0 00-.588-1.104.81.81 0 10-.157 1.604zm0 22a.806.806 0 00.745-.5.813.813 0 00-.588-1.104.81.81 0 10-.157 1.604zm0-11.001a.805.805 0 00.745-.499.813.813 0 00-.588-1.104.81.81 0 10-.157 1.603zm0 22.001a.806.806 0 00.745-.5.812.812 0 00-.588-1.104.81.81 0 10-.157 1.604zM38 6.31a.806.806 0 00.746-.5.812.812 0 00-.588-1.104.805.805 0 00-.965.794.811.811 0 00.807.81zm0 11a.805.805 0 00.746-.5.812.812 0 00-.588-1.104.806.806 0 00-.965.794.811.811 0 00.807.81zm9.5 126.499a.804.804 0 00.745-.499.813.813 0 00-.588-1.104.81.81 0 10-.157 1.603zm0-44a.805.805 0 00.745-.5.812.812 0 00-.588-1.103.805.805 0 00-.965.794.81.81 0 00.808.81zm0-11a.806.806 0 00.791-.967.81.81 0 00-.634-.636.804.804 0 00-.828.344.81.81 0 00.67 1.26zM38 28.31a.806.806 0 00.792-.967.81.81 0 00-1.1-.59.807.807 0 00-.5.748.811.811 0 00.808.81zm0 154.001a.806.806 0 00.746-.5.812.812 0 00-.588-1.104.81.81 0 10-.158 1.604zm9.5-49.5a.805.805 0 00.745-.5.813.813 0 00-.588-1.104.81.81 0 10-.157 1.604zm0-11a.813.813 0 00.745-.5.813.813 0 00-.588-1.104.809.809 0 10-.157 1.604zM38 72.31a.806.806 0 00.746-.5.812.812 0 00-.588-1.104.805.805 0 00-.83.344.812.812 0 00.672 1.26zm0 77a.806.806 0 00.746-.5.812.812 0 00-.588-1.104.81.81 0 10-.158 1.604zm0-11a.806.806 0 00.746-.5.809.809 0 00-1.417-.76.813.813 0 00.1 1.022.806.806 0 00.57.238zm0-11a.806.806 0 00.746-.5.812.812 0 00-.588-1.104.81.81 0 10-.158 1.604zm0 32.999a.805.805 0 00.792-.967.806.806 0 00-1.6.158.808.808 0 00.808.809zm0 11.001a.806.806 0 00.746-.5.812.812 0 00-.588-1.104.81.81 0 10-.158 1.604zm0-55.001a.809.809 0 10-.67-1.259.812.812 0 00.1 1.022.805.805 0 00.57.237zm0-66a.805.805 0 00.746-.499.812.812 0 00-.588-1.104.806.806 0 00-.965.794.811.811 0 00.807.81zm9.5 27.5a.806.806 0 00.745-.5.811.811 0 00-.588-1.103.805.805 0 00-.965.794.81.81 0 00.808.81zM38 105.31a.806.806 0 00.746-.5.813.813 0 00-.175-.882.807.807 0 10-1.142 1.144.81.81 0 00.57.238zm0-66a.806.806 0 00.746-.5.811.811 0 00-.588-1.104.806.806 0 00-.965.794.812.812 0 00.807.81zm0 22a.806.806 0 00.792-.968.81.81 0 00-1.101-.59.808.808 0 00-.498.748.81.81 0 00.807.81zm0 33a.806.806 0 00.792-.968.81.81 0 00-1.1-.59.807.807 0 00-.5.748.811.811 0 00.808.81zm0-11a.805.805 0 00.746-.5.812.812 0 00-.588-1.104.805.805 0 00-.83.344.811.811 0 00.672 1.26zm9.5 27.499a.805.805 0 00.791-.967.812.812 0 00-.634-.636.81.81 0 10-.157 1.603zm9.5-38.5a.806.806 0 00.792-.967.81.81 0 00-.635-.636.805.805 0 00-.964.794.811.811 0 00.807.81zm0-22a.805.805 0 00.746-.5.81.81 0 00-.589-1.103.805.805 0 00-.964.794.811.811 0 00.807.81zm0 33a.805.805 0 00.746-.5.812.812 0 00-.589-1.103.804.804 0 00-.828.344.81.81 0 00.671 1.26zm0-22a.806.806 0 00.746-.5.811.811 0 00-.589-1.103.805.805 0 00-.964.794.81.81 0 00.807.81zm0 44.001a.806.806 0 00.746-.5.813.813 0 00-.589-1.104.81.81 0 10-.157 1.604zm0 10.999a.805.805 0 00.746-.499.813.813 0 00-.589-1.104.81.81 0 10-.157 1.603zm0-22a.806.806 0 00.792-.967.81.81 0 00-.635-.636.805.805 0 00-.964.794.811.811 0 00.807.81zm9.5 93.501a.806.806 0 00.746-.5.809.809 0 00-1.417-.76.813.813 0 00.1 1.022.806.806 0 00.57.238zm0-11a.806.806 0 00.746-.5.812.812 0 00-.588-1.104.81.81 0 10-.158 1.604zM57 6.31a.806.806 0 00.746-.5.811.811 0 00-.589-1.104.805.805 0 00-.964.794.811.811 0 00.807.81zm0 22a.806.806 0 00.792-.968.81.81 0 00-.635-.636.805.805 0 00-.964.794.811.811 0 00.807.81zm0 11a.807.807 0 00.792-.968.811.811 0 00-.635-.636.804.804 0 00-.828.344.81.81 0 00.671 1.26zm-9.5 27.5a.805.805 0 00.745-.5.81.81 0 00-.588-1.104.805.805 0 00-.965.794.81.81 0 00.808.81zm9.5-49.5a.805.805 0 00.746-.5.811.811 0 00-.589-1.104.805.805 0 00-.964.794.811.811 0 00.807.81zm-9.5 5.5a.806.806 0 00.745-.5.811.811 0 00-.588-1.104.805.805 0 00-.965.794.812.812 0 00.808.81zm9.5 104.5a.806.806 0 00.746-.5.813.813 0 00-.589-1.104.81.81 0 10-.157 1.604zm-9.5-115.5a.806.806 0 00.791-.968.81.81 0 00-.634-.636.805.805 0 00-.965.794.81.81 0 00.808.81zm0 44a.805.805 0 00.745-.5.811.811 0 00-.588-1.104.806.806 0 00-.965.794.81.81 0 00.808.81zM57 193.309a.805.805 0 00.746-.499.813.813 0 00-.589-1.104.81.81 0 10-.157 1.603zm9.5-27.5a.808.808 0 00.571-1.381.8.8 0 00-.88-.176.807.807 0 00-.498.748.81.81 0 00.807.809zm-19-132a.805.805 0 00.745-.5.811.811 0 00-.588-1.103.804.804 0 00-.829.344.81.81 0 00.672 1.26zM57 149.31a.806.806 0 00.746-.5.813.813 0 00-.589-1.104.81.81 0 10-.157 1.604zm0-11a.806.806 0 00.746-.5.813.813 0 00-.589-1.104.81.81 0 10-.157 1.604zm0 33a.814.814 0 00.746-.5.813.813 0 00-.589-1.104.81.81 0 10-.157 1.604zm0-11.001a.805.805 0 00.746-.5.808.808 0 10-.746.5zm0 22.001a.806.806 0 00.746-.5.813.813 0 00-.589-1.104.81.81 0 10-.157 1.604zm-9.5-137.5a.806.806 0 00.745-.5.811.811 0 00-.588-1.104.806.806 0 00-.965.794.812.812 0 00.808.81zm-38-33a.806.806 0 00.746-.5.812.812 0 00-.589-1.104.805.805 0 00-.964.794.81.81 0 00.807.81zm0 11a.805.805 0 00.746-.5.812.812 0 00-.588-1.104.805.805 0 00-.83.344.81.81 0 00.672 1.26zM19 193.308a.805.805 0 00.745-.499.813.813 0 00-.588-1.104.81.81 0 10-.157 1.603zm-9.5-137.5a.805.805 0 00.746-.499.812.812 0 00-.588-1.104.805.805 0 00-.83.344.811.811 0 00.672 1.26zm0-11a.806.806 0 00.792-.967.81.81 0 00-1.1-.59.808.808 0 00-.5.748.81.81 0 00.808.81zM19 182.31a.806.806 0 00.745-.5.813.813 0 00-.588-1.104.81.81 0 10-.157 1.604zM9.5 33.81a.805.805 0 00.746-.5.812.812 0 00-.588-1.104.805.805 0 00-.965.794.81.81 0 00.807.81zm9.5 93.5a.805.805 0 00.745-.5.813.813 0 00-.588-1.104.81.81 0 10-.157 1.604zm0 44a.814.814 0 00.745-.5.813.813 0 00-.588-1.104.81.81 0 10-.157 1.604zm0-55.001a.804.804 0 00.745-.499.813.813 0 00-.588-1.104.809.809 0 10-.157 1.603zm0 22.001a.806.806 0 00.745-.5.812.812 0 00-.588-1.104.81.81 0 10-.157 1.604zm0 11a.805.805 0 00.745-.5.813.813 0 00-.588-1.104.81.81 0 10-.157 1.604zm0 10.999a.805.805 0 00.791-.967.81.81 0 00-.634-.636.81.81 0 10-.157 1.603zM9.5 176.81a.806.806 0 00.746-.5.812.812 0 00-.588-1.104.81.81 0 10-.158 1.604zm0-22a.806.806 0 00.746-.5.812.812 0 00-.588-1.104.81.81 0 10-.158 1.604zm0-22a.806.806 0 00.746-.5.812.812 0 00-.588-1.104.81.81 0 10-.158 1.604zm0 10.999a.808.808 0 00.571-1.381.8.8 0 00-.88-.176.807.807 0 00-.498.748.81.81 0 00.807.809zm0 22a.808.808 0 00.571-1.381.8.8 0 00-.88-.176.807.807 0 00-.498.748.81.81 0 00.807.809zM19 105.31a.805.805 0 00.745-.5.813.813 0 00-.588-1.104.809.809 0 10-.157 1.604zm-9.5-38.5a.806.806 0 00.792-.968.81.81 0 00-1.1-.59.808.808 0 00-.5.748.81.81 0 00.808.81zm0 121a.806.806 0 00.746-.5.809.809 0 00-1.417-.76.812.812 0 00.67 1.26zm0-99a.805.805 0 00.746-.5.811.811 0 00-.588-1.104.805.805 0 00-.965.794.811.811 0 00.807.81zm0 33a.806.806 0 00.746-.5.812.812 0 00-.588-1.104.81.81 0 10-.158 1.604zm0-44a.806.806 0 00.792-.968.81.81 0 00-1.1-.59.808.808 0 00-.5.748.81.81 0 00.808.81zm0 22a.806.806 0 00.792-.968.81.81 0 00-.634-.636.806.806 0 00-.965.794.81.81 0 00.807.81zm0 10.999a.805.805 0 00.792-.967.806.806 0 00-1.463-.292.811.811 0 00.67 1.259zm19 77.001a.806.806 0 00.746-.5.813.813 0 00-.589-1.104.81.81 0 10-.157 1.604zm0-77.001a.804.804 0 00.746-.5.809.809 0 00-1.418-.759.813.813 0 00.363 1.198.8.8 0 00.31.061zm0-11a.806.806 0 00.746-.5.812.812 0 00-.589-1.103.805.805 0 00-.964.794.809.809 0 00.807.81zm0-11a.806.806 0 00.792-.967.81.81 0 00-.635-.636.804.804 0 00-.828.344.81.81 0 00.671 1.26zm0 33.001a.813.813 0 00.746-.5.813.813 0 00-.589-1.104.81.81 0 10-.157 1.604zm0 11a.805.805 0 00.746-.5.813.813 0 00-.589-1.104.81.81 0 10-.157 1.604zm0-55a.806.806 0 00.746-.5.812.812 0 00-.589-1.104.805.805 0 00-.964.794.809.809 0 00.807.81zm0-22a.806.806 0 00.746-.5.812.812 0 00-.589-1.104.805.805 0 00-.828.344.81.81 0 00.671 1.26zm0-33a.806.806 0 00.746-.5.812.812 0 00-.589-1.104.805.805 0 00-.964.794.811.811 0 00.807.81zM19 94.31a.806.806 0 00.746-.5.812.812 0 00-.589-1.104.805.805 0 00-.965.794.812.812 0 00.808.81zm9.5-60.5a.805.805 0 00.746-.5.812.812 0 00-.589-1.104.805.805 0 00-.964.794.81.81 0 00.807.81zm0 11a.806.806 0 00.746-.5.812.812 0 00-.589-1.104.806.806 0 00-.964.794.81.81 0 00.807.81zm0 98.999a.805.805 0 00.746-.499.813.813 0 00-.589-1.104.81.81 0 10-.157 1.603zm0-77a.806.806 0 00.746-.5.812.812 0 00-.589-1.103.805.805 0 00-.964.794.809.809 0 00.807.81zm0-55a.805.805 0 00.746-.5.812.812 0 00-.589-1.103.805.805 0 00-.964.794.81.81 0 00.807.81zM19 28.31a.806.806 0 00.746-.5.812.812 0 00-.589-1.103.805.805 0 00-.965.794.81.81 0 00.808.81zm0 22a.806.806 0 00.746-.5.812.812 0 00-.589-1.103.805.805 0 00-.965.794.811.811 0 00.808.81zm0-11a.806.806 0 00.745-.5.811.811 0 00-.588-1.103.804.804 0 00-.829.344.811.811 0 00.672 1.26zm0 22a.805.805 0 00.746-.5.812.812 0 00-.59-1.103.805.805 0 00-.964.794.81.81 0 00.808.81zm0 11a.805.805 0 00.746-.5.812.812 0 00-.589-1.103.805.805 0 00-.965.794.811.811 0 00.808.81zm0 11a.805.805 0 00.746-.5.812.812 0 00-.589-1.103.805.805 0 00-.965.794.811.811 0 00.808.81zm9.5 82.5a.805.805 0 00.746-.499.813.813 0 00-.589-1.104.81.81 0 10-.157 1.603zM19 17.309a.805.805 0 00.745-.5.811.811 0 00-.588-1.103.805.805 0 00-.965.794.81.81 0 00.808.81zm9.5 137.501a.806.806 0 00.746-.5.813.813 0 00-.589-1.104.81.81 0 10-.157 1.604zm0 22a.806.806 0 00.746-.5.813.813 0 00-.589-1.104.81.81 0 10-.157 1.604zM19 6.31a.806.806 0 00.745-.5.811.811 0 00-.588-1.104.805.805 0 00-.965.794.811.811 0 00.808.81zm19 186.999a.808.808 0 00.571-1.381.8.8 0 00-.88-.176.807.807 0 00-.498.748.81.81 0 00.807.809zm57-132a.805.805 0 00.746-.5.812.812 0 00-.588-1.103.805.805 0 00-.965.794.81.81 0 00.807.81zm0-55a.805.805 0 00.746-.499.812.812 0 00-.588-1.104.805.805 0 00-.965.794.81.81 0 00.807.81zm0 11a.806.806 0 00.792-.967.811.811 0 00-.634-.636.806.806 0 00-.965.794.81.81 0 00.807.81zm9.5 170.501a.814.814 0 00.746-.5.806.806 0 00-.176-.882.808.808 0 00-.879-.176.81.81 0 00.309 1.558zm0-11a.814.814 0 00.746-.5.806.806 0 00-.176-.882.798.798 0 00-.879-.176.807.807 0 00-.437 1.058.813.813 0 00.437.438.8.8 0 00.309.062zM95 28.31a.806.806 0 00.792-.968.81.81 0 00-.634-.636.806.806 0 00-.965.794.81.81 0 00.807.81zm0 11a.805.805 0 00.746-.5.811.811 0 00-.588-1.104.806.806 0 00-.965.794.812.812 0 00.807.81zm9.5 93.5a.814.814 0 00.746-.5.806.806 0 00-.176-.882.798.798 0 00-.879-.176.814.814 0 00-.499.748.805.805 0 00.237.573.798.798 0 00.571.237zm0 32.999a.8.8 0 00.448-.136.806.806 0 00.343-.831.813.813 0 00-.634-.636.807.807 0 00-.903 1.104.813.813 0 00.437.438.781.781 0 00.309.061zm0-43.999a.81.81 0 10-.309-1.558.807.807 0 00-.437 1.058.813.813 0 00.437.438.8.8 0 00.309.062zm0-11.001a.8.8 0 00.746-.5.81.81 0 00-1.056-1.057.81.81 0 00.31 1.557zm-9.5-60.5a.805.805 0 00.746-.499.812.812 0 00-.588-1.104.806.806 0 00-.965.794.81.81 0 00.807.81zm9.5 49.5a.809.809 0 10-.002-1.618.809.809 0 00.002 1.618zm0 55.001a.814.814 0 00.746-.5.806.806 0 00-.176-.882.798.798 0 00-.879-.176.814.814 0 00-.499.748.805.805 0 00.237.573.814.814 0 00.571.237zm0-11.001a.814.814 0 00.746-.499.813.813 0 00-.589-1.104.807.807 0 00-.903 1.104.813.813 0 00.437.438.781.781 0 00.309.061zM95 149.31a.806.806 0 00.746-.5.813.813 0 00-.175-.882.8.8 0 00-.88-.176.807.807 0 00-.498.748.809.809 0 00.807.81zm0 10.999a.805.805 0 00.792-.967.806.806 0 00-1.6.158.809.809 0 00.808.809zm0-32.999a.806.806 0 00.746-.5.813.813 0 00-.175-.882.807.807 0 00-1.378.572.809.809 0 00.807.81zm0 11a.806.806 0 00.746-.5.809.809 0 00-1.417-.76.813.813 0 00.1 1.022.806.806 0 00.57.238zm0 44a.806.806 0 00.746-.5.813.813 0 00-.175-.882.807.807 0 00-1.378.572.809.809 0 00.807.81zm0-11a.806.806 0 00.746-.5.813.813 0 00-.175-.882.8.8 0 00-.88-.176.807.807 0 00-.498.748.81.81 0 00.807.81zm19-165a.807.807 0 00.792-.968.807.807 0 10-1.538.468.816.816 0 00.437.438c.098.04.203.062.309.062zm-19 77a.805.805 0 00.746-.5.812.812 0 00-.588-1.104.806.806 0 00-.965.794.811.811 0 00.807.81zm0 32.999a.809.809 0 10-.67-1.259.812.812 0 00.1 1.022.805.805 0 00.57.237zm0-44a.805.805 0 00.746-.499.812.812 0 00-.588-1.104.805.805 0 00-.965.794.811.811 0 00.807.81zm0 22a.806.806 0 00.792-.967.81.81 0 00-1.1-.59.807.807 0 00-.5.748.811.811 0 00.808.81zm0 11.001a.806.806 0 00.746-.5.813.813 0 00-.175-.882.807.807 0 00-1.378.572.809.809 0 00.807.81zm9.5-60.5a.808.808 0 10-.002-1.617.808.808 0 00.002 1.616zm9.5 60.5a.807.807 0 00.792-.968.814.814 0 00-.635-.636.808.808 0 00-.728 1.367.814.814 0 00.571.237zm0-11a.808.808 0 00.792-.968.807.807 0 10-1.538.468.815.815 0 00.437.438c.098.04.203.061.309.061zm0-11a.807.807 0 00.792-.968.807.807 0 10-1.538.468.816.816 0 00.437.438c.098.04.203.062.309.062zm0-11a.808.808 0 00.792-.968.807.807 0 10-1.538.468.816.816 0 00.437.438c.098.04.203.061.309.061zm0 43.999a.806.806 0 00.792-.967.806.806 0 00-1.599.158.804.804 0 00.807.809zm0 11.001a.807.807 0 00.792-.968.814.814 0 00-.635-.636.808.808 0 00-.728 1.367.814.814 0 00.571.237zm0-88a.808.808 0 00.792-.968.807.807 0 00-1.599.158.808.808 0 00.807.81zm0 22a.808.808 0 00.57-1.383.8.8 0 00-.879-.175.81.81 0 00.309 1.557zm0-33a.808.808 0 00.792-.968.807.807 0 10-1.538.468.815.815 0 00.437.438c.098.04.203.062.309.062zm0-11a.808.808 0 00.792-.968.807.807 0 10-1.538.468.816.816 0 00.437.438c.098.04.203.061.309.061zm0 33a.807.807 0 00.792-.968.815.815 0 00-.635-.636.804.804 0 00-.828.344.81.81 0 00.671 1.26zm0 88a.807.807 0 00.571-1.382.809.809 0 10-.571 1.382zm0 11a.815.815 0 00.746-.5.815.815 0 00-.175-.882.8.8 0 00-.88-.176.81.81 0 00.309 1.558zm-9.5-126.5a.802.802 0 00.746-.5.808.808 0 00-1.418-.76.817.817 0 00-.074.76.8.8 0 00.437.438c.098.04.203.062.309.061zm0 33a.802.802 0 00.746-.5.808.808 0 00-1.418-.76.817.817 0 00-.074.76.8.8 0 00.437.438c.098.04.203.062.309.062zm0 33a.803.803 0 00.746-.5.808.808 0 00-1.055-1.058.81.81 0 00.309 1.557zM95 193.309a.809.809 0 10-.67-1.259.812.812 0 00.1 1.022.805.805 0 00.57.237zm9.5-126.5a.808.808 0 10-.002-1.617.808.808 0 00.002 1.617zm0 11a.809.809 0 10-.002-1.618.809.809 0 00.002 1.619zm0-44a.809.809 0 10-.808-.81.804.804 0 00.237.574.807.807 0 00.571.237zm9.5 126.5a.806.806 0 00.792-.967.818.818 0 00-.222-.415.8.8 0 00-.879-.175.807.807 0 00-.437 1.058.814.814 0 00.746.499zm0 11.001a.815.815 0 00.746-.5.815.815 0 00-.175-.882.8.8 0 00-.88-.176.81.81 0 00.309 1.558zm0 11a.807.807 0 00.792-.968.821.821 0 00-.221-.414.8.8 0 00-.88-.176.806.806 0 00-.498.748.804.804 0 00.498.748.8.8 0 00.309.062zm0 10.999a.806.806 0 00.792-.967.806.806 0 00-1.599.158.804.804 0 00.807.809zm-9.5-181.5a.808.808 0 10-.002-1.617.808.808 0 00.002 1.617zm-19 33a.806.806 0 00.792-.967.81.81 0 00-.635-.636.806.806 0 00-.964.794.811.811 0 00.807.81zM76 160.31a.805.805 0 00.791-.967.812.812 0 00-.634-.636.81.81 0 10-.157 1.603zm0 11.001a.814.814 0 00.746-.5.813.813 0 00-.589-1.104.809.809 0 10-.157 1.604zm0-33a.805.805 0 00.746-.5.812.812 0 00-.589-1.104.81.81 0 10-.157 1.604zm0 11a.813.813 0 00.746-.5.813.813 0 00-.589-1.104.809.809 0 10-.157 1.604zm0 43.999a.805.805 0 00.746-.499.813.813 0 00-.589-1.104.809.809 0 10-.157 1.603zm0-10.999a.806.806 0 00.746-.5.813.813 0 00-.589-1.104.809.809 0 10-.157 1.604zm0-110a.806.806 0 00.746-.5.812.812 0 00-.589-1.104.805.805 0 00-.965.794.81.81 0 00.808.81zm0 11a.805.805 0 00.746-.5.812.812 0 00-.589-1.104.804.804 0 00-.829.344.81.81 0 00.672 1.26zm-9.5-71.5a.806.806 0 00.792-.968.81.81 0 00-1.101-.59.808.808 0 00-.498.748.81.81 0 00.807.81zm9.5 115.5a.805.805 0 00.746-.5.814.814 0 00-.176-.882.8.8 0 00-.88-.176.807.807 0 00-.436 1.058.814.814 0 00.746.5zm0-33a.806.806 0 00.746-.5.813.813 0 00-.589-1.104.805.805 0 00-.965.794.81.81 0 00.808.81zm0 21.999a.804.804 0 00.746-.499.814.814 0 00-.176-.883.806.806 0 00-1.378.573.81.81 0 00.808.809zm-9.5-16.5a.805.805 0 00.746-.499.812.812 0 00-.588-1.104.806.806 0 00-.965.794.811.811 0 00.807.81zm0 11a.805.805 0 00.792-.967.806.806 0 00-1.6.158.808.808 0 00.808.809zm9.5-49.5a.806.806 0 00.791-.967.81.81 0 00-.634-.636.805.805 0 00-.965.794.81.81 0 00.808.81zm-9.5 60.501a.806.806 0 00.746-.5.812.812 0 00-.588-1.104.81.81 0 10-.158 1.604zm0-99a.806.806 0 00.746-.5.812.812 0 00-.588-1.104.805.805 0 00-.965.794.811.811 0 00.807.81zm0 66a.806.806 0 00.792-.968.81.81 0 00-1.1-.59.808.808 0 00-.263 1.32.807.807 0 00.57.238zm0 54.999a.808.808 0 00.571-1.381.8.8 0 00-.88-.176.807.807 0 00-.498.748.81.81 0 00.807.809zm0-10.999a.806.806 0 00.746-.5.812.812 0 00-.588-1.104.81.81 0 10-.158 1.604zm0-88a.806.806 0 00.792-.968.81.81 0 00-1.1-.59.807.807 0 00-.5.748.81.81 0 00.808.81zm0-11a.805.805 0 00.746-.5.812.812 0 00-.588-1.104.805.805 0 00-.965.794.81.81 0 00.807.81zm0 33a.805.805 0 00.746-.5.812.812 0 00-.588-1.104.806.806 0 00-.965.794.811.811 0 00.807.81zm0-11a.806.806 0 00.746-.5.812.812 0 00-.588-1.104.805.805 0 00-.965.794.81.81 0 00.807.81zm0 22a.806.806 0 00.792-.968.81.81 0 00-1.1-.59.807.807 0 00-.5.748.811.811 0 00.808.81zm9.5 27.5a.805.805 0 00.746-.5.814.814 0 00-.176-.882.8.8 0 00-.88-.176.813.813 0 00-.436 1.058.814.814 0 00.746.5zm9.5 16.5a.814.814 0 00.746-.5.813.813 0 00-.589-1.104.81.81 0 10-.157 1.604zm0-66a.806.806 0 00.792-.968.81.81 0 00-.635-.636.806.806 0 00-.903 1.104.81.81 0 00.746.5zm0-22a.805.805 0 00.746-.5.81.81 0 00-.589-1.104.805.805 0 00-.964.794.811.811 0 00.807.81zm-19 121a.806.806 0 00.746-.5.812.812 0 00-.588-1.104.81.81 0 10-.158 1.604zm19-132a.806.806 0 00.792-.968.81.81 0 00-.635-.636.806.806 0 00-.964.794.811.811 0 00.807.81zm0 110a.806.806 0 00.746-.5.813.813 0 00-.589-1.104.81.81 0 10-.157 1.604zm0 10.999a.805.805 0 00.746-.499.813.813 0 00-.589-1.104.81.81 0 10-.157 1.603zm0-66a.806.806 0 00.792-.967.81.81 0 00-.635-.636.806.806 0 00-.964.794.811.811 0 00.807.81zm0 11a.807.807 0 00.792-.967.811.811 0 00-.635-.636.804.804 0 00-.828.344.81.81 0 00.671 1.26zm0 22a.804.804 0 00.746-.5.81.81 0 00-1.055-1.057.806.806 0 00-.498.748.812.812 0 00.498.748.8.8 0 00.31.061zm0-11a.805.805 0 00.746-.5.812.812 0 00-.589-1.103.805.805 0 00-.964.794.811.811 0 00.807.81zM76 50.31a.805.805 0 00.746-.5.812.812 0 00-.589-1.103.805.805 0 00-.965.794.811.811 0 00.808.81zm9.5 115.5a.805.805 0 00.746-.499.813.813 0 00-.589-1.104.81.81 0 10-.157 1.603zM76 17.309a.806.806 0 00.746-.5.812.812 0 00-.589-1.103.805.805 0 00-.965.794.81.81 0 00.808.81zm9.5-5.5a.806.806 0 00.746-.5.812.812 0 00-.589-1.103.805.805 0 00-.964.794.81.81 0 00.807.81zM76 6.31a.806.806 0 00.791-.967.81.81 0 00-.634-.636.805.805 0 00-.965.794.811.811 0 00.808.81zm0 33a.806.806 0 00.791-.967.81.81 0 00-1.1-.59.807.807 0 00-.437 1.058.81.81 0 00.746.5zm0-11a.806.806 0 00.746-.5.812.812 0 00-.589-1.103.805.805 0 00-.965.794.812.812 0 00.808.81zm9.5 159.501a.806.806 0 00.746-.5.813.813 0 00-.589-1.104.81.81 0 10-.157 1.604zm0-33a.806.806 0 00.746-.5.813.813 0 00-.589-1.104.81.81 0 10-.157 1.604zm0-88a.806.806 0 00.792-.968.81.81 0 00-.635-.636.806.806 0 00-.964.794.811.811 0 00.807.81zm0 110a.806.806 0 00.746-.5.813.813 0 00-.589-1.104.81.81 0 10-.157 1.604z" fill="#63D0FF"/></svg>